<svg xmlns="http://www.w3.org/2000/svg" version="1.1" viewBox="0 0 378.4899439789051 305.03114976535403" width="378.4899439789051" height="305.03114976535403">
  <defs>
    <style>
      @import url("/assets/css/fonts.css");
      svg { font-size: 16px; font-family: "Inter", sans-serif; }
    </style>
  </defs>
  <g stroke-linecap="round" transform="translate(10 10) rotate(0 179.24497198945255 142.51557488267702)">
    <path d="M32 0 C96.01 -0.62, 159.52 0.59, 326.49 0 C344.88 0.81, 355.74 13.91, 358.49 32 C359.82 116.27, 360.66 201.56, 358.49 253.03 C354.99 273.63, 347.55 286.32, 326.49 285.03 C214.87 285.42, 98.52 284.38, 32 285.03 C10.91 282.57, 3.47 277.22, 0 253.03 C-4.75 193.41, -2.08 136.24, 0 32 C-3.25 7.16, 12.37 1.22, 32 0" stroke="none" stroke-width="0" fill="#8888ff"/>
    <path d="M32 0 C124.32 1.39, 215.82 -0.29, 326.49 0 M32 0 C143.07 2.59, 255.63 2.47, 326.49 0 M326.49 0 C346.86 -1.27, 359.89 9.52, 358.49 32 M326.49 0 C346.99 0.62, 360.36 10.84, 358.49 32 M358.49 32 C357.57 118.22, 358.1 209.03, 358.49 253.03 M358.49 32 C359.34 117.01, 359.21 202.8, 358.49 253.03 M358.49 253.03 C359.81 272.73, 347.96 283.88, 326.49 285.03 M358.49 253.03 C359.44 276.34, 348.24 286.22, 326.49 285.03 M326.49 285.03 C239.01 285.61, 153.59 284.85, 32 285.03 M326.49 285.03 C251.28 283.61, 177.61 282.71, 32 285.03 M32 285.03 C11.57 284.92, 0.97 276.28, 0 253.03 M32 285.03 C11.57 285.28, 1.39 275.11, 0 253.03 M0 253.03 C2.32 199.69, 0.91 144.22, 0 32 M0 253.03 C-0.52 195.22, -0.13 138.13, 0 32 M0 32 C-1.26 11.79, 11.2 -1.62, 32 0 M0 32 C-2.21 8.64, 10.65 0.54, 32 0" stroke="#ffffff" stroke-width="1" fill="none"/>
  </g>
  <g stroke-linecap="round" transform="translate(34.086403166761556 128.51089938805137) rotate(0 157.80769423861102 38.3330192901304)">
    <path d="M19.17 0 C84.2 -2.67, 146.92 0, 296.45 0 C310.53 0.75, 319.03 5.75, 315.62 19.17 C318.44 28.78, 319.28 38.28, 315.62 57.5 C314.61 67.05, 312.19 79.43, 296.45 76.67 C195.09 74.32, 89.88 74.98, 19.17 76.67 C3.17 73.58, 0.06 67.96, 0 57.5 C-3.12 48.25, 1.29 33.91, 0 19.17 C0.97 5.69, 9.11 0.3, 19.17 0" stroke="none" stroke-width="0" fill="#ff80b3"/>
    <path d="M19.17 0 C120.56 -0.89, 222.28 -1.12, 296.45 0 M19.17 0 C88.97 -1.03, 159.01 -1.11, 296.45 0 M296.45 0 C309.44 -0.66, 314.24 8.35, 315.62 19.17 M296.45 0 C310.27 0.21, 317.75 5.25, 315.62 19.17 M315.62 19.17 C316.9 28.51, 316.99 43.17, 315.62 57.5 M315.62 19.17 C315.99 33.86, 315.04 47.24, 315.62 57.5 M315.62 57.5 C315.99 72.08, 309.68 75, 296.45 76.67 M315.62 57.5 C315.09 72.4, 309.77 77.38, 296.45 76.67 M296.45 76.67 C212.97 77.04, 128.13 77.1, 19.17 76.67 M296.45 76.67 C193.14 77.6, 90.04 77.8, 19.17 76.67 M19.17 76.67 C5.65 74.76, -1.87 69.62, 0 57.5 M19.17 76.67 C4.45 74.61, 0.96 68.12, 0 57.5 M0 57.5 C1.36 49.01, -1.28 36.13, 0 19.17 M0 57.5 C-0.8 47.67, 0.56 39.41, 0 19.17 M0 19.17 C-1.16 7.87, 7.88 -0.82, 19.17 0 M0 19.17 C-1.91 5.25, 4.89 -0.66, 19.17 0" stroke="transparent" stroke-width="1" fill="none"/>
  </g>
  <g transform="translate(159.51909740537303 157.64391867818176) rotate(0 32.375 9.2)">
    <text x="32.375" y="0" fill="#ffffff" text-anchor="middle" style="white-space: pre;" direction="ltr" dominant-baseline="text-before-edge">Message</text>
  </g>
  <g transform="translate(34.08640279365136 31.42163495354498) rotate(0 53.67499923706055 9.200000000000003)">
    <text x="0" y="0" fill="#ffffff" text-anchor="start" style="white-space: pre;" direction="ltr" dominant-baseline="text-before-edge">Announcement</text>
  </g>
  <g stroke-linecap="round" transform="translate(34.086403155768494 67.90804170597728) rotate(0 157.80769400000008 25.06389752325083)">
    <path d="M12.53 0 C97.48 -0.9, 184.29 -0.42, 303.08 0 C308.71 0.61, 314.89 3.66, 315.62 12.53 C312.63 15.55, 319.45 25.83, 315.62 37.6 C313.64 47.19, 308.31 50.19, 303.08 50.13 C226.1 50.29, 143.23 46.5, 12.53 50.13 C1.26 49.91, -1.92 43.95, 0 37.6 C-1.85 31.9, 2.46 24.55, 0 12.53 C3.43 2.67, 5.38 -2.78, 12.53 0" stroke="none" stroke-width="0" fill="#ff80b3"/>
    <path d="M12.53 0 C123.79 -1.73, 232.45 -0.44, 303.08 0 M12.53 0 C100.71 0.09, 189.2 0.3, 303.08 0 M303.08 0 C312.24 -0.29, 317.41 4.02, 315.62 12.53 M303.08 0 C312.56 0.94, 316.99 2.42, 315.62 12.53 M315.62 12.53 C316.69 20.15, 315.98 28.86, 315.62 37.6 M315.62 12.53 C315.44 20.41, 315.32 27.19, 315.62 37.6 M315.62 37.6 C316.47 47.01, 311.83 50.74, 303.08 50.13 M315.62 37.6 C315.74 47.48, 309.86 51.26, 303.08 50.13 M303.08 50.13 C188.33 49.7, 71.85 49.15, 12.53 50.13 M303.08 50.13 C242.1 50.16, 181.47 51.2, 12.53 50.13 M12.53 50.13 C3.94 49.44, 0.85 45.58, 0 37.6 M12.53 50.13 C5.18 51.55, -2.19 48.22, 0 37.6 M0 37.6 C1.21 26.09, -1.77 16.71, 0 12.53 M0 37.6 C0.96 28.25, -0.05 19.94, 0 12.53 M0 12.53 C-0.48 5.5, 2.77 -1.48, 12.53 0 M0 12.53 C-1.45 4.55, 6.16 -1.45, 12.53 0" stroke="transparent" stroke-width="1" fill="none"/>
  </g>
  <g transform="translate(162.63159639282912 83.77193922922811) rotate(0 29.262500762939453 9.200000000000003)">
    <text x="29.262500762939453" y="0" fill="#ffffff" text-anchor="middle" style="white-space: pre;" direction="ltr" dominant-baseline="text-before-edge">Node ID</text>
  </g>
  <g stroke-linecap="round" transform="translate(34.08640271441618 218.07197417537148) rotate(0 157.80769422067624 27.109607533198556)">
    <path d="M13.55 0 C119.59 -4.14, 230.02 -0.7, 302.06 0 C310.88 0.31, 317.84 7.95, 315.62 13.55 C312.74 26.15, 312.7 29.26, 315.62 40.66 C317.6 47.17, 307.72 51.48, 302.06 54.22 C192.51 52.15, 75.87 53.62, 13.55 54.22 C3.1 54.22, 0.62 52.7, 0 40.66 C-3.16 31.04, -0.54 23.1, 0 13.55 C-2.81 4.05, 1.92 -3.57, 13.55 0" stroke="none" stroke-width="0" fill="#ffa083"/>
    <path d="M13.55 0 C102.43 1.46, 190.51 1.57, 302.06 0 M13.55 0 C72.96 1.26, 133.29 1.59, 302.06 0 M302.06 0 C310.07 1.24, 315.17 4.31, 315.62 13.55 M302.06 0 C311.07 -0.18, 314.93 2.8, 315.62 13.55 M315.62 13.55 C313.62 21.6, 316.39 27.52, 315.62 40.66 M315.62 13.55 C315.61 22.65, 315.17 30.62, 315.62 40.66 M315.62 40.66 C316.05 50.66, 311.62 53.7, 302.06 54.22 M315.62 40.66 C316.84 50.17, 312.94 54.41, 302.06 54.22 M302.06 54.22 C229.75 51.88, 157.65 52.64, 13.55 54.22 M302.06 54.22 C197.2 52.24, 91.55 52.95, 13.55 54.22 M13.55 54.22 C6.39 52.75, -0.48 50.1, 0 40.66 M13.55 54.22 C6.66 54.81, 0.8 50.52, 0 40.66 M0 40.66 C-1.57 32.84, -0.99 24.07, 0 13.55 M0 40.66 C-0.49 32.22, -0.45 25.51, 0 13.55 M0 13.55 C0.8 3.53, 3.63 0.73, 13.55 0 M0 13.55 C0.68 3.2, 5.9 -1.43, 13.55 0" stroke="transparent" stroke-width="1" fill="none"/>
  </g>
  <g transform="translate(157.73159846097133 235.98158170857005) rotate(0 34.162498474121094 9.199999999999996)">
    <text x="34.162498474121094" y="0" fill="#ffffff" text-anchor="middle" style="white-space: pre;" direction="ltr" dominant-baseline="text-before-edge">Signature</text>
  </g>
</svg>
