<?xml version="1.0" encoding="UTF-8" standalone="no"?><svg xmlns="http://www.w3.org/2000/svg" xmlns:xlink="http://www.w3.org/1999/xlink" contentScriptType="application/ecmascript" contentStyleType="text/css" height="389px" preserveAspectRatio="none" style="width:511px;height:389px;" version="1.1" viewBox="0 0 511 389" width="511px" zoomAndPan="magnify"><defs><filter height="300%" id="ffdwaiyedg4rq" width="300%" x="-1" y="-1"><feGaussianBlur result="blurOut" stdDeviation="2.0"/><feColorMatrix in="blurOut" result="blurOut2" type="matrix" values="0 0 0 0 0 0 0 0 0 0 0 0 0 0 0 0 0 0 .4 0"/><feOffset dx="4.0" dy="4.0" in="blurOut2" result="blurOut3"/><feBlend in="SourceGraphic" in2="blurOut3" mode="normal"/></filter></defs><g><line style="stroke: #A80036; stroke-width: 1.0; stroke-dasharray: 5.0,5.0;" x1="26" x2="26" y1="89.0679" y2="299.304"/><line style="stroke: #A80036; stroke-width: 1.0; stroke-dasharray: 5.0,5.0;" x1="169" x2="169" y1="89.0679" y2="299.304"/><line style="stroke: #A80036; stroke-width: 1.0; stroke-dasharray: 5.0,5.0;" x1="273" x2="273" y1="89.0679" y2="299.304"/><line style="stroke: #A80036; stroke-width: 1.0; stroke-dasharray: 5.0,5.0;" x1="410.5" x2="410.5" y1="89.0679" y2="299.304"/><line style="stroke: #A80036; stroke-width: 1.0; stroke-dasharray: 5.0,5.0;" x1="476.5" x2="476.5" y1="89.0679" y2="299.304"/><text fill="#000000" font-family="sans-serif" font-size="14" lengthAdjust="spacingAndGlyphs" textLength="31" x="8" y="84.9659">User</text><ellipse cx="26.5" cy="13" fill="#FEFECE" filter="url(#ffdwaiyedg4rq)" rx="8" ry="8" style="stroke: #A80036; stroke-width: 2.0;"/><path d="M26.5,21 L26.5,48 M13.5,29 L39.5,29 M26.5,48 L13.5,63 M26.5,48 L39.5,63 " fill="none" filter="url(#ffdwaiyedg4rq)" style="stroke: #A80036; stroke-width: 2.0;"/><text fill="#000000" font-family="sans-serif" font-size="14" lengthAdjust="spacingAndGlyphs" textLength="31" x="8" y="313.27">User</text><ellipse cx="26.5" cy="327.3719" fill="#FEFECE" filter="url(#ffdwaiyedg4rq)" rx="8" ry="8" style="stroke: #A80036; stroke-width: 2.0;"/><path d="M26.5,335.3719 L26.5,362.3719 M13.5,343.3719 L39.5,343.3719 M26.5,362.3719 L13.5,377.3719 M26.5,362.3719 L39.5,377.3719 " fill="none" filter="url(#ffdwaiyedg4rq)" style="stroke: #A80036; stroke-width: 2.0;"/><rect fill="#FEFECE" filter="url(#ffdwaiyedg4rq)" height="33.0679" style="stroke: #A80036; stroke-width: 1.5;" width="33" x="151" y="51"/><text fill="#000000" font-family="sans-serif" font-size="14" lengthAdjust="spacingAndGlyphs" textLength="19" x="158" y="72.9659">Git</text><rect fill="#FEFECE" filter="url(#ffdwaiyedg4rq)" height="33.0679" style="stroke: #A80036; stroke-width: 1.5;" width="33" x="151" y="298.304"/><text fill="#000000" font-family="sans-serif" font-size="14" lengthAdjust="spacingAndGlyphs" textLength="19" x="158" y="320.27">Git</text><rect fill="#FEFECE" filter="url(#ffdwaiyedg4rq)" height="33.0679" style="stroke: #A80036; stroke-width: 1.5;" width="59" x="242" y="51"/><text fill="#000000" font-family="sans-serif" font-size="14" lengthAdjust="spacingAndGlyphs" textLength="45" x="249" y="72.9659">Helper</text><rect fill="#FEFECE" filter="url(#ffdwaiyedg4rq)" height="33.0679" style="stroke: #A80036; stroke-width: 1.5;" width="59" x="242" y="298.304"/><text fill="#000000" font-family="sans-serif" font-size="14" lengthAdjust="spacingAndGlyphs" textLength="45" x="249" y="320.27">Helper</text><rect fill="#FEFECE" filter="url(#ffdwaiyedg4rq)" height="33.0679" style="stroke: #A80036; stroke-width: 1.5;" width="50" x="383.5" y="51"/><text fill="#000000" font-family="sans-serif" font-size="14" lengthAdjust="spacingAndGlyphs" textLength="36" x="390.5" y="72.9659">Node</text><rect fill="#FEFECE" filter="url(#ffdwaiyedg4rq)" height="33.0679" style="stroke: #A80036; stroke-width: 1.5;" width="50" x="383.5" y="298.304"/><text fill="#000000" font-family="sans-serif" font-size="14" lengthAdjust="spacingAndGlyphs" textLength="36" x="390.5" y="320.27">Node</text><text fill="#000000" font-family="sans-serif" font-size="14" lengthAdjust="spacingAndGlyphs" textLength="52" x="447.5" y="84.9659">Storage</text><path d="M458.5,34 C458.5,24 476.5,24 476.5,24 C476.5,24 494.5,24 494.5,34 L494.5,60 C494.5,70 476.5,70 476.5,70 C476.5,70 458.5,70 458.5,60 L458.5,34 " fill="#FEFECE" filter="url(#ffdwaiyedg4rq)" style="stroke: #000000; stroke-width: 1.5;"/><path d="M458.5,34 C458.5,44 476.5,44 476.5,44 C476.5,44 494.5,44 494.5,34 " fill="none" style="stroke: #000000; stroke-width: 1.5;"/><text fill="#000000" font-family="sans-serif" font-size="14" lengthAdjust="spacingAndGlyphs" textLength="52" x="447.5" y="313.27">Storage</text><path d="M458.5,327.3719 C458.5,317.3719 476.5,317.3719 476.5,317.3719 C476.5,317.3719 494.5,317.3719 494.5,327.3719 L494.5,353.3719 C494.5,363.3719 476.5,363.3719 476.5,363.3719 C476.5,363.3719 458.5,363.3719 458.5,353.3719 L458.5,327.3719 " fill="#FEFECE" filter="url(#ffdwaiyedg4rq)" style="stroke: #000000; stroke-width: 1.5;"/><path d="M458.5,327.3719 C458.5,337.3719 476.5,337.3719 476.5,337.3719 C476.5,337.3719 494.5,337.3719 494.5,327.3719 " fill="none" style="stroke: #000000; stroke-width: 1.5;"/><polygon fill="#A80036" points="157.5,118.7739,167.5,122.7739,157.5,126.7739,161.5,122.7739" style="stroke: #A80036; stroke-width: 1.0;"/><line style="stroke: #A80036; stroke-width: 1.0;" x1="26.5" x2="163.5" y1="122.7739" y2="122.7739"/><text fill="#000000" font-family="sans-serif" font-size="13" lengthAdjust="spacingAndGlyphs" textLength="119" x="33.5" y="116.9649">"git push rad HEAD"</text><polygon fill="#A80036" points="261.5,150.4799,271.5,154.4799,261.5,158.4799,265.5,154.4799" style="stroke: #A80036; stroke-width: 1.0;"/><line style="stroke: #A80036; stroke-width: 1.0;" x1="169.5" x2="267.5" y1="154.4799" y2="154.4799"/><text fill="#000000" font-family="sans-serif" font-size="13" lengthAdjust="spacingAndGlyphs" textLength="80" x="176.5" y="148.6709">"push to RID"</text><polygon fill="#A80036" points="464.5,182.186,474.5,186.186,464.5,190.186,468.5,186.186" style="stroke: #A80036; stroke-width: 1.0;"/><line style="stroke: #A80036; stroke-width: 1.0;" x1="273.5" x2="470.5" y1="186.186" y2="186.186"/><text fill="#000000" font-family="sans-serif" font-size="13" lengthAdjust="spacingAndGlyphs" textLength="102" x="280.5" y="180.377">"update storage"</text><polygon fill="#A80036" points="398.5,213.892,408.5,217.892,398.5,221.892,402.5,217.892" style="stroke: #A80036; stroke-width: 1.0;"/><line style="stroke: #A80036; stroke-width: 1.0;" x1="273.5" x2="404.5" y1="217.892" y2="217.892"/><text fill="#000000" font-family="sans-serif" font-size="13" lengthAdjust="spacingAndGlyphs" textLength="113" x="280.5" y="212.083">"notify of changes"</text><polygon fill="#A80036" points="180.5,245.598,170.5,249.598,180.5,253.598,176.5,249.598" style="stroke: #A80036; stroke-width: 1.0;"/><line style="stroke: #A80036; stroke-width: 1.0;" x1="174.5" x2="272.5" y1="249.598" y2="249.598"/><text fill="#000000" font-family="sans-serif" font-size="13" lengthAdjust="spacingAndGlyphs" textLength="28" x="186.5" y="243.789">"OK"</text><polygon fill="#A80036" points="37.5,277.304,27.5,281.304,37.5,285.304,33.5,281.304" style="stroke: #A80036; stroke-width: 1.0;"/><line style="stroke: #A80036; stroke-width: 1.0;" x1="31.5" x2="168.5" y1="281.304" y2="281.304"/><text fill="#000000" font-family="sans-serif" font-size="13" lengthAdjust="spacingAndGlyphs" textLength="28" x="43.5" y="275.495">"OK"</text><!--MD5=[f5f5d50a0b75b04305d2540112785c74]
@startuml
actor User
participant Git
participant Helper
participant Node
database Storage

User -> Git: "git push rad HEAD"
Git -> Helper: "push to RID"
Helper -> Storage: "update storage"
Helper -> Node: "notify of changes"
Helper -> Git: "OK"
Git -> User: "OK"
@enduml

PlantUML version 1.2020.02(Sun Mar 01 10:22:07 UTC 2020)
(GPL source distribution)
Java Runtime: OpenJDK Runtime Environment
JVM: OpenJDK 64-Bit Server VM
Java Version: 21.0.5-ea+8-Debian-1
Operating System: Linux
Default Encoding: UTF-8
Language: en
Country: US
--></g></svg>