<?xml version="1.0" encoding="UTF-8" standalone="no"?><svg xmlns="http://www.w3.org/2000/svg" xmlns:xlink="http://www.w3.org/1999/xlink" contentScriptType="application/ecmascript" contentStyleType="text/css" height="357px" preserveAspectRatio="none" style="width:360px;height:357px;" version="1.1" viewBox="0 0 360 357" width="360px" zoomAndPan="magnify"><defs><filter height="300%" id="f195dzxcf9db1i" width="300%" x="-1" y="-1"><feGaussianBlur result="blurOut" stdDeviation="2.0"/><feColorMatrix in="blurOut" result="blurOut2" type="matrix" values="0 0 0 0 0 0 0 0 0 0 0 0 0 0 0 0 0 0 .4 0"/><feOffset dx="4.0" dy="4.0" in="blurOut2" result="blurOut3"/><feBlend in="SourceGraphic" in2="blurOut3" mode="normal"/></filter></defs><g><line style="stroke: #A80036; stroke-width: 1.0; stroke-dasharray: 5.0,5.0;" x1="26" x2="26" y1="89.0679" y2="267.598"/><line style="stroke: #A80036; stroke-width: 1.0; stroke-dasharray: 5.0,5.0;" x1="135.5" x2="135.5" y1="89.0679" y2="267.598"/><line style="stroke: #A80036; stroke-width: 1.0; stroke-dasharray: 5.0,5.0;" x1="257.5" x2="257.5" y1="89.0679" y2="267.598"/><line style="stroke: #A80036; stroke-width: 1.0; stroke-dasharray: 5.0,5.0;" x1="324.5" x2="324.5" y1="89.0679" y2="267.598"/><text fill="#000000" font-family="sans-serif" font-size="14" lengthAdjust="spacingAndGlyphs" textLength="31" x="8" y="84.9659">User</text><ellipse cx="26.5" cy="13" fill="#FEFECE" filter="url(#f195dzxcf9db1i)" rx="8" ry="8" style="stroke: #A80036; stroke-width: 2.0;"/><path d="M26.5,21 L26.5,48 M13.5,29 L39.5,29 M26.5,48 L13.5,63 M26.5,48 L39.5,63 " fill="none" filter="url(#f195dzxcf9db1i)" style="stroke: #A80036; stroke-width: 2.0;"/><text fill="#000000" font-family="sans-serif" font-size="14" lengthAdjust="spacingAndGlyphs" textLength="31" x="8" y="281.5639">User</text><ellipse cx="26.5" cy="295.6659" fill="#FEFECE" filter="url(#f195dzxcf9db1i)" rx="8" ry="8" style="stroke: #A80036; stroke-width: 2.0;"/><path d="M26.5,303.6659 L26.5,330.6659 M13.5,311.6659 L39.5,311.6659 M26.5,330.6659 L13.5,345.6659 M26.5,330.6659 L39.5,345.6659 " fill="none" filter="url(#f195dzxcf9db1i)" style="stroke: #A80036; stroke-width: 2.0;"/><rect fill="#FEFECE" filter="url(#f195dzxcf9db1i)" height="33.0679" style="stroke: #A80036; stroke-width: 1.5;" width="50" x="108.5" y="51"/><text fill="#000000" font-family="sans-serif" font-size="14" lengthAdjust="spacingAndGlyphs" textLength="36" x="115.5" y="72.9659">Node</text><rect fill="#FEFECE" filter="url(#f195dzxcf9db1i)" height="33.0679" style="stroke: #A80036; stroke-width: 1.5;" width="50" x="108.5" y="266.598"/><text fill="#000000" font-family="sans-serif" font-size="14" lengthAdjust="spacingAndGlyphs" textLength="36" x="115.5" y="288.5639">Node</text><text fill="#000000" font-family="sans-serif" font-size="14" lengthAdjust="spacingAndGlyphs" textLength="52" x="228.5" y="84.9659">Storage</text><path d="M239.5,34 C239.5,24 257.5,24 257.5,24 C257.5,24 275.5,24 275.5,34 L275.5,60 C275.5,70 257.5,70 257.5,70 C257.5,70 239.5,70 239.5,60 L239.5,34 " fill="#FEFECE" filter="url(#f195dzxcf9db1i)" style="stroke: #000000; stroke-width: 1.5;"/><path d="M239.5,34 C239.5,44 257.5,44 257.5,44 C257.5,44 275.5,44 275.5,34 " fill="none" style="stroke: #000000; stroke-width: 1.5;"/><text fill="#000000" font-family="sans-serif" font-size="14" lengthAdjust="spacingAndGlyphs" textLength="52" x="228.5" y="281.5639">Storage</text><path d="M239.5,295.6659 C239.5,285.6659 257.5,285.6659 257.5,285.6659 C257.5,285.6659 275.5,285.6659 275.5,295.6659 L275.5,321.6659 C275.5,331.6659 257.5,331.6659 257.5,331.6659 C257.5,331.6659 239.5,331.6659 239.5,321.6659 L239.5,295.6659 " fill="#FEFECE" filter="url(#f195dzxcf9db1i)" style="stroke: #000000; stroke-width: 1.5;"/><path d="M239.5,295.6659 C239.5,305.6659 257.5,305.6659 257.5,305.6659 C257.5,305.6659 275.5,305.6659 275.5,295.6659 " fill="none" style="stroke: #000000; stroke-width: 1.5;"/><rect fill="#FEFECE" filter="url(#f195dzxcf9db1i)" height="33.0679" style="stroke: #A80036; stroke-width: 1.5;" width="53" x="296.5" y="51"/><text fill="#000000" font-family="sans-serif" font-size="14" lengthAdjust="spacingAndGlyphs" textLength="39" x="303.5" y="72.9659">Other</text><rect fill="#FEFECE" filter="url(#f195dzxcf9db1i)" height="33.0679" style="stroke: #A80036; stroke-width: 1.5;" width="53" x="296.5" y="266.598"/><text fill="#000000" font-family="sans-serif" font-size="14" lengthAdjust="spacingAndGlyphs" textLength="39" x="303.5" y="288.5639">Other</text><polygon fill="#A80036" points="123.5,118.7739,133.5,122.7739,123.5,126.7739,127.5,122.7739" style="stroke: #A80036; stroke-width: 1.0;"/><line style="stroke: #A80036; stroke-width: 1.0;" x1="26.5" x2="129.5" y1="122.7739" y2="122.7739"/><text fill="#000000" font-family="sans-serif" font-size="13" lengthAdjust="spacingAndGlyphs" textLength="85" x="33.5" y="116.9649">"rad seed RID"</text><polygon fill="#A80036" points="313,150.4799,323,154.4799,313,158.4799,317,154.4799" style="stroke: #A80036; stroke-width: 1.0;"/><line style="stroke: #A80036; stroke-width: 1.0;" x1="135.5" x2="319" y1="154.4799" y2="154.4799"/><text fill="#000000" font-family="sans-serif" font-size="13" lengthAdjust="spacingAndGlyphs" textLength="83" x="142.5" y="148.6709">"git fetch RID"</text><polygon fill="#A80036" points="146.5,182.186,136.5,186.186,146.5,190.186,142.5,186.186" style="stroke: #A80036; stroke-width: 1.0;"/><line style="stroke: #A80036; stroke-width: 1.0;" x1="140.5" x2="324" y1="186.186" y2="186.186"/><text fill="#000000" font-family="sans-serif" font-size="13" lengthAdjust="spacingAndGlyphs" textLength="78" x="152.5" y="180.377">"Git pack file"</text><polygon fill="#A80036" points="245.5,213.892,255.5,217.892,245.5,221.892,249.5,217.892" style="stroke: #A80036; stroke-width: 1.0;"/><line style="stroke: #A80036; stroke-width: 1.0;" x1="135.5" x2="251.5" y1="217.892" y2="217.892"/><text fill="#000000" font-family="sans-serif" font-size="13" lengthAdjust="spacingAndGlyphs" textLength="98" x="142.5" y="212.083">"add repository"</text><polygon fill="#A80036" points="37.5,245.598,27.5,249.598,37.5,253.598,33.5,249.598" style="stroke: #A80036; stroke-width: 1.0;"/><line style="stroke: #A80036; stroke-width: 1.0;" x1="31.5" x2="134.5" y1="249.598" y2="249.598"/><text fill="#000000" font-family="sans-serif" font-size="13" lengthAdjust="spacingAndGlyphs" textLength="28" x="43.5" y="243.789">"OK"</text><!--MD5=[74dcec0b4e931ede0d8d23a1c0ebbe0c]
@startuml
actor User
participant Node
database Storage

User -> Node: "rad seed RID"
Node -> Other: "git fetch RID"
Other -> Node: "Git pack file"
Node -> Storage: "add repository"
Node -> User: "OK"
@enduml

PlantUML version 1.2020.02(Sun Mar 01 10:22:07 UTC 2020)
(GPL source distribution)
Java Runtime: OpenJDK Runtime Environment
JVM: OpenJDK 64-Bit Server VM
Java Version: 21.0.5-ea+8-Debian-1
Operating System: Linux
Default Encoding: UTF-8
Language: en
Country: US
--></g></svg>