<?xml version="1.0" encoding="UTF-8" standalone="no"?><svg xmlns="http://www.w3.org/2000/svg" xmlns:xlink="http://www.w3.org/1999/xlink" contentScriptType="application/ecmascript" contentStyleType="text/css" height="421px" preserveAspectRatio="none" style="width:560px;height:421px;" version="1.1" viewBox="0 0 560 421" width="560px" zoomAndPan="magnify"><defs><filter height="300%" id="fwmwc1paex2g6" width="300%" x="-1" y="-1"><feGaussianBlur result="blurOut" stdDeviation="2.0"/><feColorMatrix in="blurOut" result="blurOut2" type="matrix" values="0 0 0 0 0 0 0 0 0 0 0 0 0 0 0 0 0 0 .4 0"/><feOffset dx="4.0" dy="4.0" in="blurOut2" result="blurOut3"/><feBlend in="SourceGraphic" in2="blurOut3" mode="normal"/></filter></defs><g><line style="stroke: #A80036; stroke-width: 1.0; stroke-dasharray: 5.0,5.0;" x1="26" x2="26" y1="89.0679" y2="331.01"/><line style="stroke: #A80036; stroke-width: 1.0; stroke-dasharray: 5.0,5.0;" x1="162" x2="162" y1="89.0679" y2="331.01"/><line style="stroke: #A80036; stroke-width: 1.0; stroke-dasharray: 5.0,5.0;" x1="275" x2="275" y1="89.0679" y2="331.01"/><line style="stroke: #A80036; stroke-width: 1.0; stroke-dasharray: 5.0,5.0;" x1="344" x2="344" y1="89.0679" y2="331.01"/><line style="stroke: #A80036; stroke-width: 1.0; stroke-dasharray: 5.0,5.0;" x1="410" x2="410" y1="89.0679" y2="331.01"/><line style="stroke: #A80036; stroke-width: 1.0; stroke-dasharray: 5.0,5.0;" x1="501" x2="501" y1="89.0679" y2="331.01"/><text fill="#000000" font-family="sans-serif" font-size="14" lengthAdjust="spacingAndGlyphs" textLength="31" x="8" y="84.9659">User</text><ellipse cx="26.5" cy="13" fill="#FEFECE" filter="url(#fwmwc1paex2g6)" rx="8" ry="8" style="stroke: #A80036; stroke-width: 2.0;"/><path d="M26.5,21 L26.5,48 M13.5,29 L39.5,29 M26.5,48 L13.5,63 M26.5,48 L39.5,63 " fill="none" filter="url(#fwmwc1paex2g6)" style="stroke: #A80036; stroke-width: 2.0;"/><text fill="#000000" font-family="sans-serif" font-size="14" lengthAdjust="spacingAndGlyphs" textLength="31" x="8" y="344.976">User</text><ellipse cx="26.5" cy="359.0779" fill="#FEFECE" filter="url(#fwmwc1paex2g6)" rx="8" ry="8" style="stroke: #A80036; stroke-width: 2.0;"/><path d="M26.5,367.0779 L26.5,394.0779 M13.5,375.0779 L39.5,375.0779 M26.5,394.0779 L13.5,409.0779 M26.5,394.0779 L39.5,409.0779 " fill="none" filter="url(#fwmwc1paex2g6)" style="stroke: #A80036; stroke-width: 2.0;"/><rect fill="#FEFECE" filter="url(#fwmwc1paex2g6)" height="33.0679" style="stroke: #A80036; stroke-width: 1.5;" width="33" x="144" y="51"/><text fill="#000000" font-family="sans-serif" font-size="14" lengthAdjust="spacingAndGlyphs" textLength="19" x="151" y="72.9659">Git</text><rect fill="#FEFECE" filter="url(#fwmwc1paex2g6)" height="33.0679" style="stroke: #A80036; stroke-width: 1.5;" width="33" x="144" y="330.01"/><text fill="#000000" font-family="sans-serif" font-size="14" lengthAdjust="spacingAndGlyphs" textLength="19" x="151" y="351.976">Git</text><rect fill="#FEFECE" filter="url(#fwmwc1paex2g6)" height="33.0679" style="stroke: #A80036; stroke-width: 1.5;" width="59" x="244" y="51"/><text fill="#000000" font-family="sans-serif" font-size="14" lengthAdjust="spacingAndGlyphs" textLength="45" x="251" y="72.9659">Helper</text><rect fill="#FEFECE" filter="url(#fwmwc1paex2g6)" height="33.0679" style="stroke: #A80036; stroke-width: 1.5;" width="59" x="244" y="330.01"/><text fill="#000000" font-family="sans-serif" font-size="14" lengthAdjust="spacingAndGlyphs" textLength="45" x="251" y="351.976">Helper</text><rect fill="#FEFECE" filter="url(#fwmwc1paex2g6)" height="33.0679" style="stroke: #A80036; stroke-width: 1.5;" width="50" x="317" y="51"/><text fill="#000000" font-family="sans-serif" font-size="14" lengthAdjust="spacingAndGlyphs" textLength="36" x="324" y="72.9659">Node</text><rect fill="#FEFECE" filter="url(#fwmwc1paex2g6)" height="33.0679" style="stroke: #A80036; stroke-width: 1.5;" width="50" x="317" y="330.01"/><text fill="#000000" font-family="sans-serif" font-size="14" lengthAdjust="spacingAndGlyphs" textLength="36" x="324" y="351.976">Node</text><text fill="#000000" font-family="sans-serif" font-size="14" lengthAdjust="spacingAndGlyphs" textLength="52" x="381" y="84.9659">Storage</text><path d="M392,34 C392,24 410,24 410,24 C410,24 428,24 428,34 L428,60 C428,70 410,70 410,70 C410,70 392,70 392,60 L392,34 " fill="#FEFECE" filter="url(#fwmwc1paex2g6)" style="stroke: #000000; stroke-width: 1.5;"/><path d="M392,34 C392,44 410,44 410,44 C410,44 428,44 428,34 " fill="none" style="stroke: #000000; stroke-width: 1.5;"/><text fill="#000000" font-family="sans-serif" font-size="14" lengthAdjust="spacingAndGlyphs" textLength="52" x="381" y="344.976">Storage</text><path d="M392,359.0779 C392,349.0779 410,349.0779 410,349.0779 C410,349.0779 428,349.0779 428,359.0779 L428,385.0779 C428,395.0779 410,395.0779 410,395.0779 C410,395.0779 392,395.0779 392,385.0779 L392,359.0779 " fill="#FEFECE" filter="url(#fwmwc1paex2g6)" style="stroke: #000000; stroke-width: 1.5;"/><path d="M392,359.0779 C392,369.0779 410,369.0779 410,369.0779 C410,369.0779 428,369.0779 428,359.0779 " fill="none" style="stroke: #000000; stroke-width: 1.5;"/><rect fill="#FEFECE" filter="url(#fwmwc1paex2g6)" height="33.0679" style="stroke: #A80036; stroke-width: 1.5;" width="100" x="449" y="51"/><text fill="#000000" font-family="sans-serif" font-size="14" lengthAdjust="spacingAndGlyphs" textLength="86" x="456" y="72.9659">WorkingTree</text><rect fill="#FEFECE" filter="url(#fwmwc1paex2g6)" height="33.0679" style="stroke: #A80036; stroke-width: 1.5;" width="100" x="449" y="330.01"/><text fill="#000000" font-family="sans-serif" font-size="14" lengthAdjust="spacingAndGlyphs" textLength="86" x="456" y="351.976">WorkingTree</text><polygon fill="#A80036" points="150.5,118.7739,160.5,122.7739,150.5,126.7739,154.5,122.7739" style="stroke: #A80036; stroke-width: 1.0;"/><line style="stroke: #A80036; stroke-width: 1.0;" x1="26.5" x2="156.5" y1="122.7739" y2="122.7739"/><text fill="#000000" font-family="sans-serif" font-size="13" lengthAdjust="spacingAndGlyphs" textLength="112" x="33.5" y="116.9649">"rad checkout RID"</text><polygon fill="#A80036" points="263.5,150.4799,273.5,154.4799,263.5,158.4799,267.5,154.4799" style="stroke: #A80036; stroke-width: 1.0;"/><line style="stroke: #A80036; stroke-width: 1.0;" x1="162.5" x2="269.5" y1="154.4799" y2="154.4799"/><text fill="#000000" font-family="sans-serif" font-size="13" lengthAdjust="spacingAndGlyphs" textLength="89" x="169.5" y="148.6709">"where is RID?"</text><polygon fill="#A80036" points="173.5,182.186,163.5,186.186,173.5,190.186,169.5,186.186" style="stroke: #A80036; stroke-width: 1.0;"/><line style="stroke: #A80036; stroke-width: 1.0;" x1="167.5" x2="274.5" y1="186.186" y2="186.186"/><text fill="#000000" font-family="sans-serif" font-size="13" lengthAdjust="spacingAndGlyphs" textLength="78" x="179.5" y="180.377">"path to RID"</text><polygon fill="#A80036" points="398,213.892,408,217.892,398,221.892,402,217.892" style="stroke: #A80036; stroke-width: 1.0;"/><line style="stroke: #A80036; stroke-width: 1.0;" x1="162.5" x2="404" y1="217.892" y2="217.892"/><text fill="#000000" font-family="sans-serif" font-size="13" lengthAdjust="spacingAndGlyphs" textLength="95" x="169.5" y="212.083">"get repository"</text><polygon fill="#A80036" points="173.5,245.598,163.5,249.598,173.5,253.598,169.5,249.598" style="stroke: #A80036; stroke-width: 1.0;"/><line style="stroke: #A80036; stroke-width: 1.0;" x1="167.5" x2="409" y1="249.598" y2="249.598"/><text fill="#000000" font-family="sans-serif" font-size="13" lengthAdjust="spacingAndGlyphs" textLength="118" x="179.5" y="243.789">"repository objects"</text><polygon fill="#A80036" points="489,277.304,499,281.304,489,285.304,493,281.304" style="stroke: #A80036; stroke-width: 1.0;"/><line style="stroke: #A80036; stroke-width: 1.0;" x1="162.5" x2="495" y1="281.304" y2="281.304"/><text fill="#000000" font-family="sans-serif" font-size="13" lengthAdjust="spacingAndGlyphs" textLength="84" x="169.5" y="275.495">"git checkout"</text><polygon fill="#A80036" points="37.5,309.01,27.5,313.01,37.5,317.01,33.5,313.01" style="stroke: #A80036; stroke-width: 1.0;"/><line style="stroke: #A80036; stroke-width: 1.0;" x1="31.5" x2="161.5" y1="313.01" y2="313.01"/><text fill="#000000" font-family="sans-serif" font-size="13" lengthAdjust="spacingAndGlyphs" textLength="28" x="43.5" y="307.201">"OK"</text><!--MD5=[97f1acecc33ed8d85eadf81b9ea85e63]
@startuml
actor User
participant Git
participant Helper
participant Node
database Storage

User -> Git: "rad checkout RID"
Git -> Helper: "where is RID?"
Helper -> Git: "path to RID"
Git -> Storage: "get repository"
Storage -> Git: "repository objects"
Git -> WorkingTree: "git checkout"
Git -> User: "OK"
@enduml

PlantUML version 1.2020.02(Sun Mar 01 10:22:07 UTC 2020)
(GPL source distribution)
Java Runtime: OpenJDK Runtime Environment
JVM: OpenJDK 64-Bit Server VM
Java Version: 21.0.5-ea+8-Debian-1
Operating System: Linux
Default Encoding: UTF-8
Language: en
Country: US
--></g></svg>