<svg width="11" height="11" viewBox="0 0 11 11" fill="none" xmlns="http://www.w3.org/2000/svg">
  <g shape-rendering="crispEdges">
    <rect x="6" y="1" width="1" height="1" fill="#5D275D"/>
    <rect x="4" y="2" width="1" height="1" fill="#257179"/>
    <rect x="5" y="2" width="1" height="1" fill="#257179"/>
    <rect x="6" y="2" width="1" height="1" fill="#5D275D"/>
    <rect x="3" y="3" width="1" height="1" fill="#257179"/>
    <rect x="4" y="3" width="1" height="1" fill="#5D275D"/>
    <rect x="5" y="3" width="1" height="1" fill="#5D275D"/>
    <rect x="6" y="3" width="1" height="1" fill="#257179"/>
    <rect x="2" y="4" width="1" height="1" fill="#257179"/>
    <rect x="3" y="4" width="1" height="1" fill="#5D275D"/>
    <rect x="4" y="4" width="1" height="1" fill="#1A1C2C"/>
    <rect x="5" y="4" width="1" height="1" fill="#1A1C2C"/>
    <rect x="6" y="4" width="1" height="1" fill="#5D275D"/>
    <rect x="7" y="4" width="1" height="1" fill="#257179"/>
    <rect x="1" y="5" width="1" height="1" fill="#257179"/>
    <rect x="2" y="5" width="1" height="1" fill="#5D275D"/>
    <rect x="3" y="5" width="1" height="1" fill="#5D275D"/>
    <rect x="4" y="5" width="1" height="1" fill="#1A1C2C"/>
    <rect x="5" y="5" width="1" height="1" fill="#1A1C2C"/>
    <rect x="6" y="5" width="1" height="1" fill="#5D275D"/>
    <rect x="7" y="5" width="1" height="1" fill="#5D275D"/>
    <rect x="8" y="5" width="1" height="1" fill="#257179"/>
    <rect x="2" y="6" width="1" height="1" fill="#5D275D"/>
    <rect x="3" y="6" width="1" height="1" fill="#5D275D"/>
    <rect x="4" y="6" width="1" height="1" fill="#5D275D"/>
    <rect x="5" y="6" width="1" height="1" fill="#5D275D"/>
    <rect x="6" y="6" width="1" height="1" fill="#5D275D"/>
    <rect x="7" y="6" width="1" height="1" fill="#5D275D"/>
    <rect x="2" y="7" width="1" height="1" fill="#5D275D"/>
    <rect x="3" y="7" width="1" height="1" fill="#5D275D"/>
    <rect x="4" y="7" width="1" height="1" fill="#B13E53"/>
    <rect x="5" y="7" width="1" height="1" fill="#B13E53"/>
    <rect x="6" y="7" width="1" height="1" fill="#5D275D"/>
    <rect x="7" y="7" width="1" height="1" fill="#5D275D"/>
    <rect x="2" y="8" width="1" height="1" fill="#5D275D"/>
    <rect x="3" y="8" width="1" height="1" fill="#5D275D"/>
    <rect x="4" y="8" width="1" height="1" fill="#257179"/>
    <rect x="5" y="8" width="1" height="1" fill="#B13E53"/>
    <rect x="6" y="8" width="1" height="1" fill="#5D275D"/>
    <rect x="7" y="8" width="1" height="1" fill="#5D275D"/>
    <rect x="0" y="9" width="1" height="1" fill="#257179"/>
    <rect x="1" y="9" width="1" height="1" fill="#257179"/>
    <rect x="2" y="9" width="1" height="1" fill="#5D275D"/>
    <rect x="3" y="9" width="1" height="1" fill="#5D275D"/>
    <rect x="4" y="9" width="1" height="1" fill="#B13E53"/>
    <rect x="5" y="9" width="1" height="1" fill="#B13E53"/>
    <rect x="6" y="9" width="1" height="1" fill="#5D275D"/>
    <rect x="7" y="9" width="1" height="1" fill="#5D275D"/>
    <rect x="8" y="9" width="1" height="1" fill="#257179"/>
    <rect x="9" y="9" width="1" height="1" fill="#257179"/>
    <rect x="2" y="10" width="1" height="1" fill="#257179"/>
    <rect x="3" y="10" width="1" height="1" fill="#257179"/>
    <rect x="4" y="10" width="1" height="1" fill="#257179"/>
    <rect x="5" y="10" width="1" height="1" fill="#257179"/>
    <rect x="6" y="10" width="1" height="1" fill="#257179"/>
    <rect x="7" y="10" width="1" height="1" fill="#257179"/>
  </g>
</svg>
