<svg xmlns="http://www.w3.org/2000/svg" version="1.1" viewBox="0 0 337.2430718281753 731.1541034420761" width="337.2430718281753" height="731.1541034420761">
  <defs>
    <style>
      @import url("/assets/css/fonts.css");
      svg { font-size: 16px; font-family: "Inter", sans-serif; }
    </style>
  </defs>
  <g stroke-linecap="round" transform="translate(52.20518097095419 503.2862482615314) rotate(0 53.390605406266786 38.0736284454527)">
    <path d="M19.04 0 C37.56 0, 56.09 0, 87.74 0 C100.44 0, 106.78 6.35, 106.78 19.04 C106.78 31.03, 106.78 43.03, 106.78 57.11 C106.78 69.8, 100.44 76.15, 87.74 76.15 C63.19 76.15, 38.64 76.15, 19.04 76.15 C6.35 76.15, 0 69.8, 0 57.11 C0 44.83, 0 32.55, 0 19.04 C0 6.35, 6.35 0, 19.04 0" stroke="none" stroke-width="0" fill="#ee9944"/>
    <path d="M19.04 0 C37.43 0, 55.83 0, 87.74 0 M19.04 0 C35.8 0, 52.56 0, 87.74 0 M87.74 0 C100.44 0, 106.78 6.35, 106.78 19.04 M87.74 0 C100.44 0, 106.78 6.35, 106.78 19.04 M106.78 19.04 C106.78 31.75, 106.78 44.45, 106.78 57.11 M106.78 19.04 C106.78 30.5, 106.78 41.96, 106.78 57.11 M106.78 57.11 C106.78 69.8, 100.44 76.15, 87.74 76.15 M106.78 57.11 C106.78 69.8, 100.44 76.15, 87.74 76.15 M87.74 76.15 C65.1 76.15, 42.46 76.15, 19.04 76.15 M87.74 76.15 C60.52 76.15, 33.3 76.15, 19.04 76.15 M19.04 76.15 C6.35 76.15, 0 69.8, 0 57.11 M19.04 76.15 C6.35 76.15, 0 69.8, 0 57.11 M0 57.11 C0 48.53, 0 39.95, 0 19.04 M0 57.11 C0 43.92, 0 30.74, 0 19.04 M0 19.04 C0 6.35, 6.35 0, 19.04 0 M0 19.04 C0 6.35, 6.35 0, 19.04 0" stroke="#ffffff" stroke-width="1" fill="none"/>
  </g>
  <g transform="translate(71.00828485134207 532.159876706984) rotate(0 34.587501525878906 9.199999999999989)">
    <text x="34.587501525878906" y="0" fill="#ffffff" text-anchor="middle" style="white-space: pre;" direction="ltr" dominant-baseline="text-before-edge">Comment</text>
  </g>
  <g stroke-linecap="round" transform="translate(10 352.14874786706235) rotate(0 53.390605406266786 38.0736284454527)">
    <path d="M19.04 0 C46.02 0, 73 0, 87.74 0 C100.44 0, 106.78 6.35, 106.78 19.04 C106.78 27.55, 106.78 36.07, 106.78 57.11 C106.78 69.8, 100.44 76.15, 87.74 76.15 C66.86 76.15, 45.98 76.15, 19.04 76.15 C6.35 76.15, 0 69.8, 0 57.11 C0 42.88, 0 28.65, 0 19.04 C0 6.35, 6.35 0, 19.04 0" stroke="none" stroke-width="0" fill="#ee9944"/>
    <path d="M19.04 0 C36.36 0, 53.68 0, 87.74 0 M19.04 0 C44.07 0, 69.1 0, 87.74 0 M87.74 0 C100.44 0, 106.78 6.35, 106.78 19.04 M87.74 0 C100.44 0, 106.78 6.35, 106.78 19.04 M106.78 19.04 C106.78 30.85, 106.78 42.67, 106.78 57.11 M106.78 19.04 C106.78 33.9, 106.78 48.76, 106.78 57.11 M106.78 57.11 C106.78 69.8, 100.44 76.15, 87.74 76.15 M106.78 57.11 C106.78 69.8, 100.44 76.15, 87.74 76.15 M87.74 76.15 C67.84 76.15, 47.93 76.15, 19.04 76.15 M87.74 76.15 C62.26 76.15, 36.78 76.15, 19.04 76.15 M19.04 76.15 C6.35 76.15, 0 69.8, 0 57.11 M19.04 76.15 C6.35 76.15, 0 69.8, 0 57.11 M0 57.11 C0 47.25, 0 37.4, 0 19.04 M0 57.11 C0 43.71, 0 30.31, 0 19.04 M0 19.04 C0 6.35, 6.35 0, 19.04 0 M0 19.04 C0 6.35, 6.35 0, 19.04 0" stroke="#ffffff" stroke-width="1" fill="none"/>
  </g>
  <g transform="translate(28.80310388038788 371.822376312515) rotate(0 34.587501525878906 18.399999999999977)">
    <text x="34.587501525878906" y="0" fill="#ffffff" text-anchor="middle" style="white-space: pre;" direction="ltr" dominant-baseline="text-before-edge">Edit</text>
    <text x="34.587501525878906" y="18.4" fill="#ffffff" text-anchor="middle" style="white-space: pre;" direction="ltr" dominant-baseline="text-before-edge">Comment</text>
  </g>
  <g stroke-linecap="round" transform="translate(220.46186101564126 475.0142432140772) rotate(0 53.390605406267014 38.0736284454527)">
    <path d="M19.04 0 C45.48 0, 71.92 0, 87.74 0 C100.44 0, 106.78 6.35, 106.78 19.04 C106.78 33.93, 106.78 48.82, 106.78 57.11 C106.78 69.8, 100.44 76.15, 87.74 76.15 C63.25 76.15, 38.76 76.15, 19.04 76.15 C6.35 76.15, 0 69.8, 0 57.11 C0 48.18, 0 39.25, 0 19.04 C0 6.35, 6.35 0, 19.04 0" stroke="none" stroke-width="0" fill="#cc6666"/>
    <path d="M19.04 0 C44.68 0, 70.32 0, 87.74 0 M19.04 0 C36.96 0, 54.89 0, 87.74 0 M87.74 0 C100.44 0, 106.78 6.35, 106.78 19.04 M87.74 0 C100.44 0, 106.78 6.35, 106.78 19.04 M106.78 19.04 C106.78 29.99, 106.78 40.95, 106.78 57.11 M106.78 19.04 C106.78 32.93, 106.78 46.83, 106.78 57.11 M106.78 57.11 C106.78 69.8, 100.44 76.15, 87.74 76.15 M106.78 57.11 C106.78 69.8, 100.44 76.15, 87.74 76.15 M87.74 76.15 C72.27 76.15, 56.8 76.15, 19.04 76.15 M87.74 76.15 C62 76.15, 36.25 76.15, 19.04 76.15 M19.04 76.15 C6.35 76.15, 0 69.8, 0 57.11 M19.04 76.15 C6.35 76.15, 0 69.8, 0 57.11 M0 57.11 C0 48.41, 0 39.71, 0 19.04 M0 57.11 C0 46.93, 0 36.75, 0 19.04 M0 19.04 C0 6.35, 6.35 0, 19.04 0 M0 19.04 C0 6.35, 6.35 0, 19.04 0" stroke="#ffffff" stroke-width="1" fill="none"/>
  </g>
  <g transform="translate(254.32746680337777 503.88787165952994) rotate(0 19.524999618530273 9.199999999999989)">
    <text x="19.524999618530273" y="0" fill="#ffffff" text-anchor="middle" style="white-space: pre;" direction="ltr" dominant-baseline="text-before-edge">Label</text>
  </g>
  <g stroke-linecap="round" transform="translate(144.39080882045937 10) rotate(0 53.390605406266786 38.07362844545273)">
    <path d="M19.04 0 C45.97 0, 72.9 0, 87.74 0 C100.44 0, 106.78 6.35, 106.78 19.04 C106.78 33.64, 106.78 48.24, 106.78 57.11 C106.78 69.8, 100.44 76.15, 87.74 76.15 C70.16 76.15, 52.58 76.15, 19.04 76.15 C6.35 76.15, 0 69.8, 0 57.11 C0 46.48, 0 35.86, 0 19.04 C0 6.35, 6.35 0, 19.04 0" stroke="none" stroke-width="0" fill="#8888ff"/>
    <path d="M19.04 0 C42.15 0, 65.26 0, 87.74 0 M19.04 0 C43.53 0, 68.02 0, 87.74 0 M87.74 0 C100.44 0, 106.78 6.35, 106.78 19.04 M87.74 0 C100.44 0, 106.78 6.35, 106.78 19.04 M106.78 19.04 C106.78 32.97, 106.78 46.91, 106.78 57.11 M106.78 19.04 C106.78 30.92, 106.78 42.8, 106.78 57.11 M106.78 57.11 C106.78 69.8, 100.44 76.15, 87.74 76.15 M106.78 57.11 C106.78 69.8, 100.44 76.15, 87.74 76.15 M87.74 76.15 C71.59 76.15, 55.43 76.15, 19.04 76.15 M87.74 76.15 C70.01 76.15, 52.27 76.15, 19.04 76.15 M19.04 76.15 C6.35 76.15, 0 69.8, 0 57.11 M19.04 76.15 C6.35 76.15, 0 69.8, 0 57.11 M0 57.11 C0 45.95, 0 34.8, 0 19.04 M0 57.11 C0 43.02, 0 28.93, 0 19.04 M0 19.04 C0 6.35, 6.35 0, 19.04 0 M0 19.04 C0 6.35, 6.35 0, 19.04 0" stroke="#ffffff" stroke-width="1" fill="none"/>
  </g>
  <g transform="translate(177.38141460819588 38.87362844545271) rotate(0 20.399999618530273 9.199999999999989)">
    <text x="20.399999618530273" y="0" fill="#ffffff" text-anchor="middle" style="white-space: pre;" direction="ltr" dominant-baseline="text-before-edge">Close</text>
  </g>
  <g stroke-linecap="round" transform="translate(187.97719679494912 296.7109886655805) rotate(0 53.390605406267014 38.0736284454527)">
    <path d="M19.04 0 C36.88 0, 54.72 0, 87.74 0 C100.44 0, 106.78 6.35, 106.78 19.04 C106.78 28.84, 106.78 38.63, 106.78 57.11 C106.78 69.8, 100.44 76.15, 87.74 76.15 C65.36 76.15, 42.98 76.15, 19.04 76.15 C6.35 76.15, 0 69.8, 0 57.11 C0 45.16, 0 33.21, 0 19.04 C0 6.35, 6.35 0, 19.04 0" stroke="none" stroke-width="0" fill="#cc6666"/>
    <path d="M19.04 0 C35.04 0, 51.04 0, 87.74 0 M19.04 0 C41.39 0, 63.73 0, 87.74 0 M87.74 0 C100.44 0, 106.78 6.35, 106.78 19.04 M87.74 0 C100.44 0, 106.78 6.35, 106.78 19.04 M106.78 19.04 C106.78 28.25, 106.78 37.46, 106.78 57.11 M106.78 19.04 C106.78 32.5, 106.78 45.97, 106.78 57.11 M106.78 57.11 C106.78 69.8, 100.44 76.15, 87.74 76.15 M106.78 57.11 C106.78 69.8, 100.44 76.15, 87.74 76.15 M87.74 76.15 C61.46 76.15, 35.17 76.15, 19.04 76.15 M87.74 76.15 C65.07 76.15, 42.4 76.15, 19.04 76.15 M19.04 76.15 C6.35 76.15, 0 69.8, 0 57.11 M19.04 76.15 C6.35 76.15, 0 69.8, 0 57.11 M0 57.11 C0 43.44, 0 29.77, 0 19.04 M0 57.11 C0 43.92, 0 30.73, 0 19.04 M0 19.04 C0 6.35, 6.35 0, 19.04 0 M0 19.04 C0 6.35, 6.35 0, 19.04 0" stroke="#ffffff" stroke-width="1" fill="none"/>
  </g>
  <g transform="translate(206.780300675337 325.5846171110332) rotate(0 34.587501525878906 9.199999999999989)">
    <text x="34.587501525878906" y="0" fill="#ffffff" text-anchor="middle" style="white-space: pre;" direction="ltr" dominant-baseline="text-before-edge">Comment</text>
  </g>
  <g stroke-linecap="round" transform="translate(155.08269948085263 145.33589324399912) rotate(0 53.390605406266786 38.0736284454527)">
    <path d="M19.04 0 C35.7 0, 52.37 0, 87.74 0 C100.44 0, 106.78 6.35, 106.78 19.04 C106.78 28.23, 106.78 37.43, 106.78 57.11 C106.78 69.8, 100.44 76.15, 87.74 76.15 C63.36 76.15, 38.98 76.15, 19.04 76.15 C6.35 76.15, 0 69.8, 0 57.11 C0 45.29, 0 33.46, 0 19.04 C0 6.35, 6.35 0, 19.04 0" stroke="none" stroke-width="0" fill="#ee9944"/>
    <path d="M19.04 0 C43.52 0, 68 0, 87.74 0 M19.04 0 C44.65 0, 70.26 0, 87.74 0 M87.74 0 C100.44 0, 106.78 6.35, 106.78 19.04 M87.74 0 C100.44 0, 106.78 6.35, 106.78 19.04 M106.78 19.04 C106.78 26.9, 106.78 34.76, 106.78 57.11 M106.78 19.04 C106.78 32.66, 106.78 46.29, 106.78 57.11 M106.78 57.11 C106.78 69.8, 100.44 76.15, 87.74 76.15 M106.78 57.11 C106.78 69.8, 100.44 76.15, 87.74 76.15 M87.74 76.15 C73.7 76.15, 59.66 76.15, 19.04 76.15 M87.74 76.15 C73.36 76.15, 58.97 76.15, 19.04 76.15 M19.04 76.15 C6.35 76.15, 0 69.8, 0 57.11 M19.04 76.15 C6.35 76.15, 0 69.8, 0 57.11 M0 57.11 C0 48.14, 0 39.16, 0 19.04 M0 57.11 C0 46.42, 0 35.72, 0 19.04 M0 19.04 C0 6.35, 6.35 0, 19.04 0 M0 19.04 C0 6.35, 6.35 0, 19.04 0" stroke="#ffffff" stroke-width="1" fill="none"/>
  </g>
  <g transform="translate(173.8858033612405 174.20952168945183) rotate(0 34.587501525878906 9.199999999999989)">
    <text x="34.587501525878906" y="0" fill="#ffffff" text-anchor="middle" style="white-space: pre;" direction="ltr" dominant-baseline="text-before-edge">Comment</text>
  </g>
  <g stroke-linecap="round" transform="translate(127.9580125852658 645.0068465511706) rotate(0 53.390605406266786 38.073628445452755)">
    <path d="M19.04 0 C41.22 0, 63.4 0, 87.74 0 C100.44 0, 106.78 6.35, 106.78 19.04 C106.78 33.33, 106.78 47.63, 106.78 57.11 C106.78 69.8, 100.44 76.15, 87.74 76.15 C62.03 76.15, 36.31 76.15, 19.04 76.15 C6.35 76.15, 0 69.8, 0 57.11 C0 44.23, 0 31.36, 0 19.04 C0 6.35, 6.35 0, 19.04 0" stroke="none" stroke-width="0" fill="#cc6666"/>
    <path d="M19.04 0 C43.59 0, 68.13 0, 87.74 0 M19.04 0 C33.69 0, 48.34 0, 87.74 0 M87.74 0 C100.44 0, 106.78 6.35, 106.78 19.04 M87.74 0 C100.44 0, 106.78 6.35, 106.78 19.04 M106.78 19.04 C106.78 28.99, 106.78 38.94, 106.78 57.11 M106.78 19.04 C106.78 32.46, 106.78 45.89, 106.78 57.11 M106.78 57.11 C106.78 69.8, 100.44 76.15, 87.74 76.15 M106.78 57.11 C106.78 69.8, 100.44 76.15, 87.74 76.15 M87.74 76.15 C64.06 76.15, 40.37 76.15, 19.04 76.15 M87.74 76.15 C66.5 76.15, 45.25 76.15, 19.04 76.15 M19.04 76.15 C6.35 76.15, 0 69.8, 0 57.11 M19.04 76.15 C6.35 76.15, 0 69.8, 0 57.11 M0 57.11 C0 42.24, 0 27.36, 0 19.04 M0 57.11 C0 42.61, 0 28.11, 0 19.04 M0 19.04 C0 6.35, 6.35 0, 19.04 0 M0 19.04 C0 6.35, 6.35 0, 19.04 0" stroke="#ffffff" stroke-width="1" fill="none"/>
  </g>
  <g transform="translate(161.83611722859314 673.8804749966234) rotate(0 19.512500762939453 9.200000000000045)">
    <text x="19.512500762939453" y="0" fill="#ffffff" text-anchor="middle" style="white-space: pre;" direction="ltr" dominant-baseline="text-before-edge">Open</text>
  </g>
  <g stroke-linecap="round">
    <g transform="translate(273.5801078482923 557.1236558333646) rotate(0 -43.10167375418246 40.21628481155915)">
      <path d="M0 0 C-14.37 13.41, -71.84 67.03, -86.2 80.43 M0 0 C-14.37 13.41, -71.84 67.03, -86.2 80.43" stroke="#cc6666" stroke-width="1" fill="none"/>
    </g>
    <g transform="translate(273.5801078482923 557.1236558333646) rotate(0 -43.10167375418246 40.21628481155915)">
      <path d="M-86.2 80.43 L-80.59 66.52 L-71.94 75.79 L-86.2 80.43" stroke="none" stroke-width="0" fill="#cc6666" fill-rule="evenodd"/>
      <path d="M-86.2 80.43 C-84.52 76.26, -82.83 72.09, -80.59 66.52 M-86.2 80.43 C-84.96 77.36, -83.72 74.28, -80.59 66.52 M-80.59 66.52 C-77.68 69.64, -74.78 72.75, -71.94 75.79 M-80.59 66.52 C-77.98 69.32, -75.37 72.12, -71.94 75.79 M-71.94 75.79 C-76.82 77.38, -81.71 78.97, -86.2 80.43 M-71.94 75.79 C-75.14 76.83, -78.34 77.87, -86.2 80.43 M-86.2 80.43 C-86.2 80.43, -86.2 80.43, -86.2 80.43 M-86.2 80.43 C-86.2 80.43, -86.2 80.43, -86.2 80.43" stroke="#cc6666" stroke-width="1" fill="none"/>
    </g>
  </g>
  <mask/>
  <g stroke-linecap="round">
    <g transform="translate(240.46317562151398 381.8763467092097) rotate(0 17.75419340240819 43.356592404533046)">
      <path d="M0 0 C5.92 14.45, 29.59 72.26, 35.51 86.71 M0 0 C5.92 14.45, 29.59 72.26, 35.51 86.71" stroke="#cc6666" stroke-width="1" fill="none"/>
    </g>
    <g transform="translate(240.46317562151398 381.8763467092097) rotate(0 17.75419340240819 43.356592404533046)">
      <path d="M35.51 86.71 L24.49 76.53 L36.22 71.73 L35.51 86.71" stroke="none" stroke-width="0" fill="#cc6666" fill-rule="evenodd"/>
      <path d="M35.51 86.71 C31.39 82.91, 27.28 79.11, 24.49 76.53 M35.51 86.71 C32.24 83.69, 28.97 80.67, 24.49 76.53 M24.49 76.53 C27.83 75.17, 31.17 73.8, 36.22 71.73 M24.49 76.53 C28.54 74.88, 32.59 73.22, 36.22 71.73 M36.22 71.73 C35.97 76.95, 35.72 82.17, 35.51 86.71 M36.22 71.73 C36.03 75.82, 35.83 79.91, 35.51 86.71 M35.51 86.71 C35.51 86.71, 35.51 86.71, 35.51 86.71 M35.51 86.71 C35.51 86.71, 35.51 86.71, 35.51 86.71" stroke="#cc6666" stroke-width="1" fill="none"/>
    </g>
  </g>
  <mask/>
  <g stroke-linecap="round">
    <g transform="translate(65.84128582151789 434.88471388600186) rotate(0 17.074172468658162 31.160364755301202)">
      <path d="M0 0 C5.69 10.39, 28.46 51.93, 34.15 62.32 M0 0 C5.69 10.39, 28.46 51.93, 34.15 62.32" stroke="#ee9944" stroke-width="1" fill="none"/>
    </g>
    <g transform="translate(65.84128582151789 434.88471388600186) rotate(0 17.074172468658162 31.160364755301202)">
      <path d="M34.15 62.32 L22.06 53.44 L33.18 47.35 L34.15 62.32" stroke="none" stroke-width="0" fill="#ee9944" fill-rule="evenodd"/>
      <path d="M34.15 62.32 C31.07 60.06, 28 57.81, 22.06 53.44 M34.15 62.32 C31.71 60.53, 29.28 58.75, 22.06 53.44 M22.06 53.44 C26.38 51.07, 30.71 48.7, 33.18 47.35 M22.06 53.44 C26.08 51.24, 30.1 49.04, 33.18 47.35 M33.18 47.35 C33.42 51.1, 33.66 54.84, 34.15 62.32 M33.18 47.35 C33.39 50.69, 33.61 54.02, 34.15 62.32 M34.15 62.32 C34.15 62.32, 34.15 62.32, 34.15 62.32 M34.15 62.32 C34.15 62.32, 34.15 62.32, 34.15 62.32" stroke="#ee9944" stroke-width="1" fill="none"/>
    </g>
  </g>
  <mask/>
  <g stroke-linecap="round">
    <g transform="translate(106.86366612921483 585.6261611465545) rotate(0 32.25021831292861 25.83344027970861)">
      <path d="M0 0 C10.75 8.61, 53.75 43.06, 64.5 51.67 M0 0 C10.75 8.61, 53.75 43.06, 64.5 51.67" stroke="#ee9944" stroke-width="1" fill="none"/>
    </g>
    <g transform="translate(106.86366612921483 585.6261611465545) rotate(0 32.25021831292861 25.83344027970861)">
      <path d="M64.5 51.67 L49.93 48.12 L57.85 38.22 L64.5 51.67" stroke="none" stroke-width="0" fill="#ee9944" fill-rule="evenodd"/>
      <path d="M64.5 51.67 C60.68 50.74, 56.86 49.81, 49.93 48.12 M64.5 51.67 C58.74 50.26, 52.97 48.86, 49.93 48.12 M49.93 48.12 C51.62 46, 53.31 43.89, 57.85 38.22 M49.93 48.12 C52 45.53, 54.07 42.95, 57.85 38.22 M57.85 38.22 C59.59 41.74, 61.33 45.26, 64.5 51.67 M57.85 38.22 C60.2 42.98, 62.56 47.73, 64.5 51.67 M64.5 51.67 C64.5 51.67, 64.5 51.67, 64.5 51.67 M64.5 51.67 C64.5 51.67, 64.5 51.67, 64.5 51.67" stroke="#ee9944" stroke-width="1" fill="none"/>
    </g>
  </g>
  <mask/>
  <g stroke-linecap="round">
    <g transform="translate(234.52015786159973 380.4037120064299) rotate(0 -58.1094075399767 57.731142011168856)">
      <path d="M0 0 C-19.37 19.24, -96.85 96.22, -116.22 115.46 M0 0 C-19.37 19.24, -96.85 96.22, -116.22 115.46" stroke="#cc6666" stroke-width="1" fill="none"/>
    </g>
    <g transform="translate(234.52015786159973 380.4037120064299) rotate(0 -58.1094075399767 57.731142011168856)">
      <path d="M-116.22 115.46 L-111.04 101.38 L-102.11 110.38 L-116.22 115.46" stroke="none" stroke-width="0" fill="#cc6666" fill-rule="evenodd"/>
      <path d="M-116.22 115.46 C-114.52 110.85, -112.83 106.25, -111.04 101.38 M-116.22 115.46 C-115.15 112.55, -114.07 109.63, -111.04 101.38 M-111.04 101.38 C-108.93 103.51, -106.82 105.64, -102.11 110.38 M-111.04 101.38 C-108.9 103.54, -106.75 105.71, -102.11 110.38 M-102.11 110.38 C-105.18 111.48, -108.25 112.59, -116.22 115.46 M-102.11 110.38 C-105.46 111.59, -108.82 112.8, -116.22 115.46 M-116.22 115.46 C-116.22 115.46, -116.22 115.46, -116.22 115.46 M-116.22 115.46 C-116.22 115.46, -116.22 115.46, -116.22 115.46" stroke="#cc6666" stroke-width="1" fill="none"/>
    </g>
  </g>
  <mask/>
  <g stroke-linecap="round">
    <g transform="translate(217.22875599537156 229.99464426210392) rotate(0 11.715435443094066 30.215509485325867)">
      <path d="M0 0 C3.91 10.07, 19.53 50.36, 23.43 60.43 M0 0 C3.91 10.07, 19.53 50.36, 23.43 60.43" stroke="#ee9944" stroke-width="1" fill="none"/>
    </g>
    <g transform="translate(217.22875599537156 229.99464426210392) rotate(0 11.715435443094066 30.215509485325867)">
      <path d="M23.43 60.43 L12.61 50.05 L24.43 45.46 L23.43 60.43" stroke="none" stroke-width="0" fill="#ee9944" fill-rule="evenodd"/>
      <path d="M23.43 60.43 C20.98 58.08, 18.53 55.73, 12.61 50.05 M23.43 60.43 C21.23 58.32, 19.04 56.22, 12.61 50.05 M12.61 50.05 C15.61 48.88, 18.62 47.71, 24.43 45.46 M12.61 50.05 C15.95 48.75, 19.3 47.45, 24.43 45.46 M24.43 45.46 C24.18 49.14, 23.94 52.82, 23.43 60.43 M24.43 45.46 C24.12 50.08, 23.81 54.7, 23.43 60.43 M23.43 60.43 C23.43 60.43, 23.43 60.43, 23.43 60.43 M23.43 60.43 C23.43 60.43, 23.43 60.43, 23.43 60.43" stroke="#ee9944" stroke-width="1" fill="none"/>
    </g>
  </g>
  <mask/>
  <g stroke-linecap="round">
    <g transform="translate(204.14208281764923 230.84835288553683) rotate(0 -68.67932303656698 57.941749169515845)">
      <path d="M0 0 C-22.89 19.31, -114.47 96.57, -137.36 115.88 M0 0 C-22.89 19.31, -114.47 96.57, -137.36 115.88" stroke="#ee9944" stroke-width="1" fill="none"/>
    </g>
    <g transform="translate(204.14208281764923 230.84835288553683) rotate(0 -68.67932303656698 57.941749169515845)">
      <path d="M-137.36 115.88 L-131.06 102.27 L-122.88 111.96 L-137.36 115.88" stroke="none" stroke-width="0" fill="#ee9944" fill-rule="evenodd"/>
      <path d="M-137.36 115.88 C-135.64 112.17, -133.92 108.45, -131.06 102.27 M-137.36 115.88 C-135.7 112.29, -134.03 108.7, -131.06 102.27 M-131.06 102.27 C-127.87 106.04, -124.69 109.81, -122.88 111.96 M-131.06 102.27 C-128.34 105.49, -125.62 108.71, -122.88 111.96 M-122.88 111.96 C-127.38 113.18, -131.88 114.4, -137.36 115.88 M-122.88 111.96 C-127.14 113.12, -131.4 114.27, -137.36 115.88 M-137.36 115.88 C-137.36 115.88, -137.36 115.88, -137.36 115.88 M-137.36 115.88 C-137.36 115.88, -137.36 115.88, -137.36 115.88" stroke="#ee9944" stroke-width="1" fill="none"/>
    </g>
  </g>
  <mask/>
  <g stroke-linecap="round">
    <g transform="translate(198.87267287727627 93.40420502108407) rotate(0 1.2780757271502807 22.953228948586883)">
      <path d="M0 0 C0.43 7.65, 2.13 38.26, 2.56 45.91 M0 0 C0.43 7.65, 2.13 38.26, 2.56 45.91" stroke="#8888ff" stroke-width="1" fill="none"/>
    </g>
    <g transform="translate(198.87267287727627 93.40420502108407) rotate(0 1.2780757271502807 22.953228948586883)">
      <path d="M2.56 45.91 L-4.53 32.69 L8.13 31.98 L2.56 45.91" stroke="none" stroke-width="0" fill="#8888ff" fill-rule="evenodd"/>
      <path d="M2.56 45.91 C0.24 41.58, -2.08 37.25, -4.53 32.69 M2.56 45.91 C-0.09 40.97, -2.74 36.03, -4.53 32.69 M-4.53 32.69 C0.27 32.42, 5.08 32.15, 8.13 31.98 M-4.53 32.69 C0 32.43, 4.52 32.18, 8.13 31.98 M8.13 31.98 C6.68 35.61, 5.22 39.24, 2.56 45.91 M8.13 31.98 C6.79 35.32, 5.46 38.66, 2.56 45.91 M2.56 45.91 C2.56 45.91, 2.56 45.91, 2.56 45.91 M2.56 45.91 C2.56 45.91, 2.56 45.91, 2.56 45.91" stroke="#8888ff" stroke-width="1" fill="none"/>
    </g>
  </g>
  <mask/>
</svg>
