<svg xmlns="http://www.w3.org/2000/svg" version="1.1" viewBox="0 0 337.24307182817483 731.1541034420759" width="337.24307182817483" height="731.1541034420759">
  <defs>
    <style>
      @import url("/assets/css/fonts.css");
      svg { font-size: 16px; font-family: "Inter", sans-serif; }
    </style>
  </defs>
  <g stroke-linecap="round" transform="translate(52.205180970953734 503.2862482615314) rotate(0 53.390605406266786 38.0736284454527)">
    <path d="M19.04 0 C41.18 -1.38, 62.08 -3.02, 87.74 0 C102.5 2.61, 104.9 6.39, 106.78 19.04 C104.14 30.6, 107.63 49.39, 106.78 57.11 C106.82 67.75, 97.42 78.32, 87.74 76.15 C68.39 78.8, 57.23 74.41, 19.04 76.15 C7.74 74.38, 1.78 71.44, 0 57.11 C-2.09 44.86, -0.46 30.86, 0 19.04 C-3.11 5.17, 5.02 -2.29, 19.04 0" stroke="none" stroke-width="0" fill="#ffa083"/>
    <path d="M19.04 0 C38.26 -1.67, 52.91 -2.13, 87.74 0 M19.04 0 C37.83 0.52, 56.43 0.72, 87.74 0 M87.74 0 C99.29 -1.61, 105.24 4.56, 106.78 19.04 M87.74 0 C98.77 -1.4, 106.81 4.29, 106.78 19.04 M106.78 19.04 C105.73 31.08, 105.38 42.91, 106.78 57.11 M106.78 19.04 C107.29 29.3, 107.84 39.43, 106.78 57.11 M106.78 57.11 C106.35 67.95, 98.95 75.18, 87.74 76.15 M106.78 57.11 C105.2 69.32, 100.1 76.49, 87.74 76.15 M87.74 76.15 C65.85 77.78, 43.87 76.83, 19.04 76.15 M87.74 76.15 C73.67 75.79, 59.11 74.81, 19.04 76.15 M19.04 76.15 C6.63 76.29, -1.29 69.38, 0 57.11 M19.04 76.15 C8.37 75.26, -1.93 71.94, 0 57.11 M0 57.11 C0.27 48.79, -0.15 39.3, 0 19.04 M0 57.11 C0.26 46.38, -0.06 35.6, 0 19.04 M0 19.04 C-0.55 8.06, 7.59 0.24, 19.04 0 M0 19.04 C1.52 6.09, 6.05 1.4, 19.04 0" stroke="#ffffff" stroke-width="1" fill="none"/>
  </g>
  <g transform="translate(71.00828485134207 532.159876706984) rotate(0 34.587501525878906 9.199999999999989)">
    <text x="34.587501525878906" y="0" fill="#ffffff" text-anchor="middle" style="white-space: pre;" direction="ltr" dominant-baseline="text-before-edge">Comment</text>
  </g>
  <g stroke-linecap="round" transform="translate(10 352.14874786706235) rotate(0 53.390605406266786 38.0736284454527)">
    <path d="M19.04 0 C41.49 -2.6, 61.47 3.11, 87.74 0 C98.56 0.05, 110.24 5.44, 106.78 19.04 C107.33 32.67, 106.35 43.86, 106.78 57.11 C103.77 71.98, 97.91 76.56, 87.74 76.15 C65.24 74.6, 41.96 75.11, 19.04 76.15 C8.13 77.79, 0.45 69.48, 0 57.11 C-0.11 41.41, -2.7 29.45, 0 19.04 C-1.33 4.05, 5.63 -1.16, 19.04 0" stroke="none" stroke-width="0" fill="#ffa083"/>
    <path d="M19.04 0 C42.21 -1.29, 67.78 1.07, 87.74 0 M19.04 0 C42.46 0.45, 65.31 -1.35, 87.74 0 M87.74 0 C98.89 -1.78, 105.33 5.13, 106.78 19.04 M87.74 0 C100.46 -2.05, 106.83 4.36, 106.78 19.04 M106.78 19.04 C105.57 29.76, 105.89 40.44, 106.78 57.11 M106.78 19.04 C107.6 33.51, 106.64 46.23, 106.78 57.11 M106.78 57.11 C105.3 68.83, 99.06 75.73, 87.74 76.15 M106.78 57.11 C106.45 70.15, 100.7 77.25, 87.74 76.15 M87.74 76.15 C64.56 77.19, 41.62 78.58, 19.04 76.15 M87.74 76.15 C71.17 75.29, 55.21 76.27, 19.04 76.15 M19.04 76.15 C5.05 75.73, 1.76 69.03, 0 57.11 M19.04 76.15 C4.41 78.28, -1.99 71.09, 0 57.11 M0 57.11 C-0.03 44.79, -0.58 36.4, 0 19.04 M0 57.11 C-0.07 43.48, -0.43 31.75, 0 19.04 M0 19.04 C1.24 6.58, 7.67 -0.22, 19.04 0 M0 19.04 C-0.3 7.75, 6.27 0.01, 19.04 0" stroke="#ffffff" stroke-width="1" fill="none"/>
  </g>
  <g transform="translate(28.803103880387425 371.822376312515) rotate(0 34.587501525878906 18.399999999999977)">
    <text x="34.587501525878906" y="0" fill="#ffffff" text-anchor="middle" style="white-space: pre;" direction="ltr" dominant-baseline="text-before-edge">Edit</text>
    <text x="34.587501525878906" y="18.4" fill="#ffffff" text-anchor="middle" style="white-space: pre;" direction="ltr" dominant-baseline="text-before-edge">Comment</text>
  </g>
  <g stroke-linecap="round" transform="translate(220.46186101564126 475.0142432140772) rotate(0 53.390605406266786 38.0736284454527)">
    <path d="M19.04 0 C38.93 3.67, 52.81 1.11, 87.74 0 C103.89 -0.9, 108.69 3.87, 106.78 19.04 C107.01 24.69, 103.96 36.63, 106.78 57.11 C104.26 70.21, 102 72.59, 87.74 76.15 C64.47 73.6, 40.2 77.01, 19.04 76.15 C6.79 75.82, 1.72 67.65, 0 57.11 C-3.01 44.89, -1.23 32.72, 0 19.04 C-0.72 5.19, 5.42 0.86, 19.04 0" stroke="none" stroke-width="0" fill="#ff80b3"/>
    <path d="M19.04 0 C34.74 1.23, 52.39 0.8, 87.74 0 M19.04 0 C44.56 -1.49, 70.45 -1.58, 87.74 0 M87.74 0 C98.99 -1.21, 106.81 4.56, 106.78 19.04 M87.74 0 C100.49 -1.98, 105.84 5.51, 106.78 19.04 M106.78 19.04 C105.82 33.14, 107.96 44.31, 106.78 57.11 M106.78 19.04 C106.85 30.57, 106.32 43.47, 106.78 57.11 M106.78 57.11 C105.41 69.38, 100.14 76.45, 87.74 76.15 M106.78 57.11 C107.05 70.91, 100.94 75.59, 87.74 76.15 M87.74 76.15 C60.17 78.25, 35.08 76.58, 19.04 76.15 M87.74 76.15 C66.76 75.59, 44.84 75.31, 19.04 76.15 M19.04 76.15 C8.11 75.38, -1.68 71.66, 0 57.11 M19.04 76.15 C4.35 77.44, -0.4 70.36, 0 57.11 M0 57.11 C-0.5 46.88, 0.87 35.86, 0 19.04 M0 57.11 C-0.31 47.43, 0.59 36.16, 0 19.04 M0 19.04 C1.33 6.12, 6.09 1.22, 19.04 0 M0 19.04 C-0.08 6.36, 6.2 1.13, 19.04 0" stroke="#ffffff" stroke-width="1" fill="none"/>
  </g>
  <g transform="translate(254.32746680337732 503.88787165952994) rotate(0 19.524999618530273 9.199999999999989)">
    <text x="19.524999618530273" y="0" fill="#ffffff" text-anchor="middle" style="white-space: pre;" direction="ltr" dominant-baseline="text-before-edge">Label</text>
  </g>
  <g stroke-linecap="round" transform="translate(144.39080882045891 10) rotate(0 53.390605406266786 38.07362844545273)">
    <path d="M19.04 0 C31.86 -0.85, 51.89 -1.8, 87.74 0 C102.34 -2.47, 103.27 7.37, 106.78 19.04 C103.77 32.84, 104.27 42.71, 106.78 57.11 C108.34 66.24, 102.56 77.23, 87.74 76.15 C73.25 77.18, 55.65 75.21, 19.04 76.15 C8.07 74, -0.35 69.28, 0 57.11 C-0.74 45.99, -0.13 38.29, 0 19.04 C-0.92 7.21, 9.08 1.56, 19.04 0" stroke="none" stroke-width="0" fill="#8888ff"/>
    <path d="M19.04 0 C34.53 -0.01, 49.98 -0.21, 87.74 0 M19.04 0 C45.73 -0.34, 73.23 -0.06, 87.74 0 M87.74 0 C100.46 -1.79, 106.83 4.62, 106.78 19.04 M87.74 0 C99.5 -0.84, 107.4 5.12, 106.78 19.04 M106.78 19.04 C108.02 32.47, 107.18 46.61, 106.78 57.11 M106.78 19.04 C105.96 31.56, 106.01 44.84, 106.78 57.11 M106.78 57.11 C106.49 70.1, 100.67 77.11, 87.74 76.15 M106.78 57.11 C107.29 69.25, 102.14 74.93, 87.74 76.15 M87.74 76.15 C64.05 77.06, 43 76.33, 19.04 76.15 M87.74 76.15 C72.72 75.98, 59.88 75.81, 19.04 76.15 M19.04 76.15 C4.66 78, -1.73 70.92, 0 57.11 M19.04 76.15 C5.95 76.71, -0.23 69.88, 0 57.11 M0 57.11 C0.98 49.5, -0.37 40.4, 0 19.04 M0 57.11 C0.73 47.78, 0.77 38.1, 0 19.04 M0 19.04 C-0.26 7.57, 6.28 0.01, 19.04 0 M0 19.04 C-0.14 7.47, 5.41 1.45, 19.04 0" stroke="#ffffff" stroke-width="1" fill="none"/>
  </g>
  <g transform="translate(177.38141460819588 38.87362844545271) rotate(0 20.399999618530273 9.199999999999989)">
    <text x="20.399999618530273" y="0" fill="#ffffff" text-anchor="middle" style="white-space: pre;" direction="ltr" dominant-baseline="text-before-edge">Close</text>
  </g>
  <g stroke-linecap="round" transform="translate(187.97719679494912 296.7109886655805) rotate(0 53.390605406266786 38.0736284454527)">
    <path d="M19.04 0 C48.08 -0.92, 72.12 -2.49, 87.74 0 C96.93 1.02, 106.98 6.38, 106.78 19.04 C103.68 28.7, 107.77 33.98, 106.78 57.11 C108.9 70.89, 98.16 77.54, 87.74 76.15 C70.95 76.38, 54.98 74.56, 19.04 76.15 C5.99 75.62, -2.45 66.69, 0 57.11 C-0.47 45.77, -0.67 37.61, 0 19.04 C2.73 7.91, 9.64 3.09, 19.04 0" stroke="none" stroke-width="0" fill="#ff80b3"/>
    <path d="M19.04 0 C43.42 -0.06, 66.62 -1.21, 87.74 0 M19.04 0 C33.41 0.01, 49.24 -0.28, 87.74 0 M87.74 0 C100.48 -1.73, 105.97 5.62, 106.78 19.04 M87.74 0 C101.05 -1.23, 107.76 5.48, 106.78 19.04 M106.78 19.04 C107.59 35.1, 107.88 47.77, 106.78 57.11 M106.78 19.04 C105.81 26.72, 106.35 34.96, 106.78 57.11 M106.78 57.11 C107.01 70.76, 100.88 75.67, 87.74 76.15 M106.78 57.11 C108.49 68.59, 101.05 74, 87.74 76.15 M87.74 76.15 C60.68 75.76, 31.5 76.51, 19.04 76.15 M87.74 76.15 C67.54 75.62, 44.73 76.93, 19.04 76.15 M19.04 76.15 C4.61 77.27, -0.35 70.29, 0 57.11 M19.04 76.15 C6.12 76.22, -1.8 69.24, 0 57.11 M0 57.11 C-0.63 44.33, -1.21 30.62, 0 19.04 M0 57.11 C0.43 42.31, -0.37 28.35, 0 19.04 M0 19.04 C-0.07 6.35, 6.22 0.98, 19.04 0 M0 19.04 C-0.93 7.8, 4.37 1.32, 19.04 0" stroke="#ffffff" stroke-width="1" fill="none"/>
  </g>
  <g transform="translate(206.78030067533655 325.5846171110332) rotate(0 34.587501525878906 9.199999999999989)">
    <text x="34.587501525878906" y="0" fill="#ffffff" text-anchor="middle" style="white-space: pre;" direction="ltr" dominant-baseline="text-before-edge">Comment</text>
  </g>
  <g stroke-linecap="round" transform="translate(155.08269948085217 145.33589324399912) rotate(0 53.390605406266786 38.0736284454527)">
    <path d="M19.04 0 C41.65 -2.16, 56.93 1.33, 87.74 0 C100.63 0.04, 104.73 3.33, 106.78 19.04 C107.86 29.2, 108.42 47.57, 106.78 57.11 C104.51 71.19, 98.67 77.93, 87.74 76.15 C65.73 73.88, 39.91 75.51, 19.04 76.15 C3.89 73.04, -1.18 68.47, 0 57.11 C-0.79 48.97, 2.87 40.68, 0 19.04 C3.29 9.43, 8.49 2.67, 19.04 0" stroke="none" stroke-width="0" fill="#ffa083"/>
    <path d="M19.04 0 C42.34 -1.15, 60.06 -1.54, 87.74 0 M19.04 0 C33.53 -0.48, 48.03 -0.45, 87.74 0 M87.74 0 C99.62 -0.73, 107.32 5.28, 106.78 19.04 M87.74 0 C101.42 -0.87, 108.69 7.94, 106.78 19.04 M106.78 19.04 C107.72 30.76, 105.03 41.86, 106.78 57.11 M106.78 19.04 C106.37 28.76, 106.64 38.67, 106.78 57.11 M106.78 57.11 C107.22 69.32, 101.92 75.09, 87.74 76.15 M106.78 57.11 C107.4 67.65, 102.65 74.72, 87.74 76.15 M87.74 76.15 C64.46 76.26, 44.95 74.69, 19.04 76.15 M87.74 76.15 C67.74 76.81, 48.54 76.44, 19.04 76.15 M19.04 76.15 C6 76.63, -0.2 69.87, 0 57.11 M19.04 76.15 C4.55 75.59, 0.94 70.82, 0 57.11 M0 57.11 C-0.95 43.55, 1.8 32.32, 0 19.04 M0 57.11 C-0.38 45.85, -0.29 33.36, 0 19.04 M0 19.04 C-0.13 7.33, 5.53 1.27, 19.04 0 M0 19.04 C-1.98 7.67, 8.01 -1.2, 19.04 0" stroke="#ffffff" stroke-width="1" fill="none"/>
  </g>
  <g transform="translate(173.8858033612405 174.20952168945183) rotate(0 34.587501525878906 9.199999999999989)">
    <text x="34.587501525878906" y="0" fill="#ffffff" text-anchor="middle" style="white-space: pre;" direction="ltr" dominant-baseline="text-before-edge">Comment</text>
  </g>
  <g stroke-linecap="round" transform="translate(127.95801258526626 645.0068465511706) rotate(0 53.390605406266786 38.0736284454527)">
    <path d="M19.04 0 C34.42 1.87, 57.01 0.89, 87.74 0 C98.38 -3.02, 108.96 3.82, 106.78 19.04 C109.2 31.98, 104.8 44.14, 106.78 57.11 C105.02 71.58, 102.07 76.6, 87.74 76.15 C67.4 74.88, 45.32 72.3, 19.04 76.15 C5.17 74.82, -2.29 69.08, 0 57.11 C2.91 48.48, 3.47 39.8, 0 19.04 C2.15 9.02, 6.66 -2.13, 19.04 0" stroke="none" stroke-width="0" fill="#ff80b3"/>
    <path d="M19.04 0 C38.07 -1.15, 58.54 -1.06, 87.74 0 M19.04 0 C35.5 -0.25, 51.51 0.25, 87.74 0 M87.74 0 C100.97 -1.07, 107.63 5.59, 106.78 19.04 M87.74 0 C102.34 1.59, 107.22 6.97, 106.78 19.04 M106.78 19.04 C105.08 31.8, 105.97 46.16, 106.78 57.11 M106.78 19.04 C106.84 30.15, 106.95 40.05, 106.78 57.11 M106.78 57.11 C108.26 68.75, 100.97 74.28, 87.74 76.15 M106.78 57.11 C108.99 68.37, 100.72 76.32, 87.74 76.15 M87.74 76.15 C68.91 74.95, 49.37 78.01, 19.04 76.15 M87.74 76.15 C68.91 77.35, 51.63 77.03, 19.04 76.15 M19.04 76.15 C6.15 76.21, -1.56 69.32, 0 57.11 M19.04 76.15 C7.28 77.17, 0.96 69.27, 0 57.11 M0 57.11 C1.91 46.57, 0.44 34.88, 0 19.04 M0 57.11 C0.02 46.12, -0.01 35.61, 0 19.04 M0 19.04 C-0.81 7.61, 4.62 1.15, 19.04 0 M0 19.04 C1.67 5.15, 6.38 2.21, 19.04 0" stroke="#ffffff" stroke-width="1" fill="none"/>
  </g>
  <g transform="translate(161.83611722859314 673.8804749966234) rotate(0 19.512500762939453 9.199999999999989)">
    <text x="19.512500762939453" y="0" fill="#ffffff" text-anchor="middle" style="white-space: pre;" direction="ltr" dominant-baseline="text-before-edge">Open</text>
  </g>
  <g stroke-linecap="round">
    <g transform="translate(273.58010784829276 557.1236558333646) rotate(0 -43.101673754182684 40.21628481155909)">
      <path d="M-0.92 -1.07 C-15.32 12.37, -72.86 66.3, -87.07 79.7 M0.79 0.98 C-13.17 14.65, -70.19 67.67, -84.82 80.86" stroke="#ff80b3" stroke-width="1" fill="none"/>
    </g>
    <g transform="translate(273.58010784829276 557.1236558333646) rotate(0 -43.101673754182684 40.21628481155909)">
      <path d="M-85.01 80.93 L-80.66 66.51 L-69.7 77.22 L-83.98 80.39" stroke="none" stroke-width="0" fill="#ff80b3" fill-rule="evenodd"/>
      <path d="M-84.82 80.86 C-84.65 76.45, -82.84 74.19, -79.09 66.99 M-84.82 80.86 C-83.92 77.71, -82.21 74.66, -79.09 66.99 M-79.09 66.99 C-75.31 70.37, -72.91 74.26, -70.52 76.33 M-79.09 66.99 C-76.65 69.96, -73.69 73.32, -70.52 76.33 M-70.52 76.33 C-73.87 77.97, -79.04 80.04, -84.82 80.86 M-70.52 76.33 C-73.32 76.85, -77.48 78.49, -84.82 80.86 M-84.82 80.86 C-84.82 80.86, -84.82 80.86, -84.82 80.86 M-84.82 80.86 C-84.82 80.86, -84.82 80.86, -84.82 80.86" stroke="#ff80b3" stroke-width="1" fill="none"/>
    </g>
  </g>
  <mask/>
  <g stroke-linecap="round">
    <g transform="translate(240.46317562151398 381.8763467092097) rotate(0 17.754193402408873 43.356592404533046)">
      <path d="M-0.87 -0.73 C5.21 13.72, 29.46 71.24, 35.52 85.64 M0.88 1.5 C6.87 16.16, 28.93 72.46, 34.58 86.62" stroke="#ff80b3" stroke-width="1" fill="none"/>
    </g>
    <g transform="translate(240.46317562151398 381.8763467092097) rotate(0 17.754193402408873 43.356592404533046)">
      <path d="M33.02 86.13 L24.51 77.19 L36.32 71.18 L34.77 85.58" stroke="none" stroke-width="0" fill="#ff80b3" fill-rule="evenodd"/>
      <path d="M34.58 86.62 C31.34 84.26, 28.48 81.97, 23.69 76.3 M34.58 86.62 C32.5 83.97, 30.29 81.89, 23.69 76.3 M23.69 76.3 C28.52 75.44, 33.22 72.44, 35.48 71.64 M23.69 76.3 C25.73 75.26, 28.52 74.52, 35.48 71.64 M35.48 71.64 C34.91 77.42, 34.2 81.38, 34.58 86.62 M35.48 71.64 C35.53 74.79, 35.08 77.14, 34.58 86.62 M34.58 86.62 C34.58 86.62, 34.58 86.62, 34.58 86.62 M34.58 86.62 C34.58 86.62, 34.58 86.62, 34.58 86.62" stroke="#ff80b3" stroke-width="1" fill="none"/>
    </g>
  </g>
  <mask/>
  <g stroke-linecap="round">
    <g transform="translate(65.84128582151789 434.88471388600186) rotate(0 17.074172468658162 31.160364755301202)">
      <path d="M0.01 -1.07 C5.86 9.26, 28.57 50.79, 34.18 61.29 M-1.44 0.98 C4.32 11.49, 27.56 51.95, 33.24 62.28" stroke="#ffa083" stroke-width="1" fill="none"/>
    </g>
    <g transform="translate(65.84128582151789 434.88471388600186) rotate(0 17.074172468658162 31.160364755301202)">
      <path d="M34.06 63.17 L21.88 53.08 L32.28 46.29 L32.7 63.99" stroke="none" stroke-width="0" fill="#ffa083" fill-rule="evenodd"/>
      <path d="M33.24 62.28 C29.18 60.33, 26.45 57.69, 21.05 53.55 M33.24 62.28 C30.32 59.63, 27.41 58.13, 21.05 53.55 M21.05 53.55 C25.08 51.2, 26.91 48.55, 32.09 47.32 M21.05 53.55 C23.78 52.1, 26.72 50.74, 32.09 47.32 M32.09 47.32 C31.64 52.53, 31.4 58.39, 33.24 62.28 M32.09 47.32 C32.21 50.2, 32.76 54.49, 33.24 62.28 M33.24 62.28 C33.24 62.28, 33.24 62.28, 33.24 62.28 M33.24 62.28 C33.24 62.28, 33.24 62.28, 33.24 62.28" stroke="#ffa083" stroke-width="1" fill="none"/>
    </g>
  </g>
  <mask/>
  <g stroke-linecap="round">
    <g transform="translate(106.86366612921483 585.6261611465545) rotate(0 32.25021831292861 25.833440279708668)">
      <path d="M0.03 -1.04 C10.69 7.68, 53.21 42.55, 64.01 51.23 M-1.42 1.04 C9.05 10.01, 51.87 44.04, 62.81 52.54" stroke="#ffa083" stroke-width="1" fill="none"/>
    </g>
    <g transform="translate(106.86366612921483 585.6261611465545) rotate(0 32.25021831292861 25.833440279708668)">
      <path d="M63.64 52.07 L48.39 48.07 L55.5 40.86 L64.05 52.78" stroke="none" stroke-width="0" fill="#ffa083" fill-rule="evenodd"/>
      <path d="M62.81 52.54 C57.14 50.9, 53.5 50.88, 48.21 49.1 M62.81 52.54 C59.81 52.16, 55.74 51, 48.21 49.1 M48.21 49.1 C49.92 44.46, 53.42 40.8, 56.05 39.15 M48.21 49.1 C50.48 46.62, 52.74 43.38, 56.05 39.15 M56.05 39.15 C57.11 45.58, 60.1 49.34, 62.81 52.54 M56.05 39.15 C58.2 43.38, 59.69 47.29, 62.81 52.54 M62.81 52.54 C62.81 52.54, 62.81 52.54, 62.81 52.54 M62.81 52.54 C62.81 52.54, 62.81 52.54, 62.81 52.54" stroke="#ffa083" stroke-width="1" fill="none"/>
    </g>
  </g>
  <mask/>
  <g stroke-linecap="round">
    <g transform="translate(234.52015786159973 380.4037120064299) rotate(0 -58.10940753997647 57.731142011168856)">
      <path d="M-0.49 -0.44 C-19.81 18.87, -96.69 95.58, -115.9 114.82 M1.45 -1.71 C-18 17.84, -97.07 96.39, -116.67 116.02" stroke="#ff80b3" stroke-width="1" fill="none"/>
    </g>
    <g transform="translate(234.52015786159973 380.4037120064299) rotate(0 -58.10940753997647 57.731142011168856)">
      <path d="M-116.49 114.98 L-112.07 103.65 L-101.33 111.15 L-115.35 115.8" stroke="none" stroke-width="0" fill="#ff80b3" fill-rule="evenodd"/>
      <path d="M-116.67 116.02 C-115.54 112.19, -114.24 108.16, -111.52 101.93 M-116.67 116.02 C-115.3 112.49, -113.53 108.91, -111.52 101.93 M-111.52 101.93 C-109.73 103.63, -106.89 106.81, -102.57 110.91 M-111.52 101.93 C-108.55 104.57, -105.4 107.21, -102.57 110.91 M-102.57 110.91 C-108.16 112.9, -111.72 114.03, -116.67 116.02 M-102.57 110.91 C-106 111.83, -107.8 112.77, -116.67 116.02 M-116.67 116.02 C-116.67 116.02, -116.67 116.02, -116.67 116.02 M-116.67 116.02 C-116.67 116.02, -116.67 116.02, -116.67 116.02" stroke="#ff80b3" stroke-width="1" fill="none"/>
    </g>
  </g>
  <mask/>
  <g stroke-linecap="round">
    <g transform="translate(217.2287559953711 229.99464426210392) rotate(0 11.715435443094066 30.215509485325867)">
      <path d="M0.32 -0.64 C4.39 9.43, 19.93 49.66, 23.94 59.98 M-0.97 1.64 C3.03 11.91, 19.07 51.66, 23.26 61.28" stroke="#ffa083" stroke-width="1" fill="none"/>
    </g>
    <g transform="translate(217.2287559953711 229.99464426210392) rotate(0 11.715435443094066 30.215509485325867)">
      <path d="M22.72 62.99 L13.43 51.41 L25.21 46.07 L23 62.5" stroke="none" stroke-width="0" fill="#ffa083" fill-rule="evenodd"/>
      <path d="M23.26 61.28 C19.63 59.33, 16.99 57.31, 12.18 51.17 M23.26 61.28 C19.71 57.89, 14.9 53.15, 12.18 51.17 M12.18 51.17 C14.59 49.96, 17.68 49.19, 23.89 46.29 M12.18 51.17 C16.72 49.16, 20.49 47.21, 23.89 46.29 M23.89 46.29 C23.66 51.87, 21.94 58.38, 23.26 61.28 M23.89 46.29 C24.26 50.6, 22.78 56.19, 23.26 61.28 M23.26 61.28 C23.26 61.28, 23.26 61.28, 23.26 61.28 M23.26 61.28 C23.26 61.28, 23.26 61.28, 23.26 61.28" stroke="#ffa083" stroke-width="1" fill="none"/>
    </g>
  </g>
  <mask/>
  <g stroke-linecap="round">
    <g transform="translate(204.14208281764877 230.84835288553683) rotate(0 -68.67932303656698 57.941749169515845)">
      <path d="M0.51 -0.45 C-22.27 19.11, -113.42 97.27, -136.36 116.71 M-0.68 -1.74 C-23.56 17.55, -113.94 95.12, -136.79 115.03" stroke="#ffa083" stroke-width="1" fill="none"/>
    </g>
    <g transform="translate(204.14208281764877 230.84835288553683) rotate(0 -68.67932303656698 57.941749169515845)">
      <path d="M-135.54 115.27 L-129.32 101.12 L-122.62 112.16 L-136.86 115.04" stroke="none" stroke-width="0" fill="#ffa083" fill-rule="evenodd"/>
      <path d="M-136.79 115.03 C-135.27 111.77, -131.66 106.34, -130.64 101.35 M-136.79 115.03 C-135.04 109.83, -133.42 105.68, -130.64 101.35 M-130.64 101.35 C-128.56 103.72, -126.22 106.08, -122.36 110.94 M-130.64 101.35 C-128.12 103.44, -125.39 106.29, -122.36 110.94 M-122.36 110.94 C-128.22 112.39, -131.27 112.49, -136.79 115.03 M-122.36 110.94 C-126.98 112.72, -131.02 113.59, -136.79 115.03 M-136.79 115.03 C-136.79 115.03, -136.79 115.03, -136.79 115.03 M-136.79 115.03 C-136.79 115.03, -136.79 115.03, -136.79 115.03" stroke="#ffa083" stroke-width="1" fill="none"/>
    </g>
  </g>
  <mask/>
  <g stroke-linecap="round">
    <g transform="translate(198.87267287727627 93.40420502108407) rotate(0 1.2780757271502807 22.953228948586883)">
      <path d="M0.46 0.38 C0.86 8.09, 2.24 38.43, 2.66 46.06 M0.03 0.1 C0.35 7.66, 1.82 37.65, 2.28 45.17" stroke="#8888ff" stroke-width="1" fill="none"/>
    </g>
    <g transform="translate(198.87267287727627 93.40420502108407) rotate(0 1.2780757271502807 22.953228948586883)">
      <path d="M2.95 45.06 L-4.91 32.55 L7.84 31.25 L2.22 45.66" stroke="none" stroke-width="0" fill="#8888ff" fill-rule="evenodd"/>
      <path d="M2.28 45.17 C0.41 40.81, -2.33 36.69, -4.78 31.94 M2.28 45.17 C-0.39 40.43, -2.79 36.02, -4.78 31.94 M-4.78 31.94 C-0.87 31.87, 2.29 32.01, 7.88 31.25 M-4.78 31.94 C-1.35 31.63, 1.51 31.68, 7.88 31.25 M7.88 31.25 C6.32 34.61, 4.57 39.6, 2.28 45.17 M7.88 31.25 C6.03 35.13, 4.83 38.65, 2.28 45.17 M2.28 45.17 C2.28 45.17, 2.28 45.17, 2.28 45.17 M2.28 45.17 C2.28 45.17, 2.28 45.17, 2.28 45.17" stroke="#8888ff" stroke-width="1" fill="none"/>
    </g>
  </g>
  <mask/>
</svg>
