<svg width="192" height="192" viewBox="0 0 192 192" fill="none" xmlns="http://www.w3.org/2000/svg">
<rect x="60" y="24" width="12" height="12" fill="#888899"/>
<rect x="72" y="24" width="12" height="12" fill="#888899"/>
<rect x="84" y="24" width="12" height="12" fill="#888899"/>
<rect x="96" y="24" width="12" height="12" fill="#888899"/>
<rect x="108" y="24" width="12" height="12" fill="#888899"/>
<rect x="120" y="24" width="12" height="12" fill="#888899"/>
<rect x="132" y="24" width="12" height="12" fill="#888899"/>
<rect x="144" y="24" width="12" height="12" fill="#888899"/>
<rect x="60" y="36" width="12" height="12" fill="#888899"/>
<rect x="144" y="36" width="12" height="12" fill="#888899"/>
<rect x="144" y="48" width="12" height="12" fill="#888899"/>
<rect x="24" y="60" width="12" height="12" fill="#888899"/>
<rect x="36" y="60" width="12" height="12" fill="#888899"/>
<rect x="48" y="60" width="12" height="12" fill="#888899"/>
<rect x="60" y="60" width="12" height="12" fill="#888899"/>
<rect x="72" y="60" width="12" height="12" fill="#888899"/>
<rect x="84" y="60" width="12" height="12" fill="#888899"/>
<rect x="96" y="60" width="12" height="12" fill="#888899"/>
<rect x="108" y="60" width="12" height="12" fill="#888899"/>
<rect x="144" y="60" width="12" height="12" fill="#888899"/>
<rect x="24" y="72" width="12" height="12" fill="#888899"/>
<rect x="108" y="72" width="12" height="12" fill="#888899"/>
<rect x="144" y="72" width="12" height="12" fill="#888899"/>
<rect x="24" y="84" width="12" height="12" fill="#888899"/>
<rect x="108" y="84" width="12" height="12" fill="#888899"/>
<rect x="144" y="84" width="12" height="12" fill="#888899"/>
<rect x="24" y="96" width="12" height="12" fill="#888899"/>
<rect x="108" y="96" width="12" height="12" fill="#888899"/>
<rect x="144" y="96" width="12" height="12" fill="#888899"/>
<rect x="24" y="108" width="12" height="12" fill="#888899"/>
<rect x="108" y="108" width="12" height="12" fill="#888899"/>
<rect x="144" y="108" width="12" height="12" fill="#888899"/>
<rect x="24" y="120" width="12" height="12" fill="#888899"/>
<rect x="108" y="120" width="12" height="12" fill="#888899"/>
<rect x="144" y="120" width="12" height="12" fill="#888899"/>
<rect x="24" y="132" width="12" height="12" fill="#888899"/>
<rect x="108" y="132" width="12" height="12" fill="#888899"/>
<rect x="132" y="132" width="12" height="12" fill="#888899"/>
<rect x="144" y="132" width="12" height="12" fill="#888899"/>
<rect x="24" y="144" width="12" height="12" fill="#888899"/>
<rect x="108" y="144" width="12" height="12" fill="#888899"/>
<rect x="24" y="156" width="12" height="12" fill="#888899"/>
<rect x="108" y="156" width="12" height="12" fill="#888899"/>
<rect x="24" y="168" width="12" height="12" fill="#888899"/>
<rect x="36" y="168" width="12" height="12" fill="#888899"/>
<rect x="48" y="168" width="12" height="12" fill="#888899"/>
<rect x="60" y="168" width="12" height="12" fill="#888899"/>
<rect x="72" y="168" width="12" height="12" fill="#888899"/>
<rect x="84" y="168" width="12" height="12" fill="#888899"/>
<rect x="96" y="168" width="12" height="12" fill="#888899"/>
<rect x="108" y="168" width="12" height="12" fill="#888899"/>
</svg>
