<svg xmlns="http://www.w3.org/2000/svg" version="1.1" viewBox="0 0 1197.5366182992343 544.0303397564605" width="1197.5366182992343" height="544.0303397564605">
  <defs>
    <style>
      @import url("/assets/css/fonts.css");
      svg { font-size: 16px; font-family: "Inter", sans-serif; }
    </style>
  </defs>
  <g stroke-linecap="round" transform="translate(164.46806523511532 249.54652025739685) rotate(0 75.81566086153839 72.99954032373856)">
    <path d="M103.65 5.15 C113.88 8.13, 124.93 16.5, 132.44 24.52 C139.94 32.54, 145.64 43.04, 148.68 53.27 C151.71 63.5, 152.52 75.75, 150.62 85.9 C148.72 96.05, 143.71 105.85, 137.27 114.17 C130.84 122.5, 121.61 130.66, 112.02 135.84 C102.42 141.02, 90.5 144.62, 79.68 145.26 C68.87 145.9, 57.15 143.71, 47.13 139.67 C37.1 135.63, 26.95 128.78, 19.53 121.02 C12.12 113.27, 5.69 103.24, 2.65 93.16 C-0.39 83.08, -0.64 70.98, 1.28 60.56 C3.21 50.14, 7.82 39.08, 14.21 30.65 C20.61 22.21, 30.14 15, 39.68 9.96 C49.21 4.92, 59.16 0.48, 71.42 0.41 C83.68 0.33, 105.32 7.27, 113.22 9.52 C121.13 11.77, 119.71 12.99, 118.85 13.91 M50.52 4.43 C60.12 0.12, 73.72 -0.53, 84.52 0.74 C95.33 2.01, 106.29 6.48, 115.36 12.04 C124.43 17.61, 133.23 25.2, 138.95 34.15 C144.67 43.11, 148.42 55.34, 149.7 65.79 C150.97 76.23, 149.91 87.15, 146.61 96.84 C143.31 106.53, 137.67 116.4, 129.89 123.92 C122.12 131.44, 110.3 138.5, 99.97 141.95 C89.64 145.4, 78.66 145.55, 67.93 144.62 C57.2 143.7, 45.03 142, 35.59 136.39 C26.16 130.78, 16.92 120.33, 11.31 110.99 C5.7 101.65, 2.99 90.67, 1.93 80.36 C0.86 70.04, 1.55 58.89, 4.93 49.09 C8.31 39.29, 14.65 29.24, 22.22 21.58 C29.79 13.91, 45.65 5.64, 50.35 3.09 C55.06 0.53, 49.92 4.8, 50.45 6.24" stroke="none" stroke-width="0" fill="#ff80b3"/>
    <path d="M91.06 0.6 C101.2 1.45, 112.41 8.1, 121.06 14.8 C129.7 21.49, 137.78 31.27, 142.93 40.78 C148.09 50.29, 151.7 61.41, 151.99 71.86 C152.29 82.31, 149.27 93.81, 144.7 103.49 C140.13 113.18, 133.11 123.37, 124.57 129.98 C116.03 136.6, 104.17 140.69, 93.46 143.16 C82.76 145.64, 70.97 146.9, 60.33 144.84 C49.69 142.78, 38.43 137.23, 29.62 130.8 C20.81 124.38, 12.38 115.61, 7.47 106.28 C2.55 96.96, 0.25 85.43, 0.1 74.87 C-0.05 64.32, 1.92 52.78, 6.55 42.96 C11.17 33.13, 19.46 22.7, 27.87 15.94 C36.27 9.18, 46.1 4.9, 56.99 2.42 C67.88 -0.06, 86.8 0.79, 93.22 1.06 C99.65 1.33, 95.9 2.57, 95.53 4.03 M57.82 0.64 C67.51 -2.78, 80.39 -0.28, 91.1 2.24 C101.81 4.76, 113.55 9.6, 122.07 15.78 C130.6 21.96, 137.1 29.96, 142.25 39.32 C147.4 48.67, 152.62 60.97, 152.97 71.93 C153.33 82.89, 149.05 95.54, 144.37 105.08 C139.69 114.62, 133.43 122.83, 124.88 129.17 C116.33 135.51, 103.88 140.36, 93.08 143.13 C82.28 145.9, 70.68 148.02, 60.07 145.8 C49.46 143.58, 38.26 136.62, 29.41 129.81 C20.57 123, 12.08 114.42, 7.01 104.96 C1.94 95.49, -1.02 83.66, -1.01 73.01 C-0.99 62.36, 2.36 50.46, 7.12 41.08 C11.88 31.69, 18.85 23.05, 27.54 16.69 C36.24 10.33, 54.07 4.94, 59.29 2.92 C64.5 0.9, 58.75 3.66, 58.83 4.59" stroke="#ffffff" stroke-width="1" fill="none"/>
  </g>
  <g transform="translate(210.02395856279009 313.22759059471906) rotate(0 30.149999618530273 9.2)">
    <text x="30.149999618530273" y="0" fill="#ffffff" text-anchor="middle" style="white-space: pre;" direction="ltr" dominant-baseline="text-before-edge">Instance</text>
  </g>
  <g stroke-linecap="round" transform="translate(49.77884501009112 389.488550646855) rotate(0 43.181572564415546 41.87304006246351)">
    <path d="M41.36 0.45 C48.82 -0.68, 58.61 1.88, 65.22 5.5 C71.82 9.12, 77.39 15.36, 80.98 22.16 C84.58 28.96, 87.5 38.87, 86.79 46.31 C86.07 53.74, 81.7 60.97, 76.7 66.77 C71.69 72.56, 63.93 78.34, 56.76 81.06 C49.58 83.77, 41.06 84.59, 33.64 83.05 C26.23 81.51, 17.73 77.12, 12.26 71.8 C6.8 66.48, 2.49 58.78, 0.85 51.11 C-0.79 43.45, -0.31 33.15, 2.4 25.81 C5.11 18.47, 10.48 11.46, 17.09 7.06 C23.71 2.66, 37.47 0.58, 42.09 -0.61 C46.71 -1.79, 44.68 -0.68, 44.81 -0.03 M33.64 1.51 C40.75 -0.38, 50.56 1.39, 58.13 4.04 C65.7 6.69, 74.3 11.35, 79.06 17.42 C83.82 23.48, 86.29 33, 86.69 40.43 C87.1 47.86, 85.59 55.78, 81.49 62 C77.39 68.21, 69.18 74.29, 62.09 77.72 C55 81.15, 46.5 83.04, 38.93 82.58 C31.35 82.11, 22.66 79.3, 16.63 74.91 C10.61 70.53, 5.26 63.28, 2.79 56.27 C0.32 49.27, 0.17 40.08, 1.81 32.88 C3.44 25.68, 7.3 18.34, 12.6 13.07 C17.91 7.8, 30.21 2.92, 33.65 1.27 C37.09 -0.39, 33.09 2.48, 33.22 3.13" stroke="none" stroke-width="0" fill="#ffa083"/>
    <path d="M53.26 1.07 C60.51 2.6, 68.97 8.59, 74.45 14.24 C79.92 19.88, 84.7 27.63, 86.11 34.96 C87.53 42.29, 85.96 51.19, 82.93 58.23 C79.9 65.27, 74.45 73.08, 67.93 77.21 C61.41 81.34, 51.65 82.88, 43.81 83.03 C35.96 83.18, 27.46 81.9, 20.89 78.09 C14.32 74.29, 7.94 66.99, 4.4 60.22 C0.86 53.45, -1.27 44.87, -0.36 37.48 C0.55 30.09, 4.9 21.72, 9.88 15.88 C14.86 10.05, 20.62 4.49, 29.51 2.47 C38.4 0.45, 56.56 2.44, 63.2 3.76 C69.84 5.08, 69.79 9.8, 69.36 10.4 M51.91 -0.05 C59.35 0.91, 67.58 6.72, 73.09 11.75 C78.59 16.77, 83.2 22.76, 84.95 30.09 C86.71 37.42, 86.1 48.25, 83.62 55.73 C81.15 63.21, 76.32 70.52, 70.11 74.97 C63.91 79.42, 53.89 81.71, 46.4 82.43 C38.92 83.15, 31.96 82.26, 25.2 79.29 C18.44 76.31, 9.87 71.11, 5.83 64.59 C1.8 58.06, 0.78 48.03, 0.98 40.13 C1.19 32.23, 2.77 23.11, 7.06 17.19 C11.35 11.27, 19.43 7.5, 26.73 4.6 C34.03 1.69, 47.04 0.39, 50.87 -0.24 C54.7 -0.87, 50.02 0.17, 49.72 0.84" stroke="#ffffff" stroke-width="1" fill="none"/>
  </g>
  <g transform="translate(76.07643441043956 422.0528801322546) rotate(0 16.850000381469727 9.200000000000003)">
    <text x="16.850000381469727" y="0" fill="#ffffff" text-anchor="middle" style="white-space: pre;" direction="ltr" dominant-baseline="text-before-edge">User</text>
  </g>
  <g stroke-linecap="round" transform="translate(195.446750133568 450.28425963153353) rotate(0 43.181572564415546 41.8730400624635)">
    <path d="M63.23 4.48 C69.95 7.06, 75.94 13.65, 79.88 20.26 C83.83 26.87, 87.23 36.67, 86.92 44.13 C86.61 51.59, 82.7 58.99, 78.03 65.01 C73.35 71.03, 65.88 77.19, 58.85 80.27 C51.82 83.36, 43.34 84.65, 35.84 83.49 C28.35 82.33, 19.62 78.37, 13.87 73.32 C8.12 68.28, 3.39 60.81, 1.35 53.24 C-0.69 45.66, -0.69 35.33, 1.63 27.86 C3.96 20.38, 9.27 13.09, 15.31 8.38 C21.34 3.68, 29.24 0.04, 37.83 -0.37 C46.42 -0.77, 61.42 4.3, 66.83 5.94 C72.24 7.58, 70.75 8.81, 70.29 9.48 M48.4 1.62 C56.12 1.94, 66.14 5.41, 72.22 10.29 C78.31 15.16, 82.73 23.73, 84.92 30.85 C87.1 37.97, 87.77 46.12, 85.34 53.01 C82.91 59.89, 76.4 67.3, 70.34 72.18 C64.28 77.05, 56.47 80.95, 48.96 82.24 C41.45 83.52, 32.21 82.77, 25.26 79.89 C18.31 77.01, 11.37 71.2, 7.28 64.98 C3.19 58.76, 0.89 49.94, 0.72 42.56 C0.56 35.17, 2.4 27.01, 6.3 20.64 C10.2 14.27, 17.24 7.47, 24.12 4.33 C31 1.19, 43.6 2.31, 47.57 1.82 C51.53 1.33, 47.76 1, 47.92 1.39" stroke="none" stroke-width="0" fill="#ffa083"/>
    <path d="M22.91 5.24 C29.44 1.53, 39.94 -0.26, 47.78 0.38 C55.62 1.01, 63.85 4.26, 69.96 9.04 C76.07 13.81, 82.01 22.01, 84.45 29.03 C86.88 36.05, 86.48 43.89, 84.56 51.16 C82.65 58.43, 78.5 67.35, 72.95 72.65 C67.39 77.94, 59 81.52, 51.23 82.93 C43.47 84.34, 33.58 83.85, 26.38 81.13 C19.17 78.42, 12.48 72.78, 8.03 66.62 C3.57 60.47, -0.04 51.96, -0.34 44.19 C-0.64 36.42, 1.67 26.87, 6.23 20.02 C10.78 13.17, 22.72 6.21, 27 3.09 C31.28 -0.02, 31.47 0.69, 31.89 1.31 M28.89 3.05 C35.44 -0.08, 45.2 -2.08, 52.62 -0.4 C60.04 1.28, 67.98 7.43, 73.42 13.13 C78.87 18.83, 83.83 26.69, 85.28 33.79 C86.73 40.89, 84.65 48.77, 82.13 55.73 C79.6 62.7, 76.21 70.68, 70.14 75.56 C64.07 80.44, 53.55 84.57, 45.71 85.01 C37.88 85.45, 30.02 82.24, 23.15 78.22 C16.27 74.19, 8.29 67.23, 4.47 60.85 C0.64 54.48, -0.52 47.51, 0.2 39.97 C0.93 32.43, 4.3 21.96, 8.84 15.61 C13.37 9.26, 24.29 4.1, 27.43 1.88 C30.57 -0.34, 27.27 1.72, 27.69 2.29" stroke="#ffffff" stroke-width="1" fill="none"/>
  </g>
  <g transform="translate(221.74433953391645 482.8485891169331) rotate(0 16.850000381469727 9.200000000000003)">
    <text x="16.850000381469727" y="0" fill="#ffffff" text-anchor="middle" style="white-space: pre;" direction="ltr" dominant-baseline="text-before-edge">User</text>
  </g>
  <g stroke-linecap="round" transform="translate(377.07124620331297 314.8532617533285) rotate(0 43.181572564415546 41.87304006246351)">
    <path d="M50.97 0.53 C58.32 1.43, 68.01 7.24, 73.6 12.37 C79.19 17.5, 82.94 24.15, 84.52 31.31 C86.11 38.46, 85.5 48.01, 83.11 55.33 C80.72 62.65, 76.12 70.38, 70.16 75.22 C64.2 80.06, 55.15 83.55, 47.35 84.36 C39.55 85.17, 30.39 83.8, 23.36 80.07 C16.34 76.34, 9.21 68.82, 5.19 61.97 C1.18 55.12, -1.07 46.45, -0.72 38.95 C-0.37 31.44, 2.66 23.09, 7.31 16.94 C11.96 10.8, 18.29 4.46, 27.18 2.09 C36.08 -0.28, 53.85 1.63, 60.67 2.72 C67.49 3.81, 68.35 7.94, 68.1 8.63 M53.37 1.24 C60.88 2.16, 68.66 8.12, 74.1 13.35 C79.54 18.58, 84.63 25.61, 85.99 32.62 C87.35 39.62, 85.2 48.41, 82.26 55.36 C79.32 62.32, 74.41 69.67, 68.36 74.35 C62.31 79.02, 53.59 82.67, 45.98 83.42 C38.38 84.16, 29.4 82.33, 22.74 78.81 C16.08 75.29, 9.85 68.76, 6.02 62.3 C2.19 55.84, -0.55 47.55, -0.25 40.03 C0.04 32.51, 3.32 23.2, 7.8 17.21 C12.29 11.22, 19.39 6.77, 26.66 4.09 C33.93 1.41, 47.13 1.58, 51.4 1.14 C55.66 0.69, 52.48 0.73, 52.26 1.41" stroke="none" stroke-width="0" fill="#ffa083"/>
    <path d="M36.69 0.71 C43.99 -1.12, 53.31 0.39, 60.45 3.51 C67.59 6.62, 75.31 13.23, 79.53 19.39 C83.76 25.55, 85.73 32.99, 85.8 40.47 C85.87 47.96, 83.95 57.79, 79.95 64.31 C75.94 70.83, 68.91 76.33, 61.77 79.58 C54.63 82.84, 44.81 84.69, 37.11 83.84 C29.4 83, 21.46 79.37, 15.54 74.53 C9.62 69.69, 3.85 62.21, 1.58 54.78 C-0.69 47.35, -0.09 37.24, 1.93 29.93 C3.96 22.63, 7.83 16.06, 13.74 10.97 C19.64 5.88, 33.11 1.04, 37.38 -0.6 C41.65 -2.24, 39.36 0.17, 39.38 1.14 M32.9 -0.24 C39.78 -2.49, 49.41 0.14, 56.75 2.93 C64.09 5.71, 72.27 10.82, 76.94 16.46 C81.61 22.11, 83.77 29.36, 84.77 36.79 C85.77 44.21, 86.29 53.89, 82.92 61.01 C79.56 68.12, 71.39 75.73, 64.58 79.47 C57.78 83.21, 49.96 84.16, 42.11 83.45 C34.26 82.74, 23.99 79.3, 17.5 75.2 C11.01 71.1, 5.96 65.89, 3.17 58.87 C0.39 51.85, -0.5 40.82, 0.8 33.07 C2.09 25.32, 5.74 17.83, 10.93 12.35 C16.13 6.86, 28.24 2.08, 31.96 0.16 C35.68 -1.76, 32.94 -0.06, 33.25 0.81" stroke="#ffffff" stroke-width="1" fill="none"/>
  </g>
  <g transform="translate(403.3688356036614 347.4175912387281) rotate(0 16.850000381469727 9.2)">
    <text x="16.850000381469727" y="0" fill="#ffffff" text-anchor="middle" style="white-space: pre;" direction="ltr" dominant-baseline="text-before-edge">User</text>
  </g>
  <g stroke-linecap="round" transform="translate(10 261.6301842620378) rotate(0 43.181572564415546 41.87304006246351)">
    <path d="M44.95 0.79 C52.33 0.32, 60.7 2.47, 66.88 6.55 C73.07 10.62, 78.88 18.11, 82.07 25.25 C85.27 32.39, 87.21 41.76, 86.06 49.38 C84.9 56.99, 80.44 65.29, 75.13 70.95 C69.82 76.61, 61.85 81.7, 54.21 83.36 C46.57 85.01, 36.84 83.55, 29.31 80.91 C21.78 78.27, 13.97 73.33, 9.01 67.52 C4.05 61.72, 0.33 53.58, -0.44 46.09 C-1.2 38.59, 0.87 29.36, 4.42 22.55 C7.97 15.73, 12.81 8.81, 20.86 5.18 C28.92 1.55, 45.99 0.93, 52.75 0.77 C59.51 0.6, 61.45 3.51, 61.43 4.19 M61 4.67 C67.94 6.92, 75.82 12.51, 79.81 18.44 C83.81 24.36, 85.09 32.77, 84.97 40.2 C84.85 47.62, 83.03 56.45, 79.09 63 C75.15 69.56, 68.21 76.08, 61.34 79.51 C54.46 82.93, 45.38 84.45, 37.84 83.57 C30.29 82.69, 22.12 78.92, 16.07 74.22 C10.02 69.51, 4.1 62.52, 1.56 55.32 C-0.99 48.12, -1.12 38.23, 0.8 31.02 C2.72 23.81, 7.28 17.1, 13.07 12.04 C18.85 6.99, 27.59 2.17, 35.53 0.7 C43.47 -0.78, 56.81 2.56, 60.7 3.2 C64.59 3.83, 59.17 3.99, 58.88 4.53" stroke="none" stroke-width="0" fill="#ffa083"/>
    <path d="M56.69 2.11 C63.91 3.89, 72.34 10.5, 77.15 16.24 C81.96 21.99, 84.75 29.13, 85.55 36.57 C86.34 44.02, 85.28 54.04, 81.91 60.9 C78.54 67.76, 72.12 73.86, 65.32 77.74 C58.53 81.62, 48.88 84.3, 41.12 84.15 C33.36 84.01, 25.11 81.18, 18.75 76.9 C12.39 72.61, 5.91 65.64, 2.96 58.45 C0.01 51.26, -0.27 41.2, 1.04 33.74 C2.36 26.29, 5.68 19.27, 10.87 13.71 C16.05 8.15, 24.04 2.17, 32.13 0.39 C40.22 -1.39, 54.73 2.21, 59.42 3.04 C64.12 3.87, 60.72 4.68, 60.32 5.37 M50.09 1.26 C57.46 2.23, 66.69 6.74, 72.27 11.57 C77.85 16.39, 81.35 23.01, 83.57 30.22 C85.79 37.43, 87.8 47.28, 85.57 54.85 C83.35 62.43, 76.34 70.95, 70.25 75.68 C64.15 80.41, 56.79 82.74, 48.99 83.23 C41.18 83.72, 30.53 81.68, 23.41 78.62 C16.28 75.55, 10.13 71.33, 6.23 64.84 C2.34 58.36, -0.02 47.59, 0.04 39.7 C0.1 31.81, 2.37 23.77, 6.6 17.53 C10.83 11.29, 18.08 5.26, 25.43 2.25 C32.78 -0.77, 46.54 -0.45, 50.69 -0.56 C54.84 -0.68, 50.21 0.53, 50.3 1.56" stroke="#ffffff" stroke-width="1" fill="none"/>
  </g>
  <g transform="translate(36.29758940034844 294.1945137474373) rotate(0 16.850000381469727 9.2)">
    <text x="16.850000381469727" y="0" fill="#ffffff" text-anchor="middle" style="white-space: pre;" direction="ltr" dominant-baseline="text-before-edge">User</text>
  </g>
  <g stroke-linecap="round">
    <g transform="translate(98.71875979873312 307.5340681163887) rotate(0 32.680205096570035 3.49830712379638)">
      <path d="M0 0 C18.23 1.81, 34.99 3.35, 65.36 7" stroke="#ffa083" stroke-width="1.5" fill="none" stroke-dasharray="8 9"/>
    </g>
  </g>
  <mask/>
  <g stroke-linecap="round">
    <g transform="translate(131.6741397291289 405.35073334978426) rotate(0 23.147124966747697 -15.918425252681539)">
      <path d="M0 0 C16.77 -11.61, 34.03 -22.46, 46.29 -31.84" stroke="#ffa083" stroke-width="1.5" fill="none" stroke-dasharray="8 9"/>
    </g>
  </g>
  <mask/>
  <g stroke-linecap="round">
    <g transform="translate(244.01367285545393 446.9936182992437) rotate(0 -1.0993849600399699 -23.447938666200784)">
      <path d="M0 0 C-0.28 -14.15, -1.95 -30.49, -2.2 -46.9" stroke="#ffa083" stroke-width="1.5" fill="none" stroke-dasharray="8 9"/>
    </g>
  </g>
  <mask/>
  <g stroke-linecap="round">
    <g transform="translate(373.6002476885583 345.95508052730673) rotate(0 -26.775894501999574 -6.031232097674884)">
      <path d="M0 0 C-17.27 -4.63, -32.17 -6.08, -53.55 -12.06" stroke="#ffa083" stroke-width="1.5" fill="none" stroke-dasharray="8 9"/>
    </g>
  </g>
  <mask/>
  <g stroke-linecap="round" transform="translate(17.148012893789655 84.62230053287573) rotate(0 65.8768637944188 63.42991303267446)">
    <path d="M37.48 5.31 C45.93 0.4, 58.24 -1.27, 68.37 -0.82 C78.49 -0.36, 89.35 3.1, 98.25 8.05 C107.14 12.99, 116.11 20.56, 121.72 28.84 C127.34 37.13, 131.01 47.77, 131.95 57.77 C132.9 67.77, 131.4 79.66, 127.38 88.82 C123.37 97.98, 115.78 106.53, 107.88 112.72 C99.98 118.91, 90.04 124.17, 79.98 125.96 C69.92 127.75, 57.57 126.33, 47.51 123.48 C37.45 120.62, 27.09 115.48, 19.64 108.82 C12.18 102.15, 5.92 92.68, 2.76 83.48 C-0.4 74.27, -1.06 63.17, 0.68 53.58 C2.42 43.99, 6.71 34.04, 13.22 25.95 C19.73 17.86, 34.8 8.53, 39.73 5.06 C44.67 1.59, 42.37 4.27, 42.81 5.12 M96.43 6.82 C105.41 10.31, 112.8 19.49, 118.62 27.46 C124.44 35.43, 129.92 44.7, 131.35 54.63 C132.79 64.57, 130.93 77.92, 127.22 87.07 C123.52 96.22, 116.46 103.43, 109.13 109.53 C101.79 115.63, 92.88 121.13, 83.22 123.67 C73.55 126.22, 61.22 126.93, 51.14 124.8 C41.05 122.67, 30.49 117.53, 22.7 110.88 C14.91 104.24, 8.17 93.97, 4.4 84.92 C0.63 75.87, -1.21 66.04, 0.09 56.58 C1.4 47.12, 6.44 36.36, 12.22 28.18 C17.99 20, 25.96 12.26, 34.74 7.49 C43.53 2.73, 54.43 -0.51, 64.91 -0.41 C75.39 -0.31, 92.44 6.5, 97.61 8.11 C102.77 9.73, 96.64 8.55, 95.89 9.3" stroke="none" stroke-width="0" fill="#ff80b3"/>
    <path d="M78.04 1.64 C87.75 2.64, 99.35 8.45, 107.34 14.63 C115.32 20.8, 121.85 29.89, 125.95 38.68 C130.06 47.46, 132.75 57.59, 131.95 67.36 C131.15 77.13, 126.64 88.99, 121.13 97.31 C115.62 105.62, 107.54 112.31, 98.89 117.24 C90.25 122.17, 79.53 126.17, 69.26 126.89 C58.99 127.62, 46.66 125.72, 37.28 121.6 C27.89 117.47, 18.96 110.09, 12.96 102.14 C6.96 94.19, 3.03 83.72, 1.26 73.91 C-0.51 64.11, -0.87 52.68, 2.32 43.33 C5.51 33.99, 12.86 24.77, 20.39 17.83 C27.93 10.88, 37.13 4.12, 47.52 1.68 C57.9 -0.76, 76.02 2.68, 82.7 3.19 C89.38 3.7, 87.62 3.78, 87.59 4.76 M60.47 1.63 C70.16 -0.1, 82.33 0.62, 91.55 4.1 C100.78 7.59, 109.51 14.96, 115.81 22.53 C122.12 30.1, 127.13 40.01, 129.37 49.55 C131.62 59.08, 131.95 70.09, 129.27 79.72 C126.6 89.36, 120.17 99.91, 113.35 107.35 C106.52 114.8, 97.85 121.09, 88.3 124.39 C78.75 127.69, 66.36 128.97, 56.06 127.17 C45.77 125.37, 34.86 119.52, 26.53 113.6 C18.2 107.68, 10.3 100.58, 6.08 91.66 C1.86 82.74, 0.95 70.28, 1.21 60.1 C1.47 49.92, 2.82 38.85, 7.63 30.57 C12.45 22.28, 21.2 15.42, 30.1 10.39 C38.99 5.36, 55.74 1.86, 61.01 0.37 C66.28 -1.11, 61.46 0.61, 61.7 1.49" stroke="#ffffff" stroke-width="1" fill="none"/>
  </g>
  <g transform="translate(52.79289995734189 139.0004919300731) rotate(0 30.149999618530273 9.200000000000003)">
    <text x="30.149999618530273" y="0" fill="#ffffff" text-anchor="middle" style="white-space: pre;" direction="ltr" dominant-baseline="text-before-edge">Instance</text>
  </g>
  <g stroke-linecap="round">
    <g transform="translate(130.33296245699557 199.76165836821326) rotate(0 27.431722095257555 31.804895182907295)">
      <path d="M0 0 C12.65 14.25, 23.98 29.91, 54.86 63.61" stroke="#ff80b3" stroke-width="1.5" fill="none" stroke-dasharray="8 9"/>
    </g>
  </g>
  <mask/>
  <g stroke-linecap="round" transform="translate(299.8074014826675 91.91694725835794) rotate(0 65.87686379441902 63.42991303267446)">
    <path d="M37.02 5.85 C45.39 1.03, 58.24 -0.85, 68.57 -0.49 C78.91 -0.13, 90.1 2.92, 99.05 8.01 C107.99 13.1, 116.82 21.64, 122.26 30.04 C127.71 38.43, 130.87 48.64, 131.71 58.38 C132.55 68.13, 131.35 79.66, 127.31 88.51 C123.28 97.36, 115.63 105.41, 107.5 111.5 C99.37 117.59, 88.6 122.93, 78.53 125.05 C68.46 127.17, 56.79 126.8, 47.08 124.21 C37.37 121.61, 27.51 116.14, 20.26 109.48 C13.01 102.81, 6.78 93.58, 3.58 84.2 C0.37 74.83, -0.67 63.1, 1.04 53.23 C2.74 43.36, 6.95 33.28, 13.82 24.97 C20.69 16.66, 36.55 6.99, 42.25 3.39 C47.95 -0.22, 47.64 2.2, 48.01 3.35 M58.16 -0.52 C67.85 -2.37, 79.61 2.03, 89.04 5.49 C98.46 8.94, 107.65 13.27, 114.69 20.2 C121.73 27.12, 128.6 37.35, 131.26 47.06 C133.92 56.78, 133.28 68.74, 130.65 78.46 C128.02 88.19, 122.38 98.24, 115.47 105.43 C108.56 112.62, 98.84 118.01, 89.17 121.61 C79.5 125.2, 67.48 127.9, 57.45 126.99 C47.42 126.09, 37.4 121.87, 29.02 116.19 C20.63 110.52, 12.11 101.83, 7.14 92.94 C2.17 84.06, -1.07 72.6, -0.78 62.9 C-0.49 53.21, 3.97 43.24, 8.89 34.78 C13.81 26.32, 20.57 17.91, 28.73 12.16 C36.9 6.4, 52.82 2, 57.89 0.25 C62.95 -1.5, 58.97 0.59, 59.13 1.66" stroke="none" stroke-width="0" fill="#ff80b3"/>
    <path d="M79.58 1.91 C89.31 2.76, 100.86 7.76, 108.63 14.05 C116.41 20.34, 122.45 30.6, 126.21 39.67 C129.98 48.74, 132.01 58.73, 131.21 68.48 C130.41 78.23, 127.06 89.68, 121.41 98.18 C115.76 106.69, 106.36 114.68, 97.31 119.51 C88.26 124.34, 77.15 127.02, 67.13 127.16 C57.1 127.29, 46.38 124.75, 37.15 120.3 C27.91 115.85, 17.71 108.41, 11.71 100.46 C5.71 92.52, 2.41 82.43, 1.13 72.61 C-0.15 62.8, 0.84 50.68, 4.02 41.57 C7.2 32.46, 12.8 24.54, 20.2 17.97 C27.6 11.39, 37.79 4.64, 48.42 2.12 C59.05 -0.4, 77.79 2.55, 83.98 2.84 C90.17 3.13, 86.11 2.93, 85.59 3.85 M94.7 6.21 C103.61 9.58, 112.47 17.73, 118.55 25.65 C124.64 33.57, 129.72 43.79, 131.23 53.72 C132.74 63.65, 130.89 75.63, 127.63 85.2 C124.36 94.78, 119.05 104.39, 111.63 111.17 C104.21 117.95, 93.2 123.67, 83.1 125.9 C73.01 128.14, 61.18 126.83, 51.09 124.58 C40.99 122.32, 30.08 118.83, 22.53 112.37 C14.97 105.91, 9.65 95.3, 5.78 85.8 C1.9 76.3, -1.55 64.9, -0.73 55.36 C0.1 45.83, 4.76 36.53, 10.73 28.6 C16.69 20.68, 25.83 12.6, 35.07 7.83 C44.31 3.07, 55.81 0.32, 66.16 0.01 C76.51 -0.29, 92.55 4.87, 97.17 6 C101.79 7.14, 94.85 5.93, 93.88 6.84" stroke="#ffffff" stroke-width="1" fill="none"/>
  </g>
  <g transform="translate(335.45228854621973 146.29513865555532) rotate(0 30.149999618530273 9.200000000000003)">
    <text x="30.149999618530273" y="0" fill="#ffffff" text-anchor="middle" style="white-space: pre;" direction="ltr" dominant-baseline="text-before-edge">Instance</text>
  </g>
  <g stroke-linecap="round">
    <g transform="translate(155.81052696967527 149.04208107520648) rotate(0 68.34468724936437 2.670520078610892)">
      <path d="M0 0 C40.04 2.08, 79 3.41, 136.69 5.34" stroke="#ff80b3" stroke-width="1.5" fill="none" stroke-dasharray="8 9"/>
    </g>
  </g>
  <mask/>
  <g stroke-linecap="round">
    <g transform="translate(297.0871079015392 258.7902818143921) rotate(0 13.292947909892064 -20.149300419218164)">
      <path d="M0 0 C8.72 -13.46, 18.61 -28.54, 26.59 -40.3" stroke="#ff80b3" stroke-width="1.5" fill="none" stroke-dasharray="8 9"/>
    </g>
  </g>
  <mask/>
  <g stroke-linecap="round" transform="translate(180.17911871151955 10) rotate(0 43.18157256441532 41.8730400624635)">
    <path d="M30.3 1.05 C37.1 -1.56, 46.65 -0.92, 54.19 1.13 C61.74 3.18, 70.23 7.74, 75.57 13.35 C80.91 18.96, 84.89 27.14, 86.23 34.79 C87.57 42.45, 86.75 52.24, 83.61 59.27 C80.46 66.3, 73.85 72.81, 67.37 76.96 C60.88 81.11, 52.55 84.22, 44.7 84.16 C36.85 84.09, 27.14 80.69, 20.28 76.57 C13.41 72.46, 6.93 66.15, 3.49 59.47 C0.05 52.78, -1.42 43.83, -0.35 36.45 C0.72 29.07, 4.49 20.93, 9.9 15.18 C15.31 9.42, 28.07 4.17, 32.11 1.91 C36.16 -0.35, 33.86 1.08, 34.15 1.59 M48 0.56 C55.66 0.63, 65.42 4.73, 71.27 9.62 C77.13 14.51, 80.88 22.8, 83.14 29.92 C85.4 37.04, 86.78 44.89, 84.83 52.33 C82.88 59.78, 77.39 69.64, 71.44 74.59 C65.49 79.53, 56.55 81.3, 49.14 82 C41.73 82.71, 33.87 81.72, 26.99 78.82 C20.12 75.91, 12.35 70.69, 7.91 64.57 C3.47 58.45, 0.57 49.8, 0.37 42.11 C0.16 34.41, 2.67 24.64, 6.69 18.39 C10.72 12.13, 17.37 7.45, 24.52 4.56 C31.67 1.66, 45.61 1.54, 49.6 1 C53.59 0.47, 48.81 0.83, 48.47 1.34" stroke="none" stroke-width="0" fill="#ffa083"/>
    <path d="M25.8 2.49 C32.51 -0.92, 42.95 -0.85, 50.55 0.66 C58.16 2.16, 65.78 6.41, 71.42 11.5 C77.06 16.59, 82.16 24.06, 84.38 31.22 C86.59 38.37, 87.13 47.36, 84.7 54.44 C82.28 61.52, 75.81 68.9, 69.84 73.72 C63.87 78.53, 56.39 82.5, 48.88 83.32 C41.37 84.15, 31.98 81.78, 24.78 78.67 C17.58 75.56, 9.8 70.99, 5.67 64.69 C1.54 58.39, -0.44 48.47, -0.01 40.88 C0.42 33.29, 2.74 25.85, 8.24 19.16 C13.73 12.47, 27.66 3.75, 32.95 0.72 C38.25 -2.32, 39.66 0.21, 40.01 0.96 M29.34 0.86 C36.39 -1.92, 47.11 -1.88, 54.75 0.32 C62.39 2.52, 69.78 8.09, 75.19 14.05 C80.6 20.02, 85.86 28.48, 87.21 36.1 C88.57 43.71, 86.66 53.09, 83.32 59.75 C79.98 66.42, 73.82 71.94, 67.19 76.09 C60.56 80.23, 51.12 84.55, 43.52 84.62 C35.92 84.69, 28.33 80.85, 21.59 76.51 C14.85 72.17, 6.7 65.16, 3.09 58.58 C-0.52 52.01, -1.34 44.3, -0.07 37.06 C1.2 29.81, 5.44 20.98, 10.71 15.12 C15.98 9.26, 27.98 4.11, 31.55 1.9 C35.11 -0.32, 32.29 1.36, 32.1 1.83" stroke="#ffffff" stroke-width="1" fill="none"/>
  </g>
  <g transform="translate(206.476708111868 42.56432948539958) rotate(0 16.8500003814695 9.199999999999989)">
    <text x="16.850000381469727" y="0" fill="#ffffff" text-anchor="middle" style="white-space: pre;" direction="ltr" dominant-baseline="text-before-edge">User</text>
  </g>
  <g stroke-linecap="round">
    <g transform="translate(258.66057538988525 80.95176488887137) rotate(0 22.175136810002186 17.055950936410696)">
      <path d="M0 0 C14.7 12.2, 30.33 22.71, 44.35 34.11" stroke="#ffa083" stroke-width="1.5" fill="none" stroke-dasharray="8 9"/>
    </g>
  </g>
  <mask/>
  <g stroke-linecap="round" transform="translate(621.0930725376234 107.4005764770692) rotate(0 55.56231838939857 53.87861177153815)">
    <path d="M74.94 3.42 C83.43 5.73, 92.24 12.31, 98.17 19.14 C104.09 25.96, 108.96 35.46, 110.49 44.36 C112.02 53.26, 110.52 64.15, 107.36 72.54 C104.19 80.93, 98.7 88.96, 91.5 94.69 C84.3 100.43, 73.52 105.45, 64.15 106.97 C54.77 108.49, 43.76 106.92, 35.25 103.84 C26.73 100.75, 18.68 95.42, 13.05 88.47 C7.43 81.51, 3.01 71.1, 1.49 62.1 C-0.04 53.1, 0.87 42.9, 3.9 34.45 C6.93 26.01, 12.68 17.05, 19.67 11.43 C26.65 5.81, 36.1 1.86, 45.82 0.72 C55.54 -0.41, 72.47 3.6, 77.99 4.63 C83.51 5.65, 79.54 6.23, 78.94 6.89 M62.62 0.25 C71.5 0.72, 82.23 5.43, 89.64 10.82 C97.06 16.22, 103.43 24.27, 107.1 32.61 C110.78 40.95, 112.95 51.97, 111.7 60.85 C110.46 69.73, 105.22 78.81, 99.63 85.9 C94.04 93, 86.55 100.01, 78.16 103.42 C69.76 106.82, 58.56 107.36, 49.25 106.33 C39.94 105.3, 29.6 102.32, 22.27 97.25 C14.94 92.17, 9.08 84.34, 5.28 75.89 C1.48 67.43, -1.69 55.58, -0.55 46.51 C0.6 37.44, 6.24 28.65, 12.18 21.47 C18.11 14.28, 26.75 6.89, 35.07 3.4 C43.39 -0.09, 57.83 1.05, 62.12 0.52 C66.41 -0.01, 60.75 -0.62, 60.83 0.22" stroke="none" stroke-width="0" fill="#8888ff"/>
    <path d="M41.04 0.84 C49.35 -2.28, 60.45 -1.48, 69.36 1.13 C78.27 3.73, 87.98 9.96, 94.5 16.48 C101.03 22.99, 106.14 31.63, 108.51 40.24 C110.89 48.85, 111.11 59.58, 108.73 68.12 C106.35 76.66, 100.81 85.02, 94.24 91.47 C87.67 97.92, 78.05 104.53, 69.3 106.83 C60.55 109.13, 50.53 107.59, 41.76 105.27 C32.99 102.95, 23.36 99.03, 16.7 92.9 C10.04 86.76, 4.42 77.3, 1.81 68.46 C-0.81 59.62, -1.5 48.61, 1.02 39.88 C3.55 31.15, 9.95 22.41, 16.95 16.09 C23.96 9.78, 37.98 4.45, 43.03 1.97 C48.08 -0.51, 47.02 0.59, 47.25 1.22 M82.97 7.52 C91.17 10.63, 97.75 16.85, 102.31 24.31 C106.88 31.77, 109.97 43.29, 110.35 52.27 C110.73 61.25, 109.05 70.39, 104.61 78.19 C100.16 85.99, 91.43 94.06, 83.69 99.07 C75.96 104.08, 67.05 107.75, 58.21 108.24 C49.36 108.73, 39.05 106.31, 30.63 101.98 C22.22 97.65, 12.69 90.02, 7.73 82.25 C2.76 74.48, 1.16 64.11, 0.83 55.37 C0.5 46.63, 1.64 37.79, 5.74 29.81 C9.85 21.82, 17.25 12.61, 25.44 7.43 C33.64 2.25, 45.5 -0.95, 54.91 -1.29 C64.32 -1.63, 77.42 4.03, 81.91 5.41 C86.39 6.79, 82.22 6.22, 81.81 6.99" stroke="#ffffff" stroke-width="1" fill="none"/>
  </g>
  <g transform="translate(657.7918980524923 151.9812565040354) rotate(0 19.075000762939453 9.200000000000003)">
    <text x="19.075000762939453" y="0" fill="#ffffff" text-anchor="middle" style="white-space: pre;" direction="ltr" dominant-baseline="text-before-edge">Node</text>
  </g>
  <g stroke-linecap="round" transform="translate(846.0050550609062 51.8730404270479) rotate(0 55.56231838939857 53.87861177153815)">
    <path d="M34.53 3.28 C42.45 -0.74, 54.36 -1.55, 63.55 -0.23 C72.75 1.08, 82.32 5.63, 89.7 11.17 C97.09 16.7, 104.46 24.6, 107.86 32.98 C111.26 41.36, 111.69 52.5, 110.13 61.46 C108.58 70.41, 104.11 79.57, 98.54 86.72 C92.97 93.86, 85.05 101, 76.69 104.33 C68.34 107.66, 57.61 108.11, 48.42 106.69 C39.23 105.28, 29.07 101.42, 21.56 95.83 C14.04 90.23, 6.93 81.41, 3.31 73.14 C-0.31 64.88, -1.68 54.95, -0.17 46.23 C1.34 37.52, 5.65 28.12, 12.39 20.84 C19.13 13.56, 34.71 5.84, 40.26 2.55 C45.82 -0.75, 45.38 0.27, 45.73 1.09 M33.46 4.78 C41.16 0.57, 52.3 -0.84, 61.56 0.14 C70.82 1.12, 81.63 5.43, 89.01 10.65 C96.39 15.86, 102.09 23.32, 105.86 31.42 C109.63 39.52, 112.45 50.44, 111.64 59.26 C110.84 68.08, 106.55 76.99, 101.02 84.32 C95.49 91.66, 86.82 99.28, 78.45 103.29 C70.09 107.29, 60.2 109.46, 50.82 108.36 C41.44 107.26, 29.63 102.11, 22.15 96.71 C14.67 91.31, 9.37 84.14, 5.95 75.95 C2.52 67.75, 0.85 56.46, 1.58 47.56 C2.32 38.66, 5.37 29.87, 10.35 22.53 C15.33 15.19, 27.49 6.34, 31.47 3.51 C35.45 0.69, 33.87 4.78, 34.22 5.57" stroke="none" stroke-width="0" fill="#8888ff"/>
    <path d="M63.4 -0.09 C72.18 0.71, 82.76 6.74, 89.97 12.53 C97.17 18.31, 103.29 26.32, 106.62 34.62 C109.96 42.92, 111.38 53.6, 109.99 62.34 C108.61 71.08, 104.13 79.96, 98.31 87.07 C92.5 94.18, 83.53 101.76, 75.09 105 C66.66 108.24, 56.7 107.85, 47.72 106.49 C38.75 105.13, 28.57 102.25, 21.23 96.85 C13.9 91.45, 7.28 82.61, 3.7 74.08 C0.12 65.55, -1.77 54.59, -0.24 45.66 C1.29 36.73, 7.09 27.36, 12.88 20.49 C18.67 13.62, 25.58 7.78, 34.51 4.44 C43.44 1.1, 61.02 0.9, 66.48 0.45 C71.93 0, 67.31 0.88, 67.24 1.75 M59.36 -1.09 C67.89 -1.38, 78.51 4.37, 86.25 9.45 C93.99 14.54, 101.87 21.43, 105.81 29.42 C109.75 37.42, 110.46 48.18, 109.89 57.42 C109.31 66.66, 107.19 77.25, 102.37 84.87 C97.54 92.49, 89.54 99.36, 80.93 103.16 C72.31 106.95, 60.01 108.48, 50.68 107.65 C41.34 106.82, 32.62 103.04, 24.93 98.19 C17.24 93.34, 8.82 86.76, 4.54 78.58 C0.26 70.39, -1.79 58.5, -0.75 49.08 C0.28 39.67, 5.36 29.56, 10.75 22.08 C16.14 14.61, 23.35 7.96, 31.61 4.24 C39.87 0.52, 55.59 0.46, 60.32 -0.23 C65.05 -0.93, 60.29 -0.71, 59.99 0.08" stroke="#ffffff" stroke-width="1" fill="none"/>
  </g>
  <g transform="translate(882.7038805757752 96.4537204540141) rotate(0 19.075000762939453 9.200000000000003)">
    <text x="19.075000762939453" y="0" fill="#ffffff" text-anchor="middle" style="white-space: pre;" direction="ltr" dominant-baseline="text-before-edge">Node</text>
  </g>
  <g stroke-linecap="round" transform="translate(833.7138547484324 200.1226669501092) rotate(0 55.56231838939857 53.878611771538154)">
    <path d="M54.38 -0.76 C63.19 -1.7, 73.81 1.96, 82.04 6.26 C90.26 10.55, 98.98 17.3, 103.75 25.01 C108.52 32.73, 110.7 43.52, 110.68 52.56 C110.66 61.61, 107.89 71.32, 103.6 79.28 C99.31 87.24, 92.58 95.68, 84.91 100.34 C77.24 105, 66.88 107.16, 57.59 107.23 C48.31 107.29, 37.59 105.09, 29.22 100.73 C20.86 96.38, 12.41 88.71, 7.42 81.11 C2.43 73.51, -0.7 63.93, -0.72 55.13 C-0.73 46.32, 2.82 36.07, 7.33 28.28 C11.84 20.49, 18.1 13.23, 26.36 8.4 C34.62 3.58, 51.06 0.46, 56.91 -0.66 C62.75 -1.79, 61.48 0.58, 61.45 1.64 M53.37 -0.07 C62.17 -1.17, 73.93 2.41, 82.03 6.49 C90.12 10.58, 96.98 16.97, 101.95 24.44 C106.92 31.91, 111.3 42.47, 111.86 51.32 C112.42 60.17, 109.67 69.52, 105.3 77.55 C100.94 85.58, 93.37 94.33, 85.65 99.5 C77.94 104.67, 68.43 108.34, 59.01 108.57 C49.59 108.8, 37.33 105.14, 29.13 100.86 C20.94 96.59, 14.48 90.49, 9.85 82.93 C5.22 75.37, 2 64.44, 1.36 55.5 C0.73 46.56, 2.25 37.34, 6.07 29.3 C9.89 21.27, 16.28 12.2, 24.27 7.3 C32.25 2.4, 49.42 1.16, 53.96 -0.1 C58.51 -1.36, 51.5 -1.32, 51.53 -0.25" stroke="none" stroke-width="0" fill="#8888ff"/>
    <path d="M29.16 6.91 C36.55 2.39, 47.62 0.01, 56.86 0.27 C66.1 0.53, 76.74 3.83, 84.61 8.47 C92.48 13.11, 99.79 20.06, 104.11 28.11 C108.43 36.16, 110.65 47.79, 110.51 56.75 C110.38 65.71, 108.02 74.26, 103.28 81.88 C98.53 89.5, 90.34 98.04, 82.04 102.47 C73.73 106.89, 62.94 108.91, 53.46 108.43 C43.98 107.94, 32.88 104.36, 25.15 99.53 C17.42 94.7, 11.43 87.26, 7.09 79.45 C2.74 71.64, -1.2 61.81, -0.91 52.69 C-0.62 43.57, 3.07 32.95, 8.84 24.72 C14.62 16.49, 28.42 7, 33.76 3.33 C39.09 -0.34, 40.35 1.63, 40.84 2.7 M74.36 3.44 C82.98 5.72, 92.79 11.62, 98.61 18.45 C104.44 25.28, 107.65 35.28, 109.31 44.42 C110.97 53.57, 111.41 64.71, 108.57 73.33 C105.72 81.96, 99.66 90.55, 92.24 96.17 C84.83 101.8, 73.31 105.75, 64.08 107.09 C54.84 108.43, 45.55 107.12, 36.83 104.2 C28.1 101.28, 17.91 96.57, 11.74 89.55 C5.57 82.53, 1.03 71.4, -0.17 62.08 C-1.37 52.75, 1.14 42.09, 4.55 33.62 C7.96 25.14, 13.24 16.77, 20.3 11.22 C27.36 5.67, 37.75 1.82, 46.92 0.33 C56.09 -1.16, 70.82 1.76, 75.3 2.29 C79.78 2.81, 73.96 2.49, 73.78 3.47" stroke="#ffffff" stroke-width="1" fill="none"/>
  </g>
  <g transform="translate(870.4126802633014 244.7033469770754) rotate(0 19.075000762939453 9.199999999999996)">
    <text x="19.075000762939453" y="0" fill="#ffffff" text-anchor="middle" style="white-space: pre;" direction="ltr" dominant-baseline="text-before-edge">Node</text>
  </g>
  <g stroke-linecap="round" transform="translate(1073.3714459553107 400.33351177821623) rotate(0 55.56231838939857 53.87861177153815)">
    <path d="M39.22 1.98 C47.51 -1.26, 59.9 -1.54, 68.88 0.55 C77.86 2.63, 86.57 8.26, 93.1 14.47 C99.62 20.67, 105.18 29.09, 108.02 37.76 C110.86 46.44, 112 57.79, 110.14 66.53 C108.29 75.26, 103.23 83.76, 96.88 90.18 C90.53 96.59, 81.14 102.45, 72.04 105.02 C62.94 107.58, 51.49 107.54, 42.29 105.58 C33.1 103.61, 23.43 99.19, 16.87 93.23 C10.3 87.26, 5.53 78.3, 2.91 69.8 C0.29 61.3, -0.74 51.12, 1.13 42.22 C2.99 33.31, 7.01 23.13, 14.09 16.36 C21.18 9.58, 38.2 3.99, 43.66 1.58 C49.11 -0.83, 46.65 0.98, 46.8 1.89 M57.1 0.5 C65.78 -0.23, 75.52 2.68, 83.46 7.16 C91.4 11.65, 100.08 19.69, 104.75 27.39 C109.43 35.1, 111.7 44.36, 111.49 53.39 C111.27 62.42, 108.11 73.52, 103.47 81.57 C98.84 89.62, 91.92 97.47, 83.68 101.68 C75.45 105.9, 63.28 107.11, 54.05 106.86 C44.83 106.61, 35.94 104.78, 28.34 100.21 C20.74 95.63, 13.21 87.22, 8.47 79.43 C3.73 71.64, 0.22 62.5, -0.12 53.47 C-0.45 44.44, 1.55 33.01, 6.45 25.23 C11.35 17.45, 21.25 11.22, 29.29 6.79 C37.32 2.35, 50.03 -0.58, 54.66 -1.38 C59.29 -2.19, 56.97 0.64, 57.09 1.94" stroke="none" stroke-width="0" fill="#8888ff"/>
    <path d="M35.14 3.73 C43.07 -0.09, 54.84 -0.38, 64.01 0.93 C73.18 2.24, 83 5.81, 90.16 11.6 C97.31 17.39, 103.47 27.3, 106.95 35.68 C110.43 44.07, 112.36 53.03, 111.05 61.91 C109.74 70.78, 105.04 81.76, 99.07 88.94 C93.09 96.12, 84.07 101.94, 75.18 104.97 C66.29 107.99, 54.77 108.57, 45.74 107.07 C36.72 105.57, 28.22 101.52, 21.04 95.96 C13.86 90.41, 5.99 82.3, 2.66 73.76 C-0.67 65.21, -0.46 53.8, 1.07 44.69 C2.6 35.58, 5.53 26.17, 11.84 19.08 C18.16 11.99, 34.18 4.68, 38.97 2.15 C43.76 -0.38, 40.33 2.98, 40.57 3.88 M33.15 3.4 C40.82 -0.88, 51.02 -1.59, 60.38 -0.35 C69.73 0.89, 81.38 5.33, 89.28 10.84 C97.17 16.35, 104.27 24.56, 107.76 32.7 C111.26 40.83, 111.33 50.84, 110.25 59.64 C109.16 68.44, 106.78 78, 101.28 85.49 C95.77 92.99, 85.95 101.04, 77.2 104.6 C68.44 108.15, 57.65 108.26, 48.76 106.84 C39.87 105.43, 31.17 101.47, 23.84 96.11 C16.51 90.75, 8.63 82.75, 4.78 74.7 C0.93 66.64, -0.26 56.73, 0.75 47.78 C1.76 38.83, 5.63 28.35, 10.85 20.99 C16.08 13.64, 28.15 6.27, 32.1 3.64 C36.05 1.02, 34.23 4.34, 34.57 5.26" stroke="#ffffff" stroke-width="1" fill="none"/>
  </g>
  <g transform="translate(1110.0702714701797 444.91419180518244) rotate(0 19.075000762939453 9.200000000000003)">
    <text x="19.075000762939453" y="0" fill="#ffffff" text-anchor="middle" style="white-space: pre;" direction="ltr" dominant-baseline="text-before-edge">Node</text>
  </g>
  <g stroke-linecap="round" transform="translate(1076.4119815204372 121.34509575371601) rotate(0 55.56231838939857 53.87861177153815)">
    <path d="M35.24 3.16 C43.04 -0.75, 53.68 -0.86, 62.62 0.42 C71.56 1.7, 81.4 5.24, 88.87 10.82 C96.34 16.4, 103.7 25.61, 107.45 33.91 C111.2 42.21, 112.64 51.87, 111.37 60.62 C110.1 69.38, 105.73 79.39, 99.82 86.45 C93.92 93.51, 84.68 99.5, 75.93 102.97 C67.18 106.44, 56.32 108.31, 47.34 107.27 C38.36 106.24, 29.31 102.15, 22.06 96.74 C14.81 91.33, 7.56 83.3, 3.82 74.83 C0.08 66.36, -1.73 54.85, -0.39 45.91 C0.95 36.97, 5.43 28.38, 11.87 21.17 C18.31 13.97, 32.89 5.75, 38.23 2.68 C43.56 -0.39, 43.47 1.9, 43.89 2.76 M52.77 -0.28 C61.49 -1.51, 73.67 2.04, 82.01 6.07 C90.34 10.09, 97.93 16.27, 102.78 23.89 C107.64 31.51, 110.66 42.51, 111.14 51.8 C111.63 61.09, 110.12 71.85, 105.68 79.62 C101.23 87.39, 92.25 93.75, 84.47 98.42 C76.7 103.09, 67.91 107.26, 59.04 107.65 C50.16 108.03, 39.62 104.87, 31.22 100.75 C22.81 96.64, 13.99 90.59, 8.59 82.97 C3.18 75.34, -1.01 64.02, -1.22 54.99 C-1.44 45.97, 3.05 36.83, 7.29 28.84 C11.54 20.85, 16.44 11.71, 24.24 7.06 C32.04 2.4, 49.4 1.73, 54.11 0.92 C58.82 0.1, 52.42 1.51, 52.48 2.17" stroke="none" stroke-width="0" fill="#8888ff"/>
    <path d="M72.68 3 C81.31 4.84, 90.47 10.76, 96.6 17.6 C102.72 24.43, 107.38 35.22, 109.43 44 C111.48 52.79, 111.67 61.78, 108.91 70.31 C106.15 78.84, 99.93 89.01, 92.88 95.18 C85.83 101.36, 75.9 105.74, 66.6 107.37 C57.3 109.01, 45.74 107.9, 37.07 105 C28.41 102.09, 20.75 96.56, 14.6 89.96 C8.45 83.37, 2.07 74.39, 0.18 65.44 C-1.72 56.49, 0.24 45.05, 3.21 36.28 C6.19 27.52, 10.99 18.8, 18.03 12.83 C25.07 6.86, 35.74 1.85, 45.44 0.47 C55.15 -0.92, 70.62 3.67, 76.25 4.53 C81.88 5.39, 79.72 5.01, 79.21 5.64 M54.48 -0.65 C63.42 -1.14, 75.89 3.01, 84.33 7.72 C92.76 12.43, 100.71 19.89, 105.08 27.59 C109.46 35.29, 110.66 45.08, 110.56 53.93 C110.46 62.78, 109.18 72.68, 104.49 80.69 C99.81 88.71, 90.77 97.59, 82.46 102 C74.15 106.41, 63.6 107.61, 54.65 107.15 C45.71 106.69, 36.66 103.79, 28.79 99.23 C20.93 94.67, 12.18 87.42, 7.46 79.8 C2.73 72.18, 0.41 62.49, 0.44 53.49 C0.47 44.49, 3.23 33.67, 7.63 25.79 C12.03 17.92, 18.67 10.6, 26.84 6.24 C35 1.88, 52.04 0.57, 56.63 -0.35 C61.23 -1.27, 54.6 -0.14, 54.41 0.73" stroke="#ffffff" stroke-width="1" fill="none"/>
  </g>
  <g transform="translate(1113.1108070353062 165.92577578068222) rotate(0 19.075000762939453 9.200000000000003)">
    <text x="19.075000762939453" y="0" fill="#ffffff" text-anchor="middle" style="white-space: pre;" direction="ltr" dominant-baseline="text-before-edge">Node</text>
  </g>
  <g stroke-linecap="round" transform="translate(734.7248496847219 359.3982089323207) rotate(0 55.56231838939857 53.878611771538154)">
    <path d="M45.42 0.76 C53.7 -1.43, 64.94 -0.37, 73.8 2.77 C82.65 5.92, 92.35 12.77, 98.55 19.63 C104.75 26.5, 109.43 35.24, 111.02 43.94 C112.62 52.64, 111.52 63.44, 108.12 71.83 C104.73 80.23, 97.91 88.49, 90.65 94.34 C83.39 100.19, 73.46 105.19, 64.54 106.94 C55.62 108.68, 45.77 107.76, 37.13 104.79 C28.49 101.82, 18.92 96.14, 12.72 89.11 C6.52 82.08, 1.48 71.48, -0.04 62.59 C-1.57 53.7, 0.4 44.07, 3.57 35.79 C6.74 27.51, 11.33 18.73, 18.95 12.9 C26.58 7.07, 43.64 2.72, 49.33 0.81 C55.02 -1.1, 52.99 0.5, 53.1 1.42 M65.44 0.7 C74.37 1.21, 84.16 5.46, 91.2 11.21 C98.23 16.96, 104.31 26.48, 107.65 35.21 C110.98 43.93, 112.89 54.89, 111.2 63.55 C109.52 72.22, 103.39 80.4, 97.55 87.18 C91.71 93.97, 84.45 101.1, 76.15 104.25 C67.86 107.41, 57.12 107.55, 47.79 106.11 C38.46 104.68, 27.76 101.4, 20.17 95.64 C12.59 89.89, 5.34 80.05, 2.28 71.59 C-0.79 63.14, 0.28 53.8, 1.77 44.91 C3.25 36.03, 5.3 25.06, 11.17 18.29 C17.04 11.53, 28.2 7.06, 36.99 4.31 C45.79 1.55, 59.18 2.28, 63.94 1.77 C68.7 1.25, 65.61 0.29, 65.55 1.23" stroke="none" stroke-width="0" fill="#8888ff"/>
    <path d="M61.55 -0.18 C70.36 0.16, 80.63 6.25, 88.25 11.61 C95.86 16.97, 103.44 23.73, 107.27 31.99 C111.09 40.26, 112.42 52.06, 111.21 61.2 C110 70.34, 105.78 79.8, 100.01 86.83 C94.24 93.87, 84.99 99.92, 76.59 103.4 C68.2 106.89, 58.85 108.67, 49.65 107.74 C40.44 106.82, 28.83 103.35, 21.36 97.83 C13.9 92.31, 8.47 83.11, 4.86 74.6 C1.24 66.1, -1.5 55.75, -0.31 46.82 C0.89 37.89, 6.36 27.97, 12.04 21.01 C17.72 14.05, 24.84 8.51, 33.8 5.09 C42.75 1.66, 60.26 0.97, 65.77 0.45 C71.29 -0.08, 67.17 0.96, 66.89 1.91 M34.48 4.94 C42.65 1.06, 54.41 0.06, 63.35 1.02 C72.29 1.98, 80.78 5.45, 88.12 10.68 C95.45 15.9, 103.73 23.88, 107.36 32.36 C110.98 40.83, 111.21 52.69, 109.86 61.53 C108.51 70.37, 104.46 78.64, 99.25 85.39 C94.05 92.13, 86.98 98.51, 78.64 102.01 C70.3 105.51, 58.49 107.25, 49.19 106.37 C39.9 105.49, 30.29 102.12, 22.88 96.74 C15.48 91.37, 8.68 82.47, 4.77 74.13 C0.86 65.79, -1.78 55.5, -0.57 46.71 C0.64 37.93, 6.55 28.52, 12.03 21.41 C17.52 14.31, 28.71 6.84, 32.34 4.08 C35.98 1.33, 33.45 3.96, 33.86 4.87" stroke="#ffffff" stroke-width="1" fill="none"/>
  </g>
  <g transform="translate(771.4236751995909 403.9788889592869) rotate(0 19.075000762939453 9.2)">
    <text x="19.075000762939453" y="0" fill="#ffffff" text-anchor="middle" style="white-space: pre;" direction="ltr" dominant-baseline="text-before-edge">Node</text>
  </g>
  <g stroke-linecap="round">
    <g transform="translate(892.5351695310005 188.01609981997137) rotate(0 1.2988473808027265 -8.420976433920842)">
      <path d="M0.13 -0.26 C0.52 -3.05, 2.36 -14.33, 2.72 -17.15" stroke="#8888ff" stroke-width="1.5" fill="none" stroke-dasharray="8 9"/>
    </g>
  </g>
  <mask/>
  <g stroke-linecap="round">
    <g transform="translate(695.2878488944912 230.72428333596778) rotate(0 28.417713324169654 64.68732563403155)">
      <path d="M0.28 -0.67 C9.59 20.87, 46.56 106.88, 56.17 128.69" stroke="#8888ff" stroke-width="1.5" fill="none" stroke-dasharray="8 9"/>
    </g>
  </g>
  <mask/>
  <g stroke-linecap="round">
    <g transform="translate(855.149639501165 427.6710511565692) rotate(0 99.733390846357 13.769149265977639)">
      <path d="M-0.67 -0.69 C32.71 4.14, 167.31 23.52, 200.54 28.31" stroke="#8888ff" stroke-width="1.5" fill="none" stroke-dasharray="8 9"/>
    </g>
  </g>
  <mask/>
  <g stroke-linecap="round">
    <g transform="translate(933.6033948008958 312.30752722058173) rotate(0 72.19649747504172 47.26234016047354)">
      <path d="M1.07 0.78 C25.12 16.74, 119.55 79.49, 143.63 95.1" stroke="#8888ff" stroke-width="1.5" fill="none" stroke-dasharray="8 9"/>
    </g>
  </g>
  <mask/>
  <g stroke-linecap="round">
    <g transform="translate(856.605242456943 315.2671431623975) rotate(0 -13.762062805582445 20.471127363937477)">
      <path d="M-0.76 0.57 C-5.33 7.25, -22.04 34.31, -26.36 40.86" stroke="#1971c2" stroke-width="1.5" fill="none" stroke-dasharray="8 9"/>
    </g>
  </g>
  <mask/>
  <g stroke-linecap="round">
    <g transform="translate(1126.8094110115167 388.03578429933236) rotate(0 7.020792789252937 -75.32851299562428)">
      <path d="M1.17 -0.08 C3.77 -25.46, 12.74 -126.75, 14.89 -151.72" stroke="#8888ff" stroke-width="1.5" fill="none" stroke-dasharray="8 9"/>
    </g>
  </g>
  <mask/>
  <g stroke-linecap="round">
    <g transform="translate(962.05105644278 248.5860443288454) rotate(0 58.51052511049147 -13.536829356526198)">
      <path d="M0.85 -1.07 C20.16 -5.44, 97.6 -21.79, 117.04 -26.32" stroke="#8888ff" stroke-width="1.5" fill="none" stroke-dasharray="8 9"/>
    </g>
  </g>
  <mask/>
  <g stroke-linecap="round">
    <g transform="translate(742.4653003088874 144.5503163618182) rotate(0 46.504943433785684 -17.141046457743172)">
      <path d="M0.02 0.76 C15.45 -4.97, 77.79 -29.65, 93.44 -35.42" stroke="#8888ff" stroke-width="1.5" fill="none" stroke-dasharray="8 9"/>
    </g>
  </g>
  <mask/>
</svg>
