<svg xmlns="http://www.w3.org/2000/svg" version="1.1" viewBox="0 0 1197.5366182992343 544.0303397564605" width="1197.5366182992343" height="544.0303397564605">
  <defs>
    <style>
      @import url("/assets/css/fonts.css");
      svg { font-size: 16px; font-family: "Inter", sans-serif; }
    </style>
  </defs>
  <g stroke-linecap="round" transform="translate(164.46806523511532 249.54652025739685) rotate(0 75.81566086153839 72.99954032373856)">
    <path d="M103.65 5.15 C113.88 8.13, 124.93 16.5, 132.44 24.52 C139.94 32.54, 145.64 43.04, 148.68 53.27 C151.71 63.5, 152.52 75.75, 150.62 85.9 C148.72 96.05, 143.71 105.85, 137.27 114.17 C130.84 122.5, 121.61 130.66, 112.02 135.84 C102.42 141.02, 90.5 144.62, 79.68 145.26 C68.87 145.9, 57.15 143.71, 47.13 139.67 C37.1 135.63, 26.95 128.78, 19.53 121.02 C12.12 113.27, 5.69 103.24, 2.65 93.16 C-0.39 83.08, -0.64 70.98, 1.28 60.56 C3.21 50.14, 7.82 39.08, 14.21 30.65 C20.61 22.21, 30.14 15, 39.68 9.96 C49.21 4.92, 59.16 0.48, 71.42 0.41 C83.68 0.33, 105.32 7.27, 113.22 9.52 C121.13 11.77, 119.71 12.99, 118.85 13.91 M50.52 4.43 C60.12 0.12, 73.72 -0.53, 84.52 0.74 C95.33 2.01, 106.29 6.48, 115.36 12.04 C124.43 17.61, 133.23 25.2, 138.95 34.15 C144.67 43.11, 148.42 55.34, 149.7 65.79 C150.97 76.23, 149.91 87.15, 146.61 96.84 C143.31 106.53, 137.67 116.4, 129.89 123.92 C122.12 131.44, 110.3 138.5, 99.97 141.95 C89.64 145.4, 78.66 145.55, 67.93 144.62 C57.2 143.7, 45.03 142, 35.59 136.39 C26.16 130.78, 16.92 120.33, 11.31 110.99 C5.7 101.65, 2.99 90.67, 1.93 80.36 C0.86 70.04, 1.55 58.89, 4.93 49.09 C8.31 39.29, 14.65 29.24, 22.22 21.58 C29.79 13.91, 45.65 5.64, 50.35 3.09 C55.06 0.53, 49.92 4.8, 50.45 6.24" stroke="none" stroke-width="0" fill="#ff80b3"/>
  </g>
  <g transform="translate(210.02395856279009 313.22759059471906) rotate(0 30.149999618530273 9.2)">
    <text x="30.149999618530273" y="0" fill="#ffffff" text-anchor="middle" style="white-space: pre;" direction="ltr" dominant-baseline="text-before-edge">Instance</text>
  </g>
  <g stroke-linecap="round" transform="translate(49.77884501009112 389.488550646855) rotate(0 43.181572564415546 41.87304006246351)">
    <path d="M41.36 0.45 C48.82 -0.68, 58.61 1.88, 65.22 5.5 C71.82 9.12, 77.39 15.36, 80.98 22.16 C84.58 28.96, 87.5 38.87, 86.79 46.31 C86.07 53.74, 81.7 60.97, 76.7 66.77 C71.69 72.56, 63.93 78.34, 56.76 81.06 C49.58 83.77, 41.06 84.59, 33.64 83.05 C26.23 81.51, 17.73 77.12, 12.26 71.8 C6.8 66.48, 2.49 58.78, 0.85 51.11 C-0.79 43.45, -0.31 33.15, 2.4 25.81 C5.11 18.47, 10.48 11.46, 17.09 7.06 C23.71 2.66, 37.47 0.58, 42.09 -0.61 C46.71 -1.79, 44.68 -0.68, 44.81 -0.03 M33.64 1.51 C40.75 -0.38, 50.56 1.39, 58.13 4.04 C65.7 6.69, 74.3 11.35, 79.06 17.42 C83.82 23.48, 86.29 33, 86.69 40.43 C87.1 47.86, 85.59 55.78, 81.49 62 C77.39 68.21, 69.18 74.29, 62.09 77.72 C55 81.15, 46.5 83.04, 38.93 82.58 C31.35 82.11, 22.66 79.3, 16.63 74.91 C10.61 70.53, 5.26 63.28, 2.79 56.27 C0.32 49.27, 0.17 40.08, 1.81 32.88 C3.44 25.68, 7.3 18.34, 12.6 13.07 C17.91 7.8, 30.21 2.92, 33.65 1.27 C37.09 -0.39, 33.09 2.48, 33.22 3.13" stroke="none" stroke-width="0" fill="#ffa083"/>
  </g>
  <g transform="translate(76.07643441043956 422.0528801322546) rotate(0 16.850000381469727 9.200000000000003)">
    <text x="16.850000381469727" y="0" fill="#ffffff" text-anchor="middle" style="white-space: pre;" direction="ltr" dominant-baseline="text-before-edge">User</text>
  </g>
  <g stroke-linecap="round" transform="translate(195.446750133568 450.28425963153353) rotate(0 43.181572564415546 41.8730400624635)">
    <path d="M63.23 4.48 C69.95 7.06, 75.94 13.65, 79.88 20.26 C83.83 26.87, 87.23 36.67, 86.92 44.13 C86.61 51.59, 82.7 58.99, 78.03 65.01 C73.35 71.03, 65.88 77.19, 58.85 80.27 C51.82 83.36, 43.34 84.65, 35.84 83.49 C28.35 82.33, 19.62 78.37, 13.87 73.32 C8.12 68.28, 3.39 60.81, 1.35 53.24 C-0.69 45.66, -0.69 35.33, 1.63 27.86 C3.96 20.38, 9.27 13.09, 15.31 8.38 C21.34 3.68, 29.24 0.04, 37.83 -0.37 C46.42 -0.77, 61.42 4.3, 66.83 5.94 C72.24 7.58, 70.75 8.81, 70.29 9.48 M48.4 1.62 C56.12 1.94, 66.14 5.41, 72.22 10.29 C78.31 15.16, 82.73 23.73, 84.92 30.85 C87.1 37.97, 87.77 46.12, 85.34 53.01 C82.91 59.89, 76.4 67.3, 70.34 72.18 C64.28 77.05, 56.47 80.95, 48.96 82.24 C41.45 83.52, 32.21 82.77, 25.26 79.89 C18.31 77.01, 11.37 71.2, 7.28 64.98 C3.19 58.76, 0.89 49.94, 0.72 42.56 C0.56 35.17, 2.4 27.01, 6.3 20.64 C10.2 14.27, 17.24 7.47, 24.12 4.33 C31 1.19, 43.6 2.31, 47.57 1.82 C51.53 1.33, 47.76 1, 47.92 1.39" stroke="none" stroke-width="0" fill="#ffa083"/>
  </g>
  <g transform="translate(221.74433953391645 482.8485891169331) rotate(0 16.850000381469727 9.200000000000003)">
    <text x="16.850000381469727" y="0" fill="#ffffff" text-anchor="middle" style="white-space: pre;" direction="ltr" dominant-baseline="text-before-edge">User</text>
  </g>
  <g stroke-linecap="round" transform="translate(377.07124620331297 314.8532617533285) rotate(0 43.181572564415546 41.87304006246351)">
    <path d="M50.97 0.53 C58.32 1.43, 68.01 7.24, 73.6 12.37 C79.19 17.5, 82.94 24.15, 84.52 31.31 C86.11 38.46, 85.5 48.01, 83.11 55.33 C80.72 62.65, 76.12 70.38, 70.16 75.22 C64.2 80.06, 55.15 83.55, 47.35 84.36 C39.55 85.17, 30.39 83.8, 23.36 80.07 C16.34 76.34, 9.21 68.82, 5.19 61.97 C1.18 55.12, -1.07 46.45, -0.72 38.95 C-0.37 31.44, 2.66 23.09, 7.31 16.94 C11.96 10.8, 18.29 4.46, 27.18 2.09 C36.08 -0.28, 53.85 1.63, 60.67 2.72 C67.49 3.81, 68.35 7.94, 68.1 8.63 M53.37 1.24 C60.88 2.16, 68.66 8.12, 74.1 13.35 C79.54 18.58, 84.63 25.61, 85.99 32.62 C87.35 39.62, 85.2 48.41, 82.26 55.36 C79.32 62.32, 74.41 69.67, 68.36 74.35 C62.31 79.02, 53.59 82.67, 45.98 83.42 C38.38 84.16, 29.4 82.33, 22.74 78.81 C16.08 75.29, 9.85 68.76, 6.02 62.3 C2.19 55.84, -0.55 47.55, -0.25 40.03 C0.04 32.51, 3.32 23.2, 7.8 17.21 C12.29 11.22, 19.39 6.77, 26.66 4.09 C33.93 1.41, 47.13 1.58, 51.4 1.14 C55.66 0.69, 52.48 0.73, 52.26 1.41" stroke="none" stroke-width="0" fill="#ffa083"/>
  </g>
  <g transform="translate(403.3688356036614 347.4175912387281) rotate(0 16.850000381469727 9.2)">
    <text x="16.850000381469727" y="0" fill="#ffffff" text-anchor="middle" style="white-space: pre;" direction="ltr" dominant-baseline="text-before-edge">User</text>
  </g>
  <g stroke-linecap="round" transform="translate(10 261.6301842620378) rotate(0 43.181572564415546 41.87304006246351)">
    <path d="M44.95 0.79 C52.33 0.32, 60.7 2.47, 66.88 6.55 C73.07 10.62, 78.88 18.11, 82.07 25.25 C85.27 32.39, 87.21 41.76, 86.06 49.38 C84.9 56.99, 80.44 65.29, 75.13 70.95 C69.82 76.61, 61.85 81.7, 54.21 83.36 C46.57 85.01, 36.84 83.55, 29.31 80.91 C21.78 78.27, 13.97 73.33, 9.01 67.52 C4.05 61.72, 0.33 53.58, -0.44 46.09 C-1.2 38.59, 0.87 29.36, 4.42 22.55 C7.97 15.73, 12.81 8.81, 20.86 5.18 C28.92 1.55, 45.99 0.93, 52.75 0.77 C59.51 0.6, 61.45 3.51, 61.43 4.19 M61 4.67 C67.94 6.92, 75.82 12.51, 79.81 18.44 C83.81 24.36, 85.09 32.77, 84.97 40.2 C84.85 47.62, 83.03 56.45, 79.09 63 C75.15 69.56, 68.21 76.08, 61.34 79.51 C54.46 82.93, 45.38 84.45, 37.84 83.57 C30.29 82.69, 22.12 78.92, 16.07 74.22 C10.02 69.51, 4.1 62.52, 1.56 55.32 C-0.99 48.12, -1.12 38.23, 0.8 31.02 C2.72 23.81, 7.28 17.1, 13.07 12.04 C18.85 6.99, 27.59 2.17, 35.53 0.7 C43.47 -0.78, 56.81 2.56, 60.7 3.2 C64.59 3.83, 59.17 3.99, 58.88 4.53" stroke="none" stroke-width="0" fill="#ffa083"/>
  </g>
  <g transform="translate(36.29758940034844 294.1945137474373) rotate(0 16.850000381469727 9.2)">
    <text x="16.850000381469727" y="0" fill="#ffffff" text-anchor="middle" style="white-space: pre;" direction="ltr" dominant-baseline="text-before-edge">User</text>
  </g>
  <g stroke-linecap="round">
    <g transform="translate(98.71875979873312 307.5340681163887) rotate(0 32.680205096570035 3.49830712379638)">
      <path d="M0 0 C18.23 1.81, 34.99 3.35, 65.36 7" stroke="#ffa083" stroke-width="1.5" fill="none" stroke-dasharray="8 9"/>
    </g>
  </g>
  <mask/>
  <g stroke-linecap="round">
    <g transform="translate(131.6741397291289 405.35073334978426) rotate(0 23.147124966747697 -15.918425252681539)">
      <path d="M0 0 C16.77 -11.61, 34.03 -22.46, 46.29 -31.84" stroke="#ffa083" stroke-width="1.5" fill="none" stroke-dasharray="8 9"/>
    </g>
  </g>
  <mask/>
  <g stroke-linecap="round">
    <g transform="translate(244.01367285545393 446.9936182992437) rotate(0 -1.0993849600399699 -23.447938666200784)">
      <path d="M0 0 C-0.28 -14.15, -1.95 -30.49, -2.2 -46.9" stroke="#ffa083" stroke-width="1.5" fill="none" stroke-dasharray="8 9"/>
    </g>
  </g>
  <mask/>
  <g stroke-linecap="round">
    <g transform="translate(373.6002476885583 345.95508052730673) rotate(0 -26.775894501999574 -6.031232097674884)">
      <path d="M0 0 C-17.27 -4.63, -32.17 -6.08, -53.55 -12.06" stroke="#ffa083" stroke-width="1.5" fill="none" stroke-dasharray="8 9"/>
    </g>
  </g>
  <mask/>
  <g stroke-linecap="round" transform="translate(17.148012893789655 84.62230053287573) rotate(0 65.8768637944188 63.42991303267446)">
    <path d="M37.48 5.31 C45.93 0.4, 58.24 -1.27, 68.37 -0.82 C78.49 -0.36, 89.35 3.1, 98.25 8.05 C107.14 12.99, 116.11 20.56, 121.72 28.84 C127.34 37.13, 131.01 47.77, 131.95 57.77 C132.9 67.77, 131.4 79.66, 127.38 88.82 C123.37 97.98, 115.78 106.53, 107.88 112.72 C99.98 118.91, 90.04 124.17, 79.98 125.96 C69.92 127.75, 57.57 126.33, 47.51 123.48 C37.45 120.62, 27.09 115.48, 19.64 108.82 C12.18 102.15, 5.92 92.68, 2.76 83.48 C-0.4 74.27, -1.06 63.17, 0.68 53.58 C2.42 43.99, 6.71 34.04, 13.22 25.95 C19.73 17.86, 34.8 8.53, 39.73 5.06 C44.67 1.59, 42.37 4.27, 42.81 5.12 M96.43 6.82 C105.41 10.31, 112.8 19.49, 118.62 27.46 C124.44 35.43, 129.92 44.7, 131.35 54.63 C132.79 64.57, 130.93 77.92, 127.22 87.07 C123.52 96.22, 116.46 103.43, 109.13 109.53 C101.79 115.63, 92.88 121.13, 83.22 123.67 C73.55 126.22, 61.22 126.93, 51.14 124.8 C41.05 122.67, 30.49 117.53, 22.7 110.88 C14.91 104.24, 8.17 93.97, 4.4 84.92 C0.63 75.87, -1.21 66.04, 0.09 56.58 C1.4 47.12, 6.44 36.36, 12.22 28.18 C17.99 20, 25.96 12.26, 34.74 7.49 C43.53 2.73, 54.43 -0.51, 64.91 -0.41 C75.39 -0.31, 92.44 6.5, 97.61 8.11 C102.77 9.73, 96.64 8.55, 95.89 9.3" stroke="none" stroke-width="0" fill="#ff80b3"/>
  </g>
  <g transform="translate(52.79289995734189 139.0004919300731) rotate(0 30.149999618530273 9.200000000000003)">
    <text x="30.149999618530273" y="0" fill="#ffffff" text-anchor="middle" style="white-space: pre;" direction="ltr" dominant-baseline="text-before-edge">Instance</text>
  </g>
  <g stroke-linecap="round">
    <g transform="translate(130.33296245699557 199.76165836821326) rotate(0 27.431722095257555 31.804895182907295)">
      <path d="M0 0 C12.65 14.25, 23.98 29.91, 54.86 63.61" stroke="#ff80b3" stroke-width="1.5" fill="none" stroke-dasharray="8 9"/>
    </g>
  </g>
  <mask/>
  <g stroke-linecap="round" transform="translate(299.8074014826675 91.91694725835794) rotate(0 65.87686379441902 63.42991303267446)">
    <path d="M37.02 5.85 C45.39 1.03, 58.24 -0.85, 68.57 -0.49 C78.91 -0.13, 90.1 2.92, 99.05 8.01 C107.99 13.1, 116.82 21.64, 122.26 30.04 C127.71 38.43, 130.87 48.64, 131.71 58.38 C132.55 68.13, 131.35 79.66, 127.31 88.51 C123.28 97.36, 115.63 105.41, 107.5 111.5 C99.37 117.59, 88.6 122.93, 78.53 125.05 C68.46 127.17, 56.79 126.8, 47.08 124.21 C37.37 121.61, 27.51 116.14, 20.26 109.48 C13.01 102.81, 6.78 93.58, 3.58 84.2 C0.37 74.83, -0.67 63.1, 1.04 53.23 C2.74 43.36, 6.95 33.28, 13.82 24.97 C20.69 16.66, 36.55 6.99, 42.25 3.39 C47.95 -0.22, 47.64 2.2, 48.01 3.35 M58.16 -0.52 C67.85 -2.37, 79.61 2.03, 89.04 5.49 C98.46 8.94, 107.65 13.27, 114.69 20.2 C121.73 27.12, 128.6 37.35, 131.26 47.06 C133.92 56.78, 133.28 68.74, 130.65 78.46 C128.02 88.19, 122.38 98.24, 115.47 105.43 C108.56 112.62, 98.84 118.01, 89.17 121.61 C79.5 125.2, 67.48 127.9, 57.45 126.99 C47.42 126.09, 37.4 121.87, 29.02 116.19 C20.63 110.52, 12.11 101.83, 7.14 92.94 C2.17 84.06, -1.07 72.6, -0.78 62.9 C-0.49 53.21, 3.97 43.24, 8.89 34.78 C13.81 26.32, 20.57 17.91, 28.73 12.16 C36.9 6.4, 52.82 2, 57.89 0.25 C62.95 -1.5, 58.97 0.59, 59.13 1.66" stroke="none" stroke-width="0" fill="#ff80b3"/>
  </g>
  <g transform="translate(335.45228854621973 146.29513865555532) rotate(0 30.149999618530273 9.200000000000003)">
    <text x="30.149999618530273" y="0" fill="#ffffff" text-anchor="middle" style="white-space: pre;" direction="ltr" dominant-baseline="text-before-edge">Instance</text>
  </g>
  <g stroke-linecap="round">
    <g transform="translate(155.81052696967527 149.04208107520648) rotate(0 68.34468724936437 2.670520078610892)">
      <path d="M0 0 C40.04 2.08, 79 3.41, 136.69 5.34" stroke="#ff80b3" stroke-width="1.5" fill="none" stroke-dasharray="8 9"/>
    </g>
  </g>
  <mask/>
  <g stroke-linecap="round">
    <g transform="translate(297.0871079015392 258.7902818143921) rotate(0 13.292947909892064 -20.149300419218164)">
      <path d="M0 0 C8.72 -13.46, 18.61 -28.54, 26.59 -40.3" stroke="#ff80b3" stroke-width="1.5" fill="none" stroke-dasharray="8 9"/>
    </g>
  </g>
  <mask/>
  <g stroke-linecap="round" transform="translate(180.17911871151955 10) rotate(0 43.18157256441532 41.8730400624635)">
    <path d="M30.3 1.05 C37.1 -1.56, 46.65 -0.92, 54.19 1.13 C61.74 3.18, 70.23 7.74, 75.57 13.35 C80.91 18.96, 84.89 27.14, 86.23 34.79 C87.57 42.45, 86.75 52.24, 83.61 59.27 C80.46 66.3, 73.85 72.81, 67.37 76.96 C60.88 81.11, 52.55 84.22, 44.7 84.16 C36.85 84.09, 27.14 80.69, 20.28 76.57 C13.41 72.46, 6.93 66.15, 3.49 59.47 C0.05 52.78, -1.42 43.83, -0.35 36.45 C0.72 29.07, 4.49 20.93, 9.9 15.18 C15.31 9.42, 28.07 4.17, 32.11 1.91 C36.16 -0.35, 33.86 1.08, 34.15 1.59 M48 0.56 C55.66 0.63, 65.42 4.73, 71.27 9.62 C77.13 14.51, 80.88 22.8, 83.14 29.92 C85.4 37.04, 86.78 44.89, 84.83 52.33 C82.88 59.78, 77.39 69.64, 71.44 74.59 C65.49 79.53, 56.55 81.3, 49.14 82 C41.73 82.71, 33.87 81.72, 26.99 78.82 C20.12 75.91, 12.35 70.69, 7.91 64.57 C3.47 58.45, 0.57 49.8, 0.37 42.11 C0.16 34.41, 2.67 24.64, 6.69 18.39 C10.72 12.13, 17.37 7.45, 24.52 4.56 C31.67 1.66, 45.61 1.54, 49.6 1 C53.59 0.47, 48.81 0.83, 48.47 1.34" stroke="none" stroke-width="0" fill="#ffa083"/>
  </g>
  <g transform="translate(206.476708111868 42.56432948539958) rotate(0 16.8500003814695 9.199999999999989)">
    <text x="16.850000381469727" y="0" fill="#ffffff" text-anchor="middle" style="white-space: pre;" direction="ltr" dominant-baseline="text-before-edge">User</text>
  </g>
  <g stroke-linecap="round">
    <g transform="translate(258.66057538988525 80.95176488887137) rotate(0 22.175136810002186 17.055950936410696)">
      <path d="M0 0 C14.7 12.2, 30.33 22.71, 44.35 34.11" stroke="#ffa083" stroke-width="1.5" fill="none" stroke-dasharray="8 9"/>
    </g>
  </g>
  <mask/>
  <g stroke-linecap="round" transform="translate(621.0930725376234 107.4005764770692) rotate(0 55.56231838939857 53.87861177153815)">
    <path d="M74.94 3.42 C83.43 5.73, 92.24 12.31, 98.17 19.14 C104.09 25.96, 108.96 35.46, 110.49 44.36 C112.02 53.26, 110.52 64.15, 107.36 72.54 C104.19 80.93, 98.7 88.96, 91.5 94.69 C84.3 100.43, 73.52 105.45, 64.15 106.97 C54.77 108.49, 43.76 106.92, 35.25 103.84 C26.73 100.75, 18.68 95.42, 13.05 88.47 C7.43 81.51, 3.01 71.1, 1.49 62.1 C-0.04 53.1, 0.87 42.9, 3.9 34.45 C6.93 26.01, 12.68 17.05, 19.67 11.43 C26.65 5.81, 36.1 1.86, 45.82 0.72 C55.54 -0.41, 72.47 3.6, 77.99 4.63 C83.51 5.65, 79.54 6.23, 78.94 6.89 M62.62 0.25 C71.5 0.72, 82.23 5.43, 89.64 10.82 C97.06 16.22, 103.43 24.27, 107.1 32.61 C110.78 40.95, 112.95 51.97, 111.7 60.85 C110.46 69.73, 105.22 78.81, 99.63 85.9 C94.04 93, 86.55 100.01, 78.16 103.42 C69.76 106.82, 58.56 107.36, 49.25 106.33 C39.94 105.3, 29.6 102.32, 22.27 97.25 C14.94 92.17, 9.08 84.34, 5.28 75.89 C1.48 67.43, -1.69 55.58, -0.55 46.51 C0.6 37.44, 6.24 28.65, 12.18 21.47 C18.11 14.28, 26.75 6.89, 35.07 3.4 C43.39 -0.09, 57.83 1.05, 62.12 0.52 C66.41 -0.01, 60.75 -0.62, 60.83 0.22" stroke="none" stroke-width="0" fill="#8888ff"/>
  </g>
  <g transform="translate(657.7918980524923 151.9812565040354) rotate(0 19.075000762939453 9.200000000000003)">
    <text x="19.075000762939453" y="0" fill="#ffffff" text-anchor="middle" style="white-space: pre;" direction="ltr" dominant-baseline="text-before-edge">Node</text>
  </g>
  <g stroke-linecap="round" transform="translate(846.0050550609062 51.8730404270479) rotate(0 55.56231838939857 53.87861177153815)">
    <path d="M34.53 3.28 C42.45 -0.74, 54.36 -1.55, 63.55 -0.23 C72.75 1.08, 82.32 5.63, 89.7 11.17 C97.09 16.7, 104.46 24.6, 107.86 32.98 C111.26 41.36, 111.69 52.5, 110.13 61.46 C108.58 70.41, 104.11 79.57, 98.54 86.72 C92.97 93.86, 85.05 101, 76.69 104.33 C68.34 107.66, 57.61 108.11, 48.42 106.69 C39.23 105.28, 29.07 101.42, 21.56 95.83 C14.04 90.23, 6.93 81.41, 3.31 73.14 C-0.31 64.88, -1.68 54.95, -0.17 46.23 C1.34 37.52, 5.65 28.12, 12.39 20.84 C19.13 13.56, 34.71 5.84, 40.26 2.55 C45.82 -0.75, 45.38 0.27, 45.73 1.09 M33.46 4.78 C41.16 0.57, 52.3 -0.84, 61.56 0.14 C70.82 1.12, 81.63 5.43, 89.01 10.65 C96.39 15.86, 102.09 23.32, 105.86 31.42 C109.63 39.52, 112.45 50.44, 111.64 59.26 C110.84 68.08, 106.55 76.99, 101.02 84.32 C95.49 91.66, 86.82 99.28, 78.45 103.29 C70.09 107.29, 60.2 109.46, 50.82 108.36 C41.44 107.26, 29.63 102.11, 22.15 96.71 C14.67 91.31, 9.37 84.14, 5.95 75.95 C2.52 67.75, 0.85 56.46, 1.58 47.56 C2.32 38.66, 5.37 29.87, 10.35 22.53 C15.33 15.19, 27.49 6.34, 31.47 3.51 C35.45 0.69, 33.87 4.78, 34.22 5.57" stroke="none" stroke-width="0" fill="#8888ff"/>
  </g>
  <g transform="translate(882.7038805757752 96.4537204540141) rotate(0 19.075000762939453 9.200000000000003)">
    <text x="19.075000762939453" y="0" fill="#ffffff" text-anchor="middle" style="white-space: pre;" direction="ltr" dominant-baseline="text-before-edge">Node</text>
  </g>
  <g stroke-linecap="round" transform="translate(833.7138547484324 200.1226669501092) rotate(0 55.56231838939857 53.878611771538154)">
    <path d="M54.38 -0.76 C63.19 -1.7, 73.81 1.96, 82.04 6.26 C90.26 10.55, 98.98 17.3, 103.75 25.01 C108.52 32.73, 110.7 43.52, 110.68 52.56 C110.66 61.61, 107.89 71.32, 103.6 79.28 C99.31 87.24, 92.58 95.68, 84.91 100.34 C77.24 105, 66.88 107.16, 57.59 107.23 C48.31 107.29, 37.59 105.09, 29.22 100.73 C20.86 96.38, 12.41 88.71, 7.42 81.11 C2.43 73.51, -0.7 63.93, -0.72 55.13 C-0.73 46.32, 2.82 36.07, 7.33 28.28 C11.84 20.49, 18.1 13.23, 26.36 8.4 C34.62 3.58, 51.06 0.46, 56.91 -0.66 C62.75 -1.79, 61.48 0.58, 61.45 1.64 M53.37 -0.07 C62.17 -1.17, 73.93 2.41, 82.03 6.49 C90.12 10.58, 96.98 16.97, 101.95 24.44 C106.92 31.91, 111.3 42.47, 111.86 51.32 C112.42 60.17, 109.67 69.52, 105.3 77.55 C100.94 85.58, 93.37 94.33, 85.65 99.5 C77.94 104.67, 68.43 108.34, 59.01 108.57 C49.59 108.8, 37.33 105.14, 29.13 100.86 C20.94 96.59, 14.48 90.49, 9.85 82.93 C5.22 75.37, 2 64.44, 1.36 55.5 C0.73 46.56, 2.25 37.34, 6.07 29.3 C9.89 21.27, 16.28 12.2, 24.27 7.3 C32.25 2.4, 49.42 1.16, 53.96 -0.1 C58.51 -1.36, 51.5 -1.32, 51.53 -0.25" stroke="none" stroke-width="0" fill="#8888ff"/>
  </g>
  <g transform="translate(870.4126802633014 244.7033469770754) rotate(0 19.075000762939453 9.199999999999996)">
    <text x="19.075000762939453" y="0" fill="#ffffff" text-anchor="middle" style="white-space: pre;" direction="ltr" dominant-baseline="text-before-edge">Node</text>
  </g>
  <g stroke-linecap="round" transform="translate(1073.3714459553107 400.33351177821623) rotate(0 55.56231838939857 53.87861177153815)">
    <path d="M39.22 1.98 C47.51 -1.26, 59.9 -1.54, 68.88 0.55 C77.86 2.63, 86.57 8.26, 93.1 14.47 C99.62 20.67, 105.18 29.09, 108.02 37.76 C110.86 46.44, 112 57.79, 110.14 66.53 C108.29 75.26, 103.23 83.76, 96.88 90.18 C90.53 96.59, 81.14 102.45, 72.04 105.02 C62.94 107.58, 51.49 107.54, 42.29 105.58 C33.1 103.61, 23.43 99.19, 16.87 93.23 C10.3 87.26, 5.53 78.3, 2.91 69.8 C0.29 61.3, -0.74 51.12, 1.13 42.22 C2.99 33.31, 7.01 23.13, 14.09 16.36 C21.18 9.58, 38.2 3.99, 43.66 1.58 C49.11 -0.83, 46.65 0.98, 46.8 1.89 M57.1 0.5 C65.78 -0.23, 75.52 2.68, 83.46 7.16 C91.4 11.65, 100.08 19.69, 104.75 27.39 C109.43 35.1, 111.7 44.36, 111.49 53.39 C111.27 62.42, 108.11 73.52, 103.47 81.57 C98.84 89.62, 91.92 97.47, 83.68 101.68 C75.45 105.9, 63.28 107.11, 54.05 106.86 C44.83 106.61, 35.94 104.78, 28.34 100.21 C20.74 95.63, 13.21 87.22, 8.47 79.43 C3.73 71.64, 0.22 62.5, -0.12 53.47 C-0.45 44.44, 1.55 33.01, 6.45 25.23 C11.35 17.45, 21.25 11.22, 29.29 6.79 C37.32 2.35, 50.03 -0.58, 54.66 -1.38 C59.29 -2.19, 56.97 0.64, 57.09 1.94" stroke="none" stroke-width="0" fill="#8888ff"/>
  </g>
  <g transform="translate(1110.0702714701797 444.91419180518244) rotate(0 19.075000762939453 9.200000000000003)">
    <text x="19.075000762939453" y="0" fill="#ffffff" text-anchor="middle" style="white-space: pre;" direction="ltr" dominant-baseline="text-before-edge">Node</text>
  </g>
  <g stroke-linecap="round" transform="translate(1076.4119815204372 121.34509575371601) rotate(0 55.56231838939857 53.87861177153815)">
    <path d="M35.24 3.16 C43.04 -0.75, 53.68 -0.86, 62.62 0.42 C71.56 1.7, 81.4 5.24, 88.87 10.82 C96.34 16.4, 103.7 25.61, 107.45 33.91 C111.2 42.21, 112.64 51.87, 111.37 60.62 C110.1 69.38, 105.73 79.39, 99.82 86.45 C93.92 93.51, 84.68 99.5, 75.93 102.97 C67.18 106.44, 56.32 108.31, 47.34 107.27 C38.36 106.24, 29.31 102.15, 22.06 96.74 C14.81 91.33, 7.56 83.3, 3.82 74.83 C0.08 66.36, -1.73 54.85, -0.39 45.91 C0.95 36.97, 5.43 28.38, 11.87 21.17 C18.31 13.97, 32.89 5.75, 38.23 2.68 C43.56 -0.39, 43.47 1.9, 43.89 2.76 M52.77 -0.28 C61.49 -1.51, 73.67 2.04, 82.01 6.07 C90.34 10.09, 97.93 16.27, 102.78 23.89 C107.64 31.51, 110.66 42.51, 111.14 51.8 C111.63 61.09, 110.12 71.85, 105.68 79.62 C101.23 87.39, 92.25 93.75, 84.47 98.42 C76.7 103.09, 67.91 107.26, 59.04 107.65 C50.16 108.03, 39.62 104.87, 31.22 100.75 C22.81 96.64, 13.99 90.59, 8.59 82.97 C3.18 75.34, -1.01 64.02, -1.22 54.99 C-1.44 45.97, 3.05 36.83, 7.29 28.84 C11.54 20.85, 16.44 11.71, 24.24 7.06 C32.04 2.4, 49.4 1.73, 54.11 0.92 C58.82 0.1, 52.42 1.51, 52.48 2.17" stroke="none" stroke-width="0" fill="#8888ff"/>
  </g>
  <g transform="translate(1113.1108070353062 165.92577578068222) rotate(0 19.075000762939453 9.200000000000003)">
    <text x="19.075000762939453" y="0" fill="#ffffff" text-anchor="middle" style="white-space: pre;" direction="ltr" dominant-baseline="text-before-edge">Node</text>
  </g>
  <g stroke-linecap="round" transform="translate(734.7248496847219 359.3982089323207) rotate(0 55.56231838939857 53.878611771538154)">
    <path d="M45.42 0.76 C53.7 -1.43, 64.94 -0.37, 73.8 2.77 C82.65 5.92, 92.35 12.77, 98.55 19.63 C104.75 26.5, 109.43 35.24, 111.02 43.94 C112.62 52.64, 111.52 63.44, 108.12 71.83 C104.73 80.23, 97.91 88.49, 90.65 94.34 C83.39 100.19, 73.46 105.19, 64.54 106.94 C55.62 108.68, 45.77 107.76, 37.13 104.79 C28.49 101.82, 18.92 96.14, 12.72 89.11 C6.52 82.08, 1.48 71.48, -0.04 62.59 C-1.57 53.7, 0.4 44.07, 3.57 35.79 C6.74 27.51, 11.33 18.73, 18.95 12.9 C26.58 7.07, 43.64 2.72, 49.33 0.81 C55.02 -1.1, 52.99 0.5, 53.1 1.42 M65.44 0.7 C74.37 1.21, 84.16 5.46, 91.2 11.21 C98.23 16.96, 104.31 26.48, 107.65 35.21 C110.98 43.93, 112.89 54.89, 111.2 63.55 C109.52 72.22, 103.39 80.4, 97.55 87.18 C91.71 93.97, 84.45 101.1, 76.15 104.25 C67.86 107.41, 57.12 107.55, 47.79 106.11 C38.46 104.68, 27.76 101.4, 20.17 95.64 C12.59 89.89, 5.34 80.05, 2.28 71.59 C-0.79 63.14, 0.28 53.8, 1.77 44.91 C3.25 36.03, 5.3 25.06, 11.17 18.29 C17.04 11.53, 28.2 7.06, 36.99 4.31 C45.79 1.55, 59.18 2.28, 63.94 1.77 C68.7 1.25, 65.61 0.29, 65.55 1.23" stroke="none" stroke-width="0" fill="#8888ff"/>
  </g>
  <g transform="translate(771.4236751995909 403.9788889592869) rotate(0 19.075000762939453 9.2)">
    <text x="19.075000762939453" y="0" fill="#ffffff" text-anchor="middle" style="white-space: pre;" direction="ltr" dominant-baseline="text-before-edge">Node</text>
  </g>
  <g stroke-linecap="round">
    <g transform="translate(892.5351695310005 188.01609981997137) rotate(0 1.2988473808027265 -8.420976433920842)">
      <path d="M0.13 -0.26 C0.52 -3.05, 2.36 -14.33, 2.72 -17.15" stroke="#8888ff" stroke-width="1.5" fill="none" stroke-dasharray="8 9"/>
    </g>
  </g>
  <mask/>
  <g stroke-linecap="round">
    <g transform="translate(695.2878488944912 230.72428333596778) rotate(0 28.417713324169654 64.68732563403155)">
      <path d="M0.28 -0.67 C9.59 20.87, 46.56 106.88, 56.17 128.69" stroke="#8888ff" stroke-width="1.5" fill="none" stroke-dasharray="8 9"/>
    </g>
  </g>
  <mask/>
  <g stroke-linecap="round">
    <g transform="translate(855.149639501165 427.6710511565692) rotate(0 99.733390846357 13.769149265977639)">
      <path d="M-0.67 -0.69 C32.71 4.14, 167.31 23.52, 200.54 28.31" stroke="#8888ff" stroke-width="1.5" fill="none" stroke-dasharray="8 9"/>
    </g>
  </g>
  <mask/>
  <g stroke-linecap="round">
    <g transform="translate(933.6033948008958 312.30752722058173) rotate(0 72.19649747504172 47.26234016047354)">
      <path d="M1.07 0.78 C25.12 16.74, 119.55 79.49, 143.63 95.1" stroke="#8888ff" stroke-width="1.5" fill="none" stroke-dasharray="8 9"/>
    </g>
  </g>
  <mask/>
  <g stroke-linecap="round">
    <g transform="translate(856.605242456943 315.2671431623975) rotate(0 -13.762062805582445 20.471127363937477)">
      <path d="M-0.76 0.57 C-5.33 7.25, -22.04 34.31, -26.36 40.86" stroke="#1971c2" stroke-width="1.5" fill="none" stroke-dasharray="8 9"/>
    </g>
  </g>
  <mask/>
  <g stroke-linecap="round">
    <g transform="translate(1126.8094110115167 388.03578429933236) rotate(0 7.020792789252937 -75.32851299562428)">
      <path d="M1.17 -0.08 C3.77 -25.46, 12.74 -126.75, 14.89 -151.72" stroke="#8888ff" stroke-width="1.5" fill="none" stroke-dasharray="8 9"/>
    </g>
  </g>
  <mask/>
  <g stroke-linecap="round">
    <g transform="translate(962.05105644278 248.5860443288454) rotate(0 58.51052511049147 -13.536829356526198)">
      <path d="M0.85 -1.07 C20.16 -5.44, 97.6 -21.79, 117.04 -26.32" stroke="#8888ff" stroke-width="1.5" fill="none" stroke-dasharray="8 9"/>
    </g>
  </g>
  <mask/>
  <g stroke-linecap="round">
    <g transform="translate(742.4653003088874 144.5503163618182) rotate(0 46.504943433785684 -17.141046457743172)">
      <path d="M0.02 0.76 C15.45 -4.97, 77.79 -29.65, 93.44 -35.42" stroke="#8888ff" stroke-width="1.5" fill="none" stroke-dasharray="8 9"/>
    </g>
  </g>
  <mask/>
</svg>
