<svg xmlns="http://www.w3.org/2000/svg" version="1.1" viewBox="0 0 1197.5366182992343 544.0303397564605" width="1197.5366182992343" height="544.0303397564605">
  <defs>
    <style>
      @import url("/assets/css/fonts.css");
      svg { font-size: 16px; font-family: "Inter", sans-serif; }
    </style>
  </defs>
  <g stroke-linecap="round" transform="translate(164.46806523511532 249.54652025739685) rotate(0 75.81566086153839 72.99954032373856)">
    <path d="M151.63 73 C151.63 75.72, 151.47 78.47, 151.15 81.17 C150.84 83.88, 150.36 86.59, 149.73 89.24 C149.1 91.9, 148.31 94.54, 147.38 97.11 C146.44 99.68, 145.35 102.22, 144.12 104.67 C142.9 107.13, 141.52 109.53, 140.01 111.84 C138.51 114.14, 136.85 116.38, 135.09 118.51 C133.33 120.64, 131.43 122.69, 129.43 124.62 C127.42 126.54, 125.3 128.37, 123.09 130.07 C120.87 131.77, 118.55 133.36, 116.15 134.81 C113.76 136.26, 111.26 137.59, 108.71 138.77 C106.16 139.95, 103.53 141, 100.86 141.9 C98.19 142.8, 95.44 143.56, 92.69 144.17 C89.93 144.78, 87.12 145.24, 84.3 145.54 C81.49 145.85, 78.65 146, 75.82 146 C72.99 146, 70.14 145.85, 67.33 145.54 C64.52 145.24, 61.7 144.78, 58.95 144.17 C56.19 143.56, 53.45 142.8, 50.78 141.9 C48.1 141, 45.47 139.95, 42.92 138.77 C40.37 137.59, 37.88 136.26, 35.48 134.81 C33.08 133.36, 30.76 131.77, 28.55 130.07 C26.33 128.37, 24.21 126.54, 22.21 124.62 C20.21 122.69, 18.3 120.64, 16.54 118.51 C14.78 116.38, 13.13 114.14, 11.62 111.84 C10.12 109.53, 8.74 107.13, 7.51 104.67 C6.28 102.22, 5.19 99.68, 4.25 97.11 C3.32 94.54, 2.53 91.9, 1.9 89.24 C1.27 86.59, 0.79 83.88, 0.48 81.17 C0.16 78.47, 0 75.72, 0 73 C0 70.28, 0.16 67.53, 0.48 64.83 C0.79 62.12, 1.27 59.41, 1.9 56.76 C2.53 54.1, 3.32 51.46, 4.25 48.89 C5.19 46.32, 6.28 43.78, 7.51 41.33 C8.74 38.87, 10.12 36.47, 11.62 34.16 C13.13 31.85, 14.78 29.62, 16.54 27.49 C18.3 25.36, 20.21 23.31, 22.21 21.38 C24.21 19.45, 26.33 17.62, 28.55 15.93 C30.76 14.23, 33.08 12.64, 35.48 11.19 C37.88 9.74, 40.37 8.41, 42.92 7.23 C45.47 6.05, 48.1 5, 50.78 4.1 C53.45 3.2, 56.19 2.44, 58.95 1.83 C61.7 1.22, 64.52 0.76, 67.33 0.46 C70.14 0.15, 72.99 0, 75.82 0 C78.65 0, 81.49 0.15, 84.3 0.46 C87.12 0.76, 89.93 1.22, 92.69 1.83 C95.44 2.44, 98.19 3.2, 100.86 4.1 C103.53 5, 106.16 6.05, 108.71 7.23 C111.26 8.41, 113.76 9.74, 116.15 11.19 C118.55 12.64, 120.87 14.23, 123.09 15.93 C125.3 17.62, 127.42 19.45, 129.43 21.38 C131.43 23.31, 133.33 25.36, 135.09 27.49 C136.85 29.62, 138.51 31.85, 140.01 34.16 C141.52 36.47, 142.9 38.87, 144.12 41.33 C145.35 43.78, 146.44 46.32, 147.38 48.89 C148.31 51.46, 149.1 54.1, 149.73 56.76 C150.36 59.41, 150.84 62.12, 151.15 64.83 C151.47 67.53, 151.55 71.64, 151.63 73 C151.71 74.36, 151.71 71.64, 151.63 73" stroke="none" stroke-width="0" fill="#cc6666"/>
    <path d="M151.63 73 C151.63 75.72, 151.47 78.47, 151.15 81.17 C150.84 83.88, 150.36 86.59, 149.73 89.24 C149.1 91.9, 148.31 94.54, 147.38 97.11 C146.44 99.68, 145.35 102.22, 144.12 104.67 C142.9 107.13, 141.52 109.53, 140.01 111.84 C138.51 114.14, 136.85 116.38, 135.09 118.51 C133.33 120.64, 131.43 122.69, 129.43 124.62 C127.42 126.54, 125.3 128.37, 123.09 130.07 C120.87 131.77, 118.55 133.36, 116.15 134.81 C113.76 136.26, 111.26 137.59, 108.71 138.77 C106.16 139.95, 103.53 141, 100.86 141.9 C98.19 142.8, 95.44 143.56, 92.69 144.17 C89.93 144.78, 87.12 145.24, 84.3 145.54 C81.49 145.85, 78.65 146, 75.82 146 C72.99 146, 70.14 145.85, 67.33 145.54 C64.52 145.24, 61.7 144.78, 58.95 144.17 C56.19 143.56, 53.45 142.8, 50.78 141.9 C48.1 141, 45.47 139.95, 42.92 138.77 C40.37 137.59, 37.88 136.26, 35.48 134.81 C33.08 133.36, 30.76 131.77, 28.55 130.07 C26.33 128.37, 24.21 126.54, 22.21 124.62 C20.21 122.69, 18.3 120.64, 16.54 118.51 C14.78 116.38, 13.13 114.14, 11.62 111.84 C10.12 109.53, 8.74 107.13, 7.51 104.67 C6.28 102.22, 5.19 99.68, 4.25 97.11 C3.32 94.54, 2.53 91.9, 1.9 89.24 C1.27 86.59, 0.79 83.88, 0.48 81.17 C0.16 78.47, 0 75.72, 0 73 C0 70.28, 0.16 67.53, 0.48 64.83 C0.79 62.12, 1.27 59.41, 1.9 56.76 C2.53 54.1, 3.32 51.46, 4.25 48.89 C5.19 46.32, 6.28 43.78, 7.51 41.33 C8.74 38.87, 10.12 36.47, 11.62 34.16 C13.13 31.85, 14.78 29.62, 16.54 27.49 C18.3 25.36, 20.21 23.31, 22.21 21.38 C24.21 19.45, 26.33 17.62, 28.55 15.93 C30.76 14.23, 33.08 12.64, 35.48 11.19 C37.88 9.74, 40.37 8.41, 42.92 7.23 C45.47 6.05, 48.1 5, 50.78 4.1 C53.45 3.2, 56.19 2.44, 58.95 1.83 C61.7 1.22, 64.52 0.76, 67.33 0.46 C70.14 0.15, 72.99 0, 75.82 0 C78.65 0, 81.49 0.15, 84.3 0.46 C87.12 0.76, 89.93 1.22, 92.69 1.83 C95.44 2.44, 98.19 3.2, 100.86 4.1 C103.53 5, 106.16 6.05, 108.71 7.23 C111.26 8.41, 113.76 9.74, 116.15 11.19 C118.55 12.64, 120.87 14.23, 123.09 15.93 C125.3 17.62, 127.42 19.45, 129.43 21.38 C131.43 23.31, 133.33 25.36, 135.09 27.49 C136.85 29.62, 138.51 31.85, 140.01 34.16 C141.52 36.47, 142.9 38.87, 144.12 41.33 C145.35 43.78, 146.44 46.32, 147.38 48.89 C148.31 51.46, 149.1 54.1, 149.73 56.76 C150.36 59.41, 150.84 62.12, 151.15 64.83 C151.47 67.53, 151.55 71.64, 151.63 73 C151.71 74.36, 151.71 71.64, 151.63 73" stroke="#ffffff" stroke-width="1" fill="none"/>
  </g>
  <g transform="translate(210.02395856279009 313.22759059471906) rotate(0 30.149999618530273 9.2)">
    <text x="30.149999618530273" y="0" fill="#ffffff" text-anchor="middle" style="white-space: pre;" direction="ltr" dominant-baseline="text-before-edge">Instance</text>
  </g>
  <g stroke-linecap="round" transform="translate(49.77884501009112 389.488550646855) rotate(0 43.181572564415546 41.87304006246351)">
    <path d="M86.36 41.87 C86.36 43.86, 86.22 45.87, 85.92 47.83 C85.63 49.8, 85.19 51.76, 84.61 53.67 C84.04 55.58, 83.31 57.46, 82.46 59.27 C81.61 61.07, 80.62 62.84, 79.51 64.51 C78.4 66.18, 77.16 67.79, 75.82 69.29 C74.47 70.8, 73.01 72.22, 71.46 73.52 C69.91 74.82, 68.25 76.02, 66.53 77.1 C64.8 78.17, 62.98 79.14, 61.12 79.96 C59.26 80.79, 57.31 81.49, 55.35 82.05 C53.38 82.61, 51.35 83.04, 49.33 83.32 C47.3 83.6, 45.23 83.75, 43.18 83.75 C41.13 83.75, 39.06 83.6, 37.04 83.32 C35.01 83.04, 32.98 82.61, 31.02 82.05 C29.05 81.49, 27.11 80.79, 25.24 79.96 C23.38 79.14, 21.56 78.17, 19.84 77.1 C18.11 76.02, 16.45 74.82, 14.9 73.52 C13.36 72.22, 11.89 70.8, 10.55 69.29 C9.21 67.79, 7.96 66.18, 6.85 64.51 C5.75 62.84, 4.75 61.07, 3.9 59.27 C3.05 57.46, 2.33 55.58, 1.75 53.67 C1.17 51.76, 0.73 49.8, 0.44 47.83 C0.15 45.87, 0 43.86, 0 41.87 C0 39.89, 0.15 37.88, 0.44 35.91 C0.73 33.95, 1.17 31.98, 1.75 30.08 C2.33 28.17, 3.05 26.29, 3.9 24.48 C4.75 22.67, 5.75 20.91, 6.85 19.23 C7.96 17.56, 9.21 15.95, 10.55 14.45 C11.89 12.95, 13.36 11.53, 14.9 10.23 C16.45 8.93, 18.11 7.72, 19.84 6.65 C21.56 5.57, 23.38 4.61, 25.24 3.78 C27.11 2.96, 29.05 2.26, 31.02 1.7 C32.98 1.14, 35.01 0.71, 37.04 0.43 C39.06 0.14, 41.13 0, 43.18 0 C45.23 0, 47.3 0.14, 49.33 0.43 C51.35 0.71, 53.38 1.14, 55.35 1.7 C57.31 2.26, 59.26 2.96, 61.12 3.78 C62.98 4.61, 64.8 5.57, 66.53 6.65 C68.25 7.72, 69.91 8.93, 71.46 10.23 C73.01 11.53, 74.47 12.95, 75.82 14.45 C77.16 15.95, 78.4 17.56, 79.51 19.23 C80.62 20.91, 81.61 22.67, 82.46 24.48 C83.31 26.29, 84.04 28.17, 84.61 30.08 C85.19 31.98, 85.63 33.95, 85.92 35.91 C86.22 37.88, 86.29 40.88, 86.36 41.87 C86.44 42.87, 86.44 40.88, 86.36 41.87" stroke="none" stroke-width="0" fill="#ee9944"/>
    <path d="M86.36 41.87 C86.36 43.86, 86.22 45.87, 85.92 47.83 C85.63 49.8, 85.19 51.76, 84.61 53.67 C84.04 55.58, 83.31 57.46, 82.46 59.27 C81.61 61.07, 80.62 62.84, 79.51 64.51 C78.4 66.18, 77.16 67.79, 75.82 69.29 C74.47 70.8, 73.01 72.22, 71.46 73.52 C69.91 74.82, 68.25 76.02, 66.53 77.1 C64.8 78.17, 62.98 79.14, 61.12 79.96 C59.26 80.79, 57.31 81.49, 55.35 82.05 C53.38 82.61, 51.35 83.04, 49.33 83.32 C47.3 83.6, 45.23 83.75, 43.18 83.75 C41.13 83.75, 39.06 83.6, 37.04 83.32 C35.01 83.04, 32.98 82.61, 31.02 82.05 C29.05 81.49, 27.11 80.79, 25.24 79.96 C23.38 79.14, 21.56 78.17, 19.84 77.1 C18.11 76.02, 16.45 74.82, 14.9 73.52 C13.36 72.22, 11.89 70.8, 10.55 69.29 C9.21 67.79, 7.96 66.18, 6.85 64.51 C5.75 62.84, 4.75 61.07, 3.9 59.27 C3.05 57.46, 2.33 55.58, 1.75 53.67 C1.17 51.76, 0.73 49.8, 0.44 47.83 C0.15 45.87, 0 43.86, 0 41.87 C0 39.89, 0.15 37.88, 0.44 35.91 C0.73 33.95, 1.17 31.98, 1.75 30.08 C2.33 28.17, 3.05 26.29, 3.9 24.48 C4.75 22.67, 5.75 20.91, 6.85 19.23 C7.96 17.56, 9.21 15.95, 10.55 14.45 C11.89 12.95, 13.36 11.53, 14.9 10.23 C16.45 8.93, 18.11 7.72, 19.84 6.65 C21.56 5.57, 23.38 4.61, 25.24 3.78 C27.11 2.96, 29.05 2.26, 31.02 1.7 C32.98 1.14, 35.01 0.71, 37.04 0.43 C39.06 0.14, 41.13 0, 43.18 0 C45.23 0, 47.3 0.14, 49.33 0.43 C51.35 0.71, 53.38 1.14, 55.35 1.7 C57.31 2.26, 59.26 2.96, 61.12 3.78 C62.98 4.61, 64.8 5.57, 66.53 6.65 C68.25 7.72, 69.91 8.93, 71.46 10.23 C73.01 11.53, 74.47 12.95, 75.82 14.45 C77.16 15.95, 78.4 17.56, 79.51 19.23 C80.62 20.91, 81.61 22.67, 82.46 24.48 C83.31 26.29, 84.04 28.17, 84.61 30.08 C85.19 31.98, 85.63 33.95, 85.92 35.91 C86.22 37.88, 86.29 40.88, 86.36 41.87 C86.44 42.87, 86.44 40.88, 86.36 41.87" stroke="#ffffff" stroke-width="1" fill="none"/>
  </g>
  <g transform="translate(76.07643441043956 422.0528801322546) rotate(0 16.850000381469727 9.200000000000003)">
    <text x="16.850000381469727" y="0" fill="#ffffff" text-anchor="middle" style="white-space: pre;" direction="ltr" dominant-baseline="text-before-edge">User</text>
  </g>
  <g stroke-linecap="round" transform="translate(195.446750133568 450.28425963153353) rotate(0 43.181572564415546 41.8730400624635)">
    <path d="M86.36 41.87 C86.36 43.86, 86.22 45.87, 85.92 47.83 C85.63 49.8, 85.19 51.76, 84.61 53.67 C84.04 55.58, 83.31 57.46, 82.46 59.27 C81.61 61.07, 80.62 62.84, 79.51 64.51 C78.4 66.18, 77.16 67.79, 75.82 69.29 C74.47 70.8, 73.01 72.22, 71.46 73.52 C69.91 74.82, 68.25 76.02, 66.53 77.1 C64.8 78.17, 62.98 79.14, 61.12 79.96 C59.26 80.79, 57.31 81.49, 55.35 82.05 C53.38 82.61, 51.35 83.04, 49.33 83.32 C47.3 83.6, 45.23 83.75, 43.18 83.75 C41.13 83.75, 39.06 83.6, 37.04 83.32 C35.01 83.04, 32.98 82.61, 31.02 82.05 C29.05 81.49, 27.11 80.79, 25.24 79.96 C23.38 79.14, 21.56 78.17, 19.84 77.1 C18.11 76.02, 16.45 74.82, 14.9 73.52 C13.36 72.22, 11.89 70.8, 10.55 69.29 C9.21 67.79, 7.96 66.18, 6.85 64.51 C5.75 62.84, 4.75 61.07, 3.9 59.27 C3.05 57.46, 2.33 55.58, 1.75 53.67 C1.17 51.76, 0.73 49.8, 0.44 47.83 C0.15 45.87, 0 43.86, 0 41.87 C0 39.89, 0.15 37.88, 0.44 35.91 C0.73 33.95, 1.17 31.98, 1.75 30.08 C2.33 28.17, 3.05 26.29, 3.9 24.48 C4.75 22.67, 5.75 20.91, 6.85 19.23 C7.96 17.56, 9.21 15.95, 10.55 14.45 C11.89 12.95, 13.36 11.53, 14.9 10.23 C16.45 8.93, 18.11 7.72, 19.84 6.65 C21.56 5.57, 23.38 4.61, 25.24 3.78 C27.11 2.96, 29.05 2.26, 31.02 1.7 C32.98 1.14, 35.01 0.71, 37.04 0.43 C39.06 0.14, 41.13 0, 43.18 0 C45.23 0, 47.3 0.14, 49.33 0.43 C51.35 0.71, 53.38 1.14, 55.35 1.7 C57.31 2.26, 59.26 2.96, 61.12 3.78 C62.98 4.61, 64.8 5.57, 66.53 6.65 C68.25 7.72, 69.91 8.93, 71.46 10.23 C73.01 11.53, 74.47 12.95, 75.82 14.45 C77.16 15.95, 78.4 17.56, 79.51 19.23 C80.62 20.91, 81.61 22.67, 82.46 24.48 C83.31 26.29, 84.04 28.17, 84.61 30.08 C85.19 31.98, 85.63 33.95, 85.92 35.91 C86.22 37.88, 86.29 40.88, 86.36 41.87 C86.44 42.87, 86.44 40.88, 86.36 41.87" stroke="none" stroke-width="0" fill="#ee9944"/>
    <path d="M86.36 41.87 C86.36 43.86, 86.22 45.87, 85.92 47.83 C85.63 49.8, 85.19 51.76, 84.61 53.67 C84.04 55.58, 83.31 57.46, 82.46 59.27 C81.61 61.07, 80.62 62.84, 79.51 64.51 C78.4 66.18, 77.16 67.79, 75.82 69.29 C74.47 70.8, 73.01 72.22, 71.46 73.52 C69.91 74.82, 68.25 76.02, 66.53 77.1 C64.8 78.17, 62.98 79.14, 61.12 79.96 C59.26 80.79, 57.31 81.49, 55.35 82.05 C53.38 82.61, 51.35 83.04, 49.33 83.32 C47.3 83.6, 45.23 83.75, 43.18 83.75 C41.13 83.75, 39.06 83.6, 37.04 83.32 C35.01 83.04, 32.98 82.61, 31.02 82.05 C29.05 81.49, 27.11 80.79, 25.24 79.96 C23.38 79.14, 21.56 78.17, 19.84 77.1 C18.11 76.02, 16.45 74.82, 14.9 73.52 C13.36 72.22, 11.89 70.8, 10.55 69.29 C9.21 67.79, 7.96 66.18, 6.85 64.51 C5.75 62.84, 4.75 61.07, 3.9 59.27 C3.05 57.46, 2.33 55.58, 1.75 53.67 C1.17 51.76, 0.73 49.8, 0.44 47.83 C0.15 45.87, 0 43.86, 0 41.87 C0 39.89, 0.15 37.88, 0.44 35.91 C0.73 33.95, 1.17 31.98, 1.75 30.08 C2.33 28.17, 3.05 26.29, 3.9 24.48 C4.75 22.67, 5.75 20.91, 6.85 19.23 C7.96 17.56, 9.21 15.95, 10.55 14.45 C11.89 12.95, 13.36 11.53, 14.9 10.23 C16.45 8.93, 18.11 7.72, 19.84 6.65 C21.56 5.57, 23.38 4.61, 25.24 3.78 C27.11 2.96, 29.05 2.26, 31.02 1.7 C32.98 1.14, 35.01 0.71, 37.04 0.43 C39.06 0.14, 41.13 0, 43.18 0 C45.23 0, 47.3 0.14, 49.33 0.43 C51.35 0.71, 53.38 1.14, 55.35 1.7 C57.31 2.26, 59.26 2.96, 61.12 3.78 C62.98 4.61, 64.8 5.57, 66.53 6.65 C68.25 7.72, 69.91 8.93, 71.46 10.23 C73.01 11.53, 74.47 12.95, 75.82 14.45 C77.16 15.95, 78.4 17.56, 79.51 19.23 C80.62 20.91, 81.61 22.67, 82.46 24.48 C83.31 26.29, 84.04 28.17, 84.61 30.08 C85.19 31.98, 85.63 33.95, 85.92 35.91 C86.22 37.88, 86.29 40.88, 86.36 41.87 C86.44 42.87, 86.44 40.88, 86.36 41.87" stroke="#ffffff" stroke-width="1" fill="none"/>
  </g>
  <g transform="translate(221.74433953391645 482.8485891169331) rotate(0 16.850000381469727 9.200000000000003)">
    <text x="16.850000381469727" y="0" fill="#ffffff" text-anchor="middle" style="white-space: pre;" direction="ltr" dominant-baseline="text-before-edge">User</text>
  </g>
  <g stroke-linecap="round" transform="translate(377.07124620331297 314.8532617533285) rotate(0 43.181572564415546 41.87304006246351)">
    <path d="M86.36 41.87 C86.36 43.86, 86.22 45.87, 85.92 47.83 C85.63 49.8, 85.19 51.76, 84.61 53.67 C84.04 55.58, 83.31 57.46, 82.46 59.27 C81.61 61.07, 80.62 62.84, 79.51 64.51 C78.4 66.18, 77.16 67.79, 75.82 69.29 C74.47 70.8, 73.01 72.22, 71.46 73.52 C69.91 74.82, 68.25 76.02, 66.53 77.1 C64.8 78.17, 62.98 79.14, 61.12 79.96 C59.26 80.79, 57.31 81.49, 55.35 82.05 C53.38 82.61, 51.35 83.04, 49.33 83.32 C47.3 83.6, 45.23 83.75, 43.18 83.75 C41.13 83.75, 39.06 83.6, 37.04 83.32 C35.01 83.04, 32.98 82.61, 31.02 82.05 C29.05 81.49, 27.11 80.79, 25.24 79.96 C23.38 79.14, 21.56 78.17, 19.84 77.1 C18.11 76.02, 16.45 74.82, 14.9 73.52 C13.36 72.22, 11.89 70.8, 10.55 69.29 C9.21 67.79, 7.96 66.18, 6.85 64.51 C5.75 62.84, 4.75 61.07, 3.9 59.27 C3.05 57.46, 2.33 55.58, 1.75 53.67 C1.17 51.76, 0.73 49.8, 0.44 47.83 C0.15 45.87, 0 43.86, 0 41.87 C0 39.89, 0.15 37.88, 0.44 35.91 C0.73 33.95, 1.17 31.98, 1.75 30.08 C2.33 28.17, 3.05 26.29, 3.9 24.48 C4.75 22.67, 5.75 20.91, 6.85 19.23 C7.96 17.56, 9.21 15.95, 10.55 14.45 C11.89 12.95, 13.36 11.53, 14.9 10.23 C16.45 8.93, 18.11 7.72, 19.84 6.65 C21.56 5.57, 23.38 4.61, 25.24 3.78 C27.11 2.96, 29.05 2.26, 31.02 1.7 C32.98 1.14, 35.01 0.71, 37.04 0.43 C39.06 0.14, 41.13 0, 43.18 0 C45.23 0, 47.3 0.14, 49.33 0.43 C51.35 0.71, 53.38 1.14, 55.35 1.7 C57.31 2.26, 59.26 2.96, 61.12 3.78 C62.98 4.61, 64.8 5.57, 66.53 6.65 C68.25 7.72, 69.91 8.93, 71.46 10.23 C73.01 11.53, 74.47 12.95, 75.82 14.45 C77.16 15.95, 78.4 17.56, 79.51 19.23 C80.62 20.91, 81.61 22.67, 82.46 24.48 C83.31 26.29, 84.04 28.17, 84.61 30.08 C85.19 31.98, 85.63 33.95, 85.92 35.91 C86.22 37.88, 86.29 40.88, 86.36 41.87 C86.44 42.87, 86.44 40.88, 86.36 41.87" stroke="none" stroke-width="0" fill="#ee9944"/>
    <path d="M86.36 41.87 C86.36 43.86, 86.22 45.87, 85.92 47.83 C85.63 49.8, 85.19 51.76, 84.61 53.67 C84.04 55.58, 83.31 57.46, 82.46 59.27 C81.61 61.07, 80.62 62.84, 79.51 64.51 C78.4 66.18, 77.16 67.79, 75.82 69.29 C74.47 70.8, 73.01 72.22, 71.46 73.52 C69.91 74.82, 68.25 76.02, 66.53 77.1 C64.8 78.17, 62.98 79.14, 61.12 79.96 C59.26 80.79, 57.31 81.49, 55.35 82.05 C53.38 82.61, 51.35 83.04, 49.33 83.32 C47.3 83.6, 45.23 83.75, 43.18 83.75 C41.13 83.75, 39.06 83.6, 37.04 83.32 C35.01 83.04, 32.98 82.61, 31.02 82.05 C29.05 81.49, 27.11 80.79, 25.24 79.96 C23.38 79.14, 21.56 78.17, 19.84 77.1 C18.11 76.02, 16.45 74.82, 14.9 73.52 C13.36 72.22, 11.89 70.8, 10.55 69.29 C9.21 67.79, 7.96 66.18, 6.85 64.51 C5.75 62.84, 4.75 61.07, 3.9 59.27 C3.05 57.46, 2.33 55.58, 1.75 53.67 C1.17 51.76, 0.73 49.8, 0.44 47.83 C0.15 45.87, 0 43.86, 0 41.87 C0 39.89, 0.15 37.88, 0.44 35.91 C0.73 33.95, 1.17 31.98, 1.75 30.08 C2.33 28.17, 3.05 26.29, 3.9 24.48 C4.75 22.67, 5.75 20.91, 6.85 19.23 C7.96 17.56, 9.21 15.95, 10.55 14.45 C11.89 12.95, 13.36 11.53, 14.9 10.23 C16.45 8.93, 18.11 7.72, 19.84 6.65 C21.56 5.57, 23.38 4.61, 25.24 3.78 C27.11 2.96, 29.05 2.26, 31.02 1.7 C32.98 1.14, 35.01 0.71, 37.04 0.43 C39.06 0.14, 41.13 0, 43.18 0 C45.23 0, 47.3 0.14, 49.33 0.43 C51.35 0.71, 53.38 1.14, 55.35 1.7 C57.31 2.26, 59.26 2.96, 61.12 3.78 C62.98 4.61, 64.8 5.57, 66.53 6.65 C68.25 7.72, 69.91 8.93, 71.46 10.23 C73.01 11.53, 74.47 12.95, 75.82 14.45 C77.16 15.95, 78.4 17.56, 79.51 19.23 C80.62 20.91, 81.61 22.67, 82.46 24.48 C83.31 26.29, 84.04 28.17, 84.61 30.08 C85.19 31.98, 85.63 33.95, 85.92 35.91 C86.22 37.88, 86.29 40.88, 86.36 41.87 C86.44 42.87, 86.44 40.88, 86.36 41.87" stroke="#ffffff" stroke-width="1" fill="none"/>
  </g>
  <g transform="translate(403.3688356036614 347.4175912387281) rotate(0 16.850000381469727 9.2)">
    <text x="16.850000381469727" y="0" fill="#ffffff" text-anchor="middle" style="white-space: pre;" direction="ltr" dominant-baseline="text-before-edge">User</text>
  </g>
  <g stroke-linecap="round" transform="translate(10 261.6301842620378) rotate(0 43.181572564415546 41.87304006246351)">
    <path d="M86.36 41.87 C86.36 43.86, 86.22 45.87, 85.92 47.83 C85.63 49.8, 85.19 51.76, 84.61 53.67 C84.04 55.58, 83.31 57.46, 82.46 59.27 C81.61 61.07, 80.62 62.84, 79.51 64.51 C78.4 66.18, 77.16 67.79, 75.82 69.29 C74.47 70.8, 73.01 72.22, 71.46 73.52 C69.91 74.82, 68.25 76.02, 66.53 77.1 C64.8 78.17, 62.98 79.14, 61.12 79.96 C59.26 80.79, 57.31 81.49, 55.35 82.05 C53.38 82.61, 51.35 83.04, 49.33 83.32 C47.3 83.6, 45.23 83.75, 43.18 83.75 C41.13 83.75, 39.06 83.6, 37.04 83.32 C35.01 83.04, 32.98 82.61, 31.02 82.05 C29.05 81.49, 27.11 80.79, 25.24 79.96 C23.38 79.14, 21.56 78.17, 19.84 77.1 C18.11 76.02, 16.45 74.82, 14.9 73.52 C13.36 72.22, 11.89 70.8, 10.55 69.29 C9.21 67.79, 7.96 66.18, 6.85 64.51 C5.75 62.84, 4.75 61.07, 3.9 59.27 C3.05 57.46, 2.33 55.58, 1.75 53.67 C1.17 51.76, 0.73 49.8, 0.44 47.83 C0.15 45.87, 0 43.86, 0 41.87 C0 39.89, 0.15 37.88, 0.44 35.91 C0.73 33.95, 1.17 31.98, 1.75 30.08 C2.33 28.17, 3.05 26.29, 3.9 24.48 C4.75 22.67, 5.75 20.91, 6.85 19.23 C7.96 17.56, 9.21 15.95, 10.55 14.45 C11.89 12.95, 13.36 11.53, 14.9 10.23 C16.45 8.93, 18.11 7.72, 19.84 6.65 C21.56 5.57, 23.38 4.61, 25.24 3.78 C27.11 2.96, 29.05 2.26, 31.02 1.7 C32.98 1.14, 35.01 0.71, 37.04 0.43 C39.06 0.14, 41.13 0, 43.18 0 C45.23 0, 47.3 0.14, 49.33 0.43 C51.35 0.71, 53.38 1.14, 55.35 1.7 C57.31 2.26, 59.26 2.96, 61.12 3.78 C62.98 4.61, 64.8 5.57, 66.53 6.65 C68.25 7.72, 69.91 8.93, 71.46 10.23 C73.01 11.53, 74.47 12.95, 75.82 14.45 C77.16 15.95, 78.4 17.56, 79.51 19.23 C80.62 20.91, 81.61 22.67, 82.46 24.48 C83.31 26.29, 84.04 28.17, 84.61 30.08 C85.19 31.98, 85.63 33.95, 85.92 35.91 C86.22 37.88, 86.29 40.88, 86.36 41.87 C86.44 42.87, 86.44 40.88, 86.36 41.87" stroke="none" stroke-width="0" fill="#ee9944"/>
    <path d="M86.36 41.87 C86.36 43.86, 86.22 45.87, 85.92 47.83 C85.63 49.8, 85.19 51.76, 84.61 53.67 C84.04 55.58, 83.31 57.46, 82.46 59.27 C81.61 61.07, 80.62 62.84, 79.51 64.51 C78.4 66.18, 77.16 67.79, 75.82 69.29 C74.47 70.8, 73.01 72.22, 71.46 73.52 C69.91 74.82, 68.25 76.02, 66.53 77.1 C64.8 78.17, 62.98 79.14, 61.12 79.96 C59.26 80.79, 57.31 81.49, 55.35 82.05 C53.38 82.61, 51.35 83.04, 49.33 83.32 C47.3 83.6, 45.23 83.75, 43.18 83.75 C41.13 83.75, 39.06 83.6, 37.04 83.32 C35.01 83.04, 32.98 82.61, 31.02 82.05 C29.05 81.49, 27.11 80.79, 25.24 79.96 C23.38 79.14, 21.56 78.17, 19.84 77.1 C18.11 76.02, 16.45 74.82, 14.9 73.52 C13.36 72.22, 11.89 70.8, 10.55 69.29 C9.21 67.79, 7.96 66.18, 6.85 64.51 C5.75 62.84, 4.75 61.07, 3.9 59.27 C3.05 57.46, 2.33 55.58, 1.75 53.67 C1.17 51.76, 0.73 49.8, 0.44 47.83 C0.15 45.87, 0 43.86, 0 41.87 C0 39.89, 0.15 37.88, 0.44 35.91 C0.73 33.95, 1.17 31.98, 1.75 30.08 C2.33 28.17, 3.05 26.29, 3.9 24.48 C4.75 22.67, 5.75 20.91, 6.85 19.23 C7.96 17.56, 9.21 15.95, 10.55 14.45 C11.89 12.95, 13.36 11.53, 14.9 10.23 C16.45 8.93, 18.11 7.72, 19.84 6.65 C21.56 5.57, 23.38 4.61, 25.24 3.78 C27.11 2.96, 29.05 2.26, 31.02 1.7 C32.98 1.14, 35.01 0.71, 37.04 0.43 C39.06 0.14, 41.13 0, 43.18 0 C45.23 0, 47.3 0.14, 49.33 0.43 C51.35 0.71, 53.38 1.14, 55.35 1.7 C57.31 2.26, 59.26 2.96, 61.12 3.78 C62.98 4.61, 64.8 5.57, 66.53 6.65 C68.25 7.72, 69.91 8.93, 71.46 10.23 C73.01 11.53, 74.47 12.95, 75.82 14.45 C77.16 15.95, 78.4 17.56, 79.51 19.23 C80.62 20.91, 81.61 22.67, 82.46 24.48 C83.31 26.29, 84.04 28.17, 84.61 30.08 C85.19 31.98, 85.63 33.95, 85.92 35.91 C86.22 37.88, 86.29 40.88, 86.36 41.87 C86.44 42.87, 86.44 40.88, 86.36 41.87" stroke="#ffffff" stroke-width="1" fill="none"/>
  </g>
  <g transform="translate(36.29758940034844 294.1945137474373) rotate(0 16.850000381469727 9.2)">
    <text x="16.850000381469727" y="0" fill="#ffffff" text-anchor="middle" style="white-space: pre;" direction="ltr" dominant-baseline="text-before-edge">User</text>
  </g>
  <g stroke-linecap="round">
    <g transform="translate(98.71875979873312 307.5340681163887) rotate(0 32.680205096570035 3.49830712379638)">
      <path d="M0 0 C23.24 2.49, 46.48 4.98, 65.36 7" stroke="#f08c00" stroke-width="1.5" fill="none" stroke-dasharray="8 9"/>
    </g>
  </g>
  <mask/>
  <g stroke-linecap="round">
    <g transform="translate(131.6741397291289 405.35073334978426) rotate(0 23.147124966747697 -15.918425252681539)">
      <path d="M0 0 C15.37 -10.57, 30.75 -21.15, 46.29 -31.84" stroke="#f08c00" stroke-width="1.5" fill="none" stroke-dasharray="8 9"/>
    </g>
  </g>
  <mask/>
  <g stroke-linecap="round">
    <g transform="translate(244.01367285545393 446.9936182992437) rotate(0 -1.0993849600399699 -23.447938666200784)">
      <path d="M0 0 C-0.5 -10.6, -0.99 -21.19, -2.2 -46.9" stroke="#f08c00" stroke-width="1.5" fill="none" stroke-dasharray="8 9"/>
    </g>
  </g>
  <mask/>
  <g stroke-linecap="round">
    <g transform="translate(373.6002476885583 345.95508052730673) rotate(0 -26.775894501999574 -6.031232097674884)">
      <path d="M0 0 C-19.6 -4.41, -39.2 -8.83, -53.55 -12.06" stroke="#f08c00" stroke-width="1.5" fill="none" stroke-dasharray="8 9"/>
    </g>
  </g>
  <mask/>
  <g stroke-linecap="round" transform="translate(17.148012893789655 84.62230053287573) rotate(0 65.8768637944188 63.42991303267446)">
    <path d="M131.75 63.43 C131.75 65.98, 131.59 68.55, 131.27 71.08 C130.95 73.61, 130.47 76.14, 129.84 78.61 C129.21 81.08, 128.41 83.54, 127.47 85.92 C126.53 88.31, 125.44 90.65, 124.21 92.91 C122.98 95.16, 121.6 97.36, 120.09 99.46 C118.59 101.56, 116.94 103.58, 115.19 105.49 C113.43 107.4, 111.54 109.22, 109.56 110.91 C107.58 112.6, 105.48 114.18, 103.3 115.63 C101.12 117.08, 98.84 118.41, 96.49 119.59 C94.15 120.78, 91.71 121.83, 89.24 122.74 C86.76 123.64, 84.21 124.41, 81.64 125.02 C79.07 125.63, 76.45 126.09, 73.82 126.4 C71.19 126.7, 68.52 126.86, 65.88 126.86 C63.23 126.86, 60.56 126.7, 57.94 126.4 C55.31 126.09, 52.68 125.63, 50.11 125.02 C47.54 124.41, 44.99 123.64, 42.52 122.74 C40.04 121.83, 37.61 120.78, 35.26 119.59 C32.92 118.41, 30.63 117.08, 28.45 115.63 C26.28 114.18, 24.17 112.6, 22.19 110.91 C20.21 109.22, 18.32 107.4, 16.57 105.49 C14.81 103.58, 13.16 101.56, 11.66 99.46 C10.16 97.36, 8.78 95.16, 7.55 92.91 C6.32 90.65, 5.22 88.31, 4.28 85.92 C3.34 83.54, 2.55 81.08, 1.91 78.61 C1.28 76.14, 0.8 73.61, 0.48 71.08 C0.16 68.55, 0 65.98, 0 63.43 C0 60.88, 0.16 58.31, 0.48 55.78 C0.8 53.25, 1.28 50.72, 1.91 48.25 C2.55 45.78, 3.34 43.32, 4.28 40.94 C5.22 38.55, 6.32 36.21, 7.55 33.95 C8.78 31.7, 10.16 29.5, 11.66 27.4 C13.16 25.3, 14.81 23.28, 16.57 21.37 C18.32 19.46, 20.21 17.64, 22.19 15.95 C24.17 14.26, 26.28 12.68, 28.45 11.23 C30.63 9.78, 32.92 8.45, 35.26 7.27 C37.61 6.08, 40.04 5.03, 42.52 4.12 C44.99 3.22, 47.54 2.45, 50.11 1.84 C52.68 1.23, 55.31 0.77, 57.94 0.46 C60.56 0.16, 63.23 0, 65.88 0 C68.52 0, 71.19 0.16, 73.82 0.46 C76.45 0.77, 79.07 1.23, 81.64 1.84 C84.21 2.45, 86.76 3.22, 89.24 4.12 C91.71 5.03, 94.15 6.08, 96.49 7.27 C98.84 8.45, 101.12 9.78, 103.3 11.23 C105.48 12.68, 107.58 14.26, 109.56 15.95 C111.54 17.64, 113.43 19.46, 115.19 21.37 C116.94 23.28, 118.59 25.3, 120.09 27.4 C121.6 29.5, 122.98 31.7, 124.21 33.95 C125.44 36.21, 126.53 38.55, 127.47 40.94 C128.41 43.32, 129.21 45.78, 129.84 48.25 C130.47 50.72, 130.95 53.25, 131.27 55.78 C131.59 58.31, 131.75 60.88, 131.75 63.43" stroke="none" stroke-width="0" fill="#cc6666"/>
    <path d="M131.75 63.43 C131.75 65.98, 131.59 68.55, 131.27 71.08 C130.95 73.61, 130.47 76.14, 129.84 78.61 C129.21 81.08, 128.41 83.54, 127.47 85.92 C126.53 88.31, 125.44 90.65, 124.21 92.91 C122.98 95.16, 121.6 97.36, 120.09 99.46 C118.59 101.56, 116.94 103.58, 115.19 105.49 C113.43 107.4, 111.54 109.22, 109.56 110.91 C107.58 112.6, 105.48 114.18, 103.3 115.63 C101.12 117.08, 98.84 118.41, 96.49 119.59 C94.15 120.78, 91.71 121.83, 89.24 122.74 C86.76 123.64, 84.21 124.41, 81.64 125.02 C79.07 125.63, 76.45 126.09, 73.82 126.4 C71.19 126.7, 68.52 126.86, 65.88 126.86 C63.23 126.86, 60.56 126.7, 57.94 126.4 C55.31 126.09, 52.68 125.63, 50.11 125.02 C47.54 124.41, 44.99 123.64, 42.52 122.74 C40.04 121.83, 37.61 120.78, 35.26 119.59 C32.92 118.41, 30.63 117.08, 28.45 115.63 C26.28 114.18, 24.17 112.6, 22.19 110.91 C20.21 109.22, 18.32 107.4, 16.57 105.49 C14.81 103.58, 13.16 101.56, 11.66 99.46 C10.16 97.36, 8.78 95.16, 7.55 92.91 C6.32 90.65, 5.22 88.31, 4.28 85.92 C3.34 83.54, 2.55 81.08, 1.91 78.61 C1.28 76.14, 0.8 73.61, 0.48 71.08 C0.16 68.55, 0 65.98, 0 63.43 C0 60.88, 0.16 58.31, 0.48 55.78 C0.8 53.25, 1.28 50.72, 1.91 48.25 C2.55 45.78, 3.34 43.32, 4.28 40.94 C5.22 38.55, 6.32 36.21, 7.55 33.95 C8.78 31.7, 10.16 29.5, 11.66 27.4 C13.16 25.3, 14.81 23.28, 16.57 21.37 C18.32 19.46, 20.21 17.64, 22.19 15.95 C24.17 14.26, 26.28 12.68, 28.45 11.23 C30.63 9.78, 32.92 8.45, 35.26 7.27 C37.61 6.08, 40.04 5.03, 42.52 4.12 C44.99 3.22, 47.54 2.45, 50.11 1.84 C52.68 1.23, 55.31 0.77, 57.94 0.46 C60.56 0.16, 63.23 0, 65.88 0 C68.52 0, 71.19 0.16, 73.82 0.46 C76.45 0.77, 79.07 1.23, 81.64 1.84 C84.21 2.45, 86.76 3.22, 89.24 4.12 C91.71 5.03, 94.15 6.08, 96.49 7.27 C98.84 8.45, 101.12 9.78, 103.3 11.23 C105.48 12.68, 107.58 14.26, 109.56 15.95 C111.54 17.64, 113.43 19.46, 115.19 21.37 C116.94 23.28, 118.59 25.3, 120.09 27.4 C121.6 29.5, 122.98 31.7, 124.21 33.95 C125.44 36.21, 126.53 38.55, 127.47 40.94 C128.41 43.32, 129.21 45.78, 129.84 48.25 C130.47 50.72, 130.95 53.25, 131.27 55.78 C131.59 58.31, 131.75 60.88, 131.75 63.43" stroke="#ffffff" stroke-width="1" fill="none"/>
  </g>
  <g transform="translate(52.79289995734189 139.0004919300731) rotate(0 30.149999618530273 9.200000000000003)">
    <text x="30.149999618530273" y="0" fill="#ffffff" text-anchor="middle" style="white-space: pre;" direction="ltr" dominant-baseline="text-before-edge">Instance</text>
  </g>
  <g stroke-linecap="round">
    <g transform="translate(130.33296245699557 199.76165836821326) rotate(0 27.431722095257555 31.804895182907295)">
      <path d="M0 0 C20.35 23.59, 40.69 47.18, 54.86 63.61" stroke="#cc6666" stroke-width="1.5" fill="none" stroke-dasharray="8 9"/>
    </g>
  </g>
  <mask/>
  <g stroke-linecap="round" transform="translate(299.8074014826675 91.91694725835794) rotate(0 65.87686379441902 63.42991303267446)">
    <path d="M131.75 63.43 C131.75 65.98, 131.59 68.55, 131.27 71.08 C130.95 73.61, 130.47 76.14, 129.84 78.61 C129.21 81.08, 128.41 83.54, 127.47 85.92 C126.53 88.31, 125.44 90.65, 124.21 92.91 C122.98 95.16, 121.6 97.36, 120.09 99.46 C118.59 101.56, 116.94 103.58, 115.19 105.49 C113.43 107.4, 111.54 109.22, 109.56 110.91 C107.58 112.6, 105.48 114.18, 103.3 115.63 C101.12 117.08, 98.84 118.41, 96.49 119.59 C94.15 120.78, 91.71 121.83, 89.24 122.74 C86.76 123.64, 84.21 124.41, 81.64 125.02 C79.07 125.63, 76.45 126.09, 73.82 126.4 C71.19 126.7, 68.52 126.86, 65.88 126.86 C63.23 126.86, 60.56 126.7, 57.94 126.4 C55.31 126.09, 52.68 125.63, 50.11 125.02 C47.54 124.41, 44.99 123.64, 42.52 122.74 C40.04 121.83, 37.61 120.78, 35.26 119.59 C32.92 118.41, 30.63 117.08, 28.45 115.63 C26.28 114.18, 24.17 112.6, 22.19 110.91 C20.21 109.22, 18.32 107.4, 16.57 105.49 C14.81 103.58, 13.16 101.56, 11.66 99.46 C10.16 97.36, 8.78 95.16, 7.55 92.91 C6.32 90.65, 5.22 88.31, 4.28 85.92 C3.34 83.54, 2.55 81.08, 1.91 78.61 C1.28 76.14, 0.8 73.61, 0.48 71.08 C0.16 68.55, 0 65.98, 0 63.43 C0 60.88, 0.16 58.31, 0.48 55.78 C0.8 53.25, 1.28 50.72, 1.91 48.25 C2.55 45.78, 3.34 43.32, 4.28 40.94 C5.22 38.55, 6.32 36.21, 7.55 33.95 C8.78 31.7, 10.16 29.5, 11.66 27.4 C13.16 25.3, 14.81 23.28, 16.57 21.37 C18.32 19.46, 20.21 17.64, 22.19 15.95 C24.17 14.26, 26.28 12.68, 28.45 11.23 C30.63 9.78, 32.92 8.45, 35.26 7.27 C37.61 6.08, 40.04 5.03, 42.52 4.12 C44.99 3.22, 47.54 2.45, 50.11 1.84 C52.68 1.23, 55.31 0.77, 57.94 0.46 C60.56 0.16, 63.23 0, 65.88 0 C68.52 0, 71.19 0.16, 73.82 0.46 C76.45 0.77, 79.07 1.23, 81.64 1.84 C84.21 2.45, 86.76 3.22, 89.24 4.12 C91.71 5.03, 94.15 6.08, 96.49 7.27 C98.84 8.45, 101.12 9.78, 103.3 11.23 C105.48 12.68, 107.58 14.26, 109.56 15.95 C111.54 17.64, 113.43 19.46, 115.19 21.37 C116.94 23.28, 118.59 25.3, 120.09 27.4 C121.6 29.5, 122.98 31.7, 124.21 33.95 C125.44 36.21, 126.53 38.55, 127.47 40.94 C128.41 43.32, 129.21 45.78, 129.84 48.25 C130.47 50.72, 130.95 53.25, 131.27 55.78 C131.59 58.31, 131.75 60.88, 131.75 63.43" stroke="none" stroke-width="0" fill="#cc6666"/>
    <path d="M131.75 63.43 C131.75 65.98, 131.59 68.55, 131.27 71.08 C130.95 73.61, 130.47 76.14, 129.84 78.61 C129.21 81.08, 128.41 83.54, 127.47 85.92 C126.53 88.31, 125.44 90.65, 124.21 92.91 C122.98 95.16, 121.6 97.36, 120.09 99.46 C118.59 101.56, 116.94 103.58, 115.19 105.49 C113.43 107.4, 111.54 109.22, 109.56 110.91 C107.58 112.6, 105.48 114.18, 103.3 115.63 C101.12 117.08, 98.84 118.41, 96.49 119.59 C94.15 120.78, 91.71 121.83, 89.24 122.74 C86.76 123.64, 84.21 124.41, 81.64 125.02 C79.07 125.63, 76.45 126.09, 73.82 126.4 C71.19 126.7, 68.52 126.86, 65.88 126.86 C63.23 126.86, 60.56 126.7, 57.94 126.4 C55.31 126.09, 52.68 125.63, 50.11 125.02 C47.54 124.41, 44.99 123.64, 42.52 122.74 C40.04 121.83, 37.61 120.78, 35.26 119.59 C32.92 118.41, 30.63 117.08, 28.45 115.63 C26.28 114.18, 24.17 112.6, 22.19 110.91 C20.21 109.22, 18.32 107.4, 16.57 105.49 C14.81 103.58, 13.16 101.56, 11.66 99.46 C10.16 97.36, 8.78 95.16, 7.55 92.91 C6.32 90.65, 5.22 88.31, 4.28 85.92 C3.34 83.54, 2.55 81.08, 1.91 78.61 C1.28 76.14, 0.8 73.61, 0.48 71.08 C0.16 68.55, 0 65.98, 0 63.43 C0 60.88, 0.16 58.31, 0.48 55.78 C0.8 53.25, 1.28 50.72, 1.91 48.25 C2.55 45.78, 3.34 43.32, 4.28 40.94 C5.22 38.55, 6.32 36.21, 7.55 33.95 C8.78 31.7, 10.16 29.5, 11.66 27.4 C13.16 25.3, 14.81 23.28, 16.57 21.37 C18.32 19.46, 20.21 17.64, 22.19 15.95 C24.17 14.26, 26.28 12.68, 28.45 11.23 C30.63 9.78, 32.92 8.45, 35.26 7.27 C37.61 6.08, 40.04 5.03, 42.52 4.12 C44.99 3.22, 47.54 2.45, 50.11 1.84 C52.68 1.23, 55.31 0.77, 57.94 0.46 C60.56 0.16, 63.23 0, 65.88 0 C68.52 0, 71.19 0.16, 73.82 0.46 C76.45 0.77, 79.07 1.23, 81.64 1.84 C84.21 2.45, 86.76 3.22, 89.24 4.12 C91.71 5.03, 94.15 6.08, 96.49 7.27 C98.84 8.45, 101.12 9.78, 103.3 11.23 C105.48 12.68, 107.58 14.26, 109.56 15.95 C111.54 17.64, 113.43 19.46, 115.19 21.37 C116.94 23.28, 118.59 25.3, 120.09 27.4 C121.6 29.5, 122.98 31.7, 124.21 33.95 C125.44 36.21, 126.53 38.55, 127.47 40.94 C128.41 43.32, 129.21 45.78, 129.84 48.25 C130.47 50.72, 130.95 53.25, 131.27 55.78 C131.59 58.31, 131.75 60.88, 131.75 63.43" stroke="#ffffff" stroke-width="1" fill="none"/>
  </g>
  <g transform="translate(335.45228854621973 146.29513865555532) rotate(0 30.149999618530273 9.200000000000003)">
    <text x="30.149999618530273" y="0" fill="#ffffff" text-anchor="middle" style="white-space: pre;" direction="ltr" dominant-baseline="text-before-edge">Instance</text>
  </g>
  <g stroke-linecap="round">
    <g transform="translate(155.81052696967527 149.04208107520648) rotate(0 68.34468724936437 2.670520078610892)">
      <path d="M0 0 C50.56 1.98, 101.12 3.95, 136.69 5.34" stroke="#cc6666" stroke-width="1.5" fill="none" stroke-dasharray="8 9"/>
    </g>
  </g>
  <mask/>
  <g stroke-linecap="round">
    <g transform="translate(297.0871079015392 258.7902818143921) rotate(0 13.292947909892064 -20.149300419218164)">
      <path d="M0 0 C8.73 -13.23, 17.46 -26.47, 26.59 -40.3" stroke="#cc6666" stroke-width="1.5" fill="none" stroke-dasharray="8 9"/>
    </g>
  </g>
  <mask/>
  <g stroke-linecap="round" transform="translate(180.17911871151955 10) rotate(0 43.18157256441532 41.8730400624635)">
    <path d="M86.36 41.87 C86.36 43.86, 86.22 45.87, 85.92 47.83 C85.63 49.8, 85.19 51.76, 84.61 53.67 C84.04 55.58, 83.31 57.46, 82.46 59.27 C81.61 61.07, 80.62 62.84, 79.51 64.51 C78.4 66.18, 77.16 67.79, 75.82 69.29 C74.47 70.8, 73.01 72.22, 71.46 73.52 C69.91 74.82, 68.25 76.02, 66.53 77.1 C64.8 78.17, 62.98 79.14, 61.12 79.96 C59.26 80.79, 57.31 81.49, 55.35 82.05 C53.38 82.61, 51.35 83.04, 49.33 83.32 C47.3 83.6, 45.23 83.75, 43.18 83.75 C41.13 83.75, 39.06 83.6, 37.04 83.32 C35.01 83.04, 32.98 82.61, 31.02 82.05 C29.05 81.49, 27.11 80.79, 25.24 79.96 C23.38 79.14, 21.56 78.17, 19.84 77.1 C18.11 76.02, 16.45 74.82, 14.9 73.52 C13.36 72.22, 11.89 70.8, 10.55 69.29 C9.21 67.79, 7.96 66.18, 6.85 64.51 C5.75 62.84, 4.75 61.07, 3.9 59.27 C3.05 57.46, 2.33 55.58, 1.75 53.67 C1.17 51.76, 0.73 49.8, 0.44 47.83 C0.15 45.87, 0 43.86, 0 41.87 C0 39.89, 0.15 37.88, 0.44 35.91 C0.73 33.95, 1.17 31.98, 1.75 30.08 C2.33 28.17, 3.05 26.29, 3.9 24.48 C4.75 22.67, 5.75 20.91, 6.85 19.23 C7.96 17.56, 9.21 15.95, 10.55 14.45 C11.89 12.95, 13.36 11.53, 14.9 10.23 C16.45 8.93, 18.11 7.72, 19.84 6.65 C21.56 5.57, 23.38 4.61, 25.24 3.78 C27.11 2.96, 29.05 2.26, 31.02 1.7 C32.98 1.14, 35.01 0.71, 37.04 0.43 C39.06 0.14, 41.13 0, 43.18 0 C45.23 0, 47.3 0.14, 49.33 0.43 C51.35 0.71, 53.38 1.14, 55.35 1.7 C57.31 2.26, 59.26 2.96, 61.12 3.78 C62.98 4.61, 64.8 5.57, 66.53 6.65 C68.25 7.72, 69.91 8.93, 71.46 10.23 C73.01 11.53, 74.47 12.95, 75.82 14.45 C77.16 15.95, 78.4 17.56, 79.51 19.23 C80.62 20.91, 81.61 22.67, 82.46 24.48 C83.31 26.29, 84.04 28.17, 84.61 30.08 C85.19 31.98, 85.63 33.95, 85.92 35.91 C86.22 37.88, 86.29 40.88, 86.36 41.87 C86.44 42.87, 86.44 40.88, 86.36 41.87" stroke="none" stroke-width="0" fill="#ee9944"/>
    <path d="M86.36 41.87 C86.36 43.86, 86.22 45.87, 85.92 47.83 C85.63 49.8, 85.19 51.76, 84.61 53.67 C84.04 55.58, 83.31 57.46, 82.46 59.27 C81.61 61.07, 80.62 62.84, 79.51 64.51 C78.4 66.18, 77.16 67.79, 75.82 69.29 C74.47 70.8, 73.01 72.22, 71.46 73.52 C69.91 74.82, 68.25 76.02, 66.53 77.1 C64.8 78.17, 62.98 79.14, 61.12 79.96 C59.26 80.79, 57.31 81.49, 55.35 82.05 C53.38 82.61, 51.35 83.04, 49.33 83.32 C47.3 83.6, 45.23 83.75, 43.18 83.75 C41.13 83.75, 39.06 83.6, 37.04 83.32 C35.01 83.04, 32.98 82.61, 31.02 82.05 C29.05 81.49, 27.11 80.79, 25.24 79.96 C23.38 79.14, 21.56 78.17, 19.84 77.1 C18.11 76.02, 16.45 74.82, 14.9 73.52 C13.36 72.22, 11.89 70.8, 10.55 69.29 C9.21 67.79, 7.96 66.18, 6.85 64.51 C5.75 62.84, 4.75 61.07, 3.9 59.27 C3.05 57.46, 2.33 55.58, 1.75 53.67 C1.17 51.76, 0.73 49.8, 0.44 47.83 C0.15 45.87, 0 43.86, 0 41.87 C0 39.89, 0.15 37.88, 0.44 35.91 C0.73 33.95, 1.17 31.98, 1.75 30.08 C2.33 28.17, 3.05 26.29, 3.9 24.48 C4.75 22.67, 5.75 20.91, 6.85 19.23 C7.96 17.56, 9.21 15.95, 10.55 14.45 C11.89 12.95, 13.36 11.53, 14.9 10.23 C16.45 8.93, 18.11 7.72, 19.84 6.65 C21.56 5.57, 23.38 4.61, 25.24 3.78 C27.11 2.96, 29.05 2.26, 31.02 1.7 C32.98 1.14, 35.01 0.71, 37.04 0.43 C39.06 0.14, 41.13 0, 43.18 0 C45.23 0, 47.3 0.14, 49.33 0.43 C51.35 0.71, 53.38 1.14, 55.35 1.7 C57.31 2.26, 59.26 2.96, 61.12 3.78 C62.98 4.61, 64.8 5.57, 66.53 6.65 C68.25 7.72, 69.91 8.93, 71.46 10.23 C73.01 11.53, 74.47 12.95, 75.82 14.45 C77.16 15.95, 78.4 17.56, 79.51 19.23 C80.62 20.91, 81.61 22.67, 82.46 24.48 C83.31 26.29, 84.04 28.17, 84.61 30.08 C85.19 31.98, 85.63 33.95, 85.92 35.91 C86.22 37.88, 86.29 40.88, 86.36 41.87 C86.44 42.87, 86.44 40.88, 86.36 41.87" stroke="#ffffff" stroke-width="1" fill="none"/>
  </g>
  <g transform="translate(206.476708111868 42.56432948539958) rotate(0 16.8500003814695 9.199999999999989)">
    <text x="16.850000381469727" y="0" fill="#ffffff" text-anchor="middle" style="white-space: pre;" direction="ltr" dominant-baseline="text-before-edge">User</text>
  </g>
  <g stroke-linecap="round">
    <g transform="translate(258.66057538988525 80.95176488887137) rotate(0 22.175136810002186 17.055950936410696)">
      <path d="M0 0 C9.24 7.11, 18.48 14.21, 44.35 34.11" stroke="#f08c00" stroke-width="1.5" fill="none" stroke-dasharray="8 9"/>
    </g>
  </g>
  <mask/>
  <g stroke-linecap="round" transform="translate(621.0930725376234 107.4005764770692) rotate(0 55.56231838939857 53.87861177153815)">
    <path d="M111.12 53.88 C111.12 56.22, 110.96 58.59, 110.65 60.91 C110.33 63.24, 109.86 65.56, 109.23 67.82 C108.61 70.09, 107.82 72.33, 106.9 74.5 C105.97 76.66, 104.89 78.79, 103.68 80.82 C102.47 82.85, 101.11 84.82, 99.64 86.68 C98.17 88.54, 96.56 90.32, 94.85 91.98 C93.14 93.63, 91.3 95.2, 89.39 96.62 C87.47 98.05, 85.44 99.37, 83.34 100.54 C81.25 101.71, 79.06 102.76, 76.83 103.66 C74.59 104.55, 72.28 105.31, 69.94 105.92 C67.61 106.53, 65.21 106.99, 62.81 107.3 C60.42 107.6, 57.98 107.76, 55.56 107.76 C53.14 107.76, 50.71 107.6, 48.31 107.3 C45.91 106.99, 43.52 106.53, 41.18 105.92 C38.85 105.31, 36.53 104.55, 34.3 103.66 C32.07 102.76, 29.87 101.71, 27.78 100.54 C25.69 99.37, 23.66 98.05, 21.74 96.62 C19.82 95.2, 17.98 93.63, 16.27 91.98 C14.56 90.32, 12.95 88.54, 11.48 86.68 C10.01 84.82, 8.65 82.85, 7.44 80.82 C6.24 78.79, 5.15 76.66, 4.23 74.5 C3.3 72.33, 2.52 70.09, 1.89 67.82 C1.27 65.56, 0.79 63.24, 0.48 60.91 C0.16 58.59, 0 56.22, 0 53.88 C0 51.53, 0.16 49.17, 0.48 46.85 C0.79 44.52, 1.27 42.2, 1.89 39.93 C2.52 37.67, 3.3 35.43, 4.23 33.26 C5.15 31.09, 6.24 28.97, 7.44 26.94 C8.65 24.91, 10.01 22.94, 11.48 21.08 C12.95 19.22, 14.56 17.44, 16.27 15.78 C17.98 14.12, 19.82 12.56, 21.74 11.13 C23.66 9.71, 25.69 8.39, 27.78 7.22 C29.87 6.05, 32.07 5, 34.3 4.1 C36.53 3.2, 38.85 2.44, 41.18 1.84 C43.52 1.23, 45.91 0.77, 48.31 0.46 C50.71 0.15, 53.14 0, 55.56 0 C57.98 0, 60.42 0.15, 62.81 0.46 C65.21 0.77, 67.61 1.23, 69.94 1.84 C72.28 2.44, 74.59 3.2, 76.83 4.1 C79.06 5, 81.25 6.05, 83.34 7.22 C85.44 8.39, 87.47 9.71, 89.39 11.13 C91.3 12.56, 93.14 14.12, 94.85 15.78 C96.56 17.44, 98.17 19.22, 99.64 21.08 C101.11 22.94, 102.47 24.91, 103.68 26.94 C104.89 28.97, 105.97 31.09, 106.9 33.26 C107.82 35.43, 108.61 37.67, 109.23 39.93 C109.86 42.2, 110.33 44.52, 110.65 46.85 C110.96 49.17, 111.05 52.71, 111.12 53.88 C111.2 55.05, 111.2 52.71, 111.12 53.88" stroke="none" stroke-width="0" fill="#8888ff"/>
    <path d="M111.12 53.88 C111.12 56.22, 110.96 58.59, 110.65 60.91 C110.33 63.24, 109.86 65.56, 109.23 67.82 C108.61 70.09, 107.82 72.33, 106.9 74.5 C105.97 76.66, 104.89 78.79, 103.68 80.82 C102.47 82.85, 101.11 84.82, 99.64 86.68 C98.17 88.54, 96.56 90.32, 94.85 91.98 C93.14 93.63, 91.3 95.2, 89.39 96.62 C87.47 98.05, 85.44 99.37, 83.34 100.54 C81.25 101.71, 79.06 102.76, 76.83 103.66 C74.59 104.55, 72.28 105.31, 69.94 105.92 C67.61 106.53, 65.21 106.99, 62.81 107.3 C60.42 107.6, 57.98 107.76, 55.56 107.76 C53.14 107.76, 50.71 107.6, 48.31 107.3 C45.91 106.99, 43.52 106.53, 41.18 105.92 C38.85 105.31, 36.53 104.55, 34.3 103.66 C32.07 102.76, 29.87 101.71, 27.78 100.54 C25.69 99.37, 23.66 98.05, 21.74 96.62 C19.82 95.2, 17.98 93.63, 16.27 91.98 C14.56 90.32, 12.95 88.54, 11.48 86.68 C10.01 84.82, 8.65 82.85, 7.44 80.82 C6.24 78.79, 5.15 76.66, 4.23 74.5 C3.3 72.33, 2.52 70.09, 1.89 67.82 C1.27 65.56, 0.79 63.24, 0.48 60.91 C0.16 58.59, 0 56.22, 0 53.88 C0 51.53, 0.16 49.17, 0.48 46.85 C0.79 44.52, 1.27 42.2, 1.89 39.93 C2.52 37.67, 3.3 35.43, 4.23 33.26 C5.15 31.09, 6.24 28.97, 7.44 26.94 C8.65 24.91, 10.01 22.94, 11.48 21.08 C12.95 19.22, 14.56 17.44, 16.27 15.78 C17.98 14.12, 19.82 12.56, 21.74 11.13 C23.66 9.71, 25.69 8.39, 27.78 7.22 C29.87 6.05, 32.07 5, 34.3 4.1 C36.53 3.2, 38.85 2.44, 41.18 1.84 C43.52 1.23, 45.91 0.77, 48.31 0.46 C50.71 0.15, 53.14 0, 55.56 0 C57.98 0, 60.42 0.15, 62.81 0.46 C65.21 0.77, 67.61 1.23, 69.94 1.84 C72.28 2.44, 74.59 3.2, 76.83 4.1 C79.06 5, 81.25 6.05, 83.34 7.22 C85.44 8.39, 87.47 9.71, 89.39 11.13 C91.3 12.56, 93.14 14.12, 94.85 15.78 C96.56 17.44, 98.17 19.22, 99.64 21.08 C101.11 22.94, 102.47 24.91, 103.68 26.94 C104.89 28.97, 105.97 31.09, 106.9 33.26 C107.82 35.43, 108.61 37.67, 109.23 39.93 C109.86 42.2, 110.33 44.52, 110.65 46.85 C110.96 49.17, 111.05 52.71, 111.12 53.88 C111.2 55.05, 111.2 52.71, 111.12 53.88" stroke="#ffffff" stroke-width="1" fill="none"/>
  </g>
  <g transform="translate(657.7918980524923 151.9812565040354) rotate(0 19.075000762939453 9.200000000000003)">
    <text x="19.075000762939453" y="0" fill="#ffffff" text-anchor="middle" style="white-space: pre;" direction="ltr" dominant-baseline="text-before-edge">Node</text>
  </g>
  <g stroke-linecap="round" transform="translate(846.0050550609062 51.8730404270479) rotate(0 55.56231838939857 53.87861177153815)">
    <path d="M111.12 53.88 C111.12 56.22, 110.96 58.59, 110.65 60.91 C110.33 63.24, 109.86 65.56, 109.23 67.82 C108.61 70.09, 107.82 72.33, 106.9 74.5 C105.97 76.66, 104.89 78.79, 103.68 80.82 C102.47 82.85, 101.11 84.82, 99.64 86.68 C98.17 88.54, 96.56 90.32, 94.85 91.98 C93.14 93.63, 91.3 95.2, 89.39 96.62 C87.47 98.05, 85.44 99.37, 83.34 100.54 C81.25 101.71, 79.06 102.76, 76.83 103.66 C74.59 104.55, 72.28 105.31, 69.94 105.92 C67.61 106.53, 65.21 106.99, 62.81 107.3 C60.42 107.6, 57.98 107.76, 55.56 107.76 C53.14 107.76, 50.71 107.6, 48.31 107.3 C45.91 106.99, 43.52 106.53, 41.18 105.92 C38.85 105.31, 36.53 104.55, 34.3 103.66 C32.07 102.76, 29.87 101.71, 27.78 100.54 C25.69 99.37, 23.66 98.05, 21.74 96.62 C19.82 95.2, 17.98 93.63, 16.27 91.98 C14.56 90.32, 12.95 88.54, 11.48 86.68 C10.01 84.82, 8.65 82.85, 7.44 80.82 C6.24 78.79, 5.15 76.66, 4.23 74.5 C3.3 72.33, 2.52 70.09, 1.89 67.82 C1.27 65.56, 0.79 63.24, 0.48 60.91 C0.16 58.59, 0 56.22, 0 53.88 C0 51.53, 0.16 49.17, 0.48 46.85 C0.79 44.52, 1.27 42.2, 1.89 39.93 C2.52 37.67, 3.3 35.43, 4.23 33.26 C5.15 31.09, 6.24 28.97, 7.44 26.94 C8.65 24.91, 10.01 22.94, 11.48 21.08 C12.95 19.22, 14.56 17.44, 16.27 15.78 C17.98 14.12, 19.82 12.56, 21.74 11.13 C23.66 9.71, 25.69 8.39, 27.78 7.22 C29.87 6.05, 32.07 5, 34.3 4.1 C36.53 3.2, 38.85 2.44, 41.18 1.84 C43.52 1.23, 45.91 0.77, 48.31 0.46 C50.71 0.15, 53.14 0, 55.56 0 C57.98 0, 60.42 0.15, 62.81 0.46 C65.21 0.77, 67.61 1.23, 69.94 1.84 C72.28 2.44, 74.59 3.2, 76.83 4.1 C79.06 5, 81.25 6.05, 83.34 7.22 C85.44 8.39, 87.47 9.71, 89.39 11.13 C91.3 12.56, 93.14 14.12, 94.85 15.78 C96.56 17.44, 98.17 19.22, 99.64 21.08 C101.11 22.94, 102.47 24.91, 103.68 26.94 C104.89 28.97, 105.97 31.09, 106.9 33.26 C107.82 35.43, 108.61 37.67, 109.23 39.93 C109.86 42.2, 110.33 44.52, 110.65 46.85 C110.96 49.17, 111.05 52.71, 111.12 53.88 C111.2 55.05, 111.2 52.71, 111.12 53.88" stroke="none" stroke-width="0" fill="#8888ff"/>
    <path d="M111.12 53.88 C111.12 56.22, 110.96 58.59, 110.65 60.91 C110.33 63.24, 109.86 65.56, 109.23 67.82 C108.61 70.09, 107.82 72.33, 106.9 74.5 C105.97 76.66, 104.89 78.79, 103.68 80.82 C102.47 82.85, 101.11 84.82, 99.64 86.68 C98.17 88.54, 96.56 90.32, 94.85 91.98 C93.14 93.63, 91.3 95.2, 89.39 96.62 C87.47 98.05, 85.44 99.37, 83.34 100.54 C81.25 101.71, 79.06 102.76, 76.83 103.66 C74.59 104.55, 72.28 105.31, 69.94 105.92 C67.61 106.53, 65.21 106.99, 62.81 107.3 C60.42 107.6, 57.98 107.76, 55.56 107.76 C53.14 107.76, 50.71 107.6, 48.31 107.3 C45.91 106.99, 43.52 106.53, 41.18 105.92 C38.85 105.31, 36.53 104.55, 34.3 103.66 C32.07 102.76, 29.87 101.71, 27.78 100.54 C25.69 99.37, 23.66 98.05, 21.74 96.62 C19.82 95.2, 17.98 93.63, 16.27 91.98 C14.56 90.32, 12.95 88.54, 11.48 86.68 C10.01 84.82, 8.65 82.85, 7.44 80.82 C6.24 78.79, 5.15 76.66, 4.23 74.5 C3.3 72.33, 2.52 70.09, 1.89 67.82 C1.27 65.56, 0.79 63.24, 0.48 60.91 C0.16 58.59, 0 56.22, 0 53.88 C0 51.53, 0.16 49.17, 0.48 46.85 C0.79 44.52, 1.27 42.2, 1.89 39.93 C2.52 37.67, 3.3 35.43, 4.23 33.26 C5.15 31.09, 6.24 28.97, 7.44 26.94 C8.65 24.91, 10.01 22.94, 11.48 21.08 C12.95 19.22, 14.56 17.44, 16.27 15.78 C17.98 14.12, 19.82 12.56, 21.74 11.13 C23.66 9.71, 25.69 8.39, 27.78 7.22 C29.87 6.05, 32.07 5, 34.3 4.1 C36.53 3.2, 38.85 2.44, 41.18 1.84 C43.52 1.23, 45.91 0.77, 48.31 0.46 C50.71 0.15, 53.14 0, 55.56 0 C57.98 0, 60.42 0.15, 62.81 0.46 C65.21 0.77, 67.61 1.23, 69.94 1.84 C72.28 2.44, 74.59 3.2, 76.83 4.1 C79.06 5, 81.25 6.05, 83.34 7.22 C85.44 8.39, 87.47 9.71, 89.39 11.13 C91.3 12.56, 93.14 14.12, 94.85 15.78 C96.56 17.44, 98.17 19.22, 99.64 21.08 C101.11 22.94, 102.47 24.91, 103.68 26.94 C104.89 28.97, 105.97 31.09, 106.9 33.26 C107.82 35.43, 108.61 37.67, 109.23 39.93 C109.86 42.2, 110.33 44.52, 110.65 46.85 C110.96 49.17, 111.05 52.71, 111.12 53.88 C111.2 55.05, 111.2 52.71, 111.12 53.88" stroke="#ffffff" stroke-width="1" fill="none"/>
  </g>
  <g transform="translate(882.7038805757752 96.4537204540141) rotate(0 19.075000762939453 9.200000000000003)">
    <text x="19.075000762939453" y="0" fill="#ffffff" text-anchor="middle" style="white-space: pre;" direction="ltr" dominant-baseline="text-before-edge">Node</text>
  </g>
  <g stroke-linecap="round" transform="translate(833.7138547484324 200.1226669501092) rotate(0 55.56231838939857 53.878611771538154)">
    <path d="M111.12 53.88 C111.12 56.22, 110.96 58.59, 110.65 60.91 C110.33 63.24, 109.86 65.56, 109.23 67.82 C108.61 70.09, 107.82 72.33, 106.9 74.5 C105.97 76.66, 104.89 78.79, 103.68 80.82 C102.47 82.85, 101.11 84.82, 99.64 86.68 C98.17 88.54, 96.56 90.32, 94.85 91.98 C93.14 93.63, 91.3 95.2, 89.39 96.62 C87.47 98.05, 85.44 99.37, 83.34 100.54 C81.25 101.71, 79.06 102.76, 76.83 103.66 C74.59 104.55, 72.28 105.31, 69.94 105.92 C67.61 106.53, 65.21 106.99, 62.81 107.3 C60.42 107.6, 57.98 107.76, 55.56 107.76 C53.14 107.76, 50.71 107.6, 48.31 107.3 C45.91 106.99, 43.52 106.53, 41.18 105.92 C38.85 105.31, 36.53 104.55, 34.3 103.66 C32.07 102.76, 29.87 101.71, 27.78 100.54 C25.69 99.37, 23.66 98.05, 21.74 96.62 C19.82 95.2, 17.98 93.63, 16.27 91.98 C14.56 90.32, 12.95 88.54, 11.48 86.68 C10.01 84.82, 8.65 82.85, 7.44 80.82 C6.24 78.79, 5.15 76.66, 4.23 74.5 C3.3 72.33, 2.52 70.09, 1.89 67.82 C1.27 65.56, 0.79 63.24, 0.48 60.91 C0.16 58.59, 0 56.22, 0 53.88 C0 51.53, 0.16 49.17, 0.48 46.85 C0.79 44.52, 1.27 42.2, 1.89 39.93 C2.52 37.67, 3.3 35.43, 4.23 33.26 C5.15 31.09, 6.24 28.97, 7.44 26.94 C8.65 24.91, 10.01 22.94, 11.48 21.08 C12.95 19.22, 14.56 17.44, 16.27 15.78 C17.98 14.12, 19.82 12.56, 21.74 11.13 C23.66 9.71, 25.69 8.39, 27.78 7.22 C29.87 6.05, 32.07 5, 34.3 4.1 C36.53 3.2, 38.85 2.44, 41.18 1.84 C43.52 1.23, 45.91 0.77, 48.31 0.46 C50.71 0.15, 53.14 0, 55.56 0 C57.98 0, 60.42 0.15, 62.81 0.46 C65.21 0.77, 67.61 1.23, 69.94 1.84 C72.28 2.44, 74.59 3.2, 76.83 4.1 C79.06 5, 81.25 6.05, 83.34 7.22 C85.44 8.39, 87.47 9.71, 89.39 11.13 C91.3 12.56, 93.14 14.12, 94.85 15.78 C96.56 17.44, 98.17 19.22, 99.64 21.08 C101.11 22.94, 102.47 24.91, 103.68 26.94 C104.89 28.97, 105.97 31.09, 106.9 33.26 C107.82 35.43, 108.61 37.67, 109.23 39.93 C109.86 42.2, 110.33 44.52, 110.65 46.85 C110.96 49.17, 111.05 52.71, 111.12 53.88 C111.2 55.05, 111.2 52.71, 111.12 53.88" stroke="none" stroke-width="0" fill="#8888ff"/>
    <path d="M111.12 53.88 C111.12 56.22, 110.96 58.59, 110.65 60.91 C110.33 63.24, 109.86 65.56, 109.23 67.82 C108.61 70.09, 107.82 72.33, 106.9 74.5 C105.97 76.66, 104.89 78.79, 103.68 80.82 C102.47 82.85, 101.11 84.82, 99.64 86.68 C98.17 88.54, 96.56 90.32, 94.85 91.98 C93.14 93.63, 91.3 95.2, 89.39 96.62 C87.47 98.05, 85.44 99.37, 83.34 100.54 C81.25 101.71, 79.06 102.76, 76.83 103.66 C74.59 104.55, 72.28 105.31, 69.94 105.92 C67.61 106.53, 65.21 106.99, 62.81 107.3 C60.42 107.6, 57.98 107.76, 55.56 107.76 C53.14 107.76, 50.71 107.6, 48.31 107.3 C45.91 106.99, 43.52 106.53, 41.18 105.92 C38.85 105.31, 36.53 104.55, 34.3 103.66 C32.07 102.76, 29.87 101.71, 27.78 100.54 C25.69 99.37, 23.66 98.05, 21.74 96.62 C19.82 95.2, 17.98 93.63, 16.27 91.98 C14.56 90.32, 12.95 88.54, 11.48 86.68 C10.01 84.82, 8.65 82.85, 7.44 80.82 C6.24 78.79, 5.15 76.66, 4.23 74.5 C3.3 72.33, 2.52 70.09, 1.89 67.82 C1.27 65.56, 0.79 63.24, 0.48 60.91 C0.16 58.59, 0 56.22, 0 53.88 C0 51.53, 0.16 49.17, 0.48 46.85 C0.79 44.52, 1.27 42.2, 1.89 39.93 C2.52 37.67, 3.3 35.43, 4.23 33.26 C5.15 31.09, 6.24 28.97, 7.44 26.94 C8.65 24.91, 10.01 22.94, 11.48 21.08 C12.95 19.22, 14.56 17.44, 16.27 15.78 C17.98 14.12, 19.82 12.56, 21.74 11.13 C23.66 9.71, 25.69 8.39, 27.78 7.22 C29.87 6.05, 32.07 5, 34.3 4.1 C36.53 3.2, 38.85 2.44, 41.18 1.84 C43.52 1.23, 45.91 0.77, 48.31 0.46 C50.71 0.15, 53.14 0, 55.56 0 C57.98 0, 60.42 0.15, 62.81 0.46 C65.21 0.77, 67.61 1.23, 69.94 1.84 C72.28 2.44, 74.59 3.2, 76.83 4.1 C79.06 5, 81.25 6.05, 83.34 7.22 C85.44 8.39, 87.47 9.71, 89.39 11.13 C91.3 12.56, 93.14 14.12, 94.85 15.78 C96.56 17.44, 98.17 19.22, 99.64 21.08 C101.11 22.94, 102.47 24.91, 103.68 26.94 C104.89 28.97, 105.97 31.09, 106.9 33.26 C107.82 35.43, 108.61 37.67, 109.23 39.93 C109.86 42.2, 110.33 44.52, 110.65 46.85 C110.96 49.17, 111.05 52.71, 111.12 53.88 C111.2 55.05, 111.2 52.71, 111.12 53.88" stroke="#ffffff" stroke-width="1" fill="none"/>
  </g>
  <g transform="translate(870.4126802633014 244.7033469770754) rotate(0 19.075000762939453 9.199999999999996)">
    <text x="19.075000762939453" y="0" fill="#ffffff" text-anchor="middle" style="white-space: pre;" direction="ltr" dominant-baseline="text-before-edge">Node</text>
  </g>
  <g stroke-linecap="round" transform="translate(1073.3714459553107 400.33351177821623) rotate(0 55.56231838939857 53.87861177153815)">
    <path d="M111.12 53.88 C111.12 56.22, 110.96 58.59, 110.65 60.91 C110.33 63.24, 109.86 65.56, 109.23 67.82 C108.61 70.09, 107.82 72.33, 106.9 74.5 C105.97 76.66, 104.89 78.79, 103.68 80.82 C102.47 82.85, 101.11 84.82, 99.64 86.68 C98.17 88.54, 96.56 90.32, 94.85 91.98 C93.14 93.63, 91.3 95.2, 89.39 96.62 C87.47 98.05, 85.44 99.37, 83.34 100.54 C81.25 101.71, 79.06 102.76, 76.83 103.66 C74.59 104.55, 72.28 105.31, 69.94 105.92 C67.61 106.53, 65.21 106.99, 62.81 107.3 C60.42 107.6, 57.98 107.76, 55.56 107.76 C53.14 107.76, 50.71 107.6, 48.31 107.3 C45.91 106.99, 43.52 106.53, 41.18 105.92 C38.85 105.31, 36.53 104.55, 34.3 103.66 C32.07 102.76, 29.87 101.71, 27.78 100.54 C25.69 99.37, 23.66 98.05, 21.74 96.62 C19.82 95.2, 17.98 93.63, 16.27 91.98 C14.56 90.32, 12.95 88.54, 11.48 86.68 C10.01 84.82, 8.65 82.85, 7.44 80.82 C6.24 78.79, 5.15 76.66, 4.23 74.5 C3.3 72.33, 2.52 70.09, 1.89 67.82 C1.27 65.56, 0.79 63.24, 0.48 60.91 C0.16 58.59, 0 56.22, 0 53.88 C0 51.53, 0.16 49.17, 0.48 46.85 C0.79 44.52, 1.27 42.2, 1.89 39.93 C2.52 37.67, 3.3 35.43, 4.23 33.26 C5.15 31.09, 6.24 28.97, 7.44 26.94 C8.65 24.91, 10.01 22.94, 11.48 21.08 C12.95 19.22, 14.56 17.44, 16.27 15.78 C17.98 14.12, 19.82 12.56, 21.74 11.13 C23.66 9.71, 25.69 8.39, 27.78 7.22 C29.87 6.05, 32.07 5, 34.3 4.1 C36.53 3.2, 38.85 2.44, 41.18 1.84 C43.52 1.23, 45.91 0.77, 48.31 0.46 C50.71 0.15, 53.14 0, 55.56 0 C57.98 0, 60.42 0.15, 62.81 0.46 C65.21 0.77, 67.61 1.23, 69.94 1.84 C72.28 2.44, 74.59 3.2, 76.83 4.1 C79.06 5, 81.25 6.05, 83.34 7.22 C85.44 8.39, 87.47 9.71, 89.39 11.13 C91.3 12.56, 93.14 14.12, 94.85 15.78 C96.56 17.44, 98.17 19.22, 99.64 21.08 C101.11 22.94, 102.47 24.91, 103.68 26.94 C104.89 28.97, 105.97 31.09, 106.9 33.26 C107.82 35.43, 108.61 37.67, 109.23 39.93 C109.86 42.2, 110.33 44.52, 110.65 46.85 C110.96 49.17, 111.05 52.71, 111.12 53.88 C111.2 55.05, 111.2 52.71, 111.12 53.88" stroke="none" stroke-width="0" fill="#8888ff"/>
    <path d="M111.12 53.88 C111.12 56.22, 110.96 58.59, 110.65 60.91 C110.33 63.24, 109.86 65.56, 109.23 67.82 C108.61 70.09, 107.82 72.33, 106.9 74.5 C105.97 76.66, 104.89 78.79, 103.68 80.82 C102.47 82.85, 101.11 84.82, 99.64 86.68 C98.17 88.54, 96.56 90.32, 94.85 91.98 C93.14 93.63, 91.3 95.2, 89.39 96.62 C87.47 98.05, 85.44 99.37, 83.34 100.54 C81.25 101.71, 79.06 102.76, 76.83 103.66 C74.59 104.55, 72.28 105.31, 69.94 105.92 C67.61 106.53, 65.21 106.99, 62.81 107.3 C60.42 107.6, 57.98 107.76, 55.56 107.76 C53.14 107.76, 50.71 107.6, 48.31 107.3 C45.91 106.99, 43.52 106.53, 41.18 105.92 C38.85 105.31, 36.53 104.55, 34.3 103.66 C32.07 102.76, 29.87 101.71, 27.78 100.54 C25.69 99.37, 23.66 98.05, 21.74 96.62 C19.82 95.2, 17.98 93.63, 16.27 91.98 C14.56 90.32, 12.95 88.54, 11.48 86.68 C10.01 84.82, 8.65 82.85, 7.44 80.82 C6.24 78.79, 5.15 76.66, 4.23 74.5 C3.3 72.33, 2.52 70.09, 1.89 67.82 C1.27 65.56, 0.79 63.24, 0.48 60.91 C0.16 58.59, 0 56.22, 0 53.88 C0 51.53, 0.16 49.17, 0.48 46.85 C0.79 44.52, 1.27 42.2, 1.89 39.93 C2.52 37.67, 3.3 35.43, 4.23 33.26 C5.15 31.09, 6.24 28.97, 7.44 26.94 C8.65 24.91, 10.01 22.94, 11.48 21.08 C12.95 19.22, 14.56 17.44, 16.27 15.78 C17.98 14.12, 19.82 12.56, 21.74 11.13 C23.66 9.71, 25.69 8.39, 27.78 7.22 C29.87 6.05, 32.07 5, 34.3 4.1 C36.53 3.2, 38.85 2.44, 41.18 1.84 C43.52 1.23, 45.91 0.77, 48.31 0.46 C50.71 0.15, 53.14 0, 55.56 0 C57.98 0, 60.42 0.15, 62.81 0.46 C65.21 0.77, 67.61 1.23, 69.94 1.84 C72.28 2.44, 74.59 3.2, 76.83 4.1 C79.06 5, 81.25 6.05, 83.34 7.22 C85.44 8.39, 87.47 9.71, 89.39 11.13 C91.3 12.56, 93.14 14.12, 94.85 15.78 C96.56 17.44, 98.17 19.22, 99.64 21.08 C101.11 22.94, 102.47 24.91, 103.68 26.94 C104.89 28.97, 105.97 31.09, 106.9 33.26 C107.82 35.43, 108.61 37.67, 109.23 39.93 C109.86 42.2, 110.33 44.52, 110.65 46.85 C110.96 49.17, 111.05 52.71, 111.12 53.88 C111.2 55.05, 111.2 52.71, 111.12 53.88" stroke="#ffffff" stroke-width="1" fill="none"/>
  </g>
  <g transform="translate(1110.0702714701797 444.91419180518244) rotate(0 19.075000762939453 9.200000000000003)">
    <text x="19.075000762939453" y="0" fill="#ffffff" text-anchor="middle" style="white-space: pre;" direction="ltr" dominant-baseline="text-before-edge">Node</text>
  </g>
  <g stroke-linecap="round" transform="translate(1076.4119815204372 121.34509575371601) rotate(0 55.56231838939857 53.87861177153815)">
    <path d="M111.12 53.88 C111.12 56.22, 110.96 58.59, 110.65 60.91 C110.33 63.24, 109.86 65.56, 109.23 67.82 C108.61 70.09, 107.82 72.33, 106.9 74.5 C105.97 76.66, 104.89 78.79, 103.68 80.82 C102.47 82.85, 101.11 84.82, 99.64 86.68 C98.17 88.54, 96.56 90.32, 94.85 91.98 C93.14 93.63, 91.3 95.2, 89.39 96.62 C87.47 98.05, 85.44 99.37, 83.34 100.54 C81.25 101.71, 79.06 102.76, 76.83 103.66 C74.59 104.55, 72.28 105.31, 69.94 105.92 C67.61 106.53, 65.21 106.99, 62.81 107.3 C60.42 107.6, 57.98 107.76, 55.56 107.76 C53.14 107.76, 50.71 107.6, 48.31 107.3 C45.91 106.99, 43.52 106.53, 41.18 105.92 C38.85 105.31, 36.53 104.55, 34.3 103.66 C32.07 102.76, 29.87 101.71, 27.78 100.54 C25.69 99.37, 23.66 98.05, 21.74 96.62 C19.82 95.2, 17.98 93.63, 16.27 91.98 C14.56 90.32, 12.95 88.54, 11.48 86.68 C10.01 84.82, 8.65 82.85, 7.44 80.82 C6.24 78.79, 5.15 76.66, 4.23 74.5 C3.3 72.33, 2.52 70.09, 1.89 67.82 C1.27 65.56, 0.79 63.24, 0.48 60.91 C0.16 58.59, 0 56.22, 0 53.88 C0 51.53, 0.16 49.17, 0.48 46.85 C0.79 44.52, 1.27 42.2, 1.89 39.93 C2.52 37.67, 3.3 35.43, 4.23 33.26 C5.15 31.09, 6.24 28.97, 7.44 26.94 C8.65 24.91, 10.01 22.94, 11.48 21.08 C12.95 19.22, 14.56 17.44, 16.27 15.78 C17.98 14.12, 19.82 12.56, 21.74 11.13 C23.66 9.71, 25.69 8.39, 27.78 7.22 C29.87 6.05, 32.07 5, 34.3 4.1 C36.53 3.2, 38.85 2.44, 41.18 1.84 C43.52 1.23, 45.91 0.77, 48.31 0.46 C50.71 0.15, 53.14 0, 55.56 0 C57.98 0, 60.42 0.15, 62.81 0.46 C65.21 0.77, 67.61 1.23, 69.94 1.84 C72.28 2.44, 74.59 3.2, 76.83 4.1 C79.06 5, 81.25 6.05, 83.34 7.22 C85.44 8.39, 87.47 9.71, 89.39 11.13 C91.3 12.56, 93.14 14.12, 94.85 15.78 C96.56 17.44, 98.17 19.22, 99.64 21.08 C101.11 22.94, 102.47 24.91, 103.68 26.94 C104.89 28.97, 105.97 31.09, 106.9 33.26 C107.82 35.43, 108.61 37.67, 109.23 39.93 C109.86 42.2, 110.33 44.52, 110.65 46.85 C110.96 49.17, 111.05 52.71, 111.12 53.88 C111.2 55.05, 111.2 52.71, 111.12 53.88" stroke="none" stroke-width="0" fill="#8888ff"/>
    <path d="M111.12 53.88 C111.12 56.22, 110.96 58.59, 110.65 60.91 C110.33 63.24, 109.86 65.56, 109.23 67.82 C108.61 70.09, 107.82 72.33, 106.9 74.5 C105.97 76.66, 104.89 78.79, 103.68 80.82 C102.47 82.85, 101.11 84.82, 99.64 86.68 C98.17 88.54, 96.56 90.32, 94.85 91.98 C93.14 93.63, 91.3 95.2, 89.39 96.62 C87.47 98.05, 85.44 99.37, 83.34 100.54 C81.25 101.71, 79.06 102.76, 76.83 103.66 C74.59 104.55, 72.28 105.31, 69.94 105.92 C67.61 106.53, 65.21 106.99, 62.81 107.3 C60.42 107.6, 57.98 107.76, 55.56 107.76 C53.14 107.76, 50.71 107.6, 48.31 107.3 C45.91 106.99, 43.52 106.53, 41.18 105.92 C38.85 105.31, 36.53 104.55, 34.3 103.66 C32.07 102.76, 29.87 101.71, 27.78 100.54 C25.69 99.37, 23.66 98.05, 21.74 96.62 C19.82 95.2, 17.98 93.63, 16.27 91.98 C14.56 90.32, 12.95 88.54, 11.48 86.68 C10.01 84.82, 8.65 82.85, 7.44 80.82 C6.24 78.79, 5.15 76.66, 4.23 74.5 C3.3 72.33, 2.52 70.09, 1.89 67.82 C1.27 65.56, 0.79 63.24, 0.48 60.91 C0.16 58.59, 0 56.22, 0 53.88 C0 51.53, 0.16 49.17, 0.48 46.85 C0.79 44.52, 1.27 42.2, 1.89 39.93 C2.52 37.67, 3.3 35.43, 4.23 33.26 C5.15 31.09, 6.24 28.97, 7.44 26.94 C8.65 24.91, 10.01 22.94, 11.48 21.08 C12.95 19.22, 14.56 17.44, 16.27 15.78 C17.98 14.12, 19.82 12.56, 21.74 11.13 C23.66 9.71, 25.69 8.39, 27.78 7.22 C29.87 6.05, 32.07 5, 34.3 4.1 C36.53 3.2, 38.85 2.44, 41.18 1.84 C43.52 1.23, 45.91 0.77, 48.31 0.46 C50.71 0.15, 53.14 0, 55.56 0 C57.98 0, 60.42 0.15, 62.81 0.46 C65.21 0.77, 67.61 1.23, 69.94 1.84 C72.28 2.44, 74.59 3.2, 76.83 4.1 C79.06 5, 81.25 6.05, 83.34 7.22 C85.44 8.39, 87.47 9.71, 89.39 11.13 C91.3 12.56, 93.14 14.12, 94.85 15.78 C96.56 17.44, 98.17 19.22, 99.64 21.08 C101.11 22.94, 102.47 24.91, 103.68 26.94 C104.89 28.97, 105.97 31.09, 106.9 33.26 C107.82 35.43, 108.61 37.67, 109.23 39.93 C109.86 42.2, 110.33 44.52, 110.65 46.85 C110.96 49.17, 111.05 52.71, 111.12 53.88 C111.2 55.05, 111.2 52.71, 111.12 53.88" stroke="#ffffff" stroke-width="1" fill="none"/>
  </g>
  <g transform="translate(1113.1108070353062 165.92577578068222) rotate(0 19.075000762939453 9.200000000000003)">
    <text x="19.075000762939453" y="0" fill="#ffffff" text-anchor="middle" style="white-space: pre;" direction="ltr" dominant-baseline="text-before-edge">Node</text>
  </g>
  <g stroke-linecap="round" transform="translate(734.7248496847219 359.3982089323207) rotate(0 55.56231838939857 53.878611771538154)">
    <path d="M111.12 53.88 C111.12 56.22, 110.96 58.59, 110.65 60.91 C110.33 63.24, 109.86 65.56, 109.23 67.82 C108.61 70.09, 107.82 72.33, 106.9 74.5 C105.97 76.66, 104.89 78.79, 103.68 80.82 C102.47 82.85, 101.11 84.82, 99.64 86.68 C98.17 88.54, 96.56 90.32, 94.85 91.98 C93.14 93.63, 91.3 95.2, 89.39 96.62 C87.47 98.05, 85.44 99.37, 83.34 100.54 C81.25 101.71, 79.06 102.76, 76.83 103.66 C74.59 104.55, 72.28 105.31, 69.94 105.92 C67.61 106.53, 65.21 106.99, 62.81 107.3 C60.42 107.6, 57.98 107.76, 55.56 107.76 C53.14 107.76, 50.71 107.6, 48.31 107.3 C45.91 106.99, 43.52 106.53, 41.18 105.92 C38.85 105.31, 36.53 104.55, 34.3 103.66 C32.07 102.76, 29.87 101.71, 27.78 100.54 C25.69 99.37, 23.66 98.05, 21.74 96.62 C19.82 95.2, 17.98 93.63, 16.27 91.98 C14.56 90.32, 12.95 88.54, 11.48 86.68 C10.01 84.82, 8.65 82.85, 7.44 80.82 C6.24 78.79, 5.15 76.66, 4.23 74.5 C3.3 72.33, 2.52 70.09, 1.89 67.82 C1.27 65.56, 0.79 63.24, 0.48 60.91 C0.16 58.59, 0 56.22, 0 53.88 C0 51.53, 0.16 49.17, 0.48 46.85 C0.79 44.52, 1.27 42.2, 1.89 39.93 C2.52 37.67, 3.3 35.43, 4.23 33.26 C5.15 31.09, 6.24 28.97, 7.44 26.94 C8.65 24.91, 10.01 22.94, 11.48 21.08 C12.95 19.22, 14.56 17.44, 16.27 15.78 C17.98 14.12, 19.82 12.56, 21.74 11.13 C23.66 9.71, 25.69 8.39, 27.78 7.22 C29.87 6.05, 32.07 5, 34.3 4.1 C36.53 3.2, 38.85 2.44, 41.18 1.84 C43.52 1.23, 45.91 0.77, 48.31 0.46 C50.71 0.15, 53.14 0, 55.56 0 C57.98 0, 60.42 0.15, 62.81 0.46 C65.21 0.77, 67.61 1.23, 69.94 1.84 C72.28 2.44, 74.59 3.2, 76.83 4.1 C79.06 5, 81.25 6.05, 83.34 7.22 C85.44 8.39, 87.47 9.71, 89.39 11.13 C91.3 12.56, 93.14 14.12, 94.85 15.78 C96.56 17.44, 98.17 19.22, 99.64 21.08 C101.11 22.94, 102.47 24.91, 103.68 26.94 C104.89 28.97, 105.97 31.09, 106.9 33.26 C107.82 35.43, 108.61 37.67, 109.23 39.93 C109.86 42.2, 110.33 44.52, 110.65 46.85 C110.96 49.17, 111.05 52.71, 111.12 53.88 C111.2 55.05, 111.2 52.71, 111.12 53.88" stroke="none" stroke-width="0" fill="#8888ff"/>
    <path d="M111.12 53.88 C111.12 56.22, 110.96 58.59, 110.65 60.91 C110.33 63.24, 109.86 65.56, 109.23 67.82 C108.61 70.09, 107.82 72.33, 106.9 74.5 C105.97 76.66, 104.89 78.79, 103.68 80.82 C102.47 82.85, 101.11 84.82, 99.64 86.68 C98.17 88.54, 96.56 90.32, 94.85 91.98 C93.14 93.63, 91.3 95.2, 89.39 96.62 C87.47 98.05, 85.44 99.37, 83.34 100.54 C81.25 101.71, 79.06 102.76, 76.83 103.66 C74.59 104.55, 72.28 105.31, 69.94 105.92 C67.61 106.53, 65.21 106.99, 62.81 107.3 C60.42 107.6, 57.98 107.76, 55.56 107.76 C53.14 107.76, 50.71 107.6, 48.31 107.3 C45.91 106.99, 43.52 106.53, 41.18 105.92 C38.85 105.31, 36.53 104.55, 34.3 103.66 C32.07 102.76, 29.87 101.71, 27.78 100.54 C25.69 99.37, 23.66 98.05, 21.74 96.62 C19.82 95.2, 17.98 93.63, 16.27 91.98 C14.56 90.32, 12.95 88.54, 11.48 86.68 C10.01 84.82, 8.65 82.85, 7.44 80.82 C6.24 78.79, 5.15 76.66, 4.23 74.5 C3.3 72.33, 2.52 70.09, 1.89 67.82 C1.27 65.56, 0.79 63.24, 0.48 60.91 C0.16 58.59, 0 56.22, 0 53.88 C0 51.53, 0.16 49.17, 0.48 46.85 C0.79 44.52, 1.27 42.2, 1.89 39.93 C2.52 37.67, 3.3 35.43, 4.23 33.26 C5.15 31.09, 6.24 28.97, 7.44 26.94 C8.65 24.91, 10.01 22.94, 11.48 21.08 C12.95 19.22, 14.56 17.44, 16.27 15.78 C17.98 14.12, 19.82 12.56, 21.74 11.13 C23.66 9.71, 25.69 8.39, 27.78 7.22 C29.87 6.05, 32.07 5, 34.3 4.1 C36.53 3.2, 38.85 2.44, 41.18 1.84 C43.52 1.23, 45.91 0.77, 48.31 0.46 C50.71 0.15, 53.14 0, 55.56 0 C57.98 0, 60.42 0.15, 62.81 0.46 C65.21 0.77, 67.61 1.23, 69.94 1.84 C72.28 2.44, 74.59 3.2, 76.83 4.1 C79.06 5, 81.25 6.05, 83.34 7.22 C85.44 8.39, 87.47 9.71, 89.39 11.13 C91.3 12.56, 93.14 14.12, 94.85 15.78 C96.56 17.44, 98.17 19.22, 99.64 21.08 C101.11 22.94, 102.47 24.91, 103.68 26.94 C104.89 28.97, 105.97 31.09, 106.9 33.26 C107.82 35.43, 108.61 37.67, 109.23 39.93 C109.86 42.2, 110.33 44.52, 110.65 46.85 C110.96 49.17, 111.05 52.71, 111.12 53.88 C111.2 55.05, 111.2 52.71, 111.12 53.88" stroke="#ffffff" stroke-width="1" fill="none"/>
  </g>
  <g transform="translate(771.4236751995909 403.9788889592869) rotate(0 19.075000762939453 9.2)">
    <text x="19.075000762939453" y="0" fill="#ffffff" text-anchor="middle" style="white-space: pre;" direction="ltr" dominant-baseline="text-before-edge">Node</text>
  </g>
  <g stroke-linecap="round">
    <g transform="translate(892.5351695310005 188.01609981997137) rotate(0 1.2988473808027265 -8.420976433920842)">
      <path d="M0 0 C0.43 -2.81, 2.16 -14.03, 2.6 -16.84" stroke="#8888ff" stroke-width="1.5" fill="none" stroke-dasharray="8 9"/>
    </g>
  </g>
  <mask/>
  <g stroke-linecap="round">
    <g transform="translate(695.2878488944912 230.72428333596778) rotate(0 28.417713324169654 64.68732563403155)">
      <path d="M0 0 C9.47 21.56, 47.36 107.81, 56.84 129.37" stroke="#8888ff" stroke-width="1.5" fill="none" stroke-dasharray="8 9"/>
    </g>
  </g>
  <mask/>
  <g stroke-linecap="round">
    <g transform="translate(855.149639501165 427.6710511565692) rotate(0 99.733390846357 13.769149265977639)">
      <path d="M0 0 C33.24 4.59, 166.22 22.95, 199.47 27.54" stroke="#8888ff" stroke-width="1.5" fill="none" stroke-dasharray="8 9"/>
    </g>
  </g>
  <mask/>
  <g stroke-linecap="round">
    <g transform="translate(933.6033948008958 312.30752722058173) rotate(0 72.19649747504172 47.26234016047354)">
      <path d="M0 0 C24.07 15.75, 120.33 78.77, 144.39 94.52" stroke="#8888ff" stroke-width="1.5" fill="none" stroke-dasharray="8 9"/>
    </g>
  </g>
  <mask/>
  <g stroke-linecap="round">
    <g transform="translate(856.605242456943 315.2671431623975) rotate(0 -13.762062805582445 20.471127363937477)">
      <path d="M0 0 C-4.59 6.82, -22.94 34.12, -27.52 40.94" stroke="#1971c2" stroke-width="1.5" fill="none" stroke-dasharray="8 9"/>
    </g>
  </g>
  <mask/>
  <g stroke-linecap="round">
    <g transform="translate(1126.8094110115167 388.03578429933236) rotate(0 7.020792789252937 -75.32851299562428)">
      <path d="M0 0 C2.34 -25.11, 11.7 -125.55, 14.04 -150.66" stroke="#8888ff" stroke-width="1.5" fill="none" stroke-dasharray="8 9"/>
    </g>
  </g>
  <mask/>
  <g stroke-linecap="round">
    <g transform="translate(962.05105644278 248.5860443288454) rotate(0 58.51052511049147 -13.536829356526198)">
      <path d="M0 0 C19.5 -4.51, 97.52 -22.56, 117.02 -27.07" stroke="#8888ff" stroke-width="1.5" fill="none" stroke-dasharray="8 9"/>
    </g>
  </g>
  <mask/>
  <g stroke-linecap="round">
    <g transform="translate(742.4653003088874 144.5503163618182) rotate(0 46.504943433785684 -17.141046457743172)">
      <path d="M0 0 C15.5 -5.71, 77.51 -28.57, 93.01 -34.28" stroke="#8888ff" stroke-width="1.5" fill="none" stroke-dasharray="8 9"/>
    </g>
  </g>
  <mask/>
</svg>
