<svg width="357" height="309" viewBox="0 0 357 309" fill="none" xmlns="http://www.w3.org/2000/svg">
  <g shape-rendering="crispEdges">
    <path d="M143.5 0H129.5V14H143.5V0Z" fill="#5555FF"/>
    <path d="M227.5 0H213.5V14H227.5V0Z" fill="#5555FF"/>
    <path d="M157.5 14L143.5 14L143.5 28H157.5V14Z" fill="#5555FF"/>
    <path d="M213.5 14L199.5 14V28H213.5L213.5 14Z" fill="#5555FF"/>
    <path d="M157.5 28H143.5V42.0001H157.5V28Z" fill="#5555FF"/>
    <path d="M171.5 28.0001L157.5 28V42.0001H171.5V28.0001Z" fill="#3333DD"/>
    <path d="M185.5 28.0001H171.5V42.0001H185.5V28.0001Z" fill="#5555FF"/>
    <path d="M199.5 28L185.5 28.0001V42.0001H199.5L199.5 28Z" fill="#3333DD"/>
    <path d="M213.5 28H199.5L199.5 42.0001H213.5V28Z" fill="#5555FF"/>
    <path d="M143.5 42.0001L129.5 42.0001V56.0001H143.5L143.5 42.0001Z" fill="#5555FF"/>
    <path d="M157.5 42.0001H143.5L143.5 56.0001H157.5V42.0001Z" fill="#5555FF"/>
    <path d="M171.5 42.0001H157.5V56.0001H171.5V42.0001Z" fill="#5555FF"/>
    <path d="M185.5 42.0001H171.5V56.0001H185.5V42.0001Z" fill="#5555FF"/>
    <path d="M199.5 42.0001H185.5V56.0001H199.5V42.0001Z" fill="#5555FF"/>
    <path d="M213.5 42.0001H199.5V56.0001H213.5V42.0001Z" fill="#5555FF"/>
    <path d="M227.5 42.0001L213.5 42.0001V56.0001H227.5V42.0001Z" fill="#5555FF"/>
    <path d="M129.5 56.0001L115.5 56.0002V70.0002H129.5L129.5 56.0001Z" fill="#5555FF"/>
    <path d="M143.5 56.0001H129.5L129.5 70.0002H143.5V56.0001Z" fill="#5555FF"/>
    <path d="M157.5 56.0001H143.5V70.0002H157.5V56.0001Z" fill="#F4F4F4"/>
    <path d="M171.5 56.0001H157.5V70.0002H171.5V56.0001Z" fill="#F4F4F4"/>
    <path d="M185.5 56.0001H171.5V70.0002H185.5V56.0001Z" fill="#5555FF"/>
    <path d="M199.5 56.0001H185.5V70.0002H199.5V56.0001Z" fill="#5555FF"/>
    <path d="M213.5 56.0001H199.5V70.0002H213.5V56.0001Z" fill="#F4F4F4"/>
    <path d="M227.5 56.0001H213.5V70.0002H227.5V56.0001Z" fill="#F4F4F4"/>
    <path d="M241.5 56.0002L227.5 56.0001V70.0002H241.5V56.0002Z" fill="#5555FF"/>
    <path d="M129.5 70.0002H115.5V84.0002H129.5V70.0002Z" fill="#5555FF"/>
    <path d="M143.5 70.0002H129.5V84.0002H143.5V70.0002Z" fill="#5555FF"/>
    <path d="M157.5 70.0002H143.5V84.0002H157.5V70.0002Z" fill="#F4F4F4"/>
    <path d="M171.5 70.0002H157.5V84.0002H171.5V70.0002Z" fill="#FF55FF"/>
    <path d="M185.5 70.0002H171.5V84.0002H185.5V70.0002Z" fill="#5555FF"/>
    <path d="M199.5 70.0002H185.5V84.0002H199.5V70.0002Z" fill="#5555FF"/>
    <path d="M213.5 70.0002H199.5V84.0002H213.5V70.0002Z" fill="#F4F4F4"/>
    <path d="M227.5 70.0002H213.5V84.0002H227.5V70.0002Z" fill="#FF55FF"/>
    <path d="M241.5 70.0002H227.5V84.0002H241.5V70.0002Z" fill="#5555FF"/>
    <path d="M115.5 84.0002L101.5 83.9998V97.9998H115.5L115.5 84.0002Z" fill="#3333DD"/>
    <path d="M129.5 84.0002H115.5L115.5 97.9998H129.5V84.0002Z" fill="#3333DD"/>
    <path d="M143.5 84.0002H129.5V97.9998H143.5V84.0002Z" fill="#3333DD"/>
    <path d="M157.5 84.0002H143.5V97.9998H157.5V84.0002Z" fill="#3333DD"/>
    <path d="M171.5 84.0002H157.5V97.9998H171.5V84.0002Z" fill="#3333DD"/>
    <path d="M185.5 84.0002H171.5V97.9998H185.5V84.0002Z" fill="#3333DD"/>
    <path d="M199.5 84.0002H185.5V97.9998H199.5V84.0002Z" fill="#3333DD"/>
    <path d="M213.5 84.0002H199.5V97.9998H213.5V84.0002Z" fill="#3333DD"/>
    <path d="M227.5 84.0002H213.5V97.9998H227.5V84.0002Z" fill="#3333DD"/>
    <path d="M241.5 84.0002H227.5V97.9998H241.5V84.0002Z" fill="#3333DD"/>
    <path d="M255.5 83.9998L241.5 84.0002V97.9998H255.5V83.9998Z" fill="#3333DD"/>
    <path d="M143.5 97.9998H129.5L129.5 112H143.5V97.9998Z" fill="#3333DD"/>
    <path d="M171.5 97.9998H157.5L157.5 112H171.5V97.9998Z" fill="#5555FF"/>
    <path d="M199.5 97.9998H185.5L185.5 112H199.5V97.9998Z" fill="#5555FF"/>
    <path d="M227.5 97.9998H213.5L213.5 112H227.5V97.9998Z" fill="#3333DD"/>
    <path d="M143.5 112H129.5V126H143.5V112Z" fill="#3333DD"/>
    <path d="M171.5 112H157.5V126H171.5V112Z" fill="#5555FF"/>
    <path d="M199.5 112H185.5V126H199.5V112Z" fill="#5555FF"/>
    <path d="M227.5 112H213.5V126H227.5V112Z" fill="#3333DD"/>
    <path d="M171.5 126H157.5V140H171.5V126Z" fill="#5555FF"/>
    <path d="M199.5 126H185.5V140H199.5V126Z" fill="#5555FF"/>
    <path d="M157.5 140L143.5 140V154H157.5L157.5 140Z" fill="#5555FF"/>
    <path d="M171.5 140H157.5L157.5 154H171.5V140Z" fill="#5555FF"/>
    <path d="M199.5 140H185.5V154H199.5V140Z" fill="#5555FF"/>
    <path d="M213.5 140L199.5 140V154H213.5V140Z" fill="#5555FF"/>
    <path d="M147 218H140V225H147V218Z" fill="#F9F9FB"/>
    <path d="M154 218H147V225H154V218Z" fill="#F9F9FB"/>
    <path d="M182 218H175V225H182V218Z" fill="#F9F9FB"/>
    <path d="M189 218H182V225H189V218Z" fill="#F9F9FB"/>
    <path d="M266 218H259V225H266V218Z" fill="#F9F9FB"/>
    <path d="M273 218H266V225H273V218Z" fill="#F9F9FB"/>
    <path d="M280 218H273V225H280V218Z" fill="#F9F9FB"/>
    <path d="M287 218H280V225H287V218Z" fill="#F9F9FB"/>
    <path d="M147 225H140V232H147V225Z" fill="#F9F9FB"/>
    <path d="M154 225H147V232H154V225Z" fill="#F9F9FB"/>
    <path d="M182 225H175V232H182V225Z" fill="#F9F9FB"/>
    <path d="M189 225H182V232H189V225Z" fill="#F9F9FB"/>
    <path d="M280 225H273V232H280V225Z" fill="#F9F9FB"/>
    <path d="M287 225H280V232H287V225Z" fill="#F9F9FB"/>
    <path d="M147 232H140V239H147V232Z" fill="#F9F9FB"/>
    <path d="M154 232H147V239H154V232Z" fill="#F9F9FB"/>
    <path d="M280 232H273V239H280V232Z" fill="#F9F9FB"/>
    <path d="M287 232H280V239H287V232Z" fill="#F9F9FB"/>
    <path d="M147 239H140V246H147V239Z" fill="#F9F9FB"/>
    <path d="M154 239H147V246H154V239Z" fill="#F9F9FB"/>
    <path d="M280 239H273V246H280V239Z" fill="#F9F9FB"/>
    <path d="M287 239H280V246H287V239Z" fill="#F9F9FB"/>
    <path d="M147 246H140V253H147V246Z" fill="#F9F9FB"/>
    <path d="M154 246H147V253H154V246Z" fill="#F9F9FB"/>
    <path d="M280 246H273V253H280V246Z" fill="#F9F9FB"/>
    <path d="M287 246H280V253H287V246Z" fill="#F9F9FB"/>
    <path d="M7 253H0V260H7V253Z" fill="#F9F9FB"/>
    <path d="M14 253H7V260H14V253Z" fill="#F9F9FB"/>
    <path d="M28 253H21V260H28V253Z" fill="#F9F9FB"/>
    <path d="M35 253H28V260H35V253Z" fill="#F9F9FB"/>
    <path d="M63 253H56V260H63V253Z" fill="#F9F9FB"/>
    <path d="M70 253H63V260H70V253Z" fill="#F9F9FB"/>
    <path d="M77 253H70V260H77V253Z" fill="#F9F9FB"/>
    <path d="M84 253H77V260H84V253Z" fill="#F9F9FB"/>
    <path d="M119 253H112V260H119V253Z" fill="#F9F9FB"/>
    <path d="M126 253H119V260H126V253Z" fill="#F9F9FB"/>
    <path d="M133 253H126V260H133V253Z" fill="#F9F9FB"/>
    <path d="M147 253H140V260H147V253Z" fill="#F9F9FB"/>
    <path d="M154 253H147V260H154V253Z" fill="#F9F9FB"/>
    <path d="M168 253H161V260H168V253Z" fill="#F9F9FB"/>
    <path d="M175 253H168V260H175V253Z" fill="#F9F9FB"/>
    <path d="M182 253H175V260H182V253Z" fill="#F9F9FB"/>
    <path d="M189 253H182V260H189V253Z" fill="#F9F9FB"/>
    <path d="M224 253H217V260H224V253Z" fill="#F9F9FB"/>
    <path d="M231 253H224V260H231V253Z" fill="#F9F9FB"/>
    <path d="M238 253H231V260H238V253Z" fill="#F9F9FB"/>
    <path d="M245 253H238V260H245V253Z" fill="#F9F9FB"/>
    <path d="M280 253H273V260H280V253Z" fill="#F9F9FB"/>
    <path d="M287 253H280V260H287V253Z" fill="#F9F9FB"/>
    <path d="M322 253H315V260H322V253Z" fill="#F9F9FB"/>
    <path d="M329 253H322V260H329V253Z" fill="#F9F9FB"/>
    <path d="M336 253H329V260H336V253Z" fill="#F9F9FB"/>
    <path d="M343 253H336V260H343V253Z" fill="#F9F9FB"/>
    <path d="M350 253H343V260H350V253Z" fill="#F9F9FB"/>
    <path d="M7 260H0V267H7V260Z" fill="#F9F9FB"/>
    <path d="M14 260H7V267H14V260Z" fill="#F9F9FB"/>
    <path d="M21 260H14V267H21V260Z" fill="#F9F9FB"/>
    <path d="M42 260H35V267H42V260Z" fill="#F9F9FB"/>
    <path d="M56 260H49V267H56V260Z" fill="#F9F9FB"/>
    <path d="M63 260H56V267H63V260Z" fill="#F9F9FB"/>
    <path d="M84 260H77V267H84V260Z" fill="#F9F9FB"/>
    <path d="M91 260H84V267H91V260Z" fill="#F9F9FB"/>
    <path d="M105 260H98V267H105V260Z" fill="#F9F9FB"/>
    <path d="M112 260H105V267H112V260Z" fill="#F9F9FB"/>
    <path d="M140 260H133V267H140V260Z" fill="#F9F9FB"/>
    <path d="M147 260H140V267H147V260Z" fill="#F9F9FB"/>
    <path d="M154 260H147V267H154V260Z" fill="#F9F9FB"/>
    <path d="M182 260H175V267H182V260Z" fill="#F9F9FB"/>
    <path d="M189 260H182V267H189V260Z" fill="#F9F9FB"/>
    <path d="M217 260H210V267H217V260Z" fill="#F9F9FB"/>
    <path d="M224 260H217V267H224V260Z" fill="#F9F9FB"/>
    <path d="M252 260H245V267H252V260Z" fill="#F9F9FB"/>
    <path d="M280 260H273V267H280V260Z" fill="#F9F9FB"/>
    <path d="M287 260H280V267H287V260Z" fill="#F9F9FB"/>
    <path d="M315 260H308V267H315V260Z" fill="#F9F9FB"/>
    <path d="M322 260H315V267H322V260Z" fill="#F9F9FB"/>
    <path d="M350 260H343V267H350V260Z" fill="#F9F9FB"/>
    <path d="M357 260H350V267H357V260Z" fill="#F9F9FB"/>
    <path d="M7 267H0V274H7V267Z" fill="#F9F9FB"/>
    <path d="M14 267H7V274H14V267Z" fill="#F9F9FB"/>
    <path d="M84 267H77V274H84V267Z" fill="#F9F9FB"/>
    <path d="M91 267H84V274H91V267Z" fill="#F9F9FB"/>
    <path d="M105 267H98V274H105V267Z" fill="#F9F9FB"/>
    <path d="M112 267H105V274H112V267Z" fill="#F9F9FB"/>
    <path d="M147 267H140V274H147V267Z" fill="#F9F9FB"/>
    <path d="M154 267H147V274H154V267Z" fill="#F9F9FB"/>
    <path d="M182 267H175V274H182V267Z" fill="#F9F9FB"/>
    <path d="M189 267H182V274H189V267Z" fill="#F9F9FB"/>
    <path d="M217 267H210V274H217V267Z" fill="#F9F9FB"/>
    <path d="M224 267H217V274H224V267Z" fill="#F9F9FB"/>
    <path d="M280 267H273V274H280V267Z" fill="#F9F9FB"/>
    <path d="M287 267H280V274H287V267Z" fill="#F9F9FB"/>
    <path d="M315 267H308V274H315V267Z" fill="#F9F9FB"/>
    <path d="M322 267H315V274H322V267Z" fill="#F9F9FB"/>
    <path d="M350 267H343V274H350V267Z" fill="#F9F9FB"/>
    <path d="M357 267H350V274H357V267Z" fill="#F9F9FB"/>
    <path d="M7 274H0V281H7V274Z" fill="#F9F9FB"/>
    <path d="M14 274H7V281H14V274Z" fill="#F9F9FB"/>
    <path d="M56 274H49V281H56V274Z" fill="#F9F9FB"/>
    <path d="M63 274H56V281H63V274Z" fill="#F9F9FB"/>
    <path d="M70 274H63V281H70V274Z" fill="#F9F9FB"/>
    <path d="M84 274H77V281H84V274Z" fill="#F9F9FB"/>
    <path d="M91 274H84V281H91V274Z" fill="#F9F9FB"/>
    <path d="M105 274H98V281H105V274Z" fill="#F9F9FB"/>
    <path d="M112 274H105V281H112V274Z" fill="#F9F9FB"/>
    <path d="M147 274H140V281H147V274Z" fill="#F9F9FB"/>
    <path d="M154 274H147V281H154V274Z" fill="#F9F9FB"/>
    <path d="M182 274H175V281H182V274Z" fill="#F9F9FB"/>
    <path d="M189 274H182V281H189V274Z" fill="#F9F9FB"/>
    <path d="M217 274H210V281H217V274Z" fill="#F9F9FB"/>
    <path d="M224 274H217V281H224V274Z" fill="#F9F9FB"/>
    <path d="M280 274H273V281H280V274Z" fill="#F9F9FB"/>
    <path d="M287 274H280V281H287V274Z" fill="#F9F9FB"/>
    <path d="M315 274H308V281H315V274Z" fill="#F9F9FB"/>
    <path d="M322 274H315V281H322V274Z" fill="#F9F9FB"/>
    <path d="M329 274H322V281H329V274Z" fill="#F9F9FB"/>
    <path d="M336 274H329V281H336V274Z" fill="#F9F9FB"/>
    <path d="M343 274H336V281H343V274Z" fill="#F9F9FB"/>
    <path d="M350 274H343V281H350V274Z" fill="#F9F9FB"/>
    <path d="M357 274H350V281H357V274Z" fill="#F9F9FB"/>
    <path d="M7 281H0V288H7V281Z" fill="#F9F9FB"/>
    <path d="M14 281H7V288H14V281Z" fill="#F9F9FB"/>
    <path d="M49 281H42V288H49V281Z" fill="#F9F9FB"/>
    <path d="M56 281H49V288H56V281Z" fill="#F9F9FB"/>
    <path d="M77 281H70V288H77V281Z" fill="#F9F9FB"/>
    <path d="M84 281H77V288H84V281Z" fill="#F9F9FB"/>
    <path d="M91 281H84V288H91V281Z" fill="#F9F9FB"/>
    <path d="M105 281H98V288H105V281Z" fill="#F9F9FB"/>
    <path d="M112 281H105V288H112V281Z" fill="#F9F9FB"/>
    <path d="M147 281H140V288H147V281Z" fill="#F9F9FB"/>
    <path d="M154 281H147V288H154V281Z" fill="#F9F9FB"/>
    <path d="M182 281H175V288H182V281Z" fill="#F9F9FB"/>
    <path d="M189 281H182V288H189V281Z" fill="#F9F9FB"/>
    <path d="M217 281H210V288H217V281Z" fill="#F9F9FB"/>
    <path d="M224 281H217V288H224V281Z" fill="#F9F9FB"/>
    <path d="M280 281H273V288H280V281Z" fill="#F9F9FB"/>
    <path d="M287 281H280V288H287V281Z" fill="#F9F9FB"/>
    <path d="M315 281H308V288H315V281Z" fill="#F9F9FB"/>
    <path d="M322 281H315V288H322V281Z" fill="#F9F9FB"/>
    <path d="M7 288H0V295H7V288Z" fill="#F9F9FB"/>
    <path d="M14 288H7V295H14V288Z" fill="#F9F9FB"/>
    <path d="M49 288H42V295H49V288Z" fill="#F9F9FB"/>
    <path d="M56 288H49V295H56V288Z" fill="#F9F9FB"/>
    <path d="M84 288H77V295H84V288Z" fill="#F9F9FB"/>
    <path d="M91 288H84V295H91V288Z" fill="#F9F9FB"/>
    <path d="M105 288H98V295H105V288Z" fill="#F9F9FB"/>
    <path d="M112 288H105V295H112V288Z" fill="#F9F9FB"/>
    <path d="M147 288H140V295H147V288Z" fill="#F9F9FB"/>
    <path d="M154 288H147V295H154V288Z" fill="#F9F9FB"/>
    <path d="M182 288H175V295H182V288Z" fill="#F9F9FB"/>
    <path d="M189 288H182V295H189V288Z" fill="#F9F9FB"/>
    <path d="M217 288H210V295H217V288Z" fill="#F9F9FB"/>
    <path d="M224 288H217V295H224V288Z" fill="#F9F9FB"/>
    <path d="M280 288H273V295H280V288Z" fill="#F9F9FB"/>
    <path d="M287 288H280V295H287V288Z" fill="#F9F9FB"/>
    <path d="M315 288H308V295H315V288Z" fill="#F9F9FB"/>
    <path d="M322 288H315V295H322V288Z" fill="#F9F9FB"/>
    <path d="M7 295H0V302H7V295Z" fill="#F9F9FB"/>
    <path d="M14 295H7V302H14V295Z" fill="#F9F9FB"/>
    <path d="M49 295H42V302H49V295Z" fill="#F9F9FB"/>
    <path d="M56 295H49V302H56V295Z" fill="#F9F9FB"/>
    <path d="M84 295H77V302H84V295Z" fill="#F9F9FB"/>
    <path d="M91 295H84V302H91V295Z" fill="#F9F9FB"/>
    <path d="M105 295H98V302H105V295Z" fill="#F9F9FB"/>
    <path d="M112 295H105V302H112V295Z" fill="#F9F9FB"/>
    <path d="M147 295H140V302H147V295Z" fill="#F9F9FB"/>
    <path d="M154 295H147V302H154V295Z" fill="#F9F9FB"/>
    <path d="M182 295H175V302H182V295Z" fill="#F9F9FB"/>
    <path d="M189 295H182V302H189V295Z" fill="#F9F9FB"/>
    <path d="M217 295H210V302H217V295Z" fill="#F9F9FB"/>
    <path d="M224 295H217V302H224V295Z" fill="#F9F9FB"/>
    <path d="M252 295H245V302H252V295Z" fill="#F9F9FB"/>
    <path d="M280 295H273V302H280V295Z" fill="#F9F9FB"/>
    <path d="M287 295H280V302H287V295Z" fill="#F9F9FB"/>
    <path d="M315 295H308V302H315V295Z" fill="#F9F9FB"/>
    <path d="M322 295H315V302H322V295Z" fill="#F9F9FB"/>
    <path d="M357 295H350V302H357V295Z" fill="#F9F9FB"/>
    <path d="M7 302H0V309H7V302Z" fill="#F9F9FB"/>
    <path d="M14 302H7V309H14V302Z" fill="#F9F9FB"/>
    <path d="M56 302H49V309H56V302Z" fill="#F9F9FB"/>
    <path d="M63 302H56V309H63V302Z" fill="#F9F9FB"/>
    <path d="M70 302H63V309H70V302Z" fill="#F9F9FB"/>
    <path d="M77 302H70V309H77V302Z" fill="#F9F9FB"/>
    <path d="M91 302H84V309H91V302Z" fill="#F9F9FB"/>
    <path d="M112 302H105V309H112V302Z" fill="#F9F9FB"/>
    <path d="M119 302H112V309H119V302Z" fill="#F9F9FB"/>
    <path d="M126 302H119V309H126V302Z" fill="#F9F9FB"/>
    <path d="M133 302H126V309H133V302Z" fill="#F9F9FB"/>
    <path d="M140 302H133V309H140V302Z" fill="#F9F9FB"/>
    <path d="M154 302H147V309H154V302Z" fill="#F9F9FB"/>
    <path d="M168 302H161V309H168V302Z" fill="#F9F9FB"/>
    <path d="M175 302H168V309H175V302Z" fill="#F9F9FB"/>
    <path d="M182 302H175V309H182V302Z" fill="#F9F9FB"/>
    <path d="M189 302H182V309H189V302Z" fill="#F9F9FB"/>
    <path d="M196 302H189V309H196V302Z" fill="#F9F9FB"/>
    <path d="M203 302H196V309H203V302Z" fill="#F9F9FB"/>
    <path d="M224 302H217V309H224V302Z" fill="#F9F9FB"/>
    <path d="M231 302H224V309H231V302Z" fill="#F9F9FB"/>
    <path d="M238 302H231V309H238V302Z" fill="#F9F9FB"/>
    <path d="M245 302H238V309H245V302Z" fill="#F9F9FB"/>
    <path d="M266 302H259V309H266V302Z" fill="#F9F9FB"/>
    <path d="M273 302H266V309H273V302Z" fill="#F9F9FB"/>
    <path d="M280 302H273V309H280V302Z" fill="#F9F9FB"/>
    <path d="M287 302H280V309H287V302Z" fill="#F9F9FB"/>
    <path d="M294 302H287V309H294V302Z" fill="#F9F9FB"/>
    <path d="M301 302H294V309H301V302Z" fill="#F9F9FB"/>
    <path d="M308 302H301V309H308V302Z" fill="#F9F9FB"/>
    <path d="M322 302H315V309H322V302Z" fill="#F9F9FB"/>
    <path d="M329 302H322V309H329V302Z" fill="#F9F9FB"/>
    <path d="M336 302H329V309H336V302Z" fill="#F9F9FB"/>
    <path d="M343 302H336V309H343V302Z" fill="#F9F9FB"/>
    <path d="M350 302H343V309H350V302Z" fill="#F9F9FB"/>
  </g>
</svg>
