<svg width="80" height="80" viewBox="0 0 80 80" fill="none" xmlns="http://www.w3.org/2000/svg">
<path d="M72 64L72 56L64 56L64 64L72 64Z" fill="#29C8C6"/>
<path d="M64 72L64 64L56 64L56 72L64 72Z" fill="#29C8C6"/>
<path d="M72 24L72 16L64 16L64 24L72 24Z" fill="#2BF3F1"/>
<path d="M24 32L24 24L16 24L16 32L24 32Z" fill="#2BF3F1"/>
<path d="M24 40L24 32L16 32L16 40L24 40Z" fill="#2BF3F1"/>
<path d="M24 48L24 40L16 40L16 48L24 48Z" fill="#2BF3F1"/>
<path d="M56 24L56 16L48 16L48 24L56 24Z" fill="#2BF3F1"/>
<path d="M56 64L56 56L48 56L48 64L56 64Z" fill="#2BF3F1"/>
<path d="M24 56L24 48L16 48L16 56L24 56Z" fill="#2BF3F1"/>
<path d="M32 8L56 8L56 16L48 16L48 64L56 64L56 72L32 72L32 64L24 64L24 16L32 16L32 8Z" fill="#2BF3F1"/>
<path d="M24 32L32 32L32 24L24 24L24 32Z" fill="#E8FF29"/>
<path d="M40 24L40 32L48 32L48 24L40 24Z" fill="#E8FF29"/>
<path d="M32 48L32 56L40 56L40 48L32 48Z" fill="#A141C3"/>
<path d="M64 16L64 8L56 8L56 16L64 16Z" fill="#2BF3F1"/>
<path d="M56 72L56 64L32 64L32 72L56 72Z" fill="#29C8C6"/>
<path d="M56 64L56 56L24 56L24 64L56 64Z" fill="#29C8C6"/>
<path d="M24 56L24 48L16 48L16 56L24 56Z" fill="#29C8C6"/>
<path d="M48 56L48 48L40 48L40 56L48 56Z" fill="#29C8C6"/>
</svg>
