<svg xmlns="http://www.w3.org/2000/svg" version="1.1" viewBox="0 0 696.3195887720376 165.30538113095736" width="696.3195887720376" height="165.30538113095736">
  <style>
        @import url("/assets/css/fonts.css");
        svg { font-size: 16px; font-family: "Inter", sans-serif; }
      </style>
  <g stroke-linecap="round">
    <g transform="translate(155.66145624068986 90.03122412431958) rotate(0 193.40543491768312 0)">
      <path d="M0 0 C64.47 0, 322.34 0, 386.81 0 M0 0 C64.47 0, 322.34 0, 386.81 0" stroke="#8888ff" stroke-width="1" fill="none"/>
    </g>
    <g transform="translate(155.66145624068986 90.03122412431958) rotate(0 193.40543491768312 0)">
      <path d="M0 0 L13.59 -6.34 L13.59 6.34 L0 0" stroke="none" stroke-width="0" fill="#8888ff" fill-rule="evenodd"/>
      <path d="M0 0 C3.15 -1.47, 6.31 -2.94, 13.59 -6.34 M0 0 C4.24 -1.98, 8.48 -3.95, 13.59 -6.34 M13.59 -6.34 C13.59 -3.27, 13.59 -0.2, 13.59 6.34 M13.59 -6.34 C13.59 -3.14, 13.59 0.06, 13.59 6.34 M13.59 6.34 C9.77 4.55, 5.94 2.77, 0 0 M13.59 6.34 C8.78 4.09, 3.96 1.85, 0 0 M0 0 C0 0, 0 0, 0 0 M0 0 C0 0, 0 0, 0 0" stroke="#8888ff" stroke-width="1" fill="none"/>
    </g>
    <g transform="translate(155.66145624068986 90.03122412431958) rotate(0 193.40543491768312 0)">
      <path d="M386.81 0 L373.22 6.34 L373.22 -6.34 L386.81 0" stroke="none" stroke-width="0" fill="#8888ff" fill-rule="evenodd"/>
      <path d="M386.81 0 C383.66 1.47, 380.5 2.94, 373.22 6.34 M386.81 0 C382.57 1.98, 378.33 3.95, 373.22 6.34 M373.22 6.34 C373.22 3.27, 373.22 0.2, 373.22 -6.34 M373.22 6.34 C373.22 3.14, 373.22 -0.06, 373.22 -6.34 M373.22 -6.34 C377.04 -4.55, 380.87 -2.77, 386.81 0 M373.22 -6.34 C378.03 -4.09, 382.85 -1.85, 386.81 0 M386.81 0 C386.81 0, 386.81 0, 386.81 0 M386.81 0 C386.81 0, 386.81 0, 386.81 0" stroke="#8888ff" stroke-width="1" fill="none"/>
    </g>
  </g>
  <mask/>
  <g stroke-linecap="round">
    <g transform="translate(153.4878122341961 121.28644146173292) rotate(0 194.9138844102522 -33.67037978310765)">
      <path d="M0 0 C21.37 -0.66, 80.71 5.77, 128.19 -3.96 C175.67 -13.68, 241.28 -47.79, 284.88 -58.35 C328.49 -68.91, 372.34 -65.84, 389.83 -67.34 M0 0 C21.37 -0.66, 80.71 5.77, 128.19 -3.96 C175.67 -13.68, 241.28 -47.79, 284.88 -58.35 C328.49 -68.91, 372.34 -65.84, 389.83 -67.34" stroke="#88cc88" stroke-width="1" fill="none"/>
    </g>
    <g transform="translate(153.4878122341961 121.28644146173292) rotate(0 194.9138844102522 -33.67037978310765)">
      <path d="M0 0 L13.67 -6.17 L13.51 6.51 L0 0" stroke="none" stroke-width="0" fill="#88cc88" fill-rule="evenodd"/>
      <path d="M0 0 C3.94 -1.78, 7.89 -3.56, 13.67 -6.17 M0 0 C4.98 -2.25, 9.96 -4.49, 13.67 -6.17 M13.67 -6.17 C13.63 -2.51, 13.58 1.15, 13.51 6.51 M13.67 -6.17 C13.63 -2.77, 13.59 0.63, 13.51 6.51 M13.51 6.51 C9.19 4.43, 4.87 2.35, 0 0 M13.51 6.51 C9.85 4.75, 6.2 2.99, 0 0 M0 0 C0 0, 0 0, 0 0 M0 0 C0 0, 0 0, 0 0" stroke="#88cc88" stroke-width="1" fill="none"/>
    </g>
    <g transform="translate(153.4878122341961 121.28644146173292) rotate(0 194.9138844102522 -33.67037978310765)">
      <path d="M389.83 -67.34 L376.41 -60.63 L376.06 -73.31 L389.83 -67.34" stroke="none" stroke-width="0" fill="#88cc88" fill-rule="evenodd"/>
      <path d="M389.83 -67.34 C385.96 -65.41, 382.09 -63.47, 376.41 -60.63 M389.83 -67.34 C384.94 -64.9, 380.05 -62.45, 376.41 -60.63 M376.41 -60.63 C376.31 -64.29, 376.21 -67.95, 376.06 -73.31 M376.41 -60.63 C376.32 -64.03, 376.23 -67.43, 376.06 -73.31 M376.06 -73.31 C380.46 -71.4, 384.86 -69.49, 389.83 -67.34 M376.06 -73.31 C379.79 -71.69, 383.52 -70.08, 389.83 -67.34 M389.83 -67.34 C389.83 -67.34, 389.83 -67.34, 389.83 -67.34 M389.83 -67.34 C389.83 -67.34, 389.83 -67.34, 389.83 -67.34" stroke="#88cc88" stroke-width="1" fill="none"/>
    </g>
  </g>
  <mask/>
  <g stroke-linecap="round">
    <g transform="translate(156.28566907690902 58.4419189791131) rotate(0 191.50377535149232 33.08130082930364)">
      <path d="M0 0 C20.99 0.65, 79.3 -5.66, 125.95 3.89 C172.6 13.44, 237.06 46.95, 279.9 57.33 C322.74 67.71, 365.82 64.69, 383.01 66.16 M0 0 C20.99 0.65, 79.3 -5.66, 125.95 3.89 C172.6 13.44, 237.06 46.95, 279.9 57.33 C322.74 67.71, 365.82 64.69, 383.01 66.16" stroke="#cc6666" stroke-width="1" fill="none"/>
    </g>
    <g transform="translate(156.28566907690902 58.4419189791131) rotate(0 191.50377535149232 33.08130082930364)">
      <path d="M0 0 L13.51 -6.51 L13.67 6.17 L0 0" stroke="none" stroke-width="0" fill="#cc6666" fill-rule="evenodd"/>
      <path d="M0 0 C5.07 -2.44, 10.14 -4.89, 13.51 -6.51 M0 0 C4.37 -2.11, 8.74 -4.21, 13.51 -6.51 M13.51 -6.51 C13.57 -1.79, 13.63 2.93, 13.67 6.17 M13.51 -6.51 C13.55 -3.79, 13.58 -1.06, 13.67 6.17 M13.67 6.17 C10.21 4.6, 6.75 3.04, 0 0 M13.67 6.17 C10.05 4.53, 6.43 2.9, 0 0 M0 0 C0 0, 0 0, 0 0 M0 0 C0 0, 0 0, 0 0" stroke="#cc6666" stroke-width="1" fill="none"/>
    </g>
    <g transform="translate(156.28566907690902 58.4419189791131) rotate(0 191.50377535149232 33.08130082930364)">
      <path d="M383.01 66.16 L369.24 72.13 L369.59 59.45 L383.01 66.16" stroke="none" stroke-width="0" fill="#cc6666" fill-rule="evenodd"/>
      <path d="M383.01 66.16 C377.84 68.4, 372.68 70.64, 369.24 72.13 M383.01 66.16 C378.55 68.09, 374.1 70.02, 369.24 72.13 M369.24 72.13 C369.37 67.41, 369.5 62.69, 369.59 59.45 M369.24 72.13 C369.32 69.4, 369.39 66.68, 369.59 59.45 M369.59 59.45 C372.99 61.15, 376.39 62.85, 383.01 66.16 M369.59 59.45 C373.15 61.23, 376.7 63.01, 383.01 66.16 M383.01 66.16 C383.01 66.16, 383.01 66.16, 383.01 66.16 M383.01 66.16 C383.01 66.16, 383.01 66.16, 383.01 66.16" stroke="#cc6666" stroke-width="1" fill="none"/>
    </g>
  </g>
  <mask/>
  <g stroke-linecap="round" transform="translate(10 27.305381130957358) rotate(0 66 64)">
    <path d="M132 64 C132 66.57, 131.84 69.16, 131.52 71.71 C131.2 74.27, 130.72 76.82, 130.08 79.32 C129.45 81.81, 128.65 84.29, 127.71 86.69 C126.77 89.1, 125.67 91.47, 124.44 93.74 C123.21 96.02, 121.82 98.24, 120.32 100.36 C118.81 102.47, 117.16 104.52, 115.4 106.44 C113.64 108.36, 111.75 110.2, 109.77 111.9 C107.78 113.61, 105.67 115.21, 103.49 116.67 C101.31 118.13, 99.02 119.47, 96.67 120.67 C94.32 121.86, 91.88 122.93, 89.4 123.84 C86.92 124.75, 84.37 125.52, 81.79 126.14 C79.22 126.76, 76.59 127.22, 73.96 127.53 C71.32 127.84, 68.65 128, 66 128 C63.35 128, 60.68 127.84, 58.04 127.53 C55.41 127.22, 52.78 126.76, 50.21 126.14 C47.63 125.52, 45.08 124.75, 42.6 123.84 C40.12 122.93, 37.68 121.86, 35.33 120.67 C32.98 119.47, 30.69 118.13, 28.51 116.67 C26.33 115.21, 24.22 113.61, 22.23 111.9 C20.25 110.2, 18.36 108.36, 16.6 106.44 C14.84 104.52, 13.19 102.47, 11.68 100.36 C10.18 98.24, 8.79 96.02, 7.56 93.74 C6.33 91.47, 5.23 89.1, 4.29 86.69 C3.35 84.29, 2.55 81.81, 1.92 79.32 C1.28 76.82, 0.8 74.27, 0.48 71.71 C0.16 69.16, 0 66.57, 0 64 C0 61.43, 0.16 58.84, 0.48 56.29 C0.8 53.73, 1.28 51.18, 1.92 48.68 C2.55 46.19, 3.35 43.71, 4.29 41.31 C5.23 38.9, 6.33 36.53, 7.56 34.26 C8.79 31.98, 10.18 29.76, 11.68 27.64 C13.19 25.53, 14.84 23.48, 16.6 21.56 C18.36 19.64, 20.25 17.8, 22.23 16.1 C24.22 14.39, 26.33 12.79, 28.51 11.33 C30.69 9.87, 32.98 8.53, 35.33 7.33 C37.68 6.14, 40.12 5.07, 42.6 4.16 C45.08 3.25, 47.63 2.48, 50.21 1.86 C52.78 1.24, 55.41 0.78, 58.04 0.47 C60.68 0.16, 63.35 0, 66 0 C68.65 0, 71.32 0.16, 73.96 0.47 C76.59 0.78, 79.22 1.24, 81.79 1.86 C84.37 2.48, 86.92 3.25, 89.4 4.16 C91.88 5.07, 94.32 6.14, 96.67 7.33 C99.02 8.53, 101.31 9.87, 103.49 11.33 C105.67 12.79, 107.78 14.39, 109.77 16.1 C111.75 17.8, 113.64 19.64, 115.4 21.56 C117.16 23.48, 118.81 25.53, 120.32 27.64 C121.82 29.76, 123.21 31.98, 124.44 34.26 C125.67 36.53, 126.77 38.9, 127.71 41.31 C128.65 43.71, 129.45 46.19, 130.08 48.68 C130.72 51.18, 131.2 53.73, 131.52 56.29 C131.84 58.84, 132 61.43, 132 64" stroke="none" stroke-width="0" fill="#8888ff"/>
    <path d="M132 64 C132 66.57, 131.84 69.16, 131.52 71.71 C131.2 74.27, 130.72 76.82, 130.08 79.32 C129.45 81.81, 128.65 84.29, 127.71 86.69 C126.77 89.1, 125.67 91.47, 124.44 93.74 C123.21 96.02, 121.82 98.24, 120.32 100.36 C118.81 102.47, 117.16 104.52, 115.4 106.44 C113.64 108.36, 111.75 110.2, 109.77 111.9 C107.78 113.61, 105.67 115.21, 103.49 116.67 C101.31 118.13, 99.02 119.47, 96.67 120.67 C94.32 121.86, 91.88 122.93, 89.4 123.84 C86.92 124.75, 84.37 125.52, 81.79 126.14 C79.22 126.76, 76.59 127.22, 73.96 127.53 C71.32 127.84, 68.65 128, 66 128 C63.35 128, 60.68 127.84, 58.04 127.53 C55.41 127.22, 52.78 126.76, 50.21 126.14 C47.63 125.52, 45.08 124.75, 42.6 123.84 C40.12 122.93, 37.68 121.86, 35.33 120.67 C32.98 119.47, 30.69 118.13, 28.51 116.67 C26.33 115.21, 24.22 113.61, 22.23 111.9 C20.25 110.2, 18.36 108.36, 16.6 106.44 C14.84 104.52, 13.19 102.47, 11.68 100.36 C10.18 98.24, 8.79 96.02, 7.56 93.74 C6.33 91.47, 5.23 89.1, 4.29 86.69 C3.35 84.29, 2.55 81.81, 1.92 79.32 C1.28 76.82, 0.8 74.27, 0.48 71.71 C0.16 69.16, 0 66.57, 0 64 C0 61.43, 0.16 58.84, 0.48 56.29 C0.8 53.73, 1.28 51.18, 1.92 48.68 C2.55 46.19, 3.35 43.71, 4.29 41.31 C5.23 38.9, 6.33 36.53, 7.56 34.26 C8.79 31.98, 10.18 29.76, 11.68 27.64 C13.19 25.53, 14.84 23.48, 16.6 21.56 C18.36 19.64, 20.25 17.8, 22.23 16.1 C24.22 14.39, 26.33 12.79, 28.51 11.33 C30.69 9.87, 32.98 8.53, 35.33 7.33 C37.68 6.14, 40.12 5.07, 42.6 4.16 C45.08 3.25, 47.63 2.48, 50.21 1.86 C52.78 1.24, 55.41 0.78, 58.04 0.47 C60.68 0.16, 63.35 0, 66 0 C68.65 0, 71.32 0.16, 73.96 0.47 C76.59 0.78, 79.22 1.24, 81.79 1.86 C84.37 2.48, 86.92 3.25, 89.4 4.16 C91.88 5.07, 94.32 6.14, 96.67 7.33 C99.02 8.53, 101.31 9.87, 103.49 11.33 C105.67 12.79, 107.78 14.39, 109.77 16.1 C111.75 17.8, 113.64 19.64, 115.4 21.56 C117.16 23.48, 118.81 25.53, 120.32 27.64 C121.82 29.76, 123.21 31.98, 124.44 34.26 C125.67 36.53, 126.77 38.9, 127.71 41.31 C128.65 43.71, 129.45 46.19, 130.08 48.68 C130.72 51.18, 131.2 53.73, 131.52 56.29 C131.84 58.84, 132 61.43, 132 64" stroke="#ffffff" stroke-width="1" fill="none"/>
  </g>
  <g transform="translate(55.88095167874849 82.35054713501836) rotate(0 19.950000762939453 9.199999999999989)">
    <text x="19.950000762939453" y="0" fill="#ffffff" text-anchor="middle" style="white-space: pre;" direction="ltr" dominant-baseline="text-before-edge">Calyx</text>
  </g>
  <g stroke-linecap="round" transform="translate(554.3195887720376 26.405679331333886) rotate(0 66 64)">
    <path d="M132 64 C132 66.57, 131.84 69.16, 131.52 71.71 C131.2 74.27, 130.72 76.82, 130.08 79.32 C129.45 81.81, 128.65 84.29, 127.71 86.69 C126.77 89.1, 125.67 91.47, 124.44 93.74 C123.21 96.02, 121.82 98.24, 120.32 100.36 C118.81 102.47, 117.16 104.52, 115.4 106.44 C113.64 108.36, 111.75 110.2, 109.77 111.9 C107.78 113.61, 105.67 115.21, 103.49 116.67 C101.31 118.13, 99.02 119.47, 96.67 120.67 C94.32 121.86, 91.88 122.93, 89.4 123.84 C86.92 124.75, 84.37 125.52, 81.79 126.14 C79.22 126.76, 76.59 127.22, 73.96 127.53 C71.32 127.84, 68.65 128, 66 128 C63.35 128, 60.68 127.84, 58.04 127.53 C55.41 127.22, 52.78 126.76, 50.21 126.14 C47.63 125.52, 45.08 124.75, 42.6 123.84 C40.12 122.93, 37.68 121.86, 35.33 120.67 C32.98 119.47, 30.69 118.13, 28.51 116.67 C26.33 115.21, 24.22 113.61, 22.23 111.9 C20.25 110.2, 18.36 108.36, 16.6 106.44 C14.84 104.52, 13.19 102.47, 11.68 100.36 C10.18 98.24, 8.79 96.02, 7.56 93.74 C6.33 91.47, 5.23 89.1, 4.29 86.69 C3.35 84.29, 2.55 81.81, 1.92 79.32 C1.28 76.82, 0.8 74.27, 0.48 71.71 C0.16 69.16, 0 66.57, 0 64 C0 61.43, 0.16 58.84, 0.48 56.29 C0.8 53.73, 1.28 51.18, 1.92 48.68 C2.55 46.19, 3.35 43.71, 4.29 41.31 C5.23 38.9, 6.33 36.53, 7.56 34.26 C8.79 31.98, 10.18 29.76, 11.68 27.64 C13.19 25.53, 14.84 23.48, 16.6 21.56 C18.36 19.64, 20.25 17.8, 22.23 16.1 C24.22 14.39, 26.33 12.79, 28.51 11.33 C30.69 9.87, 32.98 8.53, 35.33 7.33 C37.68 6.14, 40.12 5.07, 42.6 4.16 C45.08 3.25, 47.63 2.48, 50.21 1.86 C52.78 1.24, 55.41 0.78, 58.04 0.47 C60.68 0.16, 63.35 0, 66 0 C68.65 0, 71.32 0.16, 73.96 0.47 C76.59 0.78, 79.22 1.24, 81.79 1.86 C84.37 2.48, 86.92 3.25, 89.4 4.16 C91.88 5.07, 94.32 6.14, 96.67 7.33 C99.02 8.53, 101.31 9.87, 103.49 11.33 C105.67 12.79, 107.78 14.39, 109.77 16.1 C111.75 17.8, 113.64 19.64, 115.4 21.56 C117.16 23.48, 118.81 25.53, 120.32 27.64 C121.82 29.76, 123.21 31.98, 124.44 34.26 C125.67 36.53, 126.77 38.9, 127.71 41.31 C128.65 43.71, 129.45 46.19, 130.08 48.68 C130.72 51.18, 131.2 53.73, 131.52 56.29 C131.84 58.84, 132 61.43, 132 64" stroke="none" stroke-width="0" fill="#8888ff"/>
    <path d="M132 64 C132 66.57, 131.84 69.16, 131.52 71.71 C131.2 74.27, 130.72 76.82, 130.08 79.32 C129.45 81.81, 128.65 84.29, 127.71 86.69 C126.77 89.1, 125.67 91.47, 124.44 93.74 C123.21 96.02, 121.82 98.24, 120.32 100.36 C118.81 102.47, 117.16 104.52, 115.4 106.44 C113.64 108.36, 111.75 110.2, 109.77 111.9 C107.78 113.61, 105.67 115.21, 103.49 116.67 C101.31 118.13, 99.02 119.47, 96.67 120.67 C94.32 121.86, 91.88 122.93, 89.4 123.84 C86.92 124.75, 84.37 125.52, 81.79 126.14 C79.22 126.76, 76.59 127.22, 73.96 127.53 C71.32 127.84, 68.65 128, 66 128 C63.35 128, 60.68 127.84, 58.04 127.53 C55.41 127.22, 52.78 126.76, 50.21 126.14 C47.63 125.52, 45.08 124.75, 42.6 123.84 C40.12 122.93, 37.68 121.86, 35.33 120.67 C32.98 119.47, 30.69 118.13, 28.51 116.67 C26.33 115.21, 24.22 113.61, 22.23 111.9 C20.25 110.2, 18.36 108.36, 16.6 106.44 C14.84 104.52, 13.19 102.47, 11.68 100.36 C10.18 98.24, 8.79 96.02, 7.56 93.74 C6.33 91.47, 5.23 89.1, 4.29 86.69 C3.35 84.29, 2.55 81.81, 1.92 79.32 C1.28 76.82, 0.8 74.27, 0.48 71.71 C0.16 69.16, 0 66.57, 0 64 C0 61.43, 0.16 58.84, 0.48 56.29 C0.8 53.73, 1.28 51.18, 1.92 48.68 C2.55 46.19, 3.35 43.71, 4.29 41.31 C5.23 38.9, 6.33 36.53, 7.56 34.26 C8.79 31.98, 10.18 29.76, 11.68 27.64 C13.19 25.53, 14.84 23.48, 16.6 21.56 C18.36 19.64, 20.25 17.8, 22.23 16.1 C24.22 14.39, 26.33 12.79, 28.51 11.33 C30.69 9.87, 32.98 8.53, 35.33 7.33 C37.68 6.14, 40.12 5.07, 42.6 4.16 C45.08 3.25, 47.63 2.48, 50.21 1.86 C52.78 1.24, 55.41 0.78, 58.04 0.47 C60.68 0.16, 63.35 0, 66 0 C68.65 0, 71.32 0.16, 73.96 0.47 C76.59 0.78, 79.22 1.24, 81.79 1.86 C84.37 2.48, 86.92 3.25, 89.4 4.16 C91.88 5.07, 94.32 6.14, 96.67 7.33 C99.02 8.53, 101.31 9.87, 103.49 11.33 C105.67 12.79, 107.78 14.39, 109.77 16.1 C111.75 17.8, 113.64 19.64, 115.4 21.56 C117.16 23.48, 118.81 25.53, 120.32 27.64 C121.82 29.76, 123.21 31.98, 124.44 34.26 C125.67 36.53, 126.77 38.9, 127.71 41.31 C128.65 43.71, 129.45 46.19, 130.08 48.68 C130.72 51.18, 131.2 53.73, 131.52 56.29 C131.84 58.84, 132 61.43, 132 64" stroke="#ffffff" stroke-width="1" fill="none"/>
  </g>
  <g transform="translate(600.188041595195 81.45084533539489) rotate(0 19.962499618530273 9.199999999999989)">
    <text x="19.962499618530273" y="0" fill="#ffffff" text-anchor="middle" style="white-space: pre;" direction="ltr" dominant-baseline="text-before-edge">Paxel</text>
  </g>
  <g transform="translate(273.816853053685 10) rotate(0 81.1624984741211 9.199999999999989)">
    <text x="0" y="0" fill="#8888ff" text-anchor="start" style="white-space: pre;" direction="ltr" dominant-baseline="text-before-edge">Multiplexed connection</text>
  </g>
</svg>
