<svg xmlns="http://www.w3.org/2000/svg" version="1.1" viewBox="0 0 696.3195887720376 164.40567933133389" width="696.3195887720376" height="164.40567933133389">
  <defs>
    <style>
      @import url("/assets/css/fonts.css");
      svg { font-size: 16px; font-family: "Inter", sans-serif; }
    </style>
  </defs>
  <g stroke-linecap="round">
    <g transform="translate(155.6647377174172 88.99766194007896) rotate(0 193.40433438988248 0.4302015039870071)">
      <path d="M-0.08 -1.08 C64.37 -1.16, 323.08 -0.79, 387.46 -0.27 M-1.58 0.97 C62.7 0.98, 322.41 0.78, 386.85 0.68" stroke="#8888ff" stroke-width="1" fill="none"/>
    </g>
    <g transform="translate(155.6647377174172 88.99766194007896) rotate(0 193.40433438988248 0.4302015039870071)">
      <path d="M0.09 -2 L12.44 -8.01 L14.83 6.96 L1.34 -3.02" stroke="none" stroke-width="0" fill="#8888ff" fill-rule="evenodd"/>
      <path d="M-0.08 -1.08 C3.51 -2.56, 8.4 -6.48, 13.52 -7.4 M-0.08 -1.08 C4.72 -3.17, 10.42 -5.91, 13.52 -7.4 M13.52 -7.4 C14.53 -3.08, 13.94 1.62, 13.51 5.28 M13.52 -7.4 C13.24 -2.59, 13.7 2.02, 13.51 5.28 M13.51 5.28 C11.31 3.44, 5.8 1.97, -0.08 -1.08 M13.51 5.28 C9.44 2.77, 4.34 0.94, -0.08 -1.08 M-0.08 -1.08 C-0.08 -1.08, -0.08 -1.08, -0.08 -1.08 M-0.08 -1.08 C-0.08 -1.08, -0.08 -1.08, -0.08 -1.08" stroke="#8888ff" stroke-width="1" fill="none"/>
    </g>
    <g transform="translate(155.6647377174172 88.99766194007896) rotate(0 193.40433438988248 0.4302015039870071)">
      <path d="M387.02 -0.25 L372.18 6.42 L374.57 -3.97 L388.27 -1.27" stroke="none" stroke-width="0" fill="#8888ff" fill-rule="evenodd"/>
      <path d="M386.85 0.68 C380.57 3.79, 375.55 4.49, 373.26 7.03 M386.85 0.68 C380.79 3.52, 375.62 5.85, 373.26 7.03 M373.26 7.03 C374.51 2.62, 373.91 -1.41, 373.25 -5.65 M373.26 7.03 C373.09 2.39, 373.55 -2.47, 373.25 -5.65 M373.25 -5.65 C378.3 -4.34, 379.94 -2.47, 386.85 0.68 M373.25 -5.65 C378.81 -3.41, 383.31 -0.75, 386.85 0.68 M386.85 0.68 C386.85 0.68, 386.85 0.68, 386.85 0.68 M386.85 0.68 C386.85 0.68, 386.85 0.68, 386.85 0.68" stroke="#8888ff" stroke-width="1" fill="none"/>
    </g>
  </g>
  <mask/>
  <g stroke-linecap="round">
    <g transform="translate(153.29403161629398 120.51076320358675) rotate(0 195.01077471920325 -33.28254065403456)">
      <path d="M0.65 -1.13 C21.95 -1.28, 80.34 7.51, 127.74 -1.99 C175.14 -11.49, 241.5 -47.46, 285.04 -58.12 C328.59 -68.78, 371.61 -64.61, 389.01 -65.97 M-0.47 0.89 C21.23 0.53, 82.66 6.18, 130.12 -3.49 C177.57 -13.15, 241.16 -46.3, 284.26 -57.09 C327.36 -67.88, 370.89 -66.77, 388.73 -68.22" stroke="#ffa083" stroke-width="1" fill="none"/>
    </g>
    <g transform="translate(153.29403161629398 120.51076320358675) rotate(0 195.01077471920325 -33.28254065403456)">
      <path d="M-0.43 -1.74 L15.82 -5.21 L15.38 3.83 L1.89 -0.6" stroke="none" stroke-width="0" fill="#ffa083" fill-rule="evenodd"/>
      <path d="M0.65 -1.13 C3.35 -3.7, 10.32 -4.63, 14.5 -6.89 M0.65 -1.13 C3.85 -2.51, 8.08 -4.83, 14.5 -6.89 M14.5 -6.89 C15 -2.9, 15.22 -0.02, 13.96 5.78 M14.5 -6.89 C14.51 -2.35, 13.83 2.78, 13.96 5.78 M13.96 5.78 C8.5 3.16, 4.92 0.85, 0.65 -1.13 M13.96 5.78 C11.65 4.65, 8.32 3.16, 0.65 -1.13 M0.65 -1.13 C0.65 -1.13, 0.65 -1.13, 0.65 -1.13 M0.65 -1.13 C0.65 -1.13, 0.65 -1.13, 0.65 -1.13" stroke="#ffa083" stroke-width="1" fill="none"/>
    </g>
    <g transform="translate(153.29403161629398 120.51076320358675) rotate(0 195.01077471920325 -33.28254065403456)">
      <path d="M387.64 -68.83 L376.76 -59.6 L376.28 -75.88 L389.97 -67.69" stroke="none" stroke-width="0" fill="#ffa083" fill-rule="evenodd"/>
      <path d="M388.73 -68.22 C383.35 -66.91, 382.36 -64.11, 375.43 -61.27 M388.73 -68.22 C384.91 -66.23, 382.23 -65.32, 375.43 -61.27 M375.43 -61.27 C375.7 -64.68, 375.91 -69.2, 374.86 -73.94 M375.43 -61.27 C375.51 -65.9, 374.83 -69.94, 374.86 -73.94 M374.86 -73.94 C379.5 -71.87, 385.9 -69.54, 388.73 -68.22 M374.86 -73.94 C378.16 -72.47, 380.31 -71.41, 388.73 -68.22 M388.73 -68.22 C388.73 -68.22, 388.73 -68.22, 388.73 -68.22 M388.73 -68.22 C388.73 -68.22, 388.73 -68.22, 388.73 -68.22" stroke="#ffa083" stroke-width="1" fill="none"/>
    </g>
  </g>
  <mask/>
  <g stroke-linecap="round">
    <g transform="translate(156.4921060642805 57.683615871721145) rotate(0 191.40055685780635 33.46045238299962)">
      <path d="M-0.64 1.19 C20.2 2.06, 79.16 -5.48, 125.71 4.1 C172.26 13.68, 235.93 48.17, 278.68 58.68 C321.43 69.19, 364.76 65.98, 382.21 67.17 M1.22 0.77 C21.84 1.9, 78.11 -3.96, 124.74 5.35 C171.38 14.66, 238.14 46.14, 281.04 56.65 C323.94 67.16, 365.29 66.91, 382.14 68.4" stroke="#ff80b3" stroke-width="1" fill="none"/>
    </g>
    <g transform="translate(156.4921060642805 57.683615871721145) rotate(0 191.40055685780635 33.46045238299962)">
      <path d="M0.68 2.87 L14.23 -7.39 L14.32 7.77 L1.35 1.1" stroke="none" stroke-width="0" fill="#ff80b3" fill-rule="evenodd"/>
      <path d="M-0.64 1.19 C5.67 -1.13, 8.26 -4.69, 12.81 -5.44 M-0.64 1.19 C4.42 -1.86, 8.73 -2.8, 12.81 -5.44 M12.81 -5.44 C13.87 -2.21, 13.81 1.63, 13.08 7.24 M12.81 -5.44 C12.71 -0.97, 13.46 3.1, 13.08 7.24 M13.08 7.24 C10.03 5.7, 3.88 5.31, -0.64 1.19 M13.08 7.24 C8.96 5.78, 4.97 4.31, -0.64 1.19 M-0.64 1.19 C-0.64 1.19, -0.64 1.19, -0.64 1.19 M-0.64 1.19 C-0.64 1.19, -0.64 1.19, -0.64 1.19" stroke="#ff80b3" stroke-width="1" fill="none"/>
    </g>
    <g transform="translate(156.4921060642805 57.683615871721145) rotate(0 191.40055685780635 33.46045238299962)">
      <path d="M383.47 70.08 L369.62 72.01 L370.17 61.83 L384.13 68.31" stroke="none" stroke-width="0" fill="#ff80b3" fill-rule="evenodd"/>
      <path d="M382.14 68.4 C378.65 70.25, 371.54 70.99, 368.2 73.95 M382.14 68.4 C377.57 69.67, 372.31 72.98, 368.2 73.95 M368.2 73.95 C369.29 69.67, 369.37 66.01, 368.93 61.3 M368.2 73.95 C368.15 70.49, 369.04 66.63, 368.93 61.3 M368.93 61.3 C373.44 63.48, 374.89 66.81, 382.14 68.4 M368.93 61.3 C372.5 63.45, 376.14 65.71, 382.14 68.4 M382.14 68.4 C382.14 68.4, 382.14 68.4, 382.14 68.4 M382.14 68.4 C382.14 68.4, 382.14 68.4, 382.14 68.4" stroke="#ff80b3" stroke-width="1" fill="none"/>
    </g>
  </g>
  <mask/>
  <g stroke-linecap="round" transform="translate(10 26.058957069921462) rotate(0 66 64)">
    <path d="M85.06 2.57 C94.54 4.44, 104.35 11.43, 111.55 18.31 C118.75 25.19, 124.92 34.48, 128.29 43.84 C131.65 53.2, 133.5 64.45, 131.74 74.47 C129.98 84.48, 124.18 96.07, 117.73 103.91 C111.28 111.74, 102.31 117.61, 93.04 121.49 C83.78 125.37, 72.42 127.75, 62.13 127.19 C51.84 126.63, 39.9 123.25, 31.28 118.15 C22.67 113.04, 15.48 104.79, 10.44 96.58 C5.39 88.36, 1.72 78.62, 1.01 68.84 C0.31 59.06, 2.05 47.14, 6.19 37.87 C10.33 28.6, 17.83 19.36, 25.83 13.22 C33.83 7.08, 42.99 2.31, 54.2 1.03 C65.4 -0.26, 85.36 3.88, 93.06 5.51 C100.75 7.13, 100.62 9.83, 100.36 10.76 M77.38 0.35 C87.27 1.63, 99.14 8.9, 107.26 15.43 C115.38 21.96, 121.79 30.51, 126.12 39.51 C130.45 48.51, 133.91 59.74, 133.24 69.42 C132.57 79.11, 127.98 89.37, 122.11 97.61 C116.24 105.84, 107.05 113.79, 98.02 118.84 C88.99 123.88, 77.84 127.22, 67.93 127.9 C58.02 128.57, 47.52 127.23, 38.59 122.88 C29.65 118.53, 20.63 110.04, 14.31 101.79 C7.99 93.54, 2.63 83.13, 0.68 73.39 C-1.26 63.64, -0.6 52.58, 2.63 43.34 C5.86 34.09, 12.61 24.87, 20.08 17.89 C27.55 10.91, 37.49 4.38, 47.45 1.46 C57.41 -1.46, 74.59 0.02, 79.84 0.36 C85.09 0.71, 79.18 2.11, 78.94 3.54" stroke="none" stroke-width="0" fill="#8888ff"/>
    <path d="M39.21 6.04 C47.44 1.4, 58.83 -0.49, 69.15 0.04 C79.47 0.58, 92.16 4.05, 101.13 9.25 C110.09 14.44, 117.72 22.78, 122.96 31.21 C128.21 39.64, 131.98 50.02, 132.62 59.82 C133.25 69.62, 131.07 80.84, 126.76 90.01 C122.45 99.18, 114.92 108.73, 106.75 114.83 C98.58 120.93, 87.68 124.78, 77.73 126.6 C67.78 128.42, 56.63 128.68, 47.05 125.75 C37.46 122.81, 27.61 116.15, 20.21 109.01 C12.8 101.87, 5.71 92.33, 2.62 82.91 C-0.48 73.49, -0.12 62.05, 1.63 52.48 C3.39 42.9, 6.29 33.42, 13.13 25.45 C19.97 17.48, 36.95 8.28, 42.69 4.66 C48.43 1.04, 47.12 2.89, 47.57 3.72 M84.54 2.3 C94.33 4.15, 105.33 11, 112.59 17.81 C119.84 24.62, 124.98 33.41, 128.04 43.15 C131.11 52.89, 132.59 66.39, 130.99 76.25 C129.38 86.12, 124.79 94.77, 118.43 102.34 C112.06 109.91, 101.93 117.2, 92.79 121.67 C83.65 126.14, 73.48 129.85, 63.58 129.17 C53.68 128.49, 42.21 122.79, 33.41 117.59 C24.6 112.39, 16.04 106.19, 10.74 97.98 C5.45 89.77, 2.62 78.22, 1.65 68.35 C0.69 58.47, 0.89 47.82, 4.95 38.72 C9.02 29.63, 18.12 19.83, 26.07 13.77 C34.02 7.71, 42.84 4.07, 52.64 2.35 C62.44 0.62, 79.51 2.95, 84.89 3.41 C90.26 3.87, 85.42 4.27, 84.91 5.09" stroke="#ffffff" stroke-width="1" fill="none"/>
  </g>
  <g transform="translate(55.88095167874826 81.10412307398246) rotate(0 19.950000762939453 9.199999999999989)">
    <text x="19.950000762939453" y="0" fill="#ffffff" text-anchor="middle" style="white-space: pre;" direction="ltr" dominant-baseline="text-before-edge">Calyx</text>
  </g>
  <g stroke-linecap="round" transform="translate(554.3195887720376 26.405679331333886) rotate(0 66 64)">
    <path d="M56.2 0.41 C65.63 -1.9, 77.98 -0.24, 87.86 3.05 C97.74 6.33, 108.57 12.55, 115.49 20.12 C122.41 27.69, 126.98 38.88, 129.39 48.47 C131.8 58.06, 132.2 68.24, 129.93 77.66 C127.67 87.08, 122.55 97.49, 115.8 105 C109.05 112.5, 98.78 119.05, 89.44 122.69 C80.1 126.32, 69.63 127.62, 59.76 126.81 C49.88 126, 38.73 123.23, 30.2 117.83 C21.66 112.43, 13.45 103.32, 8.55 94.41 C3.66 85.49, 0.99 74.24, 0.82 64.34 C0.66 54.45, 3.22 43.85, 7.56 35.02 C11.9 26.2, 17.76 17.32, 26.86 11.39 C35.95 5.46, 55.05 1.21, 62.13 -0.58 C69.21 -2.38, 69.07 -0.45, 69.33 0.6 M42.51 5.45 C51.4 1.54, 63.16 0.38, 73.57 1.49 C83.97 2.59, 96.44 6.65, 104.93 12.08 C113.42 17.51, 120.25 25.47, 124.53 34.07 C128.81 42.67, 130.83 53.72, 130.61 63.67 C130.39 73.61, 127.67 84.75, 123.23 93.73 C118.78 102.72, 112.01 112.09, 103.92 117.55 C95.84 123.01, 84.98 125.69, 74.71 126.51 C64.45 127.34, 52.11 125.99, 42.32 122.5 C32.53 119.01, 22.67 112.83, 15.96 105.59 C9.25 98.34, 4.35 88.71, 2.06 79.02 C-0.24 69.33, -0.42 57.18, 2.19 47.46 C4.8 37.74, 10.91 27.74, 17.72 20.7 C24.53 13.66, 38.69 7.54, 43.07 5.23 C47.46 2.92, 43.65 6.17, 44.01 6.84" stroke="none" stroke-width="0" fill="#8888ff"/>
    <path d="M48.84 1.88 C58.13 -1.43, 72.09 -0.64, 82.26 1.72 C92.43 4.08, 102.2 9.58, 109.87 16.04 C117.54 22.51, 124.56 31.34, 128.28 40.49 C132 49.64, 133.45 60.96, 132.19 70.94 C130.92 80.93, 126.56 92.2, 120.69 100.39 C114.83 108.59, 105.9 115.39, 96.99 120.1 C88.08 124.81, 77.28 128.57, 67.22 128.67 C57.17 128.77, 45.94 125.36, 36.67 120.69 C27.4 116.02, 17.53 108.74, 11.59 100.67 C5.66 92.6, 2.48 81.91, 1.07 72.25 C-0.34 62.59, -0.29 51.91, 3.15 42.7 C6.6 33.49, 12.96 24, 21.74 16.97 C30.51 9.95, 49.16 3.21, 55.78 0.56 C62.4 -2.1, 61.23 0.06, 61.44 1.04 M51.03 1.19 C60.22 -2.05, 71.66 -2.05, 81.5 0.7 C91.35 3.45, 102.37 10.96, 110.12 17.69 C117.87 24.42, 124.6 32.07, 128.02 41.08 C131.44 50.1, 131.81 61.6, 130.64 71.75 C129.47 81.91, 126.58 94.08, 121.01 102.03 C115.45 109.98, 106.37 115.05, 97.27 119.44 C88.17 123.84, 76.56 128.24, 66.41 128.4 C56.26 128.55, 45.64 125.03, 36.36 120.36 C27.09 115.7, 16.55 108.65, 10.76 100.42 C4.97 92.2, 2.84 80.75, 1.64 71.02 C0.44 61.29, 0.11 51.13, 3.57 42.03 C7.03 32.93, 14.53 22.96, 22.42 16.44 C30.31 9.91, 46.38 5.2, 50.91 2.87 C55.45 0.54, 49.39 1.48, 49.63 2.46" stroke="#ffffff" stroke-width="1" fill="none"/>
  </g>
  <g transform="translate(600.188041595195 81.45084533539489) rotate(0 19.962499618530273 9.199999999999989)">
    <text x="19.962499618530273" y="0" fill="#ffffff" text-anchor="middle" style="white-space: pre;" direction="ltr" dominant-baseline="text-before-edge">Paxel</text>
  </g>
  <g transform="translate(273.816853053685 10) rotate(0 81.1624984741211 9.199999999999989)">
    <text x="0" y="0" fill="#8888ff" text-anchor="start" style="white-space: pre;" direction="ltr" dominant-baseline="text-before-edge">Multiplexed connection</text>
  </g>
</svg>
