<svg xmlns="http://www.w3.org/2000/svg" version="1.1" viewBox="0 0 604.3149966657938 100.14486226111859" width="604.3149966657938" height="100.14486226111859">
  <defs>
    <style>
      @import url("/assets/css/fonts.css");
      svg { font-size: 16px; font-family: "Inter", sans-serif; }
    </style>
  </defs>
  <g stroke-linecap="round" transform="translate(511.6656077284415 10.000000261262159) rotate(0 41.32469446867617 40.072430999928216)">
    <path d="M22.13 4.96 C28.19 1.45, 38.52 -0.28, 46.17 0.33 C53.82 0.94, 62.46 3.98, 68.05 8.6 C73.65 13.23, 77.56 21.09, 79.76 28.08 C81.97 35.07, 82.99 43.46, 81.29 50.53 C79.58 57.59, 75.09 65.74, 69.53 70.47 C63.98 75.2, 55.4 77.87, 47.96 78.91 C40.52 79.96, 31.72 79.37, 24.91 76.73 C18.09 74.1, 11.1 69.12, 7.07 63.12 C3.04 57.12, 0.99 47.97, 0.72 40.75 C0.45 33.52, 1.35 26.22, 5.46 19.78 C9.58 13.33, 21.71 4.98, 25.41 2.09 C29.12 -0.81, 27.54 1.73, 27.69 2.39 M22.35 3.48 C28.65 -0.2, 38.22 -1.99, 45.68 -1 C53.15 -0.02, 61.25 4.78, 67.12 9.39 C73 14, 78.59 20.02, 80.93 26.66 C83.28 33.31, 83.31 42.33, 81.21 49.27 C79.11 56.21, 73.83 63.49, 68.36 68.3 C62.88 73.11, 55.63 76.56, 48.36 78.12 C41.08 79.68, 31.52 80.39, 24.71 77.66 C17.9 74.93, 11.41 67.82, 7.49 61.77 C3.57 55.71, 1.61 48.27, 1.2 41.34 C0.79 34.42, 1.35 26.39, 5.05 20.23 C8.76 14.08, 20.6 7.14, 23.42 4.43 C26.25 1.71, 21.61 3.2, 22.02 3.94" stroke="none" stroke-width="0" fill="#ff80b3"/>
    <path d="M42 0.09 C49.08 -0.48, 57.15 1.99, 63.33 5.97 C69.5 9.96, 75.99 17.29, 79.06 24 C82.12 30.72, 82.73 39.3, 81.73 46.27 C80.74 53.23, 78.06 60.46, 73.09 65.77 C68.12 71.09, 59.32 75.92, 51.92 78.15 C44.53 80.38, 35.84 81.29, 28.69 79.16 C21.54 77.02, 13.65 70.95, 9.05 65.32 C4.45 59.69, 2.11 52.52, 1.1 45.37 C0.09 38.22, -0.08 29.09, 2.99 22.42 C6.05 15.75, 12.64 9.08, 19.47 5.35 C26.3 1.61, 39.71 0.7, 43.96 0.02 C48.21 -0.67, 44.91 0.56, 44.97 1.22 M30.59 2.48 C37.49 0, 48.32 -0.44, 55.22 1.39 C62.12 3.22, 67.44 7.65, 72.01 13.47 C76.57 19.28, 81.75 29.12, 82.6 36.28 C83.44 43.43, 80.17 49.96, 77.07 56.39 C73.97 62.82, 70.31 71.13, 64.02 74.85 C57.72 78.58, 47.2 79.18, 39.3 78.74 C31.4 78.3, 22.6 76.09, 16.61 72.2 C10.62 68.32, 6.03 62.08, 3.37 55.4 C0.71 48.72, -0.42 39.12, 0.66 32.12 C1.74 25.11, 4.71 18.31, 9.86 13.37 C15.01 8.43, 28.1 4.45, 31.57 2.48 C35.05 0.5, 30.55 1.06, 30.71 1.53" stroke="#ffffff" stroke-width="1" fill="none"/>
  </g>
  <g transform="translate(532.8068308893244 41.03694356251114) rotate(0 19.962499618530273 9.200000000000003)">
    <text x="19.962499618530273" y="0" fill="#ffffff" text-anchor="middle" style="white-space: pre;" direction="ltr" dominant-baseline="text-before-edge">Paxel</text>
  </g>
  <g stroke-linecap="round">
    <g transform="translate(102.39708639034416 49.61786066367563) rotate(0 199.40417245013805 0.40807994667591174)">
      <path d="M-0.19 0.45 C66.29 0.59, 332.53 0.04, 398.92 0.11 M-1.75 -0.36 C64.58 -0.02, 331.56 0.85, 398.03 1.27" stroke="#ff80b3" stroke-width="1" fill="none"/>
    </g>
    <g transform="translate(102.39708639034416 49.61786066367563) rotate(0 199.40417245013805 0.40807994667591174)">
      <path d="M0.9 1.97 L13.06 -6.67 L14.38 6.88 L0.45 -0.86" stroke="none" stroke-width="0" fill="#ff80b3" fill-rule="evenodd"/>
      <path d="M-0.19 0.45 C4.51 -1.31, 7.15 -4.18, 13.4 -5.9 M-0.19 0.45 C4.04 -0.86, 7.42 -3.89, 13.4 -5.9 M13.4 -5.9 C12.24 -3.65, 14.23 0.41, 13.41 6.78 M13.4 -5.9 C12.76 -3.05, 13.28 -0.98, 13.41 6.78 M13.41 6.78 C8.25 4.72, 5.25 2.57, -0.19 0.45 M13.41 6.78 C7.61 3.75, 3.23 2.38, -0.19 0.45 M-0.19 0.45 C-0.19 0.45, -0.19 0.45, -0.19 0.45 M-0.19 0.45 C-0.19 0.45, -0.19 0.45, -0.19 0.45" stroke="#ff80b3" stroke-width="1" fill="none"/>
    </g>
  </g>
  <mask/>
  <g transform="translate(201.32231328367652 12.874986951179523) rotate(0 103.75 9.200000000000003)">
    <text x="0" y="0" fill="#ff80b3" text-anchor="start" style="white-space: pre;" direction="ltr" dominant-baseline="text-before-edge">Responder gossips static key</text>
  </g>
  <g transform="translate(300.39731309294166 61.591726416196025) rotate(0 4.675000190734863 9.599999999999994)">
    <text x="0" y="0" fill="#ff80b3" text-anchor="start" style="white-space: pre;" direction="ltr" dominant-baseline="text-before-edge">s</text>
  </g>
  <g stroke-opacity="0" fill-opacity="0" stroke-linecap="round" transform="translate(10 10) rotate(0 41.32469446867617 40.0724309999282)">
    <path d="M82.65 40.07 C82.65 41.97, 82.51 43.89, 82.23 45.78 C81.95 47.66, 81.53 49.54, 80.98 51.36 C80.42 53.19, 79.73 54.99, 78.91 56.72 C78.1 58.45, 77.15 60.14, 76.09 61.74 C75.03 63.34, 73.84 64.88, 72.56 66.31 C71.27 67.75, 69.87 69.11, 68.39 70.36 C66.91 71.6, 65.32 72.76, 63.67 73.78 C62.02 74.81, 60.27 75.73, 58.49 76.52 C56.71 77.31, 54.85 77.99, 52.97 78.52 C51.09 79.06, 49.15 79.47, 47.21 79.74 C45.27 80.01, 43.29 80.14, 41.32 80.14 C39.36 80.14, 37.38 80.01, 35.44 79.74 C33.5 79.47, 31.56 79.06, 29.68 78.52 C27.8 77.99, 25.94 77.31, 24.16 76.52 C22.37 75.73, 20.63 74.81, 18.98 73.78 C17.33 72.76, 15.74 71.6, 14.26 70.36 C12.78 69.11, 11.38 67.75, 10.09 66.31 C8.81 64.88, 7.62 63.34, 6.56 61.74 C5.5 60.14, 4.55 58.45, 3.73 56.72 C2.92 54.99, 2.23 53.19, 1.67 51.36 C1.12 49.54, 0.7 47.66, 0.42 45.78 C0.14 43.89, 0 41.97, 0 40.07 C0 38.17, 0.14 36.25, 0.42 34.37 C0.7 32.49, 1.12 30.61, 1.67 28.78 C2.23 26.96, 2.92 25.15, 3.73 23.43 C4.55 21.7, 5.5 20.01, 6.56 18.41 C7.62 16.81, 8.81 15.27, 10.09 13.83 C11.38 12.39, 12.78 11.03, 14.26 9.79 C15.74 8.54, 17.33 7.39, 18.98 6.36 C20.63 5.33, 22.37 4.41, 24.16 3.62 C25.94 2.83, 27.8 2.16, 29.68 1.62 C31.56 1.09, 33.5 0.68, 35.44 0.41 C37.38 0.14, 39.36 0, 41.32 0 C43.29 0, 45.27 0.14, 47.21 0.41 C49.15 0.68, 51.09 1.09, 52.97 1.62 C54.85 2.16, 56.71 2.83, 58.49 3.62 C60.27 4.41, 62.02 5.33, 63.67 6.36 C65.32 7.39, 66.91 8.54, 68.39 9.79 C69.87 11.03, 71.27 12.39, 72.56 13.83 C73.84 15.27, 75.03 16.81, 76.09 18.41 C77.15 20.01, 78.1 21.7, 78.91 23.43 C79.73 25.15, 80.42 26.96, 80.98 28.78 C81.53 30.61, 81.95 32.49, 82.23 34.37 C82.51 36.25, 82.58 39.12, 82.65 40.07 C82.72 41.02, 82.72 39.12, 82.65 40.07" stroke="none" stroke-width="0" fill="#1e1e1e"/>
    <path d="M82.65 40.07 C82.65 41.97, 82.51 43.89, 82.23 45.78 C81.95 47.66, 81.53 49.54, 80.98 51.36 C80.42 53.19, 79.73 54.99, 78.91 56.72 C78.1 58.45, 77.15 60.14, 76.09 61.74 C75.03 63.34, 73.84 64.88, 72.56 66.31 C71.27 67.75, 69.87 69.11, 68.39 70.36 C66.91 71.6, 65.32 72.76, 63.67 73.78 C62.02 74.81, 60.27 75.73, 58.49 76.52 C56.71 77.31, 54.85 77.99, 52.97 78.52 C51.09 79.06, 49.15 79.47, 47.21 79.74 C45.27 80.01, 43.29 80.14, 41.32 80.14 C39.36 80.14, 37.38 80.01, 35.44 79.74 C33.5 79.47, 31.56 79.06, 29.68 78.52 C27.8 77.99, 25.94 77.31, 24.16 76.52 C22.37 75.73, 20.63 74.81, 18.98 73.78 C17.33 72.76, 15.74 71.6, 14.26 70.36 C12.78 69.11, 11.38 67.75, 10.09 66.31 C8.81 64.88, 7.62 63.34, 6.56 61.74 C5.5 60.14, 4.55 58.45, 3.73 56.72 C2.92 54.99, 2.23 53.19, 1.67 51.36 C1.12 49.54, 0.7 47.66, 0.42 45.78 C0.14 43.89, 0 41.97, 0 40.07 C0 38.17, 0.14 36.25, 0.42 34.37 C0.7 32.49, 1.12 30.61, 1.67 28.78 C2.23 26.96, 2.92 25.15, 3.73 23.43 C4.55 21.7, 5.5 20.01, 6.56 18.41 C7.62 16.81, 8.81 15.27, 10.09 13.83 C11.38 12.39, 12.78 11.03, 14.26 9.79 C15.74 8.54, 17.33 7.39, 18.98 6.36 C20.63 5.33, 22.37 4.41, 24.16 3.62 C25.94 2.83, 27.8 2.16, 29.68 1.62 C31.56 1.09, 33.5 0.68, 35.44 0.41 C37.38 0.14, 39.36 0, 41.32 0 C43.29 0, 45.27 0.14, 47.21 0.41 C49.15 0.68, 51.09 1.09, 52.97 1.62 C54.85 2.16, 56.71 2.83, 58.49 3.62 C60.27 4.41, 62.02 5.33, 63.67 6.36 C65.32 7.39, 66.91 8.54, 68.39 9.79 C69.87 11.03, 71.27 12.39, 72.56 13.83 C73.84 15.27, 75.03 16.81, 76.09 18.41 C77.15 20.01, 78.1 21.7, 78.91 23.43 C79.73 25.15, 80.42 26.96, 80.98 28.78 C81.53 30.61, 81.95 32.49, 82.23 34.37 C82.51 36.25, 82.58 39.12, 82.65 40.07 C82.72 41.02, 82.72 39.12, 82.65 40.07" stroke="#ffffff" stroke-width="1" fill="none"/>
  </g>
</svg>
