<svg xmlns="http://www.w3.org/2000/svg" version="1.1" viewBox="0 0 604.3149977373096 312.38343077362174" width="604.3149977373096" height="312.38343077362174">
  <defs>
    <style>
      @import url("/assets/css/fonts.css");
      svg { font-size: 16px; font-family: "Inter", sans-serif; }
    </style>
  </defs>
  <g stroke-linecap="round">
    <g transform="translate(100.76342687430133 51.66129650929588) rotate(0 199.81560347454388 0.04748986530546517)">
      <path d="M0.05 -1.04 C66.78 -1.24, 333.01 -0.87, 399.66 -0.81 M-1.39 1.03 C65.26 0.92, 331.94 0.38, 398.73 0.26" stroke="#8888ff" stroke-width="1" fill="none"/>
    </g>
    <g transform="translate(100.76342687430133 51.66129650929588) rotate(0 199.81560347454388 0.04748986530546517)">
      <path d="M398.38 -0.32 L383.98 7.21 L383.95 -6.41 L397.46 -1.23" stroke="none" stroke-width="0" fill="#8888ff" fill-rule="evenodd"/>
      <path d="M398.73 0.26 C394.24 1.8, 391.19 3.66, 385.14 6.62 M398.73 0.26 C395.29 2.22, 392.09 3.18, 385.14 6.62 M385.14 6.62 C384.7 3.03, 384.41 -2.84, 385.12 -6.06 M385.14 6.62 C384.69 3.58, 384.73 1.2, 385.12 -6.06 M385.12 -6.06 C389.09 -6.14, 391.55 -4, 398.73 0.26 M385.12 -6.06 C388.68 -3.8, 392.28 -2.44, 398.73 0.26 M398.73 0.26 C398.73 0.26, 398.73 0.26, 398.73 0.26 M398.73 0.26 C398.73 0.26, 398.73 0.26, 398.73 0.26" stroke="#8888ff" stroke-width="1" fill="none"/>
    </g>
  </g>
  <mask/>
  <g stroke-linecap="round" transform="translate(10 10) rotate(0 41.32469446867617 40.0724309999282)">
    <path d="M24.4 4.33 C30.55 1.21, 38.57 0.38, 45.72 1.32 C52.86 2.27, 61.44 5.66, 67.26 10 C73.07 14.34, 78.37 20.58, 80.62 27.35 C82.86 34.13, 82.71 43.42, 80.72 50.64 C78.73 57.85, 74.23 65.84, 68.66 70.65 C63.1 75.46, 54.82 78.62, 47.33 79.51 C39.83 80.39, 30.54 78.9, 23.69 75.96 C16.85 73.01, 10.16 67.63, 6.28 61.83 C2.39 56.04, 0.44 48.45, 0.36 41.18 C0.28 33.91, 0.97 24.66, 5.79 18.23 C10.61 11.8, 24.31 5.33, 29.28 2.6 C34.24 -0.14, 35.41 1.25, 35.57 1.82 M30.46 0.14 C37.07 -2.44, 46.11 -1.71, 53.34 0.93 C60.57 3.56, 69.23 10.22, 73.83 15.96 C78.44 21.7, 80.39 28.34, 80.97 35.37 C81.54 42.4, 80.13 51.44, 77.31 58.15 C74.49 64.86, 70.31 72.15, 64.06 75.63 C57.81 79.11, 47.31 79.55, 39.83 79.02 C32.35 78.49, 25.4 76.47, 19.2 72.46 C13 68.46, 5.77 61.37, 2.63 54.99 C-0.5 48.6, -0.7 40.87, 0.39 34.14 C1.48 27.41, 4.4 20.08, 9.18 14.59 C13.95 9.1, 25.33 3.2, 29.03 1.21 C32.74 -0.78, 31.06 2.22, 31.42 2.67" stroke="none" stroke-width="0" fill="#8888ff"/>
    <path d="M29.01 2.49 C35.57 -0.02, 44.69 -0.31, 52.02 1.62 C59.34 3.56, 67.88 8.62, 72.96 14.08 C78.03 19.55, 81.47 27.47, 82.46 34.44 C83.45 41.4, 81.82 49.33, 78.9 55.87 C75.99 62.41, 70.96 69.5, 64.96 73.69 C58.96 77.88, 50.29 80.97, 42.9 81.01 C35.51 81.05, 26.94 77.83, 20.63 73.95 C14.32 70.07, 8.26 64.13, 5.03 57.74 C1.8 51.34, 0.63 42.8, 1.24 35.57 C1.85 28.33, 2.46 20.26, 8.68 14.33 C14.91 8.41, 31.71 2.02, 38.6 0.02 C45.5 -1.99, 49.9 1.59, 50.06 2.31 M42.44 -0.22 C49.33 -0.39, 59.01 4.28, 65.24 8.34 C71.48 12.4, 77.32 17.44, 79.87 24.13 C82.42 30.82, 81.74 41.06, 80.55 48.5 C79.35 55.93, 77.57 63.87, 72.7 68.74 C67.83 73.61, 58.6 76.14, 51.35 77.71 C44.09 79.29, 36.12 80.25, 29.18 78.18 C22.24 76.12, 14.73 71.03, 9.7 65.34 C4.67 59.64, 0.11 51.45, -1 44.02 C-2.11 36.58, -0.44 27.42, 3.06 20.74 C6.55 14.07, 13.38 7.23, 19.95 3.96 C26.53 0.69, 38.67 1.64, 42.51 1.13 C46.34 0.62, 43.03 0.34, 42.97 0.91" stroke="#ffffff" stroke-width="1" fill="none"/>
  </g>
  <g transform="translate(31.153722016473694 41.03694330124898) rotate(0 19.950000762939453 9.199999999999989)">
    <text x="19.950000762939453" y="0" fill="#ffffff" text-anchor="middle" style="white-space: pre;" direction="ltr" dominant-baseline="text-before-edge">Calyx</text>
  </g>
  <g transform="translate(281.69731516462343 63.60451130592071) rotate(0 23.375 9.599999999999994)">
    <text x="0" y="0" fill="#8888ff" text-anchor="start" style="white-space: pre;" direction="ltr" dominant-baseline="text-before-edge">e, es</text>
  </g>
  <g transform="translate(200.85981363874453 23.140486194293203) rotate(0 104.2125015258789 9.199999999999989)">
    <text x="0" y="0" fill="#8888ff" text-anchor="start" style="white-space: pre;" direction="ltr" dominant-baseline="text-before-edge">Initiator sends ephemeral key</text>
  </g>
  <g stroke-linecap="round" transform="translate(511.6656087999572 114.71541536112113) rotate(0 41.32469446867617 40.0724309999282)">
    <path d="M46.51 0.4 C53.43 0.6, 61.68 4.6, 67.52 9.23 C73.37 13.86, 79.3 21.06, 81.57 28.19 C83.84 35.33, 83.44 45.03, 81.16 52.04 C78.87 59.04, 73.41 65.45, 67.87 70.22 C62.33 74.99, 55.16 79.51, 47.93 80.65 C40.7 81.79, 31.3 80.28, 24.51 77.06 C17.71 73.85, 11.06 67.41, 7.14 61.37 C3.22 55.34, 1.07 48.07, 0.98 40.83 C0.89 33.6, 2.62 24.13, 6.59 17.97 C10.57 11.8, 17.4 6.49, 24.81 3.84 C32.21 1.19, 46.03 2.31, 51.02 2.06 C56.01 1.8, 54.8 1.89, 54.74 2.31 M40.21 -0.9 C47.21 -1.96, 56.32 1.23, 62.84 5.16 C69.36 9.09, 76.17 15.99, 79.32 22.68 C82.47 29.37, 82.6 38.24, 81.73 45.28 C80.86 52.32, 78.74 59.22, 74.09 64.91 C69.45 70.6, 61.01 77.07, 53.88 79.42 C46.74 81.76, 38.35 80.93, 31.29 79 C24.23 77.07, 16.64 72.91, 11.5 67.83 C6.35 62.75, 2.02 55.95, 0.41 48.51 C-1.19 41.07, -1.19 30.29, 1.86 23.18 C4.9 16.08, 12.3 9.98, 18.68 5.88 C25.06 1.78, 36.41 -0.75, 40.15 -1.4 C43.88 -2.05, 41.18 0.9, 41.09 1.98" stroke="none" stroke-width="0" fill="#ff80b3"/>
    <path d="M57.98 3.99 C64.66 6.42, 72.74 12.66, 76.97 18.71 C81.2 24.75, 83.49 32.89, 83.36 40.25 C83.24 47.62, 80.48 56.81, 76.23 62.92 C71.99 69.02, 64.8 74.06, 57.9 76.9 C51 79.74, 42.24 81.06, 34.81 79.96 C27.38 78.86, 18.96 75.24, 13.3 70.31 C7.65 65.37, 2.82 57.2, 0.87 50.33 C-1.09 43.47, -0.69 35.86, 1.55 29.13 C3.79 22.4, 8.48 14.91, 14.3 9.96 C20.13 5.01, 28.82 0.46, 36.51 -0.57 C44.21 -1.6, 56.16 2.53, 60.48 3.79 C64.8 5.06, 62.87 6.14, 62.43 7.02 M48.05 0.86 C54.86 1.33, 62.82 6.06, 68.18 11.12 C73.54 16.17, 78.05 24.43, 80.2 31.18 C82.35 37.94, 83.11 44.98, 81.05 51.65 C79 58.32, 73.71 66.44, 67.89 71.2 C62.07 75.96, 53.39 79.25, 46.15 80.22 C38.91 81.19, 31.21 80.04, 24.42 77.02 C17.63 73.99, 9.35 68.24, 5.42 62.07 C1.48 55.89, 0.44 47.43, 0.82 39.95 C1.2 32.47, 3.65 23.45, 7.7 17.17 C11.75 10.9, 18.41 5.14, 25.11 2.31 C31.82 -0.52, 44.31 0.46, 47.92 0.17 C51.53 -0.12, 46.9 -0.05, 46.77 0.56" stroke="#ffffff" stroke-width="1" fill="none"/>
  </g>
  <g transform="translate(532.8068319608401 145.75235866237017) rotate(0 19.962499618530273 9.199999999999989)">
    <text x="19.962499618530273" y="0" fill="#ffffff" text-anchor="middle" style="white-space: pre;" direction="ltr" dominant-baseline="text-before-edge">Paxel</text>
  </g>
  <g stroke-linecap="round">
    <g transform="translate(100.76342313791156 158.20916508748223) rotate(0 199.81561527484928 0.04748986810994893)">
      <path d="M-0.3 -0.98 C66.17 -0.94, 333.25 0.61, 399.91 0.94 M1.74 1.12 C67.99 0.77, 332.91 -0.4, 399.1 -0.75" stroke="#ff80b3" stroke-width="1" fill="none"/>
    </g>
    <g transform="translate(100.76342313791156 158.20916508748223) rotate(0 199.81561527484928 0.04748986810994893)">
      <path d="M-0.87 -1.53 L11.4 -8.34 L12.56 4.45 L-2.08 0.01" stroke="none" stroke-width="0" fill="#ff80b3" fill-rule="evenodd"/>
      <path d="M-0.3 -0.98 C3.71 -3.04, 11.27 -5.77, 13.32 -7.26 M-0.3 -0.98 C5.45 -3.57, 10.01 -5.92, 13.32 -7.26 M13.32 -7.26 C12.31 -4.02, 12.92 1.88, 13.26 5.42 M13.32 -7.26 C12.76 -3.66, 12.88 0.39, 13.26 5.42 M13.26 5.42 C8.39 3.52, 3.89 0.15, -0.3 -0.98 M13.26 5.42 C8.45 4.1, 4.88 1.01, -0.3 -0.98 M-0.3 -0.98 C-0.3 -0.98, -0.3 -0.98, -0.3 -0.98 M-0.3 -0.98 C-0.3 -0.98, -0.3 -0.98, -0.3 -0.98" stroke="#ff80b3" stroke-width="1" fill="none"/>
    </g>
  </g>
  <mask/>
  <g transform="translate(187.98481363874453 128.2667250132248) rotate(0 117.0875015258789 9.199999999999989)">
    <text x="0" y="0" fill="#ff80b3" text-anchor="start" style="white-space: pre;" direction="ltr" dominant-baseline="text-before-edge">Responder sends ephemeral key</text>
  </g>
  <g transform="translate(281.69731516462343 169.30075797223606) rotate(0 23.375 9.600000000000023)">
    <text x="0" y="0" fill="#ff80b3" text-anchor="start" style="white-space: pre;" direction="ltr" dominant-baseline="text-before-edge">e, ee</text>
  </g>
  <g stroke-linecap="round">
    <g transform="translate(100.7634273953172 263.8998652830612) rotate(0 199.81560347454388 0.04748986530546517)">
      <path d="M0.88 0.5 C67.38 0.7, 332.69 1.35, 399.23 1.16 M-0.12 -0.29 C66.17 -0.39, 331.45 -0.5, 398.07 -0.41" stroke="#8888ff" stroke-width="1" fill="none"/>
    </g>
    <g transform="translate(100.7634273953172 263.8998652830612) rotate(0 199.81560347454388 0.04748986530546517)">
      <path d="M397.99 -0.98 L385.45 4.75 L384.57 -8.63 L399.86 0.97" stroke="none" stroke-width="0" fill="#8888ff" fill-rule="evenodd"/>
      <path d="M398.07 -0.41 C394.35 1.2, 390.72 4.29, 384.47 5.93 M398.07 -0.41 C394.8 1.7, 391.08 3.29, 384.47 5.93 M384.47 5.93 C384.1 2.51, 385.56 -1.43, 384.47 -6.75 M384.47 5.93 C385 3.5, 385.05 0.33, 384.47 -6.75 M384.47 -6.75 C386.35 -5.82, 388.87 -3.02, 398.07 -0.41 M384.47 -6.75 C388.13 -5.13, 390.59 -4.4, 398.07 -0.41 M398.07 -0.41 C398.07 -0.41, 398.07 -0.41, 398.07 -0.41 M398.07 -0.41 C398.07 -0.41, 398.07 -0.41, 398.07 -0.41" stroke="#8888ff" stroke-width="1" fill="none"/>
    </g>
  </g>
  <mask/>
  <g stroke-linecap="round" transform="translate(10.000000521014954 222.23856877376534) rotate(0 41.32469446867617 40.0724309999282)">
    <path d="M51.52 0.65 C58.51 1.63, 65.09 6.43, 70.04 11.76 C75 17.08, 79.66 25.55, 81.24 32.59 C82.82 39.62, 82.16 47.43, 79.52 53.98 C76.88 60.54, 71.51 67.72, 65.4 71.94 C59.29 76.16, 50.18 78.79, 42.86 79.29 C35.53 79.79, 27.64 78.48, 21.45 74.96 C15.26 71.44, 9.23 64.43, 5.72 58.17 C2.21 51.91, -0.05 44.4, 0.39 37.39 C0.83 30.38, 3.8 21.99, 8.37 16.1 C12.94 10.21, 20.18 4.48, 27.79 2.04 C35.4 -0.39, 49.08 1.1, 54.06 1.5 C59.04 1.9, 57.86 3.75, 57.68 4.44 M26.04 4.72 C32.61 1.18, 41.7 -0.68, 48.95 0.09 C56.19 0.86, 64.31 4.55, 69.53 9.33 C74.75 14.11, 78.24 21.45, 80.27 28.77 C82.3 36.08, 83.78 46.14, 81.72 53.24 C79.65 60.33, 73.77 67.04, 67.85 71.36 C61.94 75.68, 53.58 78.51, 46.24 79.18 C38.91 79.84, 30.38 78.31, 23.86 75.36 C17.33 72.42, 11.31 67.72, 7.1 61.5 C2.9 55.28, -1.3 45.44, -1.34 38.06 C-1.39 30.68, 2.26 23.22, 6.85 17.21 C11.45 11.21, 23.45 4.03, 26.25 2.01 C29.06 0, 23.79 4.19, 23.69 5.12" stroke="none" stroke-width="0" fill="#8888ff"/>
    <path d="M48.71 0.74 C56.02 1.53, 65.02 5.39, 70.64 10.38 C76.26 15.37, 80.74 23.57, 82.45 30.69 C84.15 37.8, 83.49 46.2, 80.87 53.08 C78.25 59.96, 72.47 67.41, 66.7 71.97 C60.94 76.54, 53.78 79.85, 46.26 80.47 C38.74 81.09, 28.32 78.93, 21.57 75.69 C14.83 72.45, 9.32 67.11, 5.79 61.02 C2.26 54.94, 0.17 46.68, 0.4 39.18 C0.63 31.68, 3.05 21.91, 7.15 16.02 C11.24 10.13, 17.03 6.11, 24.98 3.82 C32.94 1.52, 49 1.78, 54.9 2.25 C60.79 2.72, 60.61 6.05, 60.37 6.65 M50.39 -0.01 C57.24 1.02, 65.97 7.29, 71.03 12.67 C76.08 18.06, 79.42 25.11, 80.74 32.29 C82.05 39.47, 81.49 49.19, 78.91 55.75 C76.34 62.32, 70.96 67.63, 65.3 71.68 C59.64 75.73, 52.51 79.45, 44.95 80.05 C37.4 80.66, 26.72 78.91, 19.96 75.32 C13.2 71.73, 7.69 65.06, 4.38 58.52 C1.07 51.99, -0.73 43.42, 0.1 36.1 C0.94 28.79, 4.82 20.5, 9.41 14.63 C13.99 8.76, 20.49 2.97, 27.62 0.88 C34.74 -1.21, 48.23 1.98, 52.15 2.1 C56.06 2.22, 51.47 1.35, 51.11 1.61" stroke="#ffffff" stroke-width="1" fill="none"/>
  </g>
  <g transform="translate(31.153722537488648 253.27551207501426) rotate(0 19.950000762939453 9.199999999999989)">
    <text x="19.950000762939453" y="0" fill="#ffffff" text-anchor="middle" style="white-space: pre;" direction="ltr" dominant-baseline="text-before-edge">Calyx</text>
  </g>
  <g transform="translate(219.95981211286562 228.74933994380604) rotate(0 85.11250305175781 9.199999999999989)">
    <text x="0" y="0" fill="#8888ff" text-anchor="start" style="white-space: pre;" direction="ltr" dominant-baseline="text-before-edge">Initiator sends static key</text>
  </g>
  <g transform="translate(281.69731516462343 278.9833729028172) rotate(0 23.375 9.600000000000023)">
    <text x="0" y="0" fill="#8888ff" text-anchor="start" style="white-space: pre;" direction="ltr" dominant-baseline="text-before-edge">s, se</text>
  </g>
</svg>
