<svg xmlns="http://www.w3.org/2000/svg" version="1.1" viewBox="0 0 604.3149977373096 312.38343077362174" width="604.3149977373096" height="312.38343077362174">
  <defs>
    <style>
      @import url("/assets/css/fonts.css");
      svg { font-size: 16px; font-family: "Inter", sans-serif; }
    </style>
  </defs>
  <g stroke-linecap="round">
    <g transform="translate(100.76342687430133 51.66129650929588) rotate(0 199.81560347454388 0.04748986530546517)">
      <path d="M0.05 -1.04 C66.78 -1.24, 333.01 -0.87, 399.66 -0.81 M-1.39 1.03 C65.26 0.92, 331.94 0.38, 398.73 0.26" stroke="#8888ff" stroke-width="1" fill="none"/>
    </g>
    <g transform="translate(100.76342687430133 51.66129650929588) rotate(0 199.81560347454388 0.04748986530546517)">
      <path d="M398.38 -0.32 L383.98 7.21 L383.95 -6.41 L397.46 -1.23" stroke="none" stroke-width="0" fill="#8888ff" fill-rule="evenodd"/>
      <path d="M398.73 0.26 C394.24 1.8, 391.19 3.66, 385.14 6.62 M398.73 0.26 C395.29 2.22, 392.09 3.18, 385.14 6.62 M385.14 6.62 C384.7 3.03, 384.41 -2.84, 385.12 -6.06 M385.14 6.62 C384.69 3.58, 384.73 1.2, 385.12 -6.06 M385.12 -6.06 C389.09 -6.14, 391.55 -4, 398.73 0.26 M385.12 -6.06 C388.68 -3.8, 392.28 -2.44, 398.73 0.26 M398.73 0.26 C398.73 0.26, 398.73 0.26, 398.73 0.26 M398.73 0.26 C398.73 0.26, 398.73 0.26, 398.73 0.26" stroke="#8888ff" stroke-width="1" fill="none"/>
    </g>
  </g>
  <mask/>
  <g stroke-linecap="round" transform="translate(10 10) rotate(0 41.32469446867617 40.0724309999282)">
    <path d="M24.4 4.33 C30.55 1.21, 38.57 0.38, 45.72 1.32 C52.86 2.27, 61.44 5.66, 67.26 10 C73.07 14.34, 78.37 20.58, 80.62 27.35 C82.86 34.13, 82.71 43.42, 80.72 50.64 C78.73 57.85, 74.23 65.84, 68.66 70.65 C63.1 75.46, 54.82 78.62, 47.33 79.51 C39.83 80.39, 30.54 78.9, 23.69 75.96 C16.85 73.01, 10.16 67.63, 6.28 61.83 C2.39 56.04, 0.44 48.45, 0.36 41.18 C0.28 33.91, 0.97 24.66, 5.79 18.23 C10.61 11.8, 24.31 5.33, 29.28 2.6 C34.24 -0.14, 35.41 1.25, 35.57 1.82 M30.46 0.14 C37.07 -2.44, 46.11 -1.71, 53.34 0.93 C60.57 3.56, 69.23 10.22, 73.83 15.96 C78.44 21.7, 80.39 28.34, 80.97 35.37 C81.54 42.4, 80.13 51.44, 77.31 58.15 C74.49 64.86, 70.31 72.15, 64.06 75.63 C57.81 79.11, 47.31 79.55, 39.83 79.02 C32.35 78.49, 25.4 76.47, 19.2 72.46 C13 68.46, 5.77 61.37, 2.63 54.99 C-0.5 48.6, -0.7 40.87, 0.39 34.14 C1.48 27.41, 4.4 20.08, 9.18 14.59 C13.95 9.1, 25.33 3.2, 29.03 1.21 C32.74 -0.78, 31.06 2.22, 31.42 2.67" stroke="none" stroke-width="0" fill="#8888ff"/>
  </g>
  <g transform="translate(31.153722016473694 41.03694330124898) rotate(0 19.950000762939453 9.199999999999989)">
    <text x="19.950000762939453" y="0" fill="#ffffff" text-anchor="middle" style="white-space: pre;" direction="ltr" dominant-baseline="text-before-edge">Calyx</text>
  </g>
  <g transform="translate(281.69731516462343 63.60451130592071) rotate(0 23.375 9.599999999999994)">
    <text x="0" y="0" fill="#8888ff" text-anchor="start" style="white-space: pre;" direction="ltr" dominant-baseline="text-before-edge">e, es</text>
  </g>
  <g transform="translate(200.85981363874453 23.140486194293203) rotate(0 104.2125015258789 9.199999999999989)">
    <text x="0" y="0" fill="#8888ff" text-anchor="start" style="white-space: pre;" direction="ltr" dominant-baseline="text-before-edge">Initiator sends ephemeral key</text>
  </g>
  <g stroke-linecap="round" transform="translate(511.6656087999572 114.71541536112113) rotate(0 41.32469446867617 40.0724309999282)">
    <path d="M46.51 0.4 C53.43 0.6, 61.68 4.6, 67.52 9.23 C73.37 13.86, 79.3 21.06, 81.57 28.19 C83.84 35.33, 83.44 45.03, 81.16 52.04 C78.87 59.04, 73.41 65.45, 67.87 70.22 C62.33 74.99, 55.16 79.51, 47.93 80.65 C40.7 81.79, 31.3 80.28, 24.51 77.06 C17.71 73.85, 11.06 67.41, 7.14 61.37 C3.22 55.34, 1.07 48.07, 0.98 40.83 C0.89 33.6, 2.62 24.13, 6.59 17.97 C10.57 11.8, 17.4 6.49, 24.81 3.84 C32.21 1.19, 46.03 2.31, 51.02 2.06 C56.01 1.8, 54.8 1.89, 54.74 2.31 M40.21 -0.9 C47.21 -1.96, 56.32 1.23, 62.84 5.16 C69.36 9.09, 76.17 15.99, 79.32 22.68 C82.47 29.37, 82.6 38.24, 81.73 45.28 C80.86 52.32, 78.74 59.22, 74.09 64.91 C69.45 70.6, 61.01 77.07, 53.88 79.42 C46.74 81.76, 38.35 80.93, 31.29 79 C24.23 77.07, 16.64 72.91, 11.5 67.83 C6.35 62.75, 2.02 55.95, 0.41 48.51 C-1.19 41.07, -1.19 30.29, 1.86 23.18 C4.9 16.08, 12.3 9.98, 18.68 5.88 C25.06 1.78, 36.41 -0.75, 40.15 -1.4 C43.88 -2.05, 41.18 0.9, 41.09 1.98" stroke="none" stroke-width="0" fill="#ff80b3"/>
  </g>
  <g transform="translate(532.8068319608401 145.75235866237017) rotate(0 19.962499618530273 9.199999999999989)">
    <text x="19.962499618530273" y="0" fill="#ffffff" text-anchor="middle" style="white-space: pre;" direction="ltr" dominant-baseline="text-before-edge">Paxel</text>
  </g>
  <g stroke-linecap="round">
    <g transform="translate(100.76342313791156 158.20916508748223) rotate(0 199.81561527484928 0.04748986810994893)">
      <path d="M-0.3 -0.98 C66.17 -0.94, 333.25 0.61, 399.91 0.94 M1.74 1.12 C67.99 0.77, 332.91 -0.4, 399.1 -0.75" stroke="#ff80b3" stroke-width="1" fill="none"/>
    </g>
    <g transform="translate(100.76342313791156 158.20916508748223) rotate(0 199.81561527484928 0.04748986810994893)">
      <path d="M-0.87 -1.53 L11.4 -8.34 L12.56 4.45 L-2.08 0.01" stroke="none" stroke-width="0" fill="#ff80b3" fill-rule="evenodd"/>
      <path d="M-0.3 -0.98 C3.71 -3.04, 11.27 -5.77, 13.32 -7.26 M-0.3 -0.98 C5.45 -3.57, 10.01 -5.92, 13.32 -7.26 M13.32 -7.26 C12.31 -4.02, 12.92 1.88, 13.26 5.42 M13.32 -7.26 C12.76 -3.66, 12.88 0.39, 13.26 5.42 M13.26 5.42 C8.39 3.52, 3.89 0.15, -0.3 -0.98 M13.26 5.42 C8.45 4.1, 4.88 1.01, -0.3 -0.98 M-0.3 -0.98 C-0.3 -0.98, -0.3 -0.98, -0.3 -0.98 M-0.3 -0.98 C-0.3 -0.98, -0.3 -0.98, -0.3 -0.98" stroke="#ff80b3" stroke-width="1" fill="none"/>
    </g>
  </g>
  <mask/>
  <g transform="translate(187.98481363874453 128.2667250132248) rotate(0 117.0875015258789 9.199999999999989)">
    <text x="0" y="0" fill="#ff80b3" text-anchor="start" style="white-space: pre;" direction="ltr" dominant-baseline="text-before-edge">Responder sends ephemeral key</text>
  </g>
  <g transform="translate(281.69731516462343 169.30075797223606) rotate(0 23.375 9.600000000000023)">
    <text x="0" y="0" fill="#ff80b3" text-anchor="start" style="white-space: pre;" direction="ltr" dominant-baseline="text-before-edge">e, ee</text>
  </g>
  <g stroke-linecap="round">
    <g transform="translate(100.7634273953172 263.8998652830612) rotate(0 199.81560347454388 0.04748986530546517)">
      <path d="M0.88 0.5 C67.38 0.7, 332.69 1.35, 399.23 1.16 M-0.12 -0.29 C66.17 -0.39, 331.45 -0.5, 398.07 -0.41" stroke="#8888ff" stroke-width="1" fill="none"/>
    </g>
    <g transform="translate(100.7634273953172 263.8998652830612) rotate(0 199.81560347454388 0.04748986530546517)">
      <path d="M397.99 -0.98 L385.45 4.75 L384.57 -8.63 L399.86 0.97" stroke="none" stroke-width="0" fill="#8888ff" fill-rule="evenodd"/>
      <path d="M398.07 -0.41 C394.35 1.2, 390.72 4.29, 384.47 5.93 M398.07 -0.41 C394.8 1.7, 391.08 3.29, 384.47 5.93 M384.47 5.93 C384.1 2.51, 385.56 -1.43, 384.47 -6.75 M384.47 5.93 C385 3.5, 385.05 0.33, 384.47 -6.75 M384.47 -6.75 C386.35 -5.82, 388.87 -3.02, 398.07 -0.41 M384.47 -6.75 C388.13 -5.13, 390.59 -4.4, 398.07 -0.41 M398.07 -0.41 C398.07 -0.41, 398.07 -0.41, 398.07 -0.41 M398.07 -0.41 C398.07 -0.41, 398.07 -0.41, 398.07 -0.41" stroke="#8888ff" stroke-width="1" fill="none"/>
    </g>
  </g>
  <mask/>
  <g stroke-linecap="round" transform="translate(10.000000521014954 222.23856877376534) rotate(0 41.32469446867617 40.0724309999282)">
    <path d="M51.52 0.65 C58.51 1.63, 65.09 6.43, 70.04 11.76 C75 17.08, 79.66 25.55, 81.24 32.59 C82.82 39.62, 82.16 47.43, 79.52 53.98 C76.88 60.54, 71.51 67.72, 65.4 71.94 C59.29 76.16, 50.18 78.79, 42.86 79.29 C35.53 79.79, 27.64 78.48, 21.45 74.96 C15.26 71.44, 9.23 64.43, 5.72 58.17 C2.21 51.91, -0.05 44.4, 0.39 37.39 C0.83 30.38, 3.8 21.99, 8.37 16.1 C12.94 10.21, 20.18 4.48, 27.79 2.04 C35.4 -0.39, 49.08 1.1, 54.06 1.5 C59.04 1.9, 57.86 3.75, 57.68 4.44 M26.04 4.72 C32.61 1.18, 41.7 -0.68, 48.95 0.09 C56.19 0.86, 64.31 4.55, 69.53 9.33 C74.75 14.11, 78.24 21.45, 80.27 28.77 C82.3 36.08, 83.78 46.14, 81.72 53.24 C79.65 60.33, 73.77 67.04, 67.85 71.36 C61.94 75.68, 53.58 78.51, 46.24 79.18 C38.91 79.84, 30.38 78.31, 23.86 75.36 C17.33 72.42, 11.31 67.72, 7.1 61.5 C2.9 55.28, -1.3 45.44, -1.34 38.06 C-1.39 30.68, 2.26 23.22, 6.85 17.21 C11.45 11.21, 23.45 4.03, 26.25 2.01 C29.06 0, 23.79 4.19, 23.69 5.12" stroke="none" stroke-width="0" fill="#8888ff"/>
  </g>
  <g transform="translate(31.153722537488648 253.27551207501426) rotate(0 19.950000762939453 9.199999999999989)">
    <text x="19.950000762939453" y="0" fill="#ffffff" text-anchor="middle" style="white-space: pre;" direction="ltr" dominant-baseline="text-before-edge">Calyx</text>
  </g>
  <g transform="translate(219.95981211286562 228.74933994380604) rotate(0 85.11250305175781 9.199999999999989)">
    <text x="0" y="0" fill="#8888ff" text-anchor="start" style="white-space: pre;" direction="ltr" dominant-baseline="text-before-edge">Initiator sends static key</text>
  </g>
  <g transform="translate(281.69731516462343 278.9833729028172) rotate(0 23.375 9.600000000000023)">
    <text x="0" y="0" fill="#8888ff" text-anchor="start" style="white-space: pre;" direction="ltr" dominant-baseline="text-before-edge">s, se</text>
  </g>
</svg>
