<svg xmlns="http://www.w3.org/2000/svg" version="1.1" viewBox="0 0 753.925211100468 540.8248741260445" width="753.925211100468" height="540.8248741260445">
  <defs>
    <style>
      @import url("/assets/css/fonts.css");
      svg { font-size: 16px; font-family: "Inter", sans-serif; }
    </style>
  </defs>
  <g stroke-linecap="round" transform="translate(9.999999999999545 88.74726524195785) rotate(0 58.486854893352984 56.71452595719077)">
    <path d="M56.44 1 C64.91 0.1, 76.22 2.89, 84.54 6.62 C92.87 10.35, 101.04 16.41, 106.39 23.38 C111.75 30.35, 115.38 39.8, 116.67 48.44 C117.96 57.07, 117.31 66.91, 114.13 75.19 C110.95 83.46, 104.41 92.01, 97.6 98.1 C90.78 104.19, 81.97 109.51, 73.23 111.74 C64.49 113.97, 54.1 113.48, 45.17 111.49 C36.24 109.5, 26.34 105.43, 19.65 99.82 C12.96 94.22, 8.33 86.12, 5.03 77.88 C1.73 69.63, -0.89 59.01, -0.16 50.37 C0.58 41.73, 4.22 33.13, 9.45 26.02 C14.67 18.91, 22.71 11.92, 31.2 7.7 C39.7 3.47, 54.7 1.55, 60.41 0.69 C66.12 -0.17, 65.36 1.74, 65.47 2.51 M67 1.94 C75.4 2.6, 86.03 6.8, 93.45 12.07 C100.87 17.35, 107.86 25.83, 111.54 33.57 C115.22 41.31, 115.92 49.79, 115.54 58.51 C115.15 67.24, 113.39 78.29, 109.23 85.91 C105.07 93.53, 98.35 99.73, 90.6 104.23 C82.85 108.73, 71.98 112.36, 62.74 112.92 C53.51 113.48, 43.51 111.13, 35.2 107.59 C26.89 104.04, 18.75 98.04, 12.88 91.63 C7.02 85.23, 1.95 77.72, 0.01 69.15 C-1.93 60.58, -1.66 48.95, 1.24 40.23 C4.14 31.51, 11.13 23.11, 17.41 16.83 C23.69 10.55, 30.68 5.43, 38.92 2.53 C47.16 -0.37, 62.24 -0.66, 66.83 -0.59 C71.43 -0.52, 66.7 1.58, 66.51 2.95" stroke="none" stroke-width="0" fill="#8888ff"/>
    <path d="M38.54 2.8 C46.37 -0.53, 57.06 -0.04, 66.1 1.39 C75.14 2.82, 85.36 6.27, 92.8 11.38 C100.23 16.48, 106.59 24.27, 110.74 32.02 C114.88 39.76, 117.9 49.3, 117.66 57.86 C117.42 66.42, 113.72 75.7, 109.32 83.38 C104.91 91.06, 98.82 99.05, 91.22 103.95 C83.63 108.85, 72.86 111.85, 63.73 112.77 C54.61 113.69, 44.7 112.57, 36.48 109.46 C28.25 106.36, 20.18 100.92, 14.39 94.13 C8.61 87.35, 3.76 77.46, 1.75 68.73 C-0.26 60, -0.09 50.12, 2.34 41.76 C4.77 33.4, 9.51 25.13, 16.31 18.58 C23.12 12.03, 38.26 5.19, 43.15 2.45 C48.04 -0.28, 45.58 1.32, 45.67 2.17 M48.94 1.2 C57.14 -1.26, 67.19 -1.11, 75.82 1.23 C84.44 3.57, 94.39 8.53, 100.67 15.22 C106.96 21.91, 110.98 32.85, 113.53 41.36 C116.08 49.87, 117.68 57.77, 115.97 66.28 C114.25 74.8, 108.95 85.38, 103.24 92.46 C97.54 99.53, 89.66 105.51, 81.72 108.75 C73.78 112, 64.53 112.28, 55.59 111.91 C46.65 111.55, 35.96 110.78, 28.09 106.57 C20.22 102.37, 12.97 94.23, 8.36 86.67 C3.76 79.11, 1.09 69.93, 0.45 61.2 C-0.19 52.48, 0.96 42.5, 4.54 34.34 C8.12 26.18, 14.58 17.83, 21.92 12.25 C29.26 6.66, 44.27 2.33, 48.56 0.82 C52.84 -0.68, 47.38 2.03, 47.63 3.21" stroke="#ffffff" stroke-width="1" fill="none"/>
  </g>
  <g transform="translate(49.55540242504958 136.15856530303847) rotate(0 19.075000762939453 9.199999999999989)">
    <text x="19.075000762939453" y="0" fill="#ffffff" text-anchor="middle" style="white-space: pre;" direction="ltr" dominant-baseline="text-before-edge">Node</text>
  </g>
  <g stroke-linecap="round" transform="translate(310.28878912904247 10) rotate(0 58.486854893352984 56.71452595719077)">
    <path d="M61.62 0.69 C70.49 0.11, 81.1 3.45, 88.94 7.8 C96.78 12.14, 103.93 19.34, 108.68 26.78 C113.43 34.21, 116.98 43.64, 117.44 52.41 C117.9 61.18, 115.28 71.25, 111.44 79.42 C107.61 87.59, 101.54 96.02, 94.44 101.44 C87.35 106.86, 77.88 110.35, 68.88 111.93 C59.88 113.51, 48.9 113.38, 40.44 110.9 C31.98 108.42, 24.49 103.33, 18.13 97.05 C11.76 90.78, 5.17 81.53, 2.25 73.25 C-0.67 64.97, -1.21 55.81, 0.61 47.37 C2.43 38.93, 7.7 29.56, 13.15 22.62 C18.6 15.67, 23.87 9.14, 33.31 5.7 C42.75 2.27, 62.57 2.37, 69.79 2.02 C77.02 1.67, 76.82 2.7, 76.65 3.59 M54.5 0.79 C63.22 -0.59, 74.38 2.66, 82.46 6.03 C90.54 9.4, 97.38 14.18, 102.98 21.02 C108.59 27.86, 114.03 38.41, 116.08 47.06 C118.13 55.71, 118.03 64.71, 115.29 72.91 C112.54 81.12, 106.2 90.22, 99.61 96.31 C93.03 102.41, 84.42 106.95, 75.8 109.5 C67.18 112.05, 56.97 112.77, 47.92 111.62 C38.86 110.48, 28.74 107.99, 21.45 102.64 C14.16 97.29, 7.55 87.82, 4.17 79.54 C0.79 71.26, 0.66 61.69, 1.17 52.97 C1.67 44.24, 2.93 34.87, 7.22 27.21 C11.52 19.54, 19.23 11.31, 26.94 6.98 C34.65 2.64, 49.06 1.95, 53.49 1.21 C57.92 0.47, 53.11 1.66, 53.53 2.56" stroke="none" stroke-width="0" fill="#8888ff"/>
    <path d="M38.01 4.18 C45.89 0.75, 57.52 0.02, 66.59 1.19 C75.65 2.36, 84.94 6.19, 92.41 11.19 C99.88 16.18, 107.39 23.53, 111.42 31.16 C115.45 38.78, 116.76 48.15, 116.58 56.92 C116.4 65.7, 114.71 76.03, 110.34 83.8 C105.96 91.57, 97.97 98.63, 90.32 103.54 C82.67 108.45, 73.27 112.17, 64.44 113.27 C55.61 114.36, 45.67 113.45, 37.33 110.11 C28.99 106.76, 20.32 100.04, 14.4 93.21 C8.48 86.38, 3.76 77.57, 1.81 69.14 C-0.13 60.7, 0.35 50.99, 2.73 42.58 C5.11 34.18, 9.84 25.38, 16.09 18.68 C22.34 11.98, 35.75 5.01, 40.25 2.4 C44.75 -0.21, 42.74 2.03, 43.08 3.04 M48.03 -0.45 C56.32 -3.03, 68.35 -1.9, 76.88 1.21 C85.4 4.33, 92.93 11.88, 99.17 18.23 C105.42 24.59, 111.75 31.06, 114.34 39.33 C116.93 47.61, 116.5 59.06, 114.72 67.86 C112.94 76.66, 108.95 85.61, 103.66 92.15 C98.38 98.68, 91.15 103.35, 82.98 107.1 C74.81 110.85, 63.81 114.87, 54.65 114.65 C45.49 114.44, 35.67 110.41, 28.01 105.8 C20.35 101.19, 13.44 94.48, 8.68 86.99 C3.93 79.51, 0.13 69.81, -0.53 60.89 C-1.19 51.96, 0.76 41.64, 4.71 33.47 C8.66 25.29, 16 17.09, 23.15 11.86 C30.29 6.62, 43.21 3.47, 47.58 2.07 C51.94 0.67, 49.13 2.79, 49.35 3.44" stroke="#ffffff" stroke-width="1" fill="none"/>
  </g>
  <g transform="translate(349.8441915540925 57.411300061080624) rotate(0 19.075000762939453 9.199999999999989)">
    <text x="19.075000762939453" y="0" fill="#ffffff" text-anchor="middle" style="white-space: pre;" direction="ltr" dominant-baseline="text-before-edge">Node</text>
  </g>
  <g stroke-linecap="round" transform="translate(267.34634286154414 206.64682956755274) rotate(0 58.486854893352984 56.71452595719077)">
    <path d="M86.8 6.61 C94.85 9.69, 102.28 17.53, 107.35 24.76 C112.43 32, 116.39 41.28, 117.23 50.03 C118.07 58.77, 115.88 68.9, 112.4 77.22 C108.92 85.53, 103.2 94.21, 96.35 99.92 C89.5 105.62, 80.22 109.5, 71.3 111.44 C62.38 113.38, 51.38 113.68, 42.81 111.56 C34.25 109.43, 26.54 104.71, 19.91 98.7 C13.29 92.7, 6.33 83.68, 3.04 75.52 C-0.24 67.36, -1.21 58.23, 0.23 49.73 C1.66 41.23, 6.53 31.7, 11.68 24.54 C16.82 17.37, 23.1 10.66, 31.08 6.74 C39.07 2.82, 50.16 0.93, 59.6 1 C69.03 1.07, 82.82 5.65, 87.67 7.17 C92.52 8.69, 89.21 9.32, 88.71 10.11 M81.4 5.58 C89.47 7.85, 96.52 13.42, 102.26 20.15 C108 26.88, 113.63 37.34, 115.86 45.96 C118.08 54.57, 118.19 63.58, 115.62 71.84 C113.04 80.1, 106.87 89.29, 100.42 95.51 C93.97 101.73, 85.46 106.43, 76.9 109.15 C68.34 111.87, 58.14 112.78, 49.05 111.81 C39.97 110.84, 29.77 108.53, 22.37 103.32 C14.97 98.11, 8.21 88.76, 4.66 80.56 C1.12 72.35, 0.78 62.82, 1.11 54.09 C1.44 45.36, 2.5 35.93, 6.64 28.17 C10.78 20.42, 18.34 12.05, 25.96 7.57 C33.58 3.09, 43.34 1.6, 52.34 1.29 C61.34 0.99, 75.06 4.93, 79.95 5.76 C84.84 6.59, 81.9 5.43, 81.68 6.28" stroke="none" stroke-width="0" fill="#8888ff"/>
    <path d="M44.68 2.28 C52.92 -0.55, 63.59 0.28, 72.49 2.28 C81.38 4.28, 91.32 8.68, 98.05 14.29 C104.77 19.91, 109.66 27.76, 112.83 35.96 C115.99 44.17, 118.2 54.77, 117.05 63.55 C115.91 72.33, 111.24 81.37, 105.97 88.63 C100.7 95.9, 93.29 102.88, 85.44 107.12 C77.59 111.37, 67.85 114.24, 58.87 114.13 C49.89 114.02, 39.58 110.73, 31.54 106.48 C23.5 102.23, 15.69 95.72, 10.63 88.61 C5.58 81.5, 2.21 72.44, 1.2 63.81 C0.19 55.17, 1.57 45.09, 4.57 36.78 C7.57 28.48, 12.04 19.94, 19.19 13.96 C26.34 7.97, 42.21 2.89, 47.47 0.89 C52.72 -1.11, 50.56 0.91, 50.72 1.96 M64.73 -1.16 C73.26 -0.75, 82.1 5.74, 89.56 10.65 C97.01 15.56, 105.1 20.75, 109.46 28.29 C113.81 35.83, 115.55 46.93, 115.69 55.88 C115.82 64.83, 113.93 74.44, 110.26 81.98 C106.6 89.51, 100.9 95.71, 93.7 101.07 C86.49 106.43, 76.11 112.5, 67.03 114.14 C57.95 115.78, 47.7 113.85, 39.22 110.92 C30.74 108, 22.44 102.95, 16.15 96.58 C9.86 90.22, 4.04 81.36, 1.49 72.74 C-1.07 64.12, -1.31 53.63, 0.81 44.87 C2.94 36.11, 8.42 26.77, 14.23 20.2 C20.04 13.63, 27.23 8.53, 35.68 5.44 C44.13 2.35, 60.29 2.43, 64.93 1.67 C69.58 0.91, 63.82 0.03, 63.55 0.87" stroke="#ffffff" stroke-width="1" fill="none"/>
  </g>
  <g transform="translate(306.9017452865942 254.05812962863348) rotate(0 19.075000762939453 9.199999999999989)">
    <text x="19.075000762939453" y="0" fill="#ffffff" text-anchor="middle" style="white-space: pre;" direction="ltr" dominant-baseline="text-before-edge">Node</text>
  </g>
  <g stroke-linecap="round" transform="translate(519.6183712310744 417.395822211663) rotate(0 58.486854893352984 56.71452595719077)">
    <path d="M75.92 2.09 C84.44 3.68, 93.95 9.59, 100.27 15.79 C106.58 21.98, 111.2 30.73, 113.79 39.26 C116.37 47.78, 117.35 58.31, 115.77 66.93 C114.19 75.55, 109.96 84.09, 104.31 90.98 C98.65 97.88, 89.89 104.58, 81.85 108.32 C73.8 112.06, 65.01 114, 56.03 113.42 C47.05 112.84, 35.93 109.24, 27.97 104.83 C20 100.41, 12.75 94.2, 8.25 86.91 C3.75 79.62, 1.65 69.85, 0.96 61.07 C0.26 52.3, 0.49 42.24, 4.08 34.26 C7.67 26.29, 15.23 18.83, 22.5 13.21 C29.76 7.59, 37.71 1.82, 47.67 0.55 C57.63 -0.72, 75.66 4.31, 82.24 5.56 C88.82 6.81, 87.46 7.35, 87.15 8.05 M70.15 0.91 C78.72 1.9, 89.39 8.72, 96.65 14.45 C103.91 20.18, 110.45 27.32, 113.71 35.29 C116.98 43.26, 117.39 53.69, 116.25 62.29 C115.1 70.88, 111.84 79.65, 106.84 86.87 C101.83 94.08, 94.34 100.96, 86.24 105.57 C78.15 110.18, 67.48 114.36, 58.29 114.55 C49.09 114.74, 38.8 110.93, 31.09 106.69 C23.37 102.46, 17.25 96.23, 11.98 89.13 C6.71 82.04, 1.07 72.93, -0.53 64.1 C-2.13 55.27, -0.66 44.17, 2.39 36.15 C5.44 28.13, 11.12 21.48, 17.77 15.98 C24.42 10.49, 33.18 5.48, 42.3 3.19 C51.42 0.89, 67.69 2.12, 72.47 2.22 C77.26 2.31, 71.53 2.86, 71 3.76" stroke="none" stroke-width="0" fill="#8888ff"/>
    <path d="M81.75 5.33 C90.08 7.77, 99.16 14.53, 104.78 21.16 C110.41 27.78, 113.79 36.47, 115.5 45.08 C117.21 53.69, 117.68 64.35, 115.05 72.83 C112.43 81.3, 106.19 89.62, 99.75 95.95 C93.32 102.28, 84.87 107.9, 76.43 110.8 C67.99 113.69, 57.99 114.89, 49.13 113.32 C40.28 111.75, 30.53 106.87, 23.31 101.38 C16.08 95.89, 9.53 88.22, 5.79 80.38 C2.04 72.54, 0.36 63.02, 0.86 54.33 C1.36 45.64, 4.44 35.91, 8.8 28.24 C13.16 20.57, 19.51 12.99, 27.03 8.3 C34.56 3.6, 44.5 0.44, 53.97 0.08 C63.43 -0.29, 78.54 4.71, 83.8 6.12 C89.07 7.53, 85.87 7.76, 85.53 8.54 M32.3 7.11 C39.54 2.85, 51.48 -0.83, 60.46 -0.65 C69.44 -0.47, 78.42 3.66, 86.17 8.18 C93.93 12.69, 101.78 19.39, 106.99 26.43 C112.2 33.47, 116.53 41.49, 117.42 50.41 C118.31 59.34, 115.93 71.53, 112.31 79.98 C108.69 88.42, 102.59 95.52, 95.68 101.08 C88.78 106.64, 79.82 111.46, 70.86 113.31 C61.9 115.17, 50.78 114.76, 41.92 112.21 C33.06 109.66, 24.07 104.26, 17.7 98.04 C11.33 91.82, 6.62 83.04, 3.7 74.89 C0.77 66.73, -1.32 57.54, 0.15 49.12 C1.62 40.69, 7.09 31.67, 12.54 24.33 C17.99 17, 29.34 7.92, 32.84 5.11 C36.35 2.29, 33.06 6.75, 33.56 7.44" stroke="#ffffff" stroke-width="1" fill="none"/>
  </g>
  <g transform="translate(559.1737736561245 464.80712227274375) rotate(0 19.075000762939453 9.200000000000003)">
    <text x="19.075000762939453" y="0" fill="#ffffff" text-anchor="middle" style="white-space: pre;" direction="ltr" dominant-baseline="text-before-edge">Node</text>
  </g>
  <g stroke-linecap="round" transform="translate(626.9515013137625 262.27202836953) rotate(0 58.486854893352984 56.71452595719077)">
    <path d="M51.12 -0.14 C59.41 -2.1, 69.53 -0.12, 77.91 3.01 C86.28 6.14, 95.24 12.21, 101.37 18.67 C107.5 25.12, 112.48 33.3, 114.69 41.76 C116.9 50.22, 116.46 60.75, 114.63 69.41 C112.8 78.07, 109.54 87.17, 103.7 93.74 C97.86 100.32, 88.22 105.55, 79.61 108.88 C71 112.22, 60.82 114.49, 52.03 113.78 C43.24 113.06, 34.5 109.48, 26.85 104.59 C19.2 99.71, 10.58 92.13, 6.15 84.47 C1.72 76.8, 0.26 67.55, 0.27 58.59 C0.29 49.63, 2.14 38.59, 6.24 30.72 C10.33 22.85, 15.98 16.58, 24.84 11.36 C33.71 6.14, 52.05 0.99, 59.44 -0.59 C66.82 -2.18, 69.08 0.76, 69.16 1.83 M80.11 4.78 C88.81 7.09, 97.87 12.8, 103.7 19.27 C109.52 25.74, 113.22 35.17, 115.06 43.59 C116.9 52.01, 117.01 61.38, 114.74 69.78 C112.47 78.18, 107.68 87.11, 101.43 94 C95.19 100.9, 85.93 108.11, 77.28 111.15 C68.63 114.19, 58.14 113.71, 49.53 112.24 C40.93 110.78, 33.04 107.41, 25.66 102.36 C18.27 97.32, 9.69 89.94, 5.24 81.98 C0.78 74.02, -1.18 63.12, -1.07 54.58 C-0.96 46.04, 1.58 38.02, 5.88 30.74 C10.17 23.46, 16.81 15.83, 24.69 10.89 C32.58 5.95, 44.02 2.06, 53.19 1.11 C62.36 0.16, 75.48 4.43, 79.72 5.2 C83.96 5.97, 78.98 5.25, 78.64 5.71" stroke="none" stroke-width="0" fill="#8888ff"/>
    <path d="M78.05 3 C86.43 4.67, 94.33 10.59, 100.53 16.95 C106.74 23.31, 112.85 32.66, 115.28 41.17 C117.71 49.69, 117.1 59.39, 115.12 68.02 C113.15 76.66, 109.02 86.05, 103.42 93 C97.83 99.95, 89.84 106.43, 81.56 109.73 C73.28 113.03, 62.8 113.73, 53.75 112.81 C44.7 111.89, 34.81 108.84, 27.26 104.22 C19.71 99.61, 12.86 92.67, 8.45 85.12 C4.03 77.57, 1.31 67.8, 0.77 58.92 C0.23 50.04, 1.45 39.81, 5.22 31.84 C8.98 23.87, 16.05 16.23, 23.36 11.09 C30.68 5.96, 38.94 1.78, 49.1 1.04 C59.26 0.3, 77.32 5.02, 84.31 6.64 C91.3 8.26, 91.55 9.94, 91.03 10.77 M31.95 5.47 C39.16 0.82, 49.06 0.46, 58 0.75 C66.94 1.03, 77.32 3.33, 85.61 7.16 C93.89 10.99, 102.57 16.24, 107.72 23.71 C112.87 31.18, 115.67 42.89, 116.52 51.96 C117.37 61.04, 116.09 70.04, 112.84 78.17 C109.59 86.3, 103.99 94.97, 97.03 100.76 C90.08 106.54, 80.07 111.05, 71.1 112.89 C62.14 114.73, 51.78 114.18, 43.22 111.79 C34.65 109.4, 26.41 104.31, 19.71 98.56 C13 92.81, 6 85.29, 2.98 77.29 C-0.05 69.29, 0.28 59.54, 1.54 50.56 C2.8 41.57, 5.47 30.64, 10.53 23.37 C15.6 16.1, 28.25 9.9, 31.94 6.95 C35.64 4, 32 5.02, 32.7 5.69" stroke="#ffffff" stroke-width="1" fill="none"/>
  </g>
  <g transform="translate(666.5069037388125 309.68332843061074) rotate(0 19.075000762939453 9.199999999999989)">
    <text x="19.075000762939453" y="0" fill="#ffffff" text-anchor="middle" style="white-space: pre;" direction="ltr" dominant-baseline="text-before-edge">Node</text>
  </g>
  <g stroke-linecap="round" transform="translate(163.14702679586935 374.3058794777371) rotate(0 58.486854893352984 56.71452595719077)">
    <path d="M46.1 0.82 C54.21 -1.55, 65.53 0.01, 74.26 2.39 C82.99 4.78, 92.02 9.11, 98.48 15.13 C104.94 21.16, 109.93 30.11, 113.04 38.53 C116.14 46.96, 118.44 57.09, 117.09 65.69 C115.74 74.28, 110.52 82.93, 104.91 90.07 C99.31 97.21, 91.4 104.52, 83.45 108.52 C75.5 112.53, 66.35 114.43, 57.19 114.1 C48.02 113.77, 36.42 110.87, 28.46 106.56 C20.5 102.24, 14.15 95.78, 9.44 88.2 C4.72 80.62, 0.92 69.86, 0.16 61.07 C-0.59 52.29, 1.41 43.62, 4.92 35.49 C8.42 27.37, 13.13 18.2, 21.2 12.31 C29.26 6.43, 47.02 2, 53.32 0.16 C59.62 -1.68, 58.9 0.46, 58.99 1.27 M49.19 0.43 C57.43 -2.04, 67.39 -0.18, 75.82 2.34 C84.25 4.87, 93.38 9.42, 99.77 15.57 C106.16 21.72, 111.65 30.45, 114.15 39.26 C116.66 48.06, 116.6 59.74, 114.78 68.41 C112.96 77.08, 108.48 84.7, 103.22 91.29 C97.96 97.89, 91.52 104.4, 83.24 108.01 C74.95 111.61, 62.91 113.64, 53.51 112.93 C44.11 112.21, 34.59 108.09, 26.85 103.74 C19.1 99.39, 11.71 93.95, 7.04 86.85 C2.37 79.74, -1.03 69.92, -1.17 61.1 C-1.3 52.27, 2.3 41.91, 6.23 33.91 C10.17 25.9, 15.57 18.47, 22.42 13.08 C29.28 7.69, 43.05 3.61, 47.37 1.55 C51.7 -0.51, 48.17 0.13, 48.37 0.73" stroke="none" stroke-width="0" fill="#8888ff"/>
    <path d="M75.66 1.89 C84.1 3.58, 94.12 10.34, 100.48 16.63 C106.83 22.92, 111.22 31.18, 113.78 39.62 C116.34 48.05, 117.33 58.42, 115.85 67.24 C114.37 76.06, 110.44 85.71, 104.91 92.52 C99.38 99.33, 90.96 104.66, 82.67 108.09 C74.37 111.52, 64.09 113.5, 55.13 113.08 C46.16 112.65, 36.55 110, 28.88 105.52 C21.2 101.04, 13.98 93.82, 9.08 86.19 C4.19 78.56, 0.2 68.56, -0.49 59.74 C-1.18 50.91, 1.17 41.12, 4.95 33.22 C8.72 25.32, 15.05 17.61, 22.19 12.33 C29.32 7.05, 37.72 2.8, 47.75 1.54 C57.78 0.28, 75.89 3.5, 82.34 4.79 C88.8 6.07, 87.07 8.47, 86.49 9.25 M85.11 7.6 C92.97 11.01, 100.96 18.51, 106.33 25.45 C111.69 32.39, 116.23 40.33, 117.3 49.24 C118.38 58.15, 116.21 70.37, 112.77 78.89 C109.32 87.4, 103.4 94.63, 96.61 100.32 C89.83 106.01, 80.97 111.02, 72.05 113.06 C63.13 115.09, 52 114.89, 43.09 112.52 C34.18 110.15, 25.08 104.93, 18.59 98.84 C12.09 92.75, 7.2 84.09, 4.1 76 C1 67.9, -1.31 58.73, -0.03 50.28 C1.26 41.83, 6.53 32.73, 11.82 25.29 C17.12 17.84, 23.85 9.71, 31.75 5.63 C39.66 1.55, 50.1 0.85, 59.23 0.81 C68.36 0.77, 81.86 4.26, 86.54 5.39 C91.22 6.52, 87.65 6.43, 87.31 7.6" stroke="#ffffff" stroke-width="1" fill="none"/>
  </g>
  <g transform="translate(202.70242922091984 421.71717953881785) rotate(0 19.075000762939453 9.200000000000003)">
    <text x="19.075000762939453" y="0" fill="#ffffff" text-anchor="middle" style="white-space: pre;" direction="ltr" dominant-baseline="text-before-edge">Node</text>
  </g>
  <g mask="url(#mask-zSxwzdfp1ECJoq_7zknET)" stroke-linecap="round">
    <g transform="translate(136.60364791299253 130.03104577778868) rotate(0 80.93565039496934 -22.009112556096625)">
      <path d="M0.73 0.84 C27.57 -6.55, 135.12 -37.11, 161.83 -44.48 M-0.34 0.24 C26.27 -6.99, 133.56 -35.57, 160.86 -43.18" stroke="#ff80b3" stroke-width="1" fill="none"/>
    </g>
    <g transform="translate(136.60364791299253 130.03104577778868) rotate(0 80.93565039496934 -22.009112556096625)">
      <path d="M161.63 -43.32 L148.66 -31.93 L147.43 -43.83 L160.51 -43.86" stroke="none" stroke-width="0" fill="#ff80b3" fill-rule="evenodd"/>
      <path d="M160.86 -43.18 C157.71 -39.62, 151.9 -37.12, 149.4 -33.5 M160.86 -43.18 C156.54 -39.95, 152.9 -36.07, 149.4 -33.5 M149.4 -33.5 C148.56 -38.35, 147.9 -42.13, 146.08 -45.73 M149.4 -33.5 C147.97 -38.26, 146.84 -42.88, 146.08 -45.73 M146.08 -45.73 C151.32 -45.07, 154.66 -43.3, 160.86 -43.18 M146.08 -45.73 C149.09 -45.7, 151.52 -44.46, 160.86 -43.18 M160.86 -43.18 C160.86 -43.18, 160.86 -43.18, 160.86 -43.18 M160.86 -43.18 C160.86 -43.18, 160.86 -43.18, 160.86 -43.18" stroke="#ff80b3" stroke-width="1" fill="none"/>
    </g>
  </g>
  <mask id="mask-zSxwzdfp1ECJoq_7zknET">
    <rect x="0" y="0" fill="#fff" width="398.47494870293104" height="274.0492708899819"/>
    <rect x="200.25179792649215" y="98.821933221692" fill="#000" width="34.57500076293945" height="18.4" opacity="1"/>
  </mask>
  <g transform="translate(200.25179792649215 98.821933221692) rotate(0 17.09504276057214 9.390390547365001)">
    <text x="17.287500381469727" y="0" fill="#ff80b3" text-anchor="middle" style="white-space: pre;" direction="ltr" dominant-baseline="text-before-edge">fetch</text>
  </g>
  <g mask="url(#mask-8edb0N0xMd1y8xEyjyNZy)" stroke-linecap="round">
    <g transform="translate(613.5568552447585 310.90467441845533) rotate(0 -106.70178824522327 -23.18423847249062)">
      <path d="M-0.04 -0.46 C-35.88 -8.22, -178.7 -37.98, -214.28 -45.75 M-1.52 -1.75 C-37.05 -9.94, -176.55 -40.14, -212.02 -47.54" stroke="#ff80b3" stroke-width="1" fill="none"/>
    </g>
    <g transform="translate(613.5568552447585 310.90467441845533) rotate(0 -106.70178824522327 -23.18423847249062)">
      <path d="M-0.78 1.11 L-13.3 4.84 L-12.39 -10.15 L-0.11 0.61" stroke="none" stroke-width="0" fill="#ff80b3" fill-rule="evenodd"/>
      <path d="M-0.04 -0.46 C-5.87 -0.33, -9.79 1.84, -14.65 2.94 M-0.04 -0.46 C-3.46 0.7, -6.56 1.4, -14.65 2.94 M-14.65 2.94 C-13.01 0.17, -12.41 -3.14, -12.04 -9.47 M-14.65 2.94 C-14.04 -0.28, -13.13 -3.27, -12.04 -9.47 M-12.04 -9.47 C-9 -5.37, -4.69 -3.71, -0.04 -0.46 M-12.04 -9.47 C-7.88 -5.44, -2.83 -2.06, -0.04 -0.46 M-0.04 -0.46 C-0.04 -0.46, -0.04 -0.46, -0.04 -0.46 M-0.04 -0.46 C-0.04 -0.46, -0.04 -0.46, -0.04 -0.46" stroke="#ff80b3" stroke-width="1" fill="none"/>
    </g>
  </g>
  <mask id="mask-8edb0N0xMd1y8xEyjyNZy">
    <rect x="0" y="0" fill="#fff" width="926.960431735205" height="457.27315136343657"/>
    <rect x="489.5675666180655" y="278.5204359459647" fill="#000" width="34.57500076293945" height="18.4" opacity="1"/>
  </mask>
  <g transform="translate(489.5675666180655 278.5204359459646) rotate(0 16.829612234980004 8.38330388026776)">
    <text x="17.287500381469727" y="0" fill="#ff80b3" text-anchor="middle" style="white-space: pre;" direction="ltr" dominant-baseline="text-before-edge">fetch</text>
  </g>
  <g mask="url(#mask-EoBwFsRtk4rVGTzQtcBdH)" stroke-linecap="round">
    <g transform="translate(337.4337469730767 194.7486705293428) rotate(0 8.315885347008134 -30.177537520577005)">
      <path d="M-0.87 0.62 C1.89 -9.48, 13.67 -50.88, 16.52 -61.07" stroke="#8888ff" stroke-width="1.5" fill="none" stroke-dasharray="8 9"/>
    </g>
  </g>
  <mask id="mask-EoBwFsRtk4rVGTzQtcBdH">
    <rect x="0" y="0" fill="#fff" width="454.065517667093" height="355.1037455704968"/>
    <rect x="322.68713232008486" y="155.3711330087658" fill="#000" width="46.125" height="18.4" opacity="1"/>
  </mask>
  <g transform="translate(322.68713232008486 155.3711330087658) rotate(0 22.567419198900552 9.154650124162401)">
    <text x="23.0625" y="0" fill="#8888ff" text-anchor="middle" style="white-space: pre;" direction="ltr" dominant-baseline="text-before-edge">gossip</text>
  </g>
  <g stroke-linecap="round">
    <g transform="translate(93.16964826070762 217.08136793988575) rotate(0 42.225571594457506 80.38758103934502)">
      <path d="M-0.12 -0.71 C14.03 25.95, 69.88 133.6, 84 160.61" stroke="#8888ff" stroke-width="1.5" fill="none" stroke-dasharray="8 9"/>
    </g>
  </g>
  <mask/>
  <g mask="url(#mask-FX5PDo1N7GMKcZQ1J8pW_)" stroke-linecap="round">
    <g transform="translate(198.8371034355505 357.69961233492484) rotate(0 -41.43001101616528 -78.43234415949462)">
      <path d="M-0.45 -0.17 C-14.21 -26.1, -69.09 -130.23, -82.68 -156.29 M1.51 -1.3 C-12.38 -27.52, -69.56 -131.89, -83.54 -158.1" stroke="#ff80b3" stroke-width="1" fill="none"/>
    </g>
    <g transform="translate(198.8371034355505 357.69961233492484) rotate(0 -41.43001101616528 -78.43234415949462)">
      <path d="M-83.61 -157.04 L-71.27 -151.13 L-80.65 -143.47 L-82.35 -157.33" stroke="none" stroke-width="0" fill="#ff80b3" fill-rule="evenodd"/>
      <path d="M-83.54 -158.1 C-80.3 -155.24, -75.87 -151.82, -71.49 -149.17 M-83.54 -158.1 C-79.75 -154.58, -75.3 -151.65, -71.49 -149.17 M-71.49 -149.17 C-75.52 -147.31, -79.28 -144.79, -82.64 -143.13 M-71.49 -149.17 C-74.44 -148.12, -77.01 -146.55, -82.64 -143.13 M-82.64 -143.13 C-83.7 -148.08, -82.49 -151.25, -83.54 -158.1 M-82.64 -143.13 C-83.06 -147.27, -83.31 -152.42, -83.54 -158.1 M-83.54 -158.1 C-83.54 -158.1, -83.54 -158.1, -83.54 -158.1 M-83.54 -158.1 C-83.54 -158.1, -83.54 -158.1, -83.54 -158.1" stroke="#ff80b3" stroke-width="1" fill="none"/>
    </g>
  </g>
  <mask id="mask-FX5PDo1N7GMKcZQ1J8pW_">
    <rect x="0" y="0" fill="#fff" width="381.69712546788105" height="614.5643006539141"/>
    <rect x="140.11959203791548" y="270.06726817543023" fill="#000" width="34.57500076293945" height="18.4" opacity="1"/>
  </mask>
  <g transform="translate(140.11959203791548 270.0672681754301) rotate(0 17.704039723677624 8.497149785035276)">
    <text x="17.287500381469727" y="0" fill="#ff80b3" text-anchor="middle" style="white-space: pre;" direction="ltr" dominant-baseline="text-before-edge">fetch</text>
  </g>
  <g mask="url(#mask-KQWjxgPB8cljw5SK97v7v)" stroke-linecap="round">
    <g transform="translate(289.9104054978775 446.172279802175) rotate(0 104.98288277988581 14.493891876149746)">
      <path d="M0.18 0.58 C35.39 5.5, 175.92 24.58, 210.81 29.38" stroke="#8888ff" stroke-width="1.5" fill="none" stroke-dasharray="8 9"/>
    </g>
    <g transform="translate(289.9104054978775 446.172279802175) rotate(0 104.98288277988581 14.493891876149746)">
      <path d="M210.75 28.47 L194.79 34.81 L197.2 21.67 L211.69 27.5" stroke="none" stroke-width="0" fill="#8888ff" fill-rule="evenodd"/>
      <path d="M210.81 29.38 C207.77 31.62, 203.77 31.12, 196.48 33.82 M196.48 33.82 C197.53 30.54, 198 24.68, 198.2 21.26 M198.2 21.26 C201.11 24.05, 204.59 26.71, 210.81 29.38 M210.81 29.38 C210.81 29.38, 210.81 29.38, 210.81 29.38" stroke="#8888ff" stroke-width="1.5" fill="none"/>
    </g>
  </g>
  <mask id="mask-KQWjxgPB8cljw5SK97v7v">
    <rect x="0" y="0" fill="#fff" width="599.8761710576491" height="575.1600635544745"/>
    <rect x="371.83078827776353" y="451.46617167832477" fill="#000" width="46.125" height="18.4" opacity="1"/>
  </mask>
  <g transform="translate(371.83078827776353 451.4661716783249) rotate(0 23.571635607629787 9.684915908426035)">
    <text x="23.0625" y="0" fill="#8888ff" text-anchor="middle" style="white-space: pre;" direction="ltr" dominant-baseline="text-before-edge">gossip</text>
  </g>
  <g mask="url(#mask-yMAqHfG9whOVzOfrKMWlb)" stroke-linecap="round">
    <g transform="translate(371.38774017152673 324.73656797418676) rotate(0 75.99657814920738 49.75000523760215)">
      <path d="M0.84 0.39 C26.06 16.94, 126.36 83.23, 151.5 99.9" stroke="#8888ff" stroke-width="1.5" fill="none" stroke-dasharray="8 9"/>
    </g>
    <g transform="translate(371.38774017152673 324.73656797418676) rotate(0 75.99657814920738 49.75000523760215)">
      <path d="M-0.84 1.38 L14.69 3 L9.58 11.29 L0.69 2.17" stroke="none" stroke-width="0" fill="#8888ff" fill-rule="evenodd"/>
      <path d="M0.84 0.39 C6.01 0.37, 10.69 1.31, 15.68 2.59 M15.68 2.59 C13.41 5.91, 10.11 10.31, 8.7 13.17 M8.7 13.17 C5.91 10.42, 4.42 5.61, 0.84 0.39 M0.84 0.39 C0.84 0.39, 0.84 0.39, 0.84 0.39" stroke="#8888ff" stroke-width="1.5" fill="none"/>
    </g>
  </g>
  <mask id="mask-yMAqHfG9whOVzOfrKMWlb">
    <rect x="0" y="0" fill="#fff" width="623.3808964699415" height="524.2365784493911"/>
    <rect x="424.3218183207341" y="365.2865732117889" fill="#000" width="46.125" height="18.4" opacity="1"/>
  </mask>
  <g transform="translate(424.3218183207341 365.28657321178883) rotate(0 23.23831563368458 9.596453579515213)">
    <text x="23.0625" y="0" fill="#8888ff" text-anchor="middle" style="white-space: pre;" direction="ltr" dominant-baseline="text-before-edge">gossip</text>
  </g>
  <g stroke-linecap="round">
    <g transform="translate(291.44262447873916 327.85196404020223) rotate(0 -14.48643241814193 21.54863026497472)">
      <path d="M-0.49 0.4 C-5.51 7.68, -24.58 36.78, -29.26 44.04" stroke="#1971c2" stroke-width="1.5" fill="none" stroke-dasharray="8 9"/>
    </g>
  </g>
  <mask/>
  <g stroke-linecap="round">
    <g transform="translate(618.1515385033836 416.38509054872736) rotate(0 17.633369809143005 -19.58258118992751)">
      <path d="M-0.29 0.95 C5.74 -5.5, 29.71 -31.48, 35.69 -38.29" stroke="#8888ff" stroke-width="1.5" fill="none" stroke-dasharray="8 9"/>
    </g>
  </g>
  <mask/>
  <g stroke-linecap="round">
    <g transform="translate(397.24292749635015 291.04844404416406) rotate(0 108.11723831068298 23.89541939863892)">
      <path d="M0.42 0.88 C36.56 8.57, 180.64 39.32, 216.56 47.09" stroke="#8888ff" stroke-width="1.5" fill="none" stroke-dasharray="8 9"/>
    </g>
  </g>
  <mask/>
  <g stroke-linecap="round">
    <g transform="translate(133.85460614113572 106.9372580866725) rotate(0 75.6039044712877 -20.761693973980528)">
      <path d="M0.33 -0.7 C25.41 -7.83, 125.78 -34.98, 150.92 -41.85" stroke="#8888ff" stroke-width="1.5" fill="none" stroke-dasharray="8 9"/>
    </g>
  </g>
  <mask/>
  <g stroke-linecap="round">
    <g transform="translate(516.3493971183293 73.41312426332206) rotate(0 27.70338997193403 0)">
      <path d="M-0.29 -0.33 C8.87 -0.28, 45.97 -0.42, 55.32 -0.43" stroke="#8888ff" stroke-width="1.5" fill="none" stroke-dasharray="8 9"/>
    </g>
  </g>
  <mask/>
  <g transform="translate(599.177519990882 64.21312459557089) rotate(0 24.825000762939453 9.199999999999989)">
    <text x="0" y="0" fill="#8888ff" text-anchor="start" style="white-space: pre;" direction="ltr" dominant-baseline="text-before-edge">Gossip</text>
  </g>
  <g stroke-linecap="round">
    <g transform="translate(575.1806302259693 106.55716122893216) rotate(0 -30.59614681953599 0)">
      <path d="M0.43 -0.43 C-9.62 -0.32, -50.14 0.33, -60.42 0.22 M-0.8 -1.7 C-10.94 -1.94, -50.75 -2.01, -60.97 -1.78" stroke="#ff80b3" stroke-width="1" fill="none"/>
    </g>
    <g transform="translate(575.1806302259693 106.55716122893216) rotate(0 -30.59614681953599 0)">
      <path d="M-0.63 -2.14 L-13.12 7.76 L-13.07 -7.52 L-0.65 -1.04" stroke="none" stroke-width="0" fill="#ff80b3" fill-rule="evenodd"/>
      <path d="M0.43 -0.43 C-4.08 2.49, -7.23 3.34, -13.08 6.09 M0.43 -0.43 C-2.78 1.56, -5.23 1.84, -13.08 6.09 M-13.08 6.09 C-12.92 3.91, -14.4 0.52, -13.24 -6.59 M-13.08 6.09 C-12.99 1.62, -13.46 -3.39, -13.24 -6.59 M-13.24 -6.59 C-9.71 -5.56, -4.81 -2.36, 0.43 -0.43 M-13.24 -6.59 C-7.88 -3.71, -2.36 -2.41, 0.43 -0.43 M0.43 -0.43 C0.43 -0.43, 0.43 -0.43, 0.43 -0.43 M0.43 -0.43 C0.43 -0.43, 0.43 -0.43, 0.43 -0.43" stroke="#ff80b3" stroke-width="1" fill="none"/>
    </g>
  </g>
  <mask/>
  <g transform="translate(599.1775200738534 97.35716109035195) rotate(0 29.6875 9.199999999999989)">
    <text x="0" y="0" fill="#ff80b3" text-anchor="start" style="white-space: pre;" direction="ltr" dominant-baseline="text-before-edge">Git fetch</text>
  </g>
</svg>
