<svg xmlns="http://www.w3.org/2000/svg" version="1.1" viewBox="0 0 753.9252111004685 540.8248741260445" width="753.9252111004685" height="540.8248741260445">
  <defs>
    <style>
      @import url("/assets/css/fonts.css");
      svg { font-size: 16px; font-family: "Inter", sans-serif; }
    </style>
  </defs>
  <g stroke-linecap="round" transform="translate(10 88.74726524195782) rotate(0 58.486854893352984 56.71452595719077)">
    <path d="M116.97 56.71 C116.97 58.99, 116.83 61.29, 116.55 63.55 C116.26 65.81, 115.84 68.07, 115.27 70.29 C114.71 72.5, 114.01 74.7, 113.17 76.83 C112.34 78.96, 111.37 81.05, 110.27 83.07 C109.18 85.09, 107.96 87.06, 106.62 88.93 C105.29 90.81, 103.82 92.62, 102.26 94.32 C100.71 96.03, 99.03 97.65, 97.27 99.17 C95.51 100.68, 93.65 102.1, 91.71 103.39 C89.78 104.68, 87.75 105.87, 85.67 106.93 C83.59 107.99, 81.42 108.94, 79.23 109.74 C77.03 110.55, 74.77 111.24, 72.48 111.78 C70.2 112.33, 67.87 112.74, 65.54 113.02 C63.2 113.29, 60.84 113.43, 58.49 113.43 C56.14 113.43, 53.77 113.29, 51.44 113.02 C49.1 112.74, 46.77 112.33, 44.49 111.78 C42.21 111.24, 39.94 110.55, 37.75 109.74 C35.55 108.94, 33.39 107.99, 31.31 106.93 C29.23 105.87, 27.2 104.68, 25.26 103.39 C23.33 102.1, 21.46 100.68, 19.7 99.17 C17.94 97.65, 16.27 96.03, 14.71 94.32 C13.15 92.62, 11.69 90.81, 10.35 88.93 C9.02 87.06, 7.79 85.09, 6.7 83.07 C5.61 81.05, 4.63 78.96, 3.8 76.83 C2.97 74.7, 2.26 72.5, 1.7 70.29 C1.14 68.07, 0.71 65.81, 0.43 63.55 C0.14 61.29, 0 58.99, 0 56.71 C0 54.44, 0.14 52.14, 0.43 49.88 C0.71 47.62, 1.14 45.35, 1.7 43.14 C2.26 40.93, 2.97 38.73, 3.8 36.6 C4.63 34.47, 5.61 32.38, 6.7 30.36 C7.79 28.34, 9.02 26.37, 10.35 24.5 C11.69 22.62, 13.15 20.81, 14.71 19.11 C16.27 17.4, 17.94 15.77, 19.7 14.26 C21.46 12.75, 23.33 11.33, 25.26 10.04 C27.2 8.74, 29.23 7.56, 31.31 6.5 C33.39 5.44, 35.55 4.49, 37.75 3.69 C39.94 2.88, 42.21 2.19, 44.49 1.65 C46.77 1.1, 49.1 0.69, 51.44 0.41 C53.77 0.14, 56.14 0, 58.49 0 C60.84 0, 63.2 0.14, 65.54 0.41 C67.87 0.69, 70.2 1.1, 72.48 1.65 C74.77 2.19, 77.03 2.88, 79.23 3.69 C81.42 4.49, 83.59 5.44, 85.67 6.5 C87.75 7.56, 89.78 8.74, 91.71 10.04 C93.65 11.33, 95.51 12.75, 97.27 14.26 C99.03 15.77, 100.71 17.4, 102.26 19.11 C103.82 20.81, 105.29 22.62, 106.62 24.5 C107.96 26.37, 109.18 28.34, 110.27 30.36 C111.37 32.38, 112.34 34.47, 113.17 36.6 C114.01 38.73, 114.71 40.93, 115.27 43.14 C115.84 45.35, 116.26 47.62, 116.55 49.88 C116.83 52.14, 116.97 54.44, 116.97 56.71" stroke="none" stroke-width="0" fill="#8888ff"/>
    <path d="M116.97 56.71 C116.97 58.99, 116.83 61.29, 116.55 63.55 C116.26 65.81, 115.84 68.07, 115.27 70.29 C114.71 72.5, 114.01 74.7, 113.17 76.83 C112.34 78.96, 111.37 81.05, 110.27 83.07 C109.18 85.09, 107.96 87.06, 106.62 88.93 C105.29 90.81, 103.82 92.62, 102.26 94.32 C100.71 96.03, 99.03 97.65, 97.27 99.17 C95.51 100.68, 93.65 102.1, 91.71 103.39 C89.78 104.68, 87.75 105.87, 85.67 106.93 C83.59 107.99, 81.42 108.94, 79.23 109.74 C77.03 110.55, 74.77 111.24, 72.48 111.78 C70.2 112.33, 67.87 112.74, 65.54 113.02 C63.2 113.29, 60.84 113.43, 58.49 113.43 C56.14 113.43, 53.77 113.29, 51.44 113.02 C49.1 112.74, 46.77 112.33, 44.49 111.78 C42.21 111.24, 39.94 110.55, 37.75 109.74 C35.55 108.94, 33.39 107.99, 31.31 106.93 C29.23 105.87, 27.2 104.68, 25.26 103.39 C23.33 102.1, 21.46 100.68, 19.7 99.17 C17.94 97.65, 16.27 96.03, 14.71 94.32 C13.15 92.62, 11.69 90.81, 10.35 88.93 C9.02 87.06, 7.79 85.09, 6.7 83.07 C5.61 81.05, 4.63 78.96, 3.8 76.83 C2.97 74.7, 2.26 72.5, 1.7 70.29 C1.14 68.07, 0.71 65.81, 0.43 63.55 C0.14 61.29, 0 58.99, 0 56.71 C0 54.44, 0.14 52.14, 0.43 49.88 C0.71 47.62, 1.14 45.35, 1.7 43.14 C2.26 40.93, 2.97 38.73, 3.8 36.6 C4.63 34.47, 5.61 32.38, 6.7 30.36 C7.79 28.34, 9.02 26.37, 10.35 24.5 C11.69 22.62, 13.15 20.81, 14.71 19.11 C16.27 17.4, 17.94 15.77, 19.7 14.26 C21.46 12.75, 23.33 11.33, 25.26 10.04 C27.2 8.74, 29.23 7.56, 31.31 6.5 C33.39 5.44, 35.55 4.49, 37.75 3.69 C39.94 2.88, 42.21 2.19, 44.49 1.65 C46.77 1.1, 49.1 0.69, 51.44 0.41 C53.77 0.14, 56.14 0, 58.49 0 C60.84 0, 63.2 0.14, 65.54 0.41 C67.87 0.69, 70.2 1.1, 72.48 1.65 C74.77 2.19, 77.03 2.88, 79.23 3.69 C81.42 4.49, 83.59 5.44, 85.67 6.5 C87.75 7.56, 89.78 8.74, 91.71 10.04 C93.65 11.33, 95.51 12.75, 97.27 14.26 C99.03 15.77, 100.71 17.4, 102.26 19.11 C103.82 20.81, 105.29 22.62, 106.62 24.5 C107.96 26.37, 109.18 28.34, 110.27 30.36 C111.37 32.38, 112.34 34.47, 113.17 36.6 C114.01 38.73, 114.71 40.93, 115.27 43.14 C115.84 45.35, 116.26 47.62, 116.55 49.88 C116.83 52.14, 116.97 54.44, 116.97 56.71" stroke="#ffffff" stroke-width="1" fill="none"/>
  </g>
  <g transform="translate(49.55540242505003 136.15856530303853) rotate(0 19.075000762939453 9.200000000000003)">
    <text x="19.075000762939453" y="0" fill="#ffffff" text-anchor="middle" style="white-space: pre;" direction="ltr" dominant-baseline="text-before-edge">Node</text>
  </g>
  <g stroke-linecap="round" transform="translate(310.2887891290429 10) rotate(0 58.486854893352984 56.71452595719077)">
    <path d="M116.97 56.71 C116.97 58.99, 116.83 61.29, 116.55 63.55 C116.26 65.81, 115.84 68.07, 115.27 70.29 C114.71 72.5, 114.01 74.7, 113.17 76.83 C112.34 78.96, 111.37 81.05, 110.27 83.07 C109.18 85.09, 107.96 87.06, 106.62 88.93 C105.29 90.81, 103.82 92.62, 102.26 94.32 C100.71 96.03, 99.03 97.65, 97.27 99.17 C95.51 100.68, 93.65 102.1, 91.71 103.39 C89.78 104.68, 87.75 105.87, 85.67 106.93 C83.59 107.99, 81.42 108.94, 79.23 109.74 C77.03 110.55, 74.77 111.24, 72.48 111.78 C70.2 112.33, 67.87 112.74, 65.54 113.02 C63.2 113.29, 60.84 113.43, 58.49 113.43 C56.14 113.43, 53.77 113.29, 51.44 113.02 C49.1 112.74, 46.77 112.33, 44.49 111.78 C42.21 111.24, 39.94 110.55, 37.75 109.74 C35.55 108.94, 33.39 107.99, 31.31 106.93 C29.23 105.87, 27.2 104.68, 25.26 103.39 C23.33 102.1, 21.46 100.68, 19.7 99.17 C17.94 97.65, 16.27 96.03, 14.71 94.32 C13.15 92.62, 11.69 90.81, 10.35 88.93 C9.02 87.06, 7.79 85.09, 6.7 83.07 C5.61 81.05, 4.63 78.96, 3.8 76.83 C2.97 74.7, 2.26 72.5, 1.7 70.29 C1.14 68.07, 0.71 65.81, 0.43 63.55 C0.14 61.29, 0 58.99, 0 56.71 C0 54.44, 0.14 52.14, 0.43 49.88 C0.71 47.62, 1.14 45.35, 1.7 43.14 C2.26 40.93, 2.97 38.73, 3.8 36.6 C4.63 34.47, 5.61 32.38, 6.7 30.36 C7.79 28.34, 9.02 26.37, 10.35 24.5 C11.69 22.62, 13.15 20.81, 14.71 19.11 C16.27 17.4, 17.94 15.77, 19.7 14.26 C21.46 12.75, 23.33 11.33, 25.26 10.04 C27.2 8.74, 29.23 7.56, 31.31 6.5 C33.39 5.44, 35.55 4.49, 37.75 3.69 C39.94 2.88, 42.21 2.19, 44.49 1.65 C46.77 1.1, 49.1 0.69, 51.44 0.41 C53.77 0.14, 56.14 0, 58.49 0 C60.84 0, 63.2 0.14, 65.54 0.41 C67.87 0.69, 70.2 1.1, 72.48 1.65 C74.77 2.19, 77.03 2.88, 79.23 3.69 C81.42 4.49, 83.59 5.44, 85.67 6.5 C87.75 7.56, 89.78 8.74, 91.71 10.04 C93.65 11.33, 95.51 12.75, 97.27 14.26 C99.03 15.77, 100.71 17.4, 102.26 19.11 C103.82 20.81, 105.29 22.62, 106.62 24.5 C107.96 26.37, 109.18 28.34, 110.27 30.36 C111.37 32.38, 112.34 34.47, 113.17 36.6 C114.01 38.73, 114.71 40.93, 115.27 43.14 C115.84 45.35, 116.26 47.62, 116.55 49.88 C116.83 52.14, 116.97 54.44, 116.97 56.71" stroke="none" stroke-width="0" fill="#8888ff"/>
    <path d="M116.97 56.71 C116.97 58.99, 116.83 61.29, 116.55 63.55 C116.26 65.81, 115.84 68.07, 115.27 70.29 C114.71 72.5, 114.01 74.7, 113.17 76.83 C112.34 78.96, 111.37 81.05, 110.27 83.07 C109.18 85.09, 107.96 87.06, 106.62 88.93 C105.29 90.81, 103.82 92.62, 102.26 94.32 C100.71 96.03, 99.03 97.65, 97.27 99.17 C95.51 100.68, 93.65 102.1, 91.71 103.39 C89.78 104.68, 87.75 105.87, 85.67 106.93 C83.59 107.99, 81.42 108.94, 79.23 109.74 C77.03 110.55, 74.77 111.24, 72.48 111.78 C70.2 112.33, 67.87 112.74, 65.54 113.02 C63.2 113.29, 60.84 113.43, 58.49 113.43 C56.14 113.43, 53.77 113.29, 51.44 113.02 C49.1 112.74, 46.77 112.33, 44.49 111.78 C42.21 111.24, 39.94 110.55, 37.75 109.74 C35.55 108.94, 33.39 107.99, 31.31 106.93 C29.23 105.87, 27.2 104.68, 25.26 103.39 C23.33 102.1, 21.46 100.68, 19.7 99.17 C17.94 97.65, 16.27 96.03, 14.71 94.32 C13.15 92.62, 11.69 90.81, 10.35 88.93 C9.02 87.06, 7.79 85.09, 6.7 83.07 C5.61 81.05, 4.63 78.96, 3.8 76.83 C2.97 74.7, 2.26 72.5, 1.7 70.29 C1.14 68.07, 0.71 65.81, 0.43 63.55 C0.14 61.29, 0 58.99, 0 56.71 C0 54.44, 0.14 52.14, 0.43 49.88 C0.71 47.62, 1.14 45.35, 1.7 43.14 C2.26 40.93, 2.97 38.73, 3.8 36.6 C4.63 34.47, 5.61 32.38, 6.7 30.36 C7.79 28.34, 9.02 26.37, 10.35 24.5 C11.69 22.62, 13.15 20.81, 14.71 19.11 C16.27 17.4, 17.94 15.77, 19.7 14.26 C21.46 12.75, 23.33 11.33, 25.26 10.04 C27.2 8.74, 29.23 7.56, 31.31 6.5 C33.39 5.44, 35.55 4.49, 37.75 3.69 C39.94 2.88, 42.21 2.19, 44.49 1.65 C46.77 1.1, 49.1 0.69, 51.44 0.41 C53.77 0.14, 56.14 0, 58.49 0 C60.84 0, 63.2 0.14, 65.54 0.41 C67.87 0.69, 70.2 1.1, 72.48 1.65 C74.77 2.19, 77.03 2.88, 79.23 3.69 C81.42 4.49, 83.59 5.44, 85.67 6.5 C87.75 7.56, 89.78 8.74, 91.71 10.04 C93.65 11.33, 95.51 12.75, 97.27 14.26 C99.03 15.77, 100.71 17.4, 102.26 19.11 C103.82 20.81, 105.29 22.62, 106.62 24.5 C107.96 26.37, 109.18 28.34, 110.27 30.36 C111.37 32.38, 112.34 34.47, 113.17 36.6 C114.01 38.73, 114.71 40.93, 115.27 43.14 C115.84 45.35, 116.26 47.62, 116.55 49.88 C116.83 52.14, 116.97 54.44, 116.97 56.71" stroke="#ffffff" stroke-width="1" fill="none"/>
  </g>
  <g transform="translate(349.84419155409296 57.411300061080695) rotate(0 19.075000762939453 9.199999999999996)">
    <text x="19.075000762939453" y="0" fill="#ffffff" text-anchor="middle" style="white-space: pre;" direction="ltr" dominant-baseline="text-before-edge">Node</text>
  </g>
  <g stroke-linecap="round" transform="translate(267.3463428615448 206.64682956755277) rotate(0 58.4868548933531 56.71452595719077)">
    <path d="M116.97 56.71 C116.97 58.99, 116.83 61.29, 116.55 63.55 C116.26 65.81, 115.84 68.07, 115.27 70.29 C114.71 72.5, 114.01 74.7, 113.17 76.83 C112.34 78.96, 111.37 81.05, 110.27 83.07 C109.18 85.09, 107.96 87.06, 106.62 88.93 C105.29 90.81, 103.82 92.62, 102.26 94.32 C100.71 96.03, 99.03 97.65, 97.27 99.17 C95.51 100.68, 93.65 102.1, 91.71 103.39 C89.78 104.68, 87.75 105.87, 85.67 106.93 C83.59 107.99, 81.42 108.94, 79.23 109.74 C77.03 110.55, 74.77 111.24, 72.48 111.78 C70.2 112.33, 67.87 112.74, 65.54 113.02 C63.2 113.29, 60.84 113.43, 58.49 113.43 C56.14 113.43, 53.77 113.29, 51.44 113.02 C49.1 112.74, 46.77 112.33, 44.49 111.78 C42.21 111.24, 39.94 110.55, 37.75 109.74 C35.55 108.94, 33.39 107.99, 31.31 106.93 C29.23 105.87, 27.2 104.68, 25.26 103.39 C23.33 102.1, 21.46 100.68, 19.7 99.17 C17.94 97.65, 16.27 96.03, 14.71 94.32 C13.15 92.62, 11.69 90.81, 10.35 88.93 C9.02 87.06, 7.79 85.09, 6.7 83.07 C5.61 81.05, 4.63 78.96, 3.8 76.83 C2.97 74.7, 2.26 72.5, 1.7 70.29 C1.14 68.07, 0.71 65.81, 0.43 63.55 C0.14 61.29, 0 58.99, 0 56.71 C0 54.44, 0.14 52.14, 0.43 49.88 C0.71 47.62, 1.14 45.35, 1.7 43.14 C2.26 40.93, 2.97 38.73, 3.8 36.6 C4.63 34.47, 5.61 32.38, 6.7 30.36 C7.79 28.34, 9.02 26.37, 10.35 24.5 C11.69 22.62, 13.15 20.81, 14.71 19.11 C16.27 17.4, 17.94 15.77, 19.7 14.26 C21.46 12.75, 23.33 11.33, 25.26 10.04 C27.2 8.74, 29.23 7.56, 31.31 6.5 C33.39 5.44, 35.55 4.49, 37.75 3.69 C39.94 2.88, 42.21 2.19, 44.49 1.65 C46.77 1.1, 49.1 0.69, 51.44 0.41 C53.77 0.14, 56.14 0, 58.49 0 C60.84 0, 63.2 0.14, 65.54 0.41 C67.87 0.69, 70.2 1.1, 72.48 1.65 C74.77 2.19, 77.03 2.88, 79.23 3.69 C81.42 4.49, 83.59 5.44, 85.67 6.5 C87.75 7.56, 89.78 8.74, 91.71 10.04 C93.65 11.33, 95.51 12.75, 97.27 14.26 C99.03 15.77, 100.71 17.4, 102.26 19.11 C103.82 20.81, 105.29 22.62, 106.62 24.5 C107.96 26.37, 109.18 28.34, 110.27 30.36 C111.37 32.38, 112.34 34.47, 113.17 36.6 C114.01 38.73, 114.71 40.93, 115.27 43.14 C115.84 45.35, 116.26 47.62, 116.55 49.88 C116.83 52.14, 116.97 54.44, 116.97 56.71" stroke="none" stroke-width="0" fill="#8888ff"/>
    <path d="M116.97 56.71 C116.97 58.99, 116.83 61.29, 116.55 63.55 C116.26 65.81, 115.84 68.07, 115.27 70.29 C114.71 72.5, 114.01 74.7, 113.17 76.83 C112.34 78.96, 111.37 81.05, 110.27 83.07 C109.18 85.09, 107.96 87.06, 106.62 88.93 C105.29 90.81, 103.82 92.62, 102.26 94.32 C100.71 96.03, 99.03 97.65, 97.27 99.17 C95.51 100.68, 93.65 102.1, 91.71 103.39 C89.78 104.68, 87.75 105.87, 85.67 106.93 C83.59 107.99, 81.42 108.94, 79.23 109.74 C77.03 110.55, 74.77 111.24, 72.48 111.78 C70.2 112.33, 67.87 112.74, 65.54 113.02 C63.2 113.29, 60.84 113.43, 58.49 113.43 C56.14 113.43, 53.77 113.29, 51.44 113.02 C49.1 112.74, 46.77 112.33, 44.49 111.78 C42.21 111.24, 39.94 110.55, 37.75 109.74 C35.55 108.94, 33.39 107.99, 31.31 106.93 C29.23 105.87, 27.2 104.68, 25.26 103.39 C23.33 102.1, 21.46 100.68, 19.7 99.17 C17.94 97.65, 16.27 96.03, 14.71 94.32 C13.15 92.62, 11.69 90.81, 10.35 88.93 C9.02 87.06, 7.79 85.09, 6.7 83.07 C5.61 81.05, 4.63 78.96, 3.8 76.83 C2.97 74.7, 2.26 72.5, 1.7 70.29 C1.14 68.07, 0.71 65.81, 0.43 63.55 C0.14 61.29, 0 58.99, 0 56.71 C0 54.44, 0.14 52.14, 0.43 49.88 C0.71 47.62, 1.14 45.35, 1.7 43.14 C2.26 40.93, 2.97 38.73, 3.8 36.6 C4.63 34.47, 5.61 32.38, 6.7 30.36 C7.79 28.34, 9.02 26.37, 10.35 24.5 C11.69 22.62, 13.15 20.81, 14.71 19.11 C16.27 17.4, 17.94 15.77, 19.7 14.26 C21.46 12.75, 23.33 11.33, 25.26 10.04 C27.2 8.74, 29.23 7.56, 31.31 6.5 C33.39 5.44, 35.55 4.49, 37.75 3.69 C39.94 2.88, 42.21 2.19, 44.49 1.65 C46.77 1.1, 49.1 0.69, 51.44 0.41 C53.77 0.14, 56.14 0, 58.49 0 C60.84 0, 63.2 0.14, 65.54 0.41 C67.87 0.69, 70.2 1.1, 72.48 1.65 C74.77 2.19, 77.03 2.88, 79.23 3.69 C81.42 4.49, 83.59 5.44, 85.67 6.5 C87.75 7.56, 89.78 8.74, 91.71 10.04 C93.65 11.33, 95.51 12.75, 97.27 14.26 C99.03 15.77, 100.71 17.4, 102.26 19.11 C103.82 20.81, 105.29 22.62, 106.62 24.5 C107.96 26.37, 109.18 28.34, 110.27 30.36 C111.37 32.38, 112.34 34.47, 113.17 36.6 C114.01 38.73, 114.71 40.93, 115.27 43.14 C115.84 45.35, 116.26 47.62, 116.55 49.88 C116.83 52.14, 116.97 54.44, 116.97 56.71" stroke="#ffffff" stroke-width="1" fill="none"/>
  </g>
  <g transform="translate(306.90174528659463 254.0581296286335) rotate(0 19.075000762939453 9.199999999999989)">
    <text x="19.075000762939453" y="0" fill="#ffffff" text-anchor="middle" style="white-space: pre;" direction="ltr" dominant-baseline="text-before-edge">Node</text>
  </g>
  <g stroke-linecap="round" transform="translate(519.6183712310749 417.395822211663) rotate(0 58.486854893352984 56.714525957190745)">
    <path d="M116.97 56.71 C116.97 58.99, 116.83 61.29, 116.55 63.55 C116.26 65.81, 115.84 68.07, 115.27 70.29 C114.71 72.5, 114.01 74.7, 113.17 76.83 C112.34 78.96, 111.37 81.05, 110.27 83.07 C109.18 85.09, 107.96 87.06, 106.62 88.93 C105.29 90.81, 103.82 92.62, 102.26 94.32 C100.71 96.03, 99.03 97.65, 97.27 99.17 C95.51 100.68, 93.65 102.1, 91.71 103.39 C89.78 104.68, 87.75 105.87, 85.67 106.93 C83.59 107.99, 81.42 108.94, 79.23 109.74 C77.03 110.55, 74.77 111.24, 72.48 111.78 C70.2 112.33, 67.87 112.74, 65.54 113.02 C63.2 113.29, 60.84 113.43, 58.49 113.43 C56.14 113.43, 53.77 113.29, 51.44 113.02 C49.1 112.74, 46.77 112.33, 44.49 111.78 C42.21 111.24, 39.94 110.55, 37.75 109.74 C35.55 108.94, 33.39 107.99, 31.31 106.93 C29.23 105.87, 27.2 104.68, 25.26 103.39 C23.33 102.1, 21.46 100.68, 19.7 99.17 C17.94 97.65, 16.27 96.03, 14.71 94.32 C13.15 92.62, 11.69 90.81, 10.35 88.93 C9.02 87.06, 7.79 85.09, 6.7 83.07 C5.61 81.05, 4.63 78.96, 3.8 76.83 C2.97 74.7, 2.26 72.5, 1.7 70.29 C1.14 68.07, 0.71 65.81, 0.43 63.55 C0.14 61.29, 0 58.99, 0 56.71 C0 54.44, 0.14 52.14, 0.43 49.88 C0.71 47.62, 1.14 45.35, 1.7 43.14 C2.26 40.93, 2.97 38.73, 3.8 36.6 C4.63 34.47, 5.61 32.38, 6.7 30.36 C7.79 28.34, 9.02 26.37, 10.35 24.5 C11.69 22.62, 13.15 20.81, 14.71 19.11 C16.27 17.4, 17.94 15.77, 19.7 14.26 C21.46 12.75, 23.33 11.33, 25.26 10.04 C27.2 8.74, 29.23 7.56, 31.31 6.5 C33.39 5.44, 35.55 4.49, 37.75 3.69 C39.94 2.88, 42.21 2.19, 44.49 1.65 C46.77 1.1, 49.1 0.69, 51.44 0.41 C53.77 0.14, 56.14 0, 58.49 0 C60.84 0, 63.2 0.14, 65.54 0.41 C67.87 0.69, 70.2 1.1, 72.48 1.65 C74.77 2.19, 77.03 2.88, 79.23 3.69 C81.42 4.49, 83.59 5.44, 85.67 6.5 C87.75 7.56, 89.78 8.74, 91.71 10.04 C93.65 11.33, 95.51 12.75, 97.27 14.26 C99.03 15.77, 100.71 17.4, 102.26 19.11 C103.82 20.81, 105.29 22.62, 106.62 24.5 C107.96 26.37, 109.18 28.34, 110.27 30.36 C111.37 32.38, 112.34 34.47, 113.17 36.6 C114.01 38.73, 114.71 40.93, 115.27 43.14 C115.84 45.35, 116.26 47.62, 116.55 49.88 C116.83 52.14, 116.97 54.44, 116.97 56.71" stroke="none" stroke-width="0" fill="#8888ff"/>
    <path d="M116.97 56.71 C116.97 58.99, 116.83 61.29, 116.55 63.55 C116.26 65.81, 115.84 68.07, 115.27 70.29 C114.71 72.5, 114.01 74.7, 113.17 76.83 C112.34 78.96, 111.37 81.05, 110.27 83.07 C109.18 85.09, 107.96 87.06, 106.62 88.93 C105.29 90.81, 103.82 92.62, 102.26 94.32 C100.71 96.03, 99.03 97.65, 97.27 99.17 C95.51 100.68, 93.65 102.1, 91.71 103.39 C89.78 104.68, 87.75 105.87, 85.67 106.93 C83.59 107.99, 81.42 108.94, 79.23 109.74 C77.03 110.55, 74.77 111.24, 72.48 111.78 C70.2 112.33, 67.87 112.74, 65.54 113.02 C63.2 113.29, 60.84 113.43, 58.49 113.43 C56.14 113.43, 53.77 113.29, 51.44 113.02 C49.1 112.74, 46.77 112.33, 44.49 111.78 C42.21 111.24, 39.94 110.55, 37.75 109.74 C35.55 108.94, 33.39 107.99, 31.31 106.93 C29.23 105.87, 27.2 104.68, 25.26 103.39 C23.33 102.1, 21.46 100.68, 19.7 99.17 C17.94 97.65, 16.27 96.03, 14.71 94.32 C13.15 92.62, 11.69 90.81, 10.35 88.93 C9.02 87.06, 7.79 85.09, 6.7 83.07 C5.61 81.05, 4.63 78.96, 3.8 76.83 C2.97 74.7, 2.26 72.5, 1.7 70.29 C1.14 68.07, 0.71 65.81, 0.43 63.55 C0.14 61.29, 0 58.99, 0 56.71 C0 54.44, 0.14 52.14, 0.43 49.88 C0.71 47.62, 1.14 45.35, 1.7 43.14 C2.26 40.93, 2.97 38.73, 3.8 36.6 C4.63 34.47, 5.61 32.38, 6.7 30.36 C7.79 28.34, 9.02 26.37, 10.35 24.5 C11.69 22.62, 13.15 20.81, 14.71 19.11 C16.27 17.4, 17.94 15.77, 19.7 14.26 C21.46 12.75, 23.33 11.33, 25.26 10.04 C27.2 8.74, 29.23 7.56, 31.31 6.5 C33.39 5.44, 35.55 4.49, 37.75 3.69 C39.94 2.88, 42.21 2.19, 44.49 1.65 C46.77 1.1, 49.1 0.69, 51.44 0.41 C53.77 0.14, 56.14 0, 58.49 0 C60.84 0, 63.2 0.14, 65.54 0.41 C67.87 0.69, 70.2 1.1, 72.48 1.65 C74.77 2.19, 77.03 2.88, 79.23 3.69 C81.42 4.49, 83.59 5.44, 85.67 6.5 C87.75 7.56, 89.78 8.74, 91.71 10.04 C93.65 11.33, 95.51 12.75, 97.27 14.26 C99.03 15.77, 100.71 17.4, 102.26 19.11 C103.82 20.81, 105.29 22.62, 106.62 24.5 C107.96 26.37, 109.18 28.34, 110.27 30.36 C111.37 32.38, 112.34 34.47, 113.17 36.6 C114.01 38.73, 114.71 40.93, 115.27 43.14 C115.84 45.35, 116.26 47.62, 116.55 49.88 C116.83 52.14, 116.97 54.44, 116.97 56.71" stroke="#ffffff" stroke-width="1" fill="none"/>
  </g>
  <g transform="translate(559.1737736561249 464.80712227274375) rotate(0 19.075000762939453 9.199999999999989)">
    <text x="19.075000762939453" y="0" fill="#ffffff" text-anchor="middle" style="white-space: pre;" direction="ltr" dominant-baseline="text-before-edge">Node</text>
  </g>
  <g stroke-linecap="round" transform="translate(626.951501313763 262.27202836953006) rotate(0 58.486854893352984 56.71452595719077)">
    <path d="M116.97 56.71 C116.97 58.99, 116.83 61.29, 116.55 63.55 C116.26 65.81, 115.84 68.07, 115.27 70.29 C114.71 72.5, 114.01 74.7, 113.17 76.83 C112.34 78.96, 111.37 81.05, 110.27 83.07 C109.18 85.09, 107.96 87.06, 106.62 88.93 C105.29 90.81, 103.82 92.62, 102.26 94.32 C100.71 96.03, 99.03 97.65, 97.27 99.17 C95.51 100.68, 93.65 102.1, 91.71 103.39 C89.78 104.68, 87.75 105.87, 85.67 106.93 C83.59 107.99, 81.42 108.94, 79.23 109.74 C77.03 110.55, 74.77 111.24, 72.48 111.78 C70.2 112.33, 67.87 112.74, 65.54 113.02 C63.2 113.29, 60.84 113.43, 58.49 113.43 C56.14 113.43, 53.77 113.29, 51.44 113.02 C49.1 112.74, 46.77 112.33, 44.49 111.78 C42.21 111.24, 39.94 110.55, 37.75 109.74 C35.55 108.94, 33.39 107.99, 31.31 106.93 C29.23 105.87, 27.2 104.68, 25.26 103.39 C23.33 102.1, 21.46 100.68, 19.7 99.17 C17.94 97.65, 16.27 96.03, 14.71 94.32 C13.15 92.62, 11.69 90.81, 10.35 88.93 C9.02 87.06, 7.79 85.09, 6.7 83.07 C5.61 81.05, 4.63 78.96, 3.8 76.83 C2.97 74.7, 2.26 72.5, 1.7 70.29 C1.14 68.07, 0.71 65.81, 0.43 63.55 C0.14 61.29, 0 58.99, 0 56.71 C0 54.44, 0.14 52.14, 0.43 49.88 C0.71 47.62, 1.14 45.35, 1.7 43.14 C2.26 40.93, 2.97 38.73, 3.8 36.6 C4.63 34.47, 5.61 32.38, 6.7 30.36 C7.79 28.34, 9.02 26.37, 10.35 24.5 C11.69 22.62, 13.15 20.81, 14.71 19.11 C16.27 17.4, 17.94 15.77, 19.7 14.26 C21.46 12.75, 23.33 11.33, 25.26 10.04 C27.2 8.74, 29.23 7.56, 31.31 6.5 C33.39 5.44, 35.55 4.49, 37.75 3.69 C39.94 2.88, 42.21 2.19, 44.49 1.65 C46.77 1.1, 49.1 0.69, 51.44 0.41 C53.77 0.14, 56.14 0, 58.49 0 C60.84 0, 63.2 0.14, 65.54 0.41 C67.87 0.69, 70.2 1.1, 72.48 1.65 C74.77 2.19, 77.03 2.88, 79.23 3.69 C81.42 4.49, 83.59 5.44, 85.67 6.5 C87.75 7.56, 89.78 8.74, 91.71 10.04 C93.65 11.33, 95.51 12.75, 97.27 14.26 C99.03 15.77, 100.71 17.4, 102.26 19.11 C103.82 20.81, 105.29 22.62, 106.62 24.5 C107.96 26.37, 109.18 28.34, 110.27 30.36 C111.37 32.38, 112.34 34.47, 113.17 36.6 C114.01 38.73, 114.71 40.93, 115.27 43.14 C115.84 45.35, 116.26 47.62, 116.55 49.88 C116.83 52.14, 116.97 54.44, 116.97 56.71" stroke="none" stroke-width="0" fill="#8888ff"/>
    <path d="M116.97 56.71 C116.97 58.99, 116.83 61.29, 116.55 63.55 C116.26 65.81, 115.84 68.07, 115.27 70.29 C114.71 72.5, 114.01 74.7, 113.17 76.83 C112.34 78.96, 111.37 81.05, 110.27 83.07 C109.18 85.09, 107.96 87.06, 106.62 88.93 C105.29 90.81, 103.82 92.62, 102.26 94.32 C100.71 96.03, 99.03 97.65, 97.27 99.17 C95.51 100.68, 93.65 102.1, 91.71 103.39 C89.78 104.68, 87.75 105.87, 85.67 106.93 C83.59 107.99, 81.42 108.94, 79.23 109.74 C77.03 110.55, 74.77 111.24, 72.48 111.78 C70.2 112.33, 67.87 112.74, 65.54 113.02 C63.2 113.29, 60.84 113.43, 58.49 113.43 C56.14 113.43, 53.77 113.29, 51.44 113.02 C49.1 112.74, 46.77 112.33, 44.49 111.78 C42.21 111.24, 39.94 110.55, 37.75 109.74 C35.55 108.94, 33.39 107.99, 31.31 106.93 C29.23 105.87, 27.2 104.68, 25.26 103.39 C23.33 102.1, 21.46 100.68, 19.7 99.17 C17.94 97.65, 16.27 96.03, 14.71 94.32 C13.15 92.62, 11.69 90.81, 10.35 88.93 C9.02 87.06, 7.79 85.09, 6.7 83.07 C5.61 81.05, 4.63 78.96, 3.8 76.83 C2.97 74.7, 2.26 72.5, 1.7 70.29 C1.14 68.07, 0.71 65.81, 0.43 63.55 C0.14 61.29, 0 58.99, 0 56.71 C0 54.44, 0.14 52.14, 0.43 49.88 C0.71 47.62, 1.14 45.35, 1.7 43.14 C2.26 40.93, 2.97 38.73, 3.8 36.6 C4.63 34.47, 5.61 32.38, 6.7 30.36 C7.79 28.34, 9.02 26.37, 10.35 24.5 C11.69 22.62, 13.15 20.81, 14.71 19.11 C16.27 17.4, 17.94 15.77, 19.7 14.26 C21.46 12.75, 23.33 11.33, 25.26 10.04 C27.2 8.74, 29.23 7.56, 31.31 6.5 C33.39 5.44, 35.55 4.49, 37.75 3.69 C39.94 2.88, 42.21 2.19, 44.49 1.65 C46.77 1.1, 49.1 0.69, 51.44 0.41 C53.77 0.14, 56.14 0, 58.49 0 C60.84 0, 63.2 0.14, 65.54 0.41 C67.87 0.69, 70.2 1.1, 72.48 1.65 C74.77 2.19, 77.03 2.88, 79.23 3.69 C81.42 4.49, 83.59 5.44, 85.67 6.5 C87.75 7.56, 89.78 8.74, 91.71 10.04 C93.65 11.33, 95.51 12.75, 97.27 14.26 C99.03 15.77, 100.71 17.4, 102.26 19.11 C103.82 20.81, 105.29 22.62, 106.62 24.5 C107.96 26.37, 109.18 28.34, 110.27 30.36 C111.37 32.38, 112.34 34.47, 113.17 36.6 C114.01 38.73, 114.71 40.93, 115.27 43.14 C115.84 45.35, 116.26 47.62, 116.55 49.88 C116.83 52.14, 116.97 54.44, 116.97 56.71" stroke="#ffffff" stroke-width="1" fill="none"/>
  </g>
  <g transform="translate(666.506903738813 309.6833284306108) rotate(0 19.075000762939453 9.199999999999989)">
    <text x="19.075000762939453" y="0" fill="#ffffff" text-anchor="middle" style="white-space: pre;" direction="ltr" dominant-baseline="text-before-edge">Node</text>
  </g>
  <g stroke-linecap="round" transform="translate(163.14702679587003 374.3058794777371) rotate(0 58.486854893352984 56.714525957190745)">
    <path d="M116.97 56.71 C116.97 58.99, 116.83 61.29, 116.55 63.55 C116.26 65.81, 115.84 68.07, 115.27 70.29 C114.71 72.5, 114.01 74.7, 113.17 76.83 C112.34 78.96, 111.37 81.05, 110.27 83.07 C109.18 85.09, 107.96 87.06, 106.62 88.93 C105.29 90.81, 103.82 92.62, 102.26 94.32 C100.71 96.03, 99.03 97.65, 97.27 99.17 C95.51 100.68, 93.65 102.1, 91.71 103.39 C89.78 104.68, 87.75 105.87, 85.67 106.93 C83.59 107.99, 81.42 108.94, 79.23 109.74 C77.03 110.55, 74.77 111.24, 72.48 111.78 C70.2 112.33, 67.87 112.74, 65.54 113.02 C63.2 113.29, 60.84 113.43, 58.49 113.43 C56.14 113.43, 53.77 113.29, 51.44 113.02 C49.1 112.74, 46.77 112.33, 44.49 111.78 C42.21 111.24, 39.94 110.55, 37.75 109.74 C35.55 108.94, 33.39 107.99, 31.31 106.93 C29.23 105.87, 27.2 104.68, 25.26 103.39 C23.33 102.1, 21.46 100.68, 19.7 99.17 C17.94 97.65, 16.27 96.03, 14.71 94.32 C13.15 92.62, 11.69 90.81, 10.35 88.93 C9.02 87.06, 7.79 85.09, 6.7 83.07 C5.61 81.05, 4.63 78.96, 3.8 76.83 C2.97 74.7, 2.26 72.5, 1.7 70.29 C1.14 68.07, 0.71 65.81, 0.43 63.55 C0.14 61.29, 0 58.99, 0 56.71 C0 54.44, 0.14 52.14, 0.43 49.88 C0.71 47.62, 1.14 45.35, 1.7 43.14 C2.26 40.93, 2.97 38.73, 3.8 36.6 C4.63 34.47, 5.61 32.38, 6.7 30.36 C7.79 28.34, 9.02 26.37, 10.35 24.5 C11.69 22.62, 13.15 20.81, 14.71 19.11 C16.27 17.4, 17.94 15.77, 19.7 14.26 C21.46 12.75, 23.33 11.33, 25.26 10.04 C27.2 8.74, 29.23 7.56, 31.31 6.5 C33.39 5.44, 35.55 4.49, 37.75 3.69 C39.94 2.88, 42.21 2.19, 44.49 1.65 C46.77 1.1, 49.1 0.69, 51.44 0.41 C53.77 0.14, 56.14 0, 58.49 0 C60.84 0, 63.2 0.14, 65.54 0.41 C67.87 0.69, 70.2 1.1, 72.48 1.65 C74.77 2.19, 77.03 2.88, 79.23 3.69 C81.42 4.49, 83.59 5.44, 85.67 6.5 C87.75 7.56, 89.78 8.74, 91.71 10.04 C93.65 11.33, 95.51 12.75, 97.27 14.26 C99.03 15.77, 100.71 17.4, 102.26 19.11 C103.82 20.81, 105.29 22.62, 106.62 24.5 C107.96 26.37, 109.18 28.34, 110.27 30.36 C111.37 32.38, 112.34 34.47, 113.17 36.6 C114.01 38.73, 114.71 40.93, 115.27 43.14 C115.84 45.35, 116.26 47.62, 116.55 49.88 C116.83 52.14, 116.97 54.44, 116.97 56.71" stroke="none" stroke-width="0" fill="#8888ff"/>
    <path d="M116.97 56.71 C116.97 58.99, 116.83 61.29, 116.55 63.55 C116.26 65.81, 115.84 68.07, 115.27 70.29 C114.71 72.5, 114.01 74.7, 113.17 76.83 C112.34 78.96, 111.37 81.05, 110.27 83.07 C109.18 85.09, 107.96 87.06, 106.62 88.93 C105.29 90.81, 103.82 92.62, 102.26 94.32 C100.71 96.03, 99.03 97.65, 97.27 99.17 C95.51 100.68, 93.65 102.1, 91.71 103.39 C89.78 104.68, 87.75 105.87, 85.67 106.93 C83.59 107.99, 81.42 108.94, 79.23 109.74 C77.03 110.55, 74.77 111.24, 72.48 111.78 C70.2 112.33, 67.87 112.74, 65.54 113.02 C63.2 113.29, 60.84 113.43, 58.49 113.43 C56.14 113.43, 53.77 113.29, 51.44 113.02 C49.1 112.74, 46.77 112.33, 44.49 111.78 C42.21 111.24, 39.94 110.55, 37.75 109.74 C35.55 108.94, 33.39 107.99, 31.31 106.93 C29.23 105.87, 27.2 104.68, 25.26 103.39 C23.33 102.1, 21.46 100.68, 19.7 99.17 C17.94 97.65, 16.27 96.03, 14.71 94.32 C13.15 92.62, 11.69 90.81, 10.35 88.93 C9.02 87.06, 7.79 85.09, 6.7 83.07 C5.61 81.05, 4.63 78.96, 3.8 76.83 C2.97 74.7, 2.26 72.5, 1.7 70.29 C1.14 68.07, 0.71 65.81, 0.43 63.55 C0.14 61.29, 0 58.99, 0 56.71 C0 54.44, 0.14 52.14, 0.43 49.88 C0.71 47.62, 1.14 45.35, 1.7 43.14 C2.26 40.93, 2.97 38.73, 3.8 36.6 C4.63 34.47, 5.61 32.38, 6.7 30.36 C7.79 28.34, 9.02 26.37, 10.35 24.5 C11.69 22.62, 13.15 20.81, 14.71 19.11 C16.27 17.4, 17.94 15.77, 19.7 14.26 C21.46 12.75, 23.33 11.33, 25.26 10.04 C27.2 8.74, 29.23 7.56, 31.31 6.5 C33.39 5.44, 35.55 4.49, 37.75 3.69 C39.94 2.88, 42.21 2.19, 44.49 1.65 C46.77 1.1, 49.1 0.69, 51.44 0.41 C53.77 0.14, 56.14 0, 58.49 0 C60.84 0, 63.2 0.14, 65.54 0.41 C67.87 0.69, 70.2 1.1, 72.48 1.65 C74.77 2.19, 77.03 2.88, 79.23 3.69 C81.42 4.49, 83.59 5.44, 85.67 6.5 C87.75 7.56, 89.78 8.74, 91.71 10.04 C93.65 11.33, 95.51 12.75, 97.27 14.26 C99.03 15.77, 100.71 17.4, 102.26 19.11 C103.82 20.81, 105.29 22.62, 106.62 24.5 C107.96 26.37, 109.18 28.34, 110.27 30.36 C111.37 32.38, 112.34 34.47, 113.17 36.6 C114.01 38.73, 114.71 40.93, 115.27 43.14 C115.84 45.35, 116.26 47.62, 116.55 49.88 C116.83 52.14, 116.97 54.44, 116.97 56.71" stroke="#ffffff" stroke-width="1" fill="none"/>
  </g>
  <g transform="translate(202.70242922092007 421.71717953881785) rotate(0 19.075000762939453 9.199999999999989)">
    <text x="19.075000762939453" y="0" fill="#ffffff" text-anchor="middle" style="white-space: pre;" direction="ltr" dominant-baseline="text-before-edge">Node</text>
  </g>
  <g mask="url(#mask-zSxwzdfp1ECJoq_7zknET)" stroke-linecap="round">
    <g transform="translate(136.60364791299298 130.03104577778873) rotate(0 80.93565039496934 -22.00911255609661)">
      <path d="M0 0 C26.98 -7.34, 134.89 -36.68, 161.87 -44.02 M0 0 C26.98 -7.34, 134.89 -36.68, 161.87 -44.02" stroke="#cc6666" stroke-width="1" fill="none"/>
    </g>
    <g transform="translate(136.60364791299298 130.03104577778873) rotate(0 80.93565039496934 -22.00911255609661)">
      <path d="M161.87 -44.02 L150.42 -34.33 L147.09 -46.57 L161.87 -44.02" stroke="none" stroke-width="0" fill="#cc6666" fill-rule="evenodd"/>
      <path d="M161.87 -44.02 C158.65 -41.29, 155.42 -38.56, 150.42 -34.33 M161.87 -44.02 C159.39 -41.92, 156.91 -39.83, 150.42 -34.33 M150.42 -34.33 C149.29 -38.49, 148.15 -42.65, 147.09 -46.57 M150.42 -34.33 C149.58 -37.4, 148.75 -40.48, 147.09 -46.57 M147.09 -46.57 C150.8 -45.93, 154.52 -45.29, 161.87 -44.02 M147.09 -46.57 C151.07 -45.88, 155.04 -45.2, 161.87 -44.02 M161.87 -44.02 C161.87 -44.02, 161.87 -44.02, 161.87 -44.02 M161.87 -44.02 C161.87 -44.02, 161.87 -44.02, 161.87 -44.02" stroke="#cc6666" stroke-width="1" fill="none"/>
    </g>
  </g>
  <mask id="mask-zSxwzdfp1ECJoq_7zknET">
    <rect x="0" y="0" fill="#fff" width="398.4749487029315" height="274.0492708899819"/>
    <rect x="200.2517979264926" y="98.82193322169215" fill="#000" width="34.57500076293945" height="18.4" opacity="1"/>
  </mask>
  <g transform="translate(200.2517979264926 98.82193322169215) rotate(0 17.287500381469727 9.199999999999974)">
    <text x="17.287500381469727" y="0" fill="#cc6666" text-anchor="middle" style="white-space: pre;" direction="ltr" dominant-baseline="text-before-edge">fetch</text>
  </g>
  <g mask="url(#mask-8edb0N0xMd1y8xEyjyNZy)" stroke-linecap="round">
    <g transform="translate(613.5568552447589 310.90467441845533) rotate(0 -106.70178824522327 -23.18423847249062)">
      <path d="M0 0 C-35.57 -7.73, -177.84 -38.64, -213.4 -46.37 M0 0 C-35.57 -7.73, -177.84 -38.64, -213.4 -46.37" stroke="#cc6666" stroke-width="1" fill="none"/>
    </g>
    <g transform="translate(613.5568552447589 310.90467441845533) rotate(0 -106.70178824522327 -23.18423847249062)">
      <path d="M0 0 L-14.63 3.31 L-11.94 -9.08 L0 0" stroke="none" stroke-width="0" fill="#cc6666" fill-rule="evenodd"/>
      <path d="M0 0 C-3.15 0.71, -6.3 1.43, -14.63 3.31 M0 0 C-3.04 0.69, -6.08 1.38, -14.63 3.31 M-14.63 3.31 C-13.88 -0.14, -13.13 -3.59, -11.94 -9.08 M-14.63 3.31 C-13.73 -0.83, -12.83 -4.96, -11.94 -9.08 M-11.94 -9.08 C-9.12 -6.93, -6.29 -4.79, 0 0 M-11.94 -9.08 C-8.49 -6.46, -5.03 -3.83, 0 0 M0 0 C0 0, 0 0, 0 0 M0 0 C0 0, 0 0, 0 0" stroke="#cc6666" stroke-width="1" fill="none"/>
    </g>
  </g>
  <mask id="mask-8edb0N0xMd1y8xEyjyNZy">
    <rect x="0" y="0" fill="#fff" width="926.9604317352055" height="457.27315136343657"/>
    <rect x="489.56756661806594" y="278.5204359459648" fill="#000" width="34.57500076293945" height="18.4" opacity="1"/>
  </mask>
  <g transform="translate(489.56756661806594 278.52043594596483) rotate(0 17.287500381469727 9.199999999999989)">
    <text x="17.287500381469727" y="0" fill="#cc6666" text-anchor="middle" style="white-space: pre;" direction="ltr" dominant-baseline="text-before-edge">fetch</text>
  </g>
  <g mask="url(#mask-EoBwFsRtk4rVGTzQtcBdH)" stroke-linecap="round">
    <g transform="translate(337.4337469730772 194.74867052934286) rotate(0 8.315885347008134 -30.17753752057702)">
      <path d="M0 0 C2.77 -10.06, 13.86 -50.3, 16.63 -60.36" stroke="#8888ff" stroke-width="1.5" fill="none" stroke-dasharray="8 9"/>
    </g>
  </g>
  <mask id="mask-EoBwFsRtk4rVGTzQtcBdH">
    <rect x="0" y="0" fill="#fff" width="454.06551766709345" height="355.1037455704969"/>
    <rect x="322.6871323200853" y="155.37113300876584" fill="#000" width="46.125" height="18.4" opacity="1"/>
  </mask>
  <g transform="translate(322.6871323200853 155.3711330087658) rotate(0 23.0625 9.200000000000003)">
    <text x="23.0625" y="0" fill="#8888ff" text-anchor="middle" style="white-space: pre;" direction="ltr" dominant-baseline="text-before-edge">gossip</text>
  </g>
  <g stroke-linecap="round">
    <g transform="translate(93.1696482607083 217.08136793988578) rotate(0 42.22557159445739 80.38758103934501)">
      <path d="M0 0 C14.08 26.8, 70.38 133.98, 84.45 160.78" stroke="#8888ff" stroke-width="1.5" fill="none" stroke-dasharray="8 9"/>
    </g>
  </g>
  <mask/>
  <g mask="url(#mask-FX5PDo1N7GMKcZQ1J8pW_)" stroke-linecap="round">
    <g transform="translate(198.83710343555072 357.69961233492484) rotate(0 -41.43001101616528 -78.43234415949463)">
      <path d="M0 0 C-13.81 -26.14, -69.05 -130.72, -82.86 -156.86 M0 0 C-13.81 -26.14, -69.05 -130.72, -82.86 -156.86" stroke="#cc6666" stroke-width="1" fill="none"/>
    </g>
    <g transform="translate(198.83710343555072 357.69961233492484) rotate(0 -41.43001101616528 -78.43234415949463)">
      <path d="M-82.86 -156.86 L-70.91 -147.8 L-82.12 -141.88 L-82.86 -156.86" stroke="none" stroke-width="0" fill="#cc6666" fill-rule="evenodd"/>
      <path d="M-82.86 -156.86 C-79.72 -154.49, -76.58 -152.11, -70.91 -147.8 M-82.86 -156.86 C-78.54 -153.59, -74.22 -150.32, -70.91 -147.8 M-70.91 -147.8 C-75.16 -145.56, -79.42 -143.31, -82.12 -141.88 M-70.91 -147.8 C-74.31 -146.01, -77.71 -144.21, -82.12 -141.88 M-82.12 -141.88 C-82.29 -145.3, -82.45 -148.71, -82.86 -156.86 M-82.12 -141.88 C-82.38 -147.2, -82.64 -152.51, -82.86 -156.86 M-82.86 -156.86 C-82.86 -156.86, -82.86 -156.86, -82.86 -156.86 M-82.86 -156.86 C-82.86 -156.86, -82.86 -156.86, -82.86 -156.86" stroke="#cc6666" stroke-width="1" fill="none"/>
    </g>
  </g>
  <mask id="mask-FX5PDo1N7GMKcZQ1J8pW_">
    <rect x="0" y="0" fill="#fff" width="381.6971254678813" height="614.5643006539141"/>
    <rect x="140.1195920379157" y="270.0672681754303" fill="#000" width="34.57500076293945" height="18.4" opacity="1"/>
  </mask>
  <g transform="translate(140.1195920379157 270.06726817543034) rotate(0 17.287500381469727 9.199999999999974)">
    <text x="17.287500381469727" y="0" fill="#cc6666" text-anchor="middle" style="white-space: pre;" direction="ltr" dominant-baseline="text-before-edge">fetch</text>
  </g>
  <g mask="url(#mask-KQWjxgPB8cljw5SK97v7v)" stroke-linecap="round">
    <g transform="translate(289.91040549787795 446.172279802175) rotate(0 104.98288277988581 14.493891876149746)">
      <path d="M0 0 C34.99 4.83, 174.97 24.16, 209.97 28.99" stroke="#8888ff" stroke-width="1.5" fill="none" stroke-dasharray="8 9"/>
    </g>
    <g transform="translate(289.91040549787795 446.172279802175) rotate(0 104.98288277988581 14.493891876149746)">
      <path d="M209.97 28.99 L195.63 33.41 L197.37 20.85 L209.97 28.99" stroke="none" stroke-width="0" fill="#8888ff" fill-rule="evenodd"/>
      <path d="M209.97 28.99 C206.75 29.98, 203.54 30.97, 195.63 33.41 M195.63 33.41 C196.08 30.13, 196.54 26.85, 197.37 20.85 M197.37 20.85 C200.21 22.69, 203.06 24.53, 209.97 28.99 M209.97 28.99 C209.97 28.99, 209.97 28.99, 209.97 28.99" stroke="#8888ff" stroke-width="1.5" fill="none"/>
    </g>
  </g>
  <mask id="mask-KQWjxgPB8cljw5SK97v7v">
    <rect x="0" y="0" fill="#fff" width="599.8761710576496" height="575.1600635544745"/>
    <rect x="371.830788277764" y="451.4661716783247" fill="#000" width="46.125" height="18.4" opacity="1"/>
  </mask>
  <g transform="translate(371.830788277764 451.4661716783249) rotate(0 23.062499999999773 9.199999999999989)">
    <text x="23.0625" y="0" fill="#8888ff" text-anchor="middle" style="white-space: pre;" direction="ltr" dominant-baseline="text-before-edge">gossip</text>
  </g>
  <g mask="url(#mask-yMAqHfG9whOVzOfrKMWlb)" stroke-linecap="round">
    <g transform="translate(371.3877401715272 324.73656797418676) rotate(0 75.99657814920738 49.75000523760215)">
      <path d="M0 0 C25.33 16.58, 126.66 82.92, 151.99 99.5" stroke="#8888ff" stroke-width="1.5" fill="none" stroke-dasharray="8 9"/>
    </g>
    <g transform="translate(371.3877401715272 324.73656797418676) rotate(0 75.99657814920738 49.75000523760215)">
      <path d="M0 0 L14.85 2.14 L7.9 12.75 L0 0" stroke="none" stroke-width="0" fill="#8888ff" fill-rule="evenodd"/>
      <path d="M0 0 C5.67 0.82, 11.34 1.64, 14.85 2.14 M14.85 2.14 C12.59 5.59, 10.33 9.04, 7.9 12.75 M7.9 12.75 C5.9 9.52, 3.9 6.3, 0 0 M0 0 C0 0, 0 0, 0 0" stroke="#8888ff" stroke-width="1.5" fill="none"/>
    </g>
  </g>
  <mask id="mask-yMAqHfG9whOVzOfrKMWlb">
    <rect x="0" y="0" fill="#fff" width="623.380896469942" height="524.2365784493911"/>
    <rect x="424.32181832073456" y="365.2865732117889" fill="#000" width="46.125" height="18.4" opacity="1"/>
  </mask>
  <g transform="translate(424.32181832073456 365.28657321178906) rotate(0 23.0625 9.19999999999996)">
    <text x="23.0625" y="0" fill="#8888ff" text-anchor="middle" style="white-space: pre;" direction="ltr" dominant-baseline="text-before-edge">gossip</text>
  </g>
  <g stroke-linecap="round">
    <g transform="translate(291.4426244787396 327.85196404020223) rotate(0 -14.48643241814193 21.54863026497472)">
      <path d="M0 0 C-4.83 7.18, -24.14 35.91, -28.97 43.1" stroke="#1971c2" stroke-width="1.5" fill="none" stroke-dasharray="8 9"/>
    </g>
  </g>
  <mask/>
  <g stroke-linecap="round">
    <g transform="translate(618.151538503384 416.38509054872736) rotate(0 17.633369809143005 -19.58258118992751)">
      <path d="M0 0 C5.88 -6.53, 29.39 -32.64, 35.27 -39.17" stroke="#8888ff" stroke-width="1.5" fill="none" stroke-dasharray="8 9"/>
    </g>
  </g>
  <mask/>
  <g stroke-linecap="round">
    <g transform="translate(397.2429274963506 291.04844404416406) rotate(0 108.11723831068298 23.89541939863892)">
      <path d="M0 0 C36.04 7.97, 180.2 39.83, 216.23 47.79" stroke="#8888ff" stroke-width="1.5" fill="none" stroke-dasharray="8 9"/>
    </g>
  </g>
  <mask/>
  <g stroke-linecap="round">
    <g transform="translate(133.85460614113617 106.93725808667256) rotate(0 75.6039044712877 -20.76169397398054)">
      <path d="M0 0 C25.2 -6.92, 126.01 -34.6, 151.21 -41.52" stroke="#8888ff" stroke-width="1.5" fill="none" stroke-dasharray="8 9"/>
    </g>
  </g>
  <mask/>
  <g stroke-linecap="round">
    <g transform="translate(516.3493971183298 73.41312426332212) rotate(0 27.70338997193403 0)">
      <path d="M0 0 C9.23 0, 46.17 0, 55.41 0" stroke="#8888ff" stroke-width="1.5" fill="none" stroke-dasharray="8 9"/>
    </g>
  </g>
  <mask/>
  <g transform="translate(599.1775199908825 64.21312459557097) rotate(0 24.825000762939453 9.200000000000003)">
    <text x="0" y="0" fill="#8888ff" text-anchor="start" style="white-space: pre;" direction="ltr" dominant-baseline="text-before-edge">Gossip</text>
  </g>
  <g stroke-linecap="round">
    <g transform="translate(575.1806302259697 106.55716122893222) rotate(0 -30.59614681953599 0)">
      <path d="M0 0 C-10.2 0, -50.99 0, -61.19 0 M0 0 C-10.2 0, -50.99 0, -61.19 0" stroke="#cc6666" stroke-width="1" fill="none"/>
    </g>
    <g transform="translate(575.1806302259697 106.55716122893222) rotate(0 -30.59614681953599 0)">
      <path d="M0 0 L-13.59 6.34 L-13.59 -6.34 L0 0" stroke="none" stroke-width="0" fill="#cc6666" fill-rule="evenodd"/>
      <path d="M0 0 C-3.44 1.6, -6.88 3.21, -13.59 6.34 M0 0 C-3.12 1.46, -6.24 2.91, -13.59 6.34 M-13.59 6.34 C-13.59 2.49, -13.59 -1.35, -13.59 -6.34 M-13.59 6.34 C-13.59 1.95, -13.59 -2.43, -13.59 -6.34 M-13.59 -6.34 C-9.84 -4.59, -6.08 -2.84, 0 0 M-13.59 -6.34 C-8.52 -3.97, -3.44 -1.6, 0 0 M0 0 C0 0, 0 0, 0 0 M0 0 C0 0, 0 0, 0 0" stroke="#cc6666" stroke-width="1" fill="none"/>
    </g>
  </g>
  <mask/>
  <g transform="translate(599.1775200738539 97.35716109035201) rotate(0 29.6875 9.200000000000003)">
    <text x="0" y="0" fill="#cc6666" text-anchor="start" style="white-space: pre;" direction="ltr" dominant-baseline="text-before-edge">Git fetch</text>
  </g>
</svg>
