<svg width="15" height="11" viewBox="0 0 15 11" fill="none" xmlns="http://www.w3.org/2000/svg">
  <g shape-rendering="crispEdges">
    <rect y="4.37347" width="1" height="1" fill="#CE4FE5"/>
    <rect x="8" y="4.37347" width="1" height="1" fill="#00C259"/>
    <rect x="1" y="4.37347" width="1" height="1" fill="#CE4FE5"/>
    <rect x="9" y="4.37347" width="1" height="1" fill="#00C259"/>
    <rect x="2" y="4.37347" width="1" height="1" fill="#00C259"/>
    <rect x="10" y="4.37347" width="1" height="1" fill="#000AFF"/>
    <rect x="3" y="3.37347" width="1" height="1" fill="#CE4FE5"/>
    <rect x="11" y="3.37347" width="1" height="1" fill="#00C259"/>
    <rect x="2" y="2.37347" width="1" height="1" fill="#CE4FE5"/>
    <rect x="2" y="0.373474" width="1" height="1" fill="#CE4FE5"/>
    <rect x="1" y="1.37347" width="1" height="1" fill="#CE4FE5"/>
    <rect x="5" y="1.37347" width="1" height="1" fill="#CE4FE5"/>
    <rect x="3" y="0.373474" width="1" height="1" fill="#CE4FE5"/>
    <rect x="4" y="0.373474" width="1" height="1" fill="#CE4FE5"/>
    <rect x="10" y="2.37347" width="1" height="1" fill="#00C259"/>
    <rect x="3" y="2.37347" width="1" height="1" fill="#CE4FE5"/>
    <rect x="2" y="1.37347" width="1" height="1" fill="black"/>
    <rect x="3" y="2.37347" width="1" height="1" fill="#FF3232"/>
    <rect x="10" y="1.37347" width="1" height="1" fill="black"/>
    <rect x="9" y="1.37347" width="1" height="1" fill="#2BF3F1"/>
    <rect x="11" y="0.373474" width="1" height="1" fill="#2BF3F1"/>
    <rect x="10" y="0.373474" width="1" height="1" fill="#2BF3F1"/>
    <rect x="12" y="0.373474" width="1" height="1" fill="#2BF3F1"/>
    <rect x="13" y="1.37347" width="1" height="1" fill="#2BF3F1"/>
    <rect x="11" y="2.37347" width="1" height="1" fill="#FF0000"/>
    <rect x="3" y="1.37347" width="1" height="1" fill="#CE4FE5"/>
    <rect x="11" y="1.37347" width="1" height="1" fill="#00C259"/>
    <rect x="4" y="2.37347" width="1" height="1" fill="#CE4FE5"/>
    <rect x="12" y="2.37347" width="1" height="1" fill="#00C259"/>
    <rect x="4" y="1.37347" width="1" height="1" fill="black"/>
    <rect x="12" y="1.37347" width="1" height="1" fill="black"/>
    <rect x="4" y="4.37347" width="1" height="1" fill="#00C259"/>
    <rect x="12" y="4.37347" width="1" height="1" fill="#000AFF"/>
    <rect x="2" y="5.37347" width="1" height="1" fill="#00C259"/>
    <rect x="10" y="5.37347" width="1" height="1" fill="#000AFF"/>
    <rect x="2" y="6.37347" width="1" height="1" fill="#00C259"/>
    <rect x="10" y="6.37347" width="1" height="1" fill="#000AFF"/>
    <rect x="2" y="7.37347" width="1" height="1" fill="#00C259"/>
    <rect x="10" y="7.37347" width="1" height="1" fill="#000AFF"/>
    <rect x="9" y="6.37347" width="1" height="1" fill="#000AFF"/>
    <rect x="9" y="7.37347" width="1" height="1" fill="#000AFF"/>
    <rect x="8" y="7.37347" width="1" height="1" fill="#000AFF"/>
    <rect x="13" y="7.37347" width="1" height="1" fill="#000AFF"/>
    <rect x="13" y="6.37347" width="1" height="1" fill="#000AFF"/>
    <rect x="14" y="7.37347" width="1" height="1" fill="#000AFF"/>
    <rect x="2" y="8.37347" width="1" height="1" fill="#CE4FE5"/>
    <rect x="10" y="8.37347" width="1" height="1" fill="#00C259"/>
    <rect x="2" y="9.37347" width="1" height="1" fill="#CE4FE5"/>
    <rect x="10" y="9.37347" width="1" height="1" fill="#00C259"/>
    <rect x="3" y="5.37347" width="1" height="1" fill="#00C259"/>
    <rect x="11" y="5.37347" width="1" height="1" fill="#000AFF"/>
    <rect x="3" y="6.37347" width="1" height="1" fill="#00C259"/>
    <rect x="11" y="6.37347" width="1" height="1" fill="#000AFF"/>
    <rect x="3" y="7.37347" width="1" height="1" fill="#00C259"/>
    <rect x="11" y="7.37347" width="1" height="1" fill="#000AFF"/>
    <rect x="4" y="5.37347" width="1" height="1" fill="#00C259"/>
    <rect x="12" y="5.37347" width="1" height="1" fill="#000AFF"/>
    <rect x="4" y="6.37347" width="1" height="1" fill="#00C259"/>
    <rect x="12" y="6.37347" width="1" height="1" fill="#000AFF"/>
    <rect x="4" y="7.37347" width="1" height="1" fill="#00C259"/>
    <rect x="12" y="7.37347" width="1" height="1" fill="#000AFF"/>
    <rect x="4" y="8.37347" width="1" height="1" fill="#CE4FE5"/>
    <rect x="12" y="8.37347" width="1" height="1" fill="#00C259"/>
    <rect x="4" y="9.37347" width="1" height="1" fill="#CE4FE5"/>
    <rect x="12" y="9.37347" width="1" height="1" fill="#00C259"/>
    <rect x="5" y="4.37347" width="1" height="1" fill="#CE4FE5"/>
    <rect x="13" y="4.37347" width="1" height="1" fill="#00C259"/>
    <rect x="6" y="4.37347" width="1" height="1" fill="#CE4FE5"/>
    <rect x="14" y="4.37347" width="1" height="1" fill="#00C259"/>
  </g>
</svg>
