<svg width="160" height="160" viewBox="0 0 160 160" fill="none" xmlns="http://www.w3.org/2000/svg">
<rect x="70" y="30" width="10" height="10" fill="#FF55FF"/>
<rect x="100" y="30" width="10" height="10" fill="#FF55FF"/>
<rect x="110" y="30" width="10" height="10" fill="#FF55FF"/>
<rect x="60" y="40" width="10" height="10" fill="#FF55FF"/>
<rect x="70" y="40" width="10" height="10" fill="#FF55FF"/>
<rect x="80" y="40" width="10" height="10" fill="#FF55FF"/>
<rect x="100" y="40" width="10" height="10" fill="#FF55FF"/>
<rect x="110" y="40" width="10" height="10" fill="#FF55FF"/>
<rect x="120" y="40" width="10" height="10" fill="#FF55FF"/>
<rect x="70" y="50" width="10" height="10" fill="#FF55FF"/>
<rect x="80" y="50" width="10" height="10" fill="#FF55FF"/>
<rect x="90" y="50" width="10" height="10" fill="#FF55FF"/>
<rect x="100" y="50" width="10" height="10" fill="#FF55FF"/>
<rect x="110" y="50" width="10" height="10" fill="#FF55FF"/>
<rect x="120" y="50" width="10" height="10" fill="#FF55FF"/>
<rect x="40" y="60" width="10" height="10" fill="#FF55FF"/>
<rect x="70" y="60" width="10" height="10" fill="#FF55FF"/>
<rect x="80" y="60" width="10" height="10" fill="#FF55FF"/>
<rect x="90" y="60" width="10" height="10" fill="#FF55FF"/>
<rect x="100" y="60" width="10" height="10" fill="#FF55FF"/>
<rect x="30" y="70" width="10" height="10" fill="#FF55FF"/>
<rect x="40" y="70" width="10" height="10" fill="#FF55FF"/>
<rect x="50" y="70" width="10" height="10" fill="#FF55FF"/>
<rect x="60" y="70" width="10" height="10" fill="#FF55FF"/>
<rect x="70" y="70" width="10" height="10" fill="#FF55FF"/>
<rect x="80" y="70" width="10" height="10" fill="#FF55FF"/>
<rect x="90" y="70" width="10" height="10" fill="#FF55FF"/>
<rect x="100" y="70" width="10" height="10" fill="#FF55FF"/>
<rect x="110" y="70" width="10" height="10" fill="#FF55FF"/>
<rect x="40" y="80" width="10" height="10" fill="#FF55FF"/>
<rect x="50" y="80" width="10" height="10" fill="#FF55FF"/>
<rect x="60" y="80" width="10" height="10" fill="#FF55FF"/>
<rect x="70" y="80" width="10" height="10" fill="#FF55FF"/>
<rect x="80" y="80" width="10" height="10" fill="#FF55FF"/>
<rect x="90" y="80" width="10" height="10" fill="#FF55FF"/>
<rect x="100" y="80" width="10" height="10" fill="#FF55FF"/>
<rect x="110" y="80" width="10" height="10" fill="#FF55FF"/>
<rect x="120" y="80" width="10" height="10" fill="#FF55FF"/>
<rect x="50" y="90" width="10" height="10" fill="#FF55FF"/>
<rect x="60" y="90" width="10" height="10" fill="#FF55FF"/>
<rect x="70" y="90" width="10" height="10" fill="#FF55FF"/>
<rect x="80" y="90" width="10" height="10" fill="#FF55FF"/>
<rect x="110" y="90" width="10" height="10" fill="#FF55FF"/>
<rect x="30" y="100" width="10" height="10" fill="#FF55FF"/>
<rect x="40" y="100" width="10" height="10" fill="#FF55FF"/>
<rect x="50" y="100" width="10" height="10" fill="#FF55FF"/>
<rect x="60" y="100" width="10" height="10" fill="#FF55FF"/>
<rect x="70" y="100" width="10" height="10" fill="#FF55FF"/>
<rect x="80" y="100" width="10" height="10" fill="#FF55FF"/>
<rect x="30" y="110" width="10" height="10" fill="#FF55FF"/>
<rect x="40" y="110" width="10" height="10" fill="#FF55FF"/>
<rect x="50" y="110" width="10" height="10" fill="#FF55FF"/>
<rect x="70" y="110" width="10" height="10" fill="#FF55FF"/>
<rect x="80" y="110" width="10" height="10" fill="#FF55FF"/>
<rect x="90" y="110" width="10" height="10" fill="#FF55FF"/>
<rect x="40" y="120" width="10" height="10" fill="#FF55FF"/>
<rect x="50" y="120" width="10" height="10" fill="#FF55FF"/>
<rect x="80" y="120" width="10" height="10" fill="#FF55FF"/>
</svg>
