<svg width="51" height="13" viewBox="0 0 51 13" fill="black" xmlns="http://www.w3.org/2000/svg">
<g shape-rendering="crispEdges">
<rect x="20" y="0" width="1" height="1" />
<rect x="21" y="0" width="1" height="1" />
<rect x="25" y="0" width="1" height="1" />
<rect x="26" y="0" width="1" height="1" />
<rect x="37" y="0" width="1" height="1" />
<rect x="38" y="0" width="1" height="1" />
<rect x="39" y="0" width="1" height="1" />
<rect x="40" y="0" width="1" height="1" />
<rect x="20" y="1" width="1" height="1" />
<rect x="21" y="1" width="1" height="1" />
<rect x="25" y="1" width="1" height="1" />
<rect x="26" y="1" width="1" height="1" />
<rect x="39" y="1" width="1" height="1" />
<rect x="40" y="1" width="1" height="1" />
<rect x="20" y="2" width="1" height="1" />
<rect x="21" y="2" width="1" height="1" />
<rect x="39" y="2" width="1" height="1" />
<rect x="40" y="2" width="1" height="1" />
<rect x="20" y="3" width="1" height="1" />
<rect x="21" y="3" width="1" height="1" />
<rect x="39" y="3" width="1" height="1" />
<rect x="40" y="3" width="1" height="1" />
<rect x="20" y="4" width="1" height="1" />
<rect x="21" y="4" width="1" height="1" />
<rect x="39" y="4" width="1" height="1" />
<rect x="40" y="4" width="1" height="1" />
<rect x="0" y="5" width="1" height="1" />
<rect x="1" y="5" width="1" height="1" />
<rect x="3" y="5" width="1" height="1" />
<rect x="4" y="5" width="1" height="1" />
<rect x="8" y="5" width="1" height="1" />
<rect x="9" y="5" width="1" height="1" />
<rect x="10" y="5" width="1" height="1" />
<rect x="11" y="5" width="1" height="1" />
<rect x="16" y="5" width="1" height="1" />
<rect x="17" y="5" width="1" height="1" />
<rect x="18" y="5" width="1" height="1" />
<rect x="20" y="5" width="1" height="1" />
<rect x="21" y="5" width="1" height="1" />
<rect x="23" y="5" width="1" height="1" />
<rect x="24" y="5" width="1" height="1" />
<rect x="25" y="5" width="1" height="1" />
<rect x="26" y="5" width="1" height="1" />
<rect x="31" y="5" width="1" height="1" />
<rect x="32" y="5" width="1" height="1" />
<rect x="33" y="5" width="1" height="1" />
<rect x="34" y="5" width="1" height="1" />
<rect x="39" y="5" width="1" height="1" />
<rect x="40" y="5" width="1" height="1" />
<rect x="45" y="5" width="1" height="1" />
<rect x="46" y="5" width="1" height="1" />
<rect x="47" y="5" width="1" height="1" />
<rect x="48" y="5" width="1" height="1" />
<rect x="49" y="5" width="1" height="1" />
<rect x="0" y="6" width="1" height="1" />
<rect x="1" y="6" width="1" height="1" />
<rect x="2" y="6" width="1" height="1" />
<rect x="5" y="6" width="1" height="1" />
<rect x="7" y="6" width="1" height="1" />
<rect x="8" y="6" width="1" height="1" />
<rect x="11" y="6" width="1" height="1" />
<rect x="12" y="6" width="1" height="1" />
<rect x="14" y="6" width="1" height="1" />
<rect x="15" y="6" width="1" height="1" />
<rect x="19" y="6" width="1" height="1" />
<rect x="20" y="6" width="1" height="1" />
<rect x="21" y="6" width="1" height="1" />
<rect x="25" y="6" width="1" height="1" />
<rect x="26" y="6" width="1" height="1" />
<rect x="30" y="6" width="1" height="1" />
<rect x="31" y="6" width="1" height="1" />
<rect x="35" y="6" width="1" height="1" />
<rect x="39" y="6" width="1" height="1" />
<rect x="40" y="6" width="1" height="1" />
<rect x="44" y="6" width="1" height="1" />
<rect x="45" y="6" width="1" height="1" />
<rect x="49" y="6" width="1" height="1" />
<rect x="50" y="6" width="1" height="1" />
<rect x="0" y="7" width="1" height="1" />
<rect x="1" y="7" width="1" height="1" />
<rect x="11" y="7" width="1" height="1" />
<rect x="12" y="7" width="1" height="1" />
<rect x="14" y="7" width="1" height="1" />
<rect x="15" y="7" width="1" height="1" />
<rect x="20" y="7" width="1" height="1" />
<rect x="21" y="7" width="1" height="1" />
<rect x="25" y="7" width="1" height="1" />
<rect x="26" y="7" width="1" height="1" />
<rect x="30" y="7" width="1" height="1" />
<rect x="31" y="7" width="1" height="1" />
<rect x="39" y="7" width="1" height="1" />
<rect x="40" y="7" width="1" height="1" />
<rect x="44" y="7" width="1" height="1" />
<rect x="45" y="7" width="1" height="1" />
<rect x="49" y="7" width="1" height="1" />
<rect x="50" y="7" width="1" height="1" />
<rect x="0" y="8" width="1" height="1" />
<rect x="1" y="8" width="1" height="1" />
<rect x="7" y="8" width="1" height="1" />
<rect x="8" y="8" width="1" height="1" />
<rect x="9" y="8" width="1" height="1" />
<rect x="11" y="8" width="1" height="1" />
<rect x="12" y="8" width="1" height="1" />
<rect x="14" y="8" width="1" height="1" />
<rect x="15" y="8" width="1" height="1" />
<rect x="20" y="8" width="1" height="1" />
<rect x="21" y="8" width="1" height="1" />
<rect x="25" y="8" width="1" height="1" />
<rect x="26" y="8" width="1" height="1" />
<rect x="30" y="8" width="1" height="1" />
<rect x="31" y="8" width="1" height="1" />
<rect x="39" y="8" width="1" height="1" />
<rect x="40" y="8" width="1" height="1" />
<rect x="44" y="8" width="1" height="1" />
<rect x="45" y="8" width="1" height="1" />
<rect x="46" y="8" width="1" height="1" />
<rect x="47" y="8" width="1" height="1" />
<rect x="48" y="8" width="1" height="1" />
<rect x="49" y="8" width="1" height="1" />
<rect x="50" y="8" width="1" height="1" />
<rect x="0" y="9" width="1" height="1" />
<rect x="1" y="9" width="1" height="1" />
<rect x="6" y="9" width="1" height="1" />
<rect x="7" y="9" width="1" height="1" />
<rect x="10" y="9" width="1" height="1" />
<rect x="11" y="9" width="1" height="1" />
<rect x="12" y="9" width="1" height="1" />
<rect x="14" y="9" width="1" height="1" />
<rect x="15" y="9" width="1" height="1" />
<rect x="20" y="9" width="1" height="1" />
<rect x="21" y="9" width="1" height="1" />
<rect x="25" y="9" width="1" height="1" />
<rect x="26" y="9" width="1" height="1" />
<rect x="30" y="9" width="1" height="1" />
<rect x="31" y="9" width="1" height="1" />
<rect x="39" y="9" width="1" height="1" />
<rect x="40" y="9" width="1" height="1" />
<rect x="44" y="9" width="1" height="1" />
<rect x="45" y="9" width="1" height="1" />
<rect x="0" y="10" width="1" height="1" />
<rect x="1" y="10" width="1" height="1" />
<rect x="6" y="10" width="1" height="1" />
<rect x="7" y="10" width="1" height="1" />
<rect x="11" y="10" width="1" height="1" />
<rect x="12" y="10" width="1" height="1" />
<rect x="14" y="10" width="1" height="1" />
<rect x="15" y="10" width="1" height="1" />
<rect x="20" y="10" width="1" height="1" />
<rect x="21" y="10" width="1" height="1" />
<rect x="25" y="10" width="1" height="1" />
<rect x="26" y="10" width="1" height="1" />
<rect x="30" y="10" width="1" height="1" />
<rect x="31" y="10" width="1" height="1" />
<rect x="39" y="10" width="1" height="1" />
<rect x="40" y="10" width="1" height="1" />
<rect x="44" y="10" width="1" height="1" />
<rect x="45" y="10" width="1" height="1" />
<rect x="0" y="11" width="1" height="1" />
<rect x="1" y="11" width="1" height="1" />
<rect x="6" y="11" width="1" height="1" />
<rect x="7" y="11" width="1" height="1" />
<rect x="11" y="11" width="1" height="1" />
<rect x="12" y="11" width="1" height="1" />
<rect x="14" y="11" width="1" height="1" />
<rect x="15" y="11" width="1" height="1" />
<rect x="20" y="11" width="1" height="1" />
<rect x="21" y="11" width="1" height="1" />
<rect x="25" y="11" width="1" height="1" />
<rect x="26" y="11" width="1" height="1" />
<rect x="30" y="11" width="1" height="1" />
<rect x="31" y="11" width="1" height="1" />
<rect x="35" y="11" width="1" height="1" />
<rect x="39" y="11" width="1" height="1" />
<rect x="40" y="11" width="1" height="1" />
<rect x="44" y="11" width="1" height="1" />
<rect x="45" y="11" width="1" height="1" />
<rect x="50" y="11" width="1" height="1" />
<rect x="0" y="12" width="1" height="1" />
<rect x="1" y="12" width="1" height="1" />
<rect x="7" y="12" width="1" height="1" />
<rect x="8" y="12" width="1" height="1" />
<rect x="9" y="12" width="1" height="1" />
<rect x="10" y="12" width="1" height="1" />
<rect x="12" y="12" width="1" height="1" />
<rect x="15" y="12" width="1" height="1" />
<rect x="16" y="12" width="1" height="1" />
<rect x="17" y="12" width="1" height="1" />
<rect x="18" y="12" width="1" height="1" />
<rect x="19" y="12" width="1" height="1" />
<rect x="21" y="12" width="1" height="1" />
<rect x="23" y="12" width="1" height="1" />
<rect x="24" y="12" width="1" height="1" />
<rect x="25" y="12" width="1" height="1" />
<rect x="26" y="12" width="1" height="1" />
<rect x="27" y="12" width="1" height="1" />
<rect x="28" y="12" width="1" height="1" />
<rect x="31" y="12" width="1" height="1" />
<rect x="32" y="12" width="1" height="1" />
<rect x="33" y="12" width="1" height="1" />
<rect x="34" y="12" width="1" height="1" />
<rect x="37" y="12" width="1" height="1" />
<rect x="38" y="12" width="1" height="1" />
<rect x="39" y="12" width="1" height="1" />
<rect x="40" y="12" width="1" height="1" />
<rect x="41" y="12" width="1" height="1" />
<rect x="42" y="12" width="1" height="1" />
<rect x="43" y="12" width="1" height="1" />
<rect x="45" y="12" width="1" height="1" />
<rect x="46" y="12" width="1" height="1" />
<rect x="47" y="12" width="1" height="1" />
<rect x="48" y="12" width="1" height="1" />
<rect x="49" y="12" width="1" height="1" />
</g>
</svg>
