<svg width="184" height="195" viewBox="0 0 184 195" fill="none" xmlns="http://www.w3.org/2000/svg">
<g clip-path="url(#clip0_1_7)">
<path d="M157.013 64.7886L155.084 62.8591L153.154 64.7886L155.084 66.7181L157.013 64.7886Z" fill="#4D44FF"/>
<path d="M168.591 76.3658L166.661 74.4363L164.732 76.3658L166.661 78.2953L168.591 76.3658Z" fill="#4D44FF"/>
<path d="M157.013 68.6477L155.084 66.7181L153.154 68.6477L155.084 70.5772L157.013 68.6477Z" fill="#4D44FF"/>
<path d="M164.732 76.3658L162.802 74.4363L160.873 76.3658L162.802 78.2953L164.732 76.3658Z" fill="#4D44FF"/>
<path d="M155.084 70.5772L153.154 68.6477L151.225 70.5772L153.154 72.5067L155.084 70.5772Z" fill="#4D44FF"/>
<path d="M157.013 72.5067L155.084 70.5772L153.154 72.5067L155.084 74.4363L157.013 72.5067Z" fill="#4D44FF"/>
<path d="M158.943 74.4363L157.013 72.5067L155.084 74.4363L157.013 76.3658L158.943 74.4363Z" fill="#4D44FF"/>
<path d="M160.873 76.3658L158.943 74.4363L157.013 76.3658L158.943 78.2953L160.873 76.3658Z" fill="#4D44FF"/>
<path d="M162.802 78.2953L160.873 76.3658L158.943 78.2953L160.873 80.2249L162.802 78.2953Z" fill="#4D44FF"/>
<path d="M151.225 70.5772L149.295 68.6477L147.366 70.5772L149.295 72.5067L151.225 70.5772Z" fill="#4D44FF"/>
<path d="M153.154 72.5067L151.225 70.5772L149.295 72.5067L151.225 74.4363L153.154 72.5067Z" fill="#4D44FF"/>
<path d="M155.084 74.4363L153.154 72.5067L151.225 74.4363L153.154 76.3658L155.084 74.4363Z" fill="#4D44FF"/>
<path d="M157.013 76.3658L155.084 74.4363L153.154 76.3658L155.084 78.2953L157.013 76.3658Z" fill="#4D44FF"/>
<path d="M158.943 78.2953L157.013 76.3658L155.084 78.2953L157.013 80.2248L158.943 78.2953Z" fill="#4D44FF"/>
<path d="M160.873 80.2249L158.943 78.2953L157.013 80.2249L158.943 82.1544L160.873 80.2249Z" fill="#4D44FF"/>
<path d="M162.802 82.1544L160.873 80.2249L158.943 82.1544L160.873 84.0839L162.802 82.1544Z" fill="#4D44FF"/>
<path d="M147.366 70.5772L145.436 68.6477L143.507 70.5772L145.436 72.5067L147.366 70.5772Z" fill="#4D44FF"/>
<path d="M149.295 72.5067L147.366 70.5772L145.436 72.5067L147.366 74.4363L149.295 72.5067Z" fill="#4D44FF"/>
<path d="M151.225 74.4363L149.295 72.5067L147.366 74.4363L149.295 76.3658L151.225 74.4363Z" fill="white"/>
<path d="M153.154 76.3658L151.225 74.4363L149.295 76.3658L151.225 78.2953L153.154 76.3658Z" fill="white"/>
<path d="M155.084 78.2953L153.154 76.3658L151.225 78.2953L153.154 80.2249L155.084 78.2953Z" fill="#4D44FF"/>
<path d="M157.013 80.2249L155.084 78.2953L153.154 80.2249L155.084 82.1544L157.013 80.2249Z" fill="#4D44FF"/>
<path d="M158.943 82.1544L157.013 80.2249L155.084 82.1544L157.013 84.0839L158.943 82.1544Z" fill="white"/>
<path d="M160.873 84.0839L158.943 82.1544L157.013 84.0839L158.943 86.0135L160.873 84.0839Z" fill="white"/>
<path d="M162.802 86.0135L160.873 84.0839L158.943 86.0135L160.873 87.943L162.802 86.0135Z" fill="#4D44FF"/>
<path d="M145.436 72.5067L143.507 70.5772L141.577 72.5067L143.507 74.4363L145.436 72.5067Z" fill="#4D44FF"/>
<path d="M147.366 74.4363L145.436 72.5067L143.507 74.4363L145.436 76.3658L147.366 74.4363Z" fill="#4D44FF"/>
<path d="M149.295 76.3658L147.366 74.4363L145.436 76.3658L147.366 78.2953L149.295 76.3658Z" fill="white"/>
<path d="M151.225 78.2953L149.295 76.3658L147.366 78.2953L149.295 80.2249L151.225 78.2953Z" fill="#FF55FF"/>
<path d="M153.154 80.2249L151.225 78.2953L149.295 80.2249L151.225 82.1544L153.154 80.2249Z" fill="#4D44FF"/>
<path d="M155.084 82.1544L153.154 80.2249L151.225 82.1544L153.154 84.0839L155.084 82.1544Z" fill="#4D44FF"/>
<path d="M157.013 84.0839L155.084 82.1544L153.154 84.0839L155.084 86.0135L157.013 84.0839Z" fill="white"/>
<path d="M158.943 86.0135L157.013 84.0839L155.084 86.0135L157.013 87.943L158.943 86.0135Z" fill="#FF55FF"/>
<path d="M160.873 87.943L158.943 86.0135L157.013 87.943L158.943 89.8725L160.873 87.943Z" fill="#4D44FF"/>
<path d="M141.577 72.5067L139.648 70.5772L137.718 72.5067L139.648 74.4363L141.577 72.5067Z" fill="#4D44FF"/>
<path d="M143.507 74.4363L141.577 72.5067L139.648 74.4363L141.577 76.3658L143.507 74.4363Z" fill="#4D44FF"/>
<path d="M145.436 76.3658L143.507 74.4363L141.577 76.3658L143.507 78.2953L145.436 76.3658Z" fill="#4D44FF"/>
<path d="M147.366 78.2953L145.436 76.3658L143.507 78.2953L145.436 80.2248L147.366 78.2953Z" fill="#4D44FF"/>
<path d="M149.295 80.2249L147.366 78.2953L145.436 80.2249L147.366 82.1544L149.295 80.2249Z" fill="#4D44FF"/>
<path d="M151.225 82.1544L149.295 80.2249L147.366 82.1544L149.295 84.0839L151.225 82.1544Z" fill="#4D44FF"/>
<path d="M153.154 84.0839L151.225 82.1544L149.295 84.0839L151.225 86.0135L153.154 84.0839Z" fill="#4D44FF"/>
<path d="M155.084 86.0135L153.154 84.0839L151.225 86.0135L153.154 87.943L155.084 86.0135Z" fill="#4D44FF"/>
<path d="M157.013 87.943L155.084 86.0135L153.154 87.943L155.084 89.8725L157.013 87.943Z" fill="#4D44FF"/>
<path d="M158.943 89.8725L157.013 87.943L155.084 89.8725L157.013 91.8021L158.943 89.8725Z" fill="#4D44FF"/>
<path d="M160.873 91.802L158.943 89.8725L157.013 91.802L158.943 93.7316L160.873 91.802Z" fill="#4D44FF"/>
</g>
<g filter="url(#filter0_d_1_7)">
<path d="M16.5 0.5L184.5 168.5" stroke="#3333FF" stroke-width="2" stroke-dasharray="4 4"/>
<path d="M67.7071 1.29291L184 117.586" stroke="#3333FF" stroke-width="2" stroke-dasharray="4 4"/>
<path d="M52.5 -13H4L196 179V130.5L52.5 -13Z" fill="#5555FF"/>
<path d="M66.4957 19.9316C66.8546 19.4763 66.9751 18.9647 66.8573 18.3969C66.7394 17.8291 66.4314 17.2961 65.9332 16.7979C65.569 16.4336 65.1913 16.1738 64.8003 16.0184C64.4119 15.8658 64.0382 15.8162 63.6793 15.8698C63.3231 15.926 63.0137 16.0854 62.7513 16.3479C62.5316 16.5675 62.395 16.8086 62.3415 17.0711C62.2932 17.3336 62.2999 17.6001 62.3615 17.8706C62.4258 18.1384 62.5155 18.3969 62.6307 18.646C62.7486 18.8924 62.8637 19.112 62.9762 19.3049L63.5869 20.3655C63.745 20.6361 63.9057 20.9521 64.069 21.3137C64.2351 21.678 64.353 22.0663 64.4226 22.4788C64.4976 22.8913 64.4815 23.3091 64.3744 23.7323C64.2672 24.1555 64.0208 24.56 63.6351 24.9457C63.1905 25.3903 62.6722 25.6755 62.0803 25.8014C61.491 25.93 60.8683 25.8778 60.2121 25.6447C59.5586 25.4144 58.9157 24.9832 58.2836 24.3511C57.6944 23.7618 57.2792 23.1565 57.0382 22.5351C56.7998 21.9164 56.7275 21.3137 56.8212 20.7271C56.9176 20.1432 57.1748 19.6102 57.5926 19.1281L58.6211 20.1566C58.3372 20.4941 58.1845 20.8557 58.1631 21.2414C58.147 21.6271 58.2301 22.0101 58.4122 22.3904C58.5997 22.7708 58.8568 23.1243 59.1836 23.4511C59.5639 23.8314 59.967 24.1113 60.3929 24.2908C60.8214 24.4676 61.2353 24.5332 61.6343 24.4877C62.0361 24.4394 62.387 24.2653 62.687 23.9654C62.9602 23.6922 63.1061 23.3935 63.1249 23.0694C63.1436 22.7453 63.082 22.4052 62.9401 22.0489C62.7981 21.6927 62.6227 21.3298 62.4138 20.9602L61.6906 19.6584C61.2326 18.8308 60.9875 18.0581 60.9554 17.3403C60.9232 16.6224 61.1844 15.9863 61.7388 15.4319C62.1995 14.9712 62.7258 14.694 63.3177 14.6002C63.915 14.5065 64.5204 14.5761 65.1337 14.8091C65.7524 15.0422 66.3243 15.4212 66.8493 15.9461C67.3796 16.4765 67.7559 17.0429 67.9782 17.6456C68.2032 18.2456 68.2728 18.8295 68.1871 19.3973C68.1041 19.9678 67.8617 20.4673 67.4599 20.8959L66.4957 19.9316ZM65.3698 31.405C64.7751 30.8104 64.3935 30.1663 64.2247 29.4726C64.0613 28.7788 64.1002 28.0784 64.3412 27.3713C64.5877 26.6642 65.0269 25.9946 65.659 25.3625C66.2911 24.7304 66.9634 24.2884 67.6759 24.0367C68.3937 23.7849 69.0955 23.7313 69.7811 23.876C70.4722 24.0206 71.0962 24.3715 71.6534 24.9286C71.9748 25.25 72.2386 25.621 72.4448 26.0415C72.6511 26.462 72.7622 26.9213 72.7783 27.4195C72.7971 27.915 72.6859 28.436 72.4448 28.9824C72.2038 29.5288 71.7953 30.0899 71.2195 30.6658L70.8177 31.0676L66.0608 26.3107L66.8804 25.4911L70.6731 29.2837C71.0213 28.9355 71.2623 28.5552 71.3962 28.1427C71.5328 27.7329 71.5529 27.3218 71.4565 26.9093C71.3628 26.4995 71.1445 26.1232 70.8016 25.7803C70.424 25.4027 70.0034 25.1696 69.5401 25.0813C69.0821 24.9929 68.6308 25.0237 68.1861 25.1737C67.7415 25.3237 67.3491 25.5687 67.009 25.9089L66.4626 26.4553C65.9965 26.9213 65.6818 27.3968 65.5184 27.8816C65.3604 28.3664 65.3416 28.8378 65.4622 29.2958C65.5854 29.7511 65.8385 30.1703 66.2215 30.5533C66.4706 30.8024 66.7304 30.9926 67.0009 31.1238C67.2768 31.2551 67.5594 31.3234 67.8486 31.3287C68.1406 31.3314 68.4339 31.2658 68.7285 31.1318L69.3874 32.305C68.9803 32.5193 68.545 32.6304 68.0817 32.6385C67.621 32.6438 67.1576 32.5447 66.6916 32.3412C66.2282 32.1349 65.7876 31.8229 65.3698 31.405ZM71.9547 37.99C71.3601 37.3954 70.9784 36.7512 70.8097 36.0575C70.6463 35.3638 70.6851 34.6634 70.9262 33.9563C71.1726 33.2491 71.6118 32.5795 72.244 31.9474C72.8761 31.3153 73.5484 30.8734 74.2608 30.6216C74.9786 30.3698 75.6804 30.3163 76.3661 30.4609C77.0571 30.6055 77.6812 30.9564 78.2383 31.5135C78.5597 31.8349 78.8235 32.2059 79.0298 32.6264C79.236 33.0469 79.3472 33.5063 79.3632 34.0045C79.382 34.5 79.2708 35.0209 79.0298 35.5673C78.7887 36.1137 78.3803 36.6749 77.8044 37.2507L77.4026 37.6525L72.6457 32.8956L73.4653 32.076L77.258 35.8687C77.6062 35.5205 77.8472 35.1401 77.9812 34.7276C78.1178 34.3178 78.1379 33.9067 78.0414 33.4942C77.9477 33.0844 77.7294 32.7081 77.3866 32.3653C77.0089 31.9876 76.5884 31.7546 76.125 31.6662C75.667 31.5778 75.2157 31.6086 74.7711 31.7586C74.3264 31.9086 73.9341 32.1537 73.5939 32.4938L73.0475 33.0402C72.5814 33.5063 72.2667 33.9817 72.1033 34.4665C71.9453 34.9513 71.9266 35.4227 72.0471 35.8807C72.1703 36.336 72.4234 36.7552 72.8064 37.1382C73.0555 37.3873 73.3153 37.5775 73.5859 37.7087C73.8617 37.84 74.1443 37.9083 74.4336 37.9136C74.7255 37.9163 75.0188 37.8507 75.3134 37.7168L75.9723 38.8899C75.5652 39.1042 75.13 39.2154 74.6666 39.2234C74.2059 39.2288 73.7425 39.1297 73.2765 38.9261C72.8131 38.7199 72.3725 38.4078 71.9547 37.99ZM78.2825 44.3178C77.7682 43.8035 77.4441 43.2196 77.3102 42.5661C77.179 41.9099 77.2406 41.2322 77.495 40.5332C77.7522 39.8314 78.2075 39.1538 78.861 38.5002C79.5092 37.852 80.1828 37.4007 80.8819 37.1463C81.581 36.8918 82.2586 36.8329 82.9148 36.9695C83.5711 37.1061 84.159 37.4342 84.6786 37.9538C85.0804 38.3556 85.3308 38.7399 85.4299 39.1069C85.5344 39.4738 85.5638 39.8033 85.5183 40.0952C85.4781 40.3872 85.4393 40.6215 85.4018 40.7983L85.4821 40.8787L88.5195 37.8413L89.4676 38.7895L81.2395 47.0176L80.3235 46.1016L81.2716 45.1535L81.1591 45.041C80.977 45.0838 80.7359 45.1267 80.436 45.1695C80.1386 45.2097 79.8038 45.1776 79.4315 45.0731C79.0619 44.966 78.6789 44.7142 78.2825 44.3178ZM79.2628 43.5946C79.6431 43.9749 80.0636 44.1973 80.5243 44.2615C80.9877 44.3231 81.4645 44.2455 81.9546 44.0285C82.4475 43.8089 82.9269 43.466 83.3929 43C83.8536 42.5393 84.1898 42.0692 84.4014 41.5898C84.6156 41.1077 84.688 40.6389 84.6183 40.1836C84.5514 39.7256 84.325 39.3037 83.9393 38.9181C83.5376 38.5163 83.0997 38.2846 82.6256 38.223C82.1568 38.1614 81.6801 38.2391 81.1953 38.456C80.7158 38.673 80.2592 38.9984 79.8253 39.4323C79.386 39.8716 79.0539 40.3376 78.8289 40.8305C78.6093 41.3233 78.5262 41.8081 78.5798 42.2848C78.6387 42.7616 78.8664 43.1982 79.2628 43.5946ZM86.2897 52.0678L92.4608 45.8967L93.3768 46.8127L92.4126 47.777L92.4929 47.8573C92.9509 47.6564 93.4143 47.6082 93.883 47.7127C94.3544 47.8145 94.791 48.0662 95.1928 48.468C95.5999 48.8751 95.8463 49.3064 95.932 49.7617C96.0231 50.217 95.9802 50.6858 95.8035 51.1679L95.8678 51.2322C96.3445 51.0715 96.8347 51.0554 97.3382 51.1839C97.8444 51.3098 98.3185 51.5937 98.7605 52.0357C99.3122 52.5874 99.5908 53.2115 99.5961 53.9079C99.6042 54.6016 99.2453 55.3114 98.5194 56.0373L94.3893 60.1674L93.4411 59.2193L97.5712 55.0891C98.0266 54.6338 98.2275 54.1838 98.1739 53.7392C98.1203 53.2946 97.9248 52.9035 97.5873 52.566C97.1534 52.1321 96.686 51.9272 96.1851 51.9513C95.687 51.9727 95.2383 52.183 94.8392 52.5821L90.8216 56.5997L89.8573 55.6355L94.0839 51.4089C94.4348 51.0581 94.6035 50.6617 94.5901 50.2197C94.5794 49.7751 94.3946 49.3733 94.0357 49.0144C93.7893 48.768 93.4933 48.6033 93.1478 48.5202C92.805 48.4399 92.4514 48.4506 92.0871 48.5524C91.7282 48.6542 91.3974 48.8564 91.0948 49.1591L87.2378 53.016L86.2897 52.0678ZM98.5817 64.617C97.9871 64.0224 97.6054 63.3782 97.4366 62.6845C97.2733 61.9908 97.3121 61.2904 97.5532 60.5832C97.7996 59.8761 98.2388 59.2065 98.8709 58.5744C99.5031 57.9423 100.175 57.5004 100.888 57.2486C101.606 56.9968 102.307 56.9433 102.993 57.0879C103.684 57.2325 104.308 57.5834 104.865 58.1405C105.187 58.4619 105.451 58.8329 105.657 59.2534C105.863 59.6739 105.974 60.1333 105.99 60.6315C106.009 61.127 105.898 61.6479 105.657 62.1943C105.416 62.7407 105.007 63.3019 104.431 63.8777L104.03 64.2795L99.2727 59.5226L100.092 58.703L103.885 62.4956C104.233 62.1475 104.474 61.7671 104.608 61.3546C104.745 60.9448 104.765 60.5337 104.668 60.1212C104.575 59.7114 104.356 59.3351 104.014 58.9923C103.636 58.6146 103.215 58.3816 102.752 58.2932C102.294 58.2048 101.843 58.2356 101.398 58.3856C100.953 58.5356 100.561 58.7807 100.221 59.1208L99.6745 59.6672C99.2084 60.1333 98.8937 60.6087 98.7303 61.0935C98.5723 61.5783 98.5536 62.0497 98.6741 62.5077C98.7973 62.963 99.0504 63.3822 99.4334 63.7652C99.6825 64.0143 99.9423 64.2045 100.213 64.3357C100.489 64.467 100.771 64.5353 101.061 64.5406C101.353 64.5433 101.646 64.4777 101.94 64.3438L102.599 65.5169C102.192 65.7312 101.757 65.8424 101.294 65.8504C100.833 65.8557 100.37 65.7566 99.9035 65.5531C99.4401 65.3468 98.9995 65.0348 98.5817 64.617ZM108.268 74.3035C107.711 73.7464 107.355 73.125 107.2 72.4393C107.047 71.7563 107.091 71.0586 107.332 70.3461C107.576 69.6364 108.016 68.9627 108.654 68.3253C109.297 67.6824 109.974 67.2378 110.687 66.9914C111.402 66.7477 112.101 66.7021 112.784 66.8548C113.47 67.0101 114.091 67.3664 114.648 67.9235C115.205 68.4806 115.56 69.1007 115.713 69.7837C115.868 70.4693 115.823 71.1684 115.576 71.8809C115.333 72.596 114.889 73.275 114.247 73.9178C113.609 74.5553 112.934 74.9946 112.222 75.2356C111.512 75.4794 110.814 75.5236 110.128 75.3682C109.445 75.2155 108.825 74.8606 108.268 74.3035ZM109.12 73.4518C109.543 73.875 110 74.1147 110.49 74.1709C110.98 74.2272 111.468 74.1442 111.952 73.9218C112.437 73.6995 112.886 73.3821 113.298 72.9697C113.711 72.5572 114.03 72.1072 114.255 71.6197C114.48 71.1323 114.565 70.6421 114.512 70.1493C114.458 69.6564 114.22 69.1984 113.797 68.7752C113.373 68.352 112.915 68.1137 112.422 68.0601C111.93 68.0065 111.44 68.0922 110.952 68.3172C110.465 68.5422 110.015 68.8609 109.602 69.2734C109.19 69.6859 108.872 70.1345 108.65 70.6193C108.428 71.1041 108.345 71.5916 108.401 72.0818C108.457 72.5719 108.697 73.0286 109.12 73.4518ZM117.301 75.6545L113.589 79.3668L112.64 78.4186L118.812 72.2475L119.728 73.1635L118.763 74.1278L118.844 74.2081C119.302 74.0394 119.773 74.0072 120.258 74.1117C120.745 74.2135 121.222 74.4974 121.688 74.9634C122.106 75.3813 122.386 75.8326 122.528 76.3174C122.673 76.7995 122.659 77.3004 122.488 77.82C122.319 78.3369 121.972 78.8579 121.447 79.3828L117.526 83.3041L116.578 82.3559L120.435 78.499C120.919 78.0142 121.171 77.5106 121.19 76.9883C121.211 76.4633 121.003 75.9812 120.563 75.542C120.261 75.2393 119.924 75.0344 119.555 74.9273C119.188 74.8228 118.81 74.8282 118.422 74.9433C118.033 75.0585 117.66 75.2956 117.301 75.6545ZM122.288 88.066L130.516 79.8378L133.762 83.0841C134.384 83.7055 134.803 84.347 135.02 85.0086C135.242 85.6701 135.266 86.3183 135.092 86.9531C134.923 87.5879 134.567 88.1771 134.023 88.7209C133.477 89.2673 132.889 89.6195 132.26 89.7775C131.633 89.9329 130.991 89.8913 130.335 89.653C129.682 89.4173 129.039 88.9834 128.407 88.3512L126.233 86.1777L127.631 84.7796L129.524 86.6719C129.856 87.004 130.177 87.2343 130.488 87.3629C130.799 87.4915 131.099 87.5183 131.388 87.4433C131.68 87.3709 131.961 87.1995 132.232 86.929C132.505 86.6558 132.68 86.3705 132.758 86.0732C132.838 85.7786 132.815 85.4719 132.69 85.1532C132.569 84.8345 132.341 84.5077 132.007 84.1729L130.833 82.9997L124.027 89.8056L122.288 88.066ZM130.476 88.7651L128.776 94.5545L126.856 92.6341L128.6 86.8888L130.476 88.7651ZM131.324 97.3347C130.93 96.941 130.647 96.5218 130.476 96.0772C130.307 95.6299 130.268 95.1813 130.359 94.7313C130.456 94.2813 130.707 93.8528 131.115 93.4456C131.457 93.1028 131.808 92.8778 132.167 92.7707C132.526 92.6635 132.885 92.6475 133.244 92.7225C133.603 92.7974 133.956 92.9367 134.305 93.1403C134.656 93.3465 134.998 93.5876 135.333 93.8635C135.73 94.1849 136.054 94.4393 136.305 94.6268C136.56 94.8116 136.77 94.9201 136.936 94.9522C137.102 94.9844 137.251 94.9348 137.382 94.8036L137.406 94.7795C137.661 94.525 137.777 94.2478 137.756 93.9478C137.737 93.6505 137.582 93.3559 137.29 93.064C136.982 92.7559 136.668 92.5792 136.35 92.5336C136.034 92.4854 135.744 92.5336 135.482 92.6783L134.027 90.9667C134.483 90.6721 134.965 90.506 135.474 90.4685C135.985 90.4284 136.501 90.5208 137.021 90.7458C137.546 90.9708 138.054 91.3297 138.547 91.8225C138.89 92.1653 139.178 92.5336 139.411 92.9274C139.647 93.3238 139.802 93.7282 139.877 94.1407C139.955 94.5558 139.932 94.967 139.809 95.3741C139.688 95.7785 139.445 96.1642 139.078 96.5312L134.915 100.693L133.292 99.0703L134.148 98.2146L134.1 98.1664C133.808 98.2601 133.505 98.2976 133.192 98.2789C132.881 98.2574 132.568 98.1717 132.252 98.0217C131.938 97.8691 131.629 97.6401 131.324 97.3347ZM132.995 96.6437C133.247 96.8955 133.519 97.0682 133.81 97.162C134.105 97.253 134.393 97.2678 134.674 97.2062C134.955 97.1445 135.205 97.0053 135.422 96.7883L136.076 96.1334C135.988 96.1147 135.882 96.0732 135.759 96.0089C135.641 95.9446 135.513 95.8669 135.373 95.7759C135.237 95.6821 135.101 95.587 134.968 95.4906C134.836 95.3915 134.717 95.3018 134.61 95.2214C134.38 95.05 134.157 94.9214 133.943 94.8357C133.729 94.75 133.525 94.7206 133.332 94.7473C133.142 94.7715 132.967 94.8639 132.806 95.0246C132.573 95.2576 132.479 95.5201 132.525 95.812C132.576 96.104 132.732 96.3812 132.995 96.6437ZM138.417 104.396C137.948 103.927 137.644 103.382 137.505 102.761C137.371 102.139 137.428 101.482 137.677 100.788C137.932 100.094 138.403 99.4031 139.092 98.7148C139.799 98.0077 140.501 97.5336 141.197 97.2925C141.896 97.0488 142.551 96.9992 143.162 97.1439C143.778 97.2885 144.312 97.5872 144.765 98.0398C145.11 98.3853 145.339 98.7322 145.452 99.0804C145.569 99.4286 145.612 99.7607 145.58 100.077C145.553 100.393 145.494 100.671 145.403 100.912L145.456 100.965L148.549 97.8711L150.257 99.5786L142.029 107.807L140.341 106.119L141.329 105.131L141.257 105.059C141.005 105.15 140.721 105.206 140.405 105.227C140.095 105.249 139.768 105.198 139.425 105.075C139.085 104.954 138.749 104.728 138.417 104.396ZM140.321 103.576C140.597 103.852 140.905 104.01 141.245 104.05C141.591 104.09 141.951 104.025 142.326 103.853C142.704 103.685 143.076 103.417 143.443 103.05C143.81 102.683 144.078 102.313 144.246 101.941C144.415 101.569 144.477 101.212 144.431 100.872C144.386 100.532 144.225 100.224 143.949 99.9482C143.668 99.667 143.354 99.5063 143.009 99.4661C142.663 99.4259 142.306 99.4915 141.936 99.6629C141.567 99.8344 141.204 100.098 140.847 100.454C140.488 100.813 140.221 101.18 140.044 101.555C139.872 101.93 139.804 102.29 139.839 102.636C139.879 102.982 140.04 103.295 140.321 103.576ZM143.436 109.214L149.607 103.043L151.318 104.754L145.147 110.925L143.436 109.214ZM151.262 103.107C151.008 102.853 150.874 102.55 150.86 102.199C150.852 101.848 150.968 101.554 151.206 101.315C151.442 101.08 151.734 100.967 152.082 100.978C152.435 100.988 152.739 101.121 152.994 101.375C153.248 101.63 153.379 101.933 153.387 102.283C153.401 102.634 153.29 102.928 153.054 103.163C152.816 103.402 152.52 103.516 152.166 103.505C151.818 103.494 151.517 103.362 151.262 103.107ZM149.186 115.205C148.554 114.573 148.144 113.895 147.957 113.172C147.774 112.449 147.801 111.726 148.037 111.003C148.275 110.282 148.707 109.61 149.331 108.986C149.963 108.354 150.639 107.921 151.36 107.688C152.085 107.455 152.809 107.431 153.529 107.616C154.252 107.798 154.926 108.201 155.55 108.825C156.088 109.364 156.462 109.933 156.671 110.533C156.88 111.133 156.925 111.727 156.808 112.317C156.69 112.906 156.404 113.451 155.952 113.952L154.337 112.337C154.599 111.983 154.726 111.615 154.718 111.232C154.716 110.849 154.558 110.501 154.244 110.187C153.979 109.922 153.675 109.763 153.332 109.709C152.995 109.656 152.634 109.71 152.251 109.874C151.868 110.037 151.483 110.313 151.094 110.701C150.701 111.095 150.419 111.484 150.251 111.867C150.085 112.252 150.028 112.617 150.082 112.959C150.136 113.302 150.295 113.606 150.56 113.871C150.756 114.067 150.971 114.202 151.207 114.277C151.445 114.355 151.692 114.368 151.946 114.317C152.206 114.266 152.46 114.149 152.709 113.964L154.325 115.579C153.826 116.023 153.283 116.31 152.693 116.439C152.11 116.567 151.516 116.531 150.914 116.33C150.311 116.129 149.735 115.754 149.186 115.205ZM163.098 112.42L154.87 120.648L153.158 118.937L161.387 110.708L163.098 112.42ZM158.933 124.952C158.298 124.317 157.88 123.642 157.679 122.927C157.484 122.212 157.5 121.494 157.728 120.774C157.958 120.051 158.398 119.364 159.049 118.713C159.684 118.078 160.364 117.644 161.09 117.411C161.816 117.178 162.537 117.151 163.252 117.331C163.97 117.513 164.631 117.906 165.237 118.512C165.644 118.919 165.957 119.364 166.177 119.846C166.402 120.328 166.515 120.83 166.518 121.352C166.524 121.877 166.403 122.41 166.157 122.951C165.913 123.49 165.528 124.021 165.004 124.546L164.533 125.016L159.323 119.805L160.383 118.745L163.983 122.345C164.229 122.098 164.394 121.826 164.477 121.529C164.56 121.232 164.56 120.934 164.477 120.637C164.4 120.34 164.236 120.067 163.987 119.817C163.727 119.558 163.437 119.388 163.115 119.307C162.799 119.227 162.484 119.231 162.171 119.319C161.86 119.405 161.582 119.568 161.335 119.809L160.327 120.818C160.022 121.123 159.814 121.443 159.704 121.778C159.597 122.116 159.588 122.449 159.676 122.779C159.764 123.108 159.952 123.416 160.239 123.703C160.429 123.893 160.63 124.04 160.841 124.145C161.053 124.249 161.268 124.304 161.488 124.309C161.708 124.315 161.925 124.269 162.139 124.173L163.617 125.86C163.157 126.16 162.66 126.327 162.127 126.362C161.599 126.397 161.061 126.298 160.512 126.065C159.968 125.832 159.442 125.461 158.933 124.952Z" fill="white"/>
<path d="M15.5 -0.5L183.5 167.5" stroke="#5555FF" stroke-width="2" stroke-dasharray="4 4"/>
<path d="M66.7071 0.292908L183.707 117.293" stroke="#5555FF" stroke-width="2" stroke-dasharray="4 4"/>
</g>
<defs>
<filter id="filter0_d_1_7" x="0" y="-13" width="208" height="208" filterUnits="userSpaceOnUse" color-interpolation-filters="sRGB">
<feFlood flood-opacity="0" result="BackgroundImageFix"/>
<feColorMatrix in="SourceAlpha" type="matrix" values="0 0 0 0 0 0 0 0 0 0 0 0 0 0 0 0 0 0 127 0" result="hardAlpha"/>
<feOffset dx="4" dy="8"/>
<feGaussianBlur stdDeviation="4"/>
<feComposite in2="hardAlpha" operator="out"/>
<feColorMatrix type="matrix" values="0 0 0 0 0 0 0 0 0 0 0 0 0 0 0 0 0 0 0.3 0"/>
<feBlend mode="normal" in2="BackgroundImageFix" result="effect1_dropShadow_1_7"/>
<feBlend mode="normal" in="SourceGraphic" in2="effect1_dropShadow_1_7" result="shape"/>
</filter>
<clipPath id="clip0_1_7">
<rect width="30.0165" height="30.0165" fill="white" transform="translate(151.225 59) rotate(45)"/>
</clipPath>
</defs>
</svg>
