<svg width="264" height="264" viewBox="0 0 264 264" fill="none" xmlns="http://www.w3.org/2000/svg">
  <g shape-rendering="crispEdges">
    <rect x="120" y="0" width="24" height="24" fill="#EF7D57"/>
    <rect x="24" y="24" width="24" height="24" fill="#EF7D57"/>
    <rect x="120" y="24" width="24" height="24" fill="#FFCD75"/>
    <rect x="216" y="24" width="24" height="24" fill="#EF7D57"/>
    <rect x="48" y="48" width="24" height="24" fill="#FFCD75"/>
    <rect x="96" y="48" width="24" height="24" fill="#EF7D57"/>
    <rect x="120" y="48" width="24" height="24" fill="#FFCD75"/>
    <rect x="144" y="48" width="24" height="24" fill="#EF7D57"/>
    <rect x="192" y="48" width="24" height="24" fill="#FFCD75"/>
    <rect x="72" y="72" width="24" height="24" fill="#EF7D57"/>
    <rect x="96" y="72" width="24" height="24" fill="#FFCD75"/>
    <rect x="120" y="72" width="24" height="24" fill="#EF7D57"/>
    <rect x="144" y="72" width="24" height="24" fill="#FFCD75"/>
    <rect x="168" y="72" width="24" height="24" fill="#EF7D57"/>
    <rect x="48" y="96" width="24" height="24" fill="#EF7D57"/>
    <rect x="72" y="96" width="24" height="24" fill="#FFCD75"/>
    <rect x="96" y="96" width="24" height="24" fill="#FFCD75"/>
    <rect x="120" y="96" width="24" height="24" fill="#FFCD75"/>
    <rect x="144" y="96" width="24" height="24" fill="#FFCD75"/>
    <rect x="168" y="96" width="24" height="24" fill="#FFCD75"/>
    <rect x="192" y="96" width="24" height="24" fill="#EF7D57"/>
    <rect x="0" y="120" width="24" height="24" fill="#EF7D57"/>
    <rect x="24" y="120" width="24" height="24" fill="#FFCD75"/>
    <rect x="48" y="120" width="24" height="24" fill="#FFCD75"/>
    <rect x="72" y="120" width="24" height="24" fill="#1A1C2C"/>
    <rect x="96" y="120" width="24" height="24" fill="#F4F4F4"/>
    <rect x="120" y="120" width="24" height="24" fill="#FFCD75"/>
    <rect x="144" y="120" width="24" height="24" fill="#1A1C2C"/>
    <rect x="168" y="120" width="24" height="24" fill="#F4F4F4"/>
    <rect x="192" y="120" width="24" height="24" fill="#FFCD75"/>
    <rect x="216" y="120" width="24" height="24" fill="#FFCD75"/>
    <rect x="240" y="120" width="24" height="24" fill="#EF7D57"/>
    <rect x="48" y="144" width="24" height="24" fill="#EF7D57"/>
    <rect x="72" y="144" width="24" height="24" fill="#FFCD75"/>
    <rect x="96" y="144" width="24" height="24" fill="#FFCD75"/>
    <rect x="120" y="144" width="24" height="24" fill="#FFCD75"/>
    <rect x="144" y="144" width="24" height="24" fill="#FFCD75"/>
    <rect x="168" y="144" width="24" height="24" fill="#FFCD75"/>
    <rect x="192" y="144" width="24" height="24" fill="#EF7D57"/>
    <rect x="72" y="168" width="24" height="24" fill="#EF7D57"/>
    <rect x="96" y="168" width="24" height="24" fill="#FFCD75"/>
    <rect x="120" y="168" width="24" height="24" fill="#EF7D57"/>
    <rect x="144" y="168" width="24" height="24" fill="#FFCD75"/>
    <rect x="168" y="168" width="24" height="24" fill="#EF7D57"/>
    <rect x="48" y="192" width="24" height="24" fill="#FFCD75"/>
    <rect x="96" y="192" width="24" height="24" fill="#EF7D57"/>
    <rect x="120" y="192" width="24" height="24" fill="#FFCD75"/>
    <rect x="144" y="192" width="24" height="24" fill="#EF7D57"/>
    <rect x="192" y="192" width="24" height="24" fill="#FFCD75"/>
    <rect x="24" y="216" width="24" height="24" fill="#EF7D57"/>
    <rect x="120" y="216" width="24" height="24" fill="#FFCD75"/>
    <rect x="216" y="216" width="24" height="24" fill="#EF7D57"/>
    <rect x="120" y="240" width="24" height="24" fill="#EF7D57"/>
  </g>
</svg>
