<svg xmlns="http://www.w3.org/2000/svg" version="1.1" viewBox="0 0 568.6068795283663 434.95101002887304" width="568.6068795283663" height="434.95101002887304">
  <defs>
    <style>
      @import url("/assets/css/fonts.css");
      svg { font-size: 16px; font-family: "Inter", sans-serif; }
    </style>
  </defs>
  <g stroke-linecap="round" transform="translate(10 17.97897946733997) rotate(0 49.240810459650675 49.24081045965056)">
    <path d="M65.11 3.56 C72.47 5.67, 80.47 11.58, 85.81 17.58 C91.15 23.58, 95.61 31.54, 97.14 39.55 C98.66 47.55, 97.71 57.67, 94.97 65.6 C92.22 73.53, 86.82 81.82, 80.68 87.14 C74.54 92.45, 65.95 95.95, 58.13 97.49 C50.32 99.03, 41.45 99.03, 33.79 96.36 C26.12 93.68, 17.6 87.64, 12.14 81.44 C6.69 75.24, 2.52 67.32, 1.06 59.18 C-0.41 51.04, 0.68 40.37, 3.37 32.61 C6.06 24.84, 11.22 17.88, 17.21 12.57 C23.19 7.27, 30.64 2.08, 39.28 0.79 C47.92 -0.5, 63.3 3.6, 69.03 4.82 C74.77 6.04, 73.94 7.31, 73.68 8.12 M60.87 2.09 C68.72 3.67, 77.78 9.28, 83.61 15.03 C89.44 20.78, 93.63 28.88, 95.85 36.6 C98.08 44.31, 99.01 53.32, 96.98 61.31 C94.95 69.3, 89.3 78.58, 83.66 84.51 C78.02 90.45, 71.15 94.86, 63.15 96.9 C55.16 98.95, 43.68 98.99, 35.7 96.78 C27.72 94.57, 20.88 89.3, 15.25 83.66 C9.62 78.02, 4.01 70.6, 1.94 62.94 C-0.13 55.27, 0.77 45.72, 2.82 37.68 C4.88 29.64, 8.86 20.74, 14.28 14.69 C19.69 8.65, 27.56 3.37, 35.32 1.42 C43.08 -0.53, 56.36 2.87, 60.85 3.01 C65.33 3.14, 62.38 1.84, 62.23 2.24" stroke="#8888ff" stroke-width="2" fill="none"></path>
  </g>
  <g transform="translate(41.99730023544953 57.40127893985016) rotate(0 17.424999237060547 10)">
    <text x="17.424999237060547" y="14.016" fill="#8888ff" text-anchor="middle" style="white-space: pre;" direction="ltr" dominant-baseline="alphabetic">Peer</text>
  </g>
  <g stroke-linecap="round" transform="translate(243.95993195721303 326.4693891095719) rotate(0 49.24081045965045 49.24081045965056)">
    <path d="M67.45 3.11 C74.94 5.35, 82.49 12.52, 87.48 19.2 C92.46 25.89, 96.21 35.11, 97.39 43.21 C98.57 51.31, 97.44 60.19, 94.57 67.8 C91.71 75.41, 86.6 83.81, 80.19 88.87 C73.77 93.93, 64.31 97.03, 56.07 98.15 C47.83 99.28, 38.28 98.81, 30.75 95.62 C23.21 92.43, 15.9 85.53, 10.86 79.01 C5.82 72.49, 1.83 64.59, 0.5 56.5 C-0.84 48.42, -0.18 38.12, 2.84 30.48 C5.86 22.85, 11.85 15.55, 18.6 10.7 C25.36 5.84, 34.77 2.2, 43.38 1.35 C52 0.49, 65.4 4.8, 70.29 5.57 C75.19 6.33, 73.2 5.45, 72.76 5.92 M54.22 0.31 C62.17 0.32, 72.39 4.06, 79.06 9.06 C85.74 14.06, 90.87 22.61, 94.27 30.31 C97.67 38.01, 100.5 47.17, 99.45 55.27 C98.39 63.36, 92.95 72.37, 87.95 78.87 C82.95 85.37, 76.85 90.88, 69.46 94.27 C62.06 97.66, 51.7 99.95, 43.58 99.23 C35.46 98.51, 27.39 94.98, 20.74 89.93 C14.08 84.87, 7.28 76.71, 3.67 68.9 C0.05 61.09, -1.79 51.06, -0.97 43.06 C-0.15 35.06, 3.38 27.52, 8.6 20.92 C13.81 14.33, 22.7 7.1, 30.32 3.49 C37.93 -0.12, 50.38 -0.36, 54.29 -0.74 C58.21 -1.12, 53.64 0.03, 53.8 1.19" stroke="#8888ff" stroke-width="2" fill="none"></path>
  </g>
  <g transform="translate(275.95723219266256 365.8916885820821) rotate(0 17.424999237060547 10)">
    <text x="17.424999237060547" y="14.016" fill="#8888ff" text-anchor="middle" style="white-space: pre;" direction="ltr" dominant-baseline="alphabetic">Peer</text>
  </g>
  <g stroke-linecap="round" transform="translate(460.12525860906544 10) rotate(0 49.24081045965045 49.24081045965056)">
    <path d="M34.52 2.6 C41.88 -0.35, 52.2 -0.72, 60.44 1.2 C68.67 3.12, 77.88 8.44, 83.93 14.12 C89.97 19.8, 94.44 27.4, 96.68 35.29 C98.92 43.18, 99.19 53.57, 97.35 61.48 C95.5 69.39, 91.27 76.81, 85.61 82.74 C79.94 88.68, 71.46 94.72, 63.36 97.11 C55.25 99.5, 45.06 99.03, 36.98 97.08 C28.89 95.14, 20.57 90.92, 14.87 85.44 C9.17 79.96, 5.04 72.01, 2.77 64.21 C0.51 56.41, -0.59 46.92, 1.28 38.64 C3.15 30.35, 7.85 20.9, 14 14.51 C20.14 8.12, 33.37 2.53, 38.16 0.29 C42.95 -1.95, 42.39 0.26, 42.72 1.09 M48.01 0.35 C55.98 -0.36, 67.24 2.28, 74.36 6.19 C81.49 10.1, 86.59 16.86, 90.77 23.83 C94.94 30.8, 99.1 39.62, 99.42 48.01 C99.73 56.4, 96.59 66.69, 92.66 74.15 C88.72 81.6, 82.9 88.62, 75.78 92.74 C68.66 96.86, 58.54 98.96, 49.93 98.86 C41.31 98.76, 31.47 95.95, 24.11 92.14 C16.75 88.32, 9.74 83.03, 5.78 75.96 C1.82 68.9, 0.45 58.36, 0.36 49.75 C0.26 41.15, 1.52 31.48, 5.22 24.34 C8.91 17.21, 15.23 10.82, 22.51 6.93 C29.79 3.04, 44.75 1.89, 48.91 0.98 C53.07 0.07, 47.4 0.65, 47.46 1.46" stroke="#8888ff" stroke-width="2" fill="none"></path>
  </g>
  <g transform="translate(492.12255884451497 49.42229947251019) rotate(0 17.424999237060547 10)">
    <text x="17.424999237060547" y="14.016" fill="#8888ff" text-anchor="middle" style="white-space: pre;" direction="ltr" dominant-baseline="alphabetic">Peer</text>
  </g>
  <g stroke-linecap="round" transform="translate(158.85098471674928 89.02151148082146) rotate(0 47.997148734979646 45.68939014702187)">
    <path d="M61.74 2.33 C69.91 3.86, 78.44 9.23, 84.09 15.41 C89.73 21.59, 94.21 31.33, 95.61 39.39 C97.02 47.45, 96.03 56.25, 92.52 63.77 C89.01 71.28, 82 79.88, 74.55 84.47 C67.1 89.06, 56.55 91.25, 47.81 91.32 C39.06 91.39, 29.14 89.08, 22.07 84.89 C14.99 80.69, 8.96 73.52, 5.34 66.14 C1.71 58.77, -0.74 49.08, 0.34 40.62 C1.42 32.15, 6.34 21.92, 11.83 15.35 C17.32 8.77, 24.61 3.39, 33.28 1.18 C41.95 -1.02, 58.36 1.7, 63.85 2.11 C69.34 2.52, 66.54 2.82, 66.23 3.62 M36.14 1.82 C43.8 -1, 53 -0.35, 61.22 1.97 C69.44 4.29, 79.67 9.3, 85.45 15.74 C91.22 22.18, 94.67 32.2, 95.86 40.63 C97.05 49.06, 96.36 58.97, 92.61 66.31 C88.87 73.66, 81.1 80.55, 73.39 84.69 C65.67 88.84, 55.13 91.07, 46.31 91.16 C37.49 91.25, 27.42 89.77, 20.45 85.23 C13.49 80.69, 8.01 71.84, 4.54 63.93 C1.07 56.02, -1.39 45.85, -0.37 37.75 C0.65 29.66, 4.7 21.21, 10.66 15.37 C16.63 9.53, 31.5 4.77, 35.43 2.73 C39.36 0.68, 33.96 2.38, 34.22 3.1" stroke="#ffa083" stroke-width="2" fill="none"></path>
  </g>
  <g transform="translate(185.9715241036056 114.9036240266064) rotate(0 20.9375 20)">
    <text x="20.9375" y="14.016" fill="#ffa083" text-anchor="middle" style="white-space: pre;" direction="ltr" dominant-baseline="alphabetic">Tor</text>
    <text x="20.9375" y="34.016" fill="#ffa083" text-anchor="middle" style="white-space: pre;" direction="ltr" dominant-baseline="alphabetic">Relay</text>
  </g>
  <g stroke-linecap="round">
    <g transform="translate(103.9523525193922 94.97506807501793) rotate(0 20.754503275990828 10.930892542754407)">
      <path d="M-0.17 1.02 C6.77 4.76, 35.33 18.65, 42.3 22.16 M-1.72 0.51 C5.08 3.89, 34.65 16.36, 41.76 20.2" stroke="#8888ff" stroke-width="2" fill="none"></path>
    </g>
  </g>
  <mask></mask>
  <g stroke-linecap="round">
    <g transform="translate(404.3643613584163 91.93165333194588) rotate(0 24.60424194583311 -6.782557003275258)">
      <path d="M0.36 0.14 C8.58 -2.18, 41.05 -11.22, 49.27 -13.45 M-0.12 -0.27 C8.05 -2.52, 40.59 -12.05, 48.87 -14.36" stroke="#8888ff" stroke-width="2" fill="none"></path>
    </g>
  </g>
  <mask></mask>
  <g stroke-linecap="round">
    <g transform="translate(300.8403991662567 312.49757029904686) rotate(0 1.0673190615093517 -9.743473163811188)">
      <path d="M0.06 0.11 C0.43 -3.1, 2.27 -15.9, 2.59 -19.16 M-0.57 -0.3 C-0.26 -3.69, 2.04 -16.87, 2.39 -19.96" stroke="#8888ff" stroke-width="2" fill="none"></path>
    </g>
  </g>
  <mask></mask>
  <g stroke-linecap="round" transform="translate(295.6899290929523 59.43611403464308) rotate(0 47.997148734979646 45.68939014702187)">
    <path d="M31.98 2.24 C39.61 -0.81, 51.4 -0.93, 59.8 1.05 C68.21 3.04, 76.45 8.08, 82.41 14.13 C88.37 20.19, 93.74 29.09, 95.56 37.38 C97.38 45.66, 96.56 56.21, 93.33 63.84 C90.11 71.46, 83.49 78.58, 76.22 83.14 C68.96 87.7, 58.52 90.82, 49.74 91.2 C40.96 91.57, 30.88 89.51, 23.56 85.38 C16.24 81.25, 9.86 73.82, 5.82 66.41 C1.79 58.99, -1.46 49.21, -0.65 40.89 C0.16 32.57, 4.78 23, 10.69 16.51 C16.59 10.01, 30.37 4.43, 34.79 1.93 C39.21 -0.57, 36.93 0.7, 37.2 1.5 M69.52 3.99 C76.97 6.78, 85.84 15.52, 90.07 22.7 C94.3 29.88, 95.65 38.66, 94.91 47.08 C94.16 55.5, 90.71 66.13, 85.61 73.24 C80.51 80.34, 72.33 86.87, 64.31 89.69 C56.29 92.51, 45.62 91.86, 37.48 90.15 C29.34 88.43, 21.3 84.95, 15.47 79.41 C9.63 73.87, 4.74 64.84, 2.45 56.91 C0.17 48.98, -1.03 39.62, 1.75 31.82 C4.53 24.02, 12.15 15.54, 19.13 10.11 C26.11 4.68, 35.33 0.2, 43.63 -0.74 C51.92 -1.68, 64.75 3.36, 68.89 4.49 C73.02 5.62, 68.47 5.04, 68.44 6.03" stroke="#ffa083" stroke-width="2" fill="none"></path>
  </g>
  <g transform="translate(322.8104684798086 85.31822658042802) rotate(0 20.9375 20)">
    <text x="20.9375" y="14.016" fill="#ffa083" text-anchor="middle" style="white-space: pre;" direction="ltr" dominant-baseline="alphabetic">Tor</text>
    <text x="20.9375" y="34.016" fill="#ffa083" text-anchor="middle" style="white-space: pre;" direction="ltr" dominant-baseline="alphabetic">Relay</text>
  </g>
  <g stroke-linecap="round" transform="translate(250.64668144360576 187.3589373587863) rotate(0 47.997148734979646 45.68939014702187)">
    <path d="M67.65 4.55 C75.17 7.15, 83.29 13.87, 88.08 20.65 C92.87 27.43, 96.31 36.83, 96.4 45.24 C96.49 53.64, 93.37 64.17, 88.62 71.06 C83.87 77.95, 75.86 83.21, 67.9 86.58 C59.93 89.95, 49.39 92.33, 40.82 91.28 C32.26 90.23, 23.15 85.9, 16.51 80.28 C9.87 74.65, 3.42 65.64, 0.98 57.52 C-1.46 49.41, -0.64 39.45, 1.86 31.59 C4.37 23.73, 9.55 15.41, 16.02 10.35 C22.5 5.29, 31.02 1.78, 40.71 1.25 C50.4 0.72, 67.64 5.51, 74.16 7.17 C80.68 8.84, 80.33 10.6, 79.84 11.27 M41.76 -0.79 C49.66 -2.42, 60.67 -0.54, 68.63 2.97 C76.58 6.47, 84.76 13.18, 89.49 20.24 C94.23 27.31, 97.08 36.96, 97.04 45.34 C97 53.72, 94.01 63.54, 89.23 70.52 C84.45 77.51, 76.3 83.96, 68.35 87.26 C60.4 90.57, 50.1 91.35, 41.53 90.34 C32.97 89.34, 23.47 86.61, 16.96 81.25 C10.46 75.89, 5.07 66.45, 2.49 58.17 C-0.09 49.9, -0.71 39.34, 1.5 31.61 C3.71 23.89, 9.2 17.27, 15.74 11.83 C22.28 6.38, 36.37 0.86, 40.74 -1.05 C45.11 -2.96, 41.7 -0.87, 41.98 0.37" stroke="#ffa083" stroke-width="2" fill="none"></path>
  </g>
  <g transform="translate(277.76722083046207 213.24104990457118) rotate(0 20.9375 20)">
    <text x="20.9375" y="14.016" fill="#ffa083" text-anchor="middle" style="white-space: pre;" direction="ltr" dominant-baseline="alphabetic">Tor</text>
    <text x="20.9375" y="34.016" fill="#ffa083" text-anchor="middle" style="white-space: pre;" direction="ltr" dominant-baseline="alphabetic">Relay</text>
  </g>
  <g stroke-linecap="round">
    <g transform="translate(264.5509668975001 117.26276698181437) rotate(0 11.617632317859488 -2.1679597137701876)">
      <path d="M0.31 0.38 C4.18 -0.29, 19.54 -3.39, 23.44 -4.25 M-0.2 0.1 C3.6 -0.45, 19.15 -2.75, 23.12 -3.5" stroke="#ffa083" stroke-width="2" fill="none"></path>
    </g>
  </g>
  <mask></mask>
  <g stroke-linecap="round">
    <g transform="translate(255.18190619558663 169.66050724295633) rotate(0 6.569672534478286 6.4982404660564725)">
      <path d="M0 -0.11 C2.11 1.89, 10.8 10.38, 12.99 12.54 M-0.66 -0.64 C1.34 1.64, 10.24 10.66, 12.48 13.01" stroke="#ffa083" stroke-width="2" fill="none"></path>
    </g>
  </g>
  <mask></mask>
  <g stroke-linecap="round">
    <g transform="translate(325.1159534091057 179.31113752337114) rotate(0 3.8664573842822847 -11.43044409157892)">
      <path d="M0.44 -0.53 C1.63 -4.27, 6.31 -18.91, 7.52 -22.55 M0 0.39 C1.07 -3.5, 5.76 -19.42, 6.98 -23.36" stroke="#ffa083" stroke-width="2" fill="none"></path>
    </g>
  </g>
  <mask></mask>
</svg>
