<svg xmlns="http://www.w3.org/2000/svg" version="1.1" viewBox="0 0 599.2362879299221 443.05879460575545" width="599.2362879299221" height="443.05879460575545">
  <defs>
    <style>
      @import url("/assets/css/fonts.css");
      svg { font-size: 16px; font-family: "Inter", sans-serif; }
    </style>
  </defs>
  <g stroke-linecap="round" transform="translate(10.000000000000227 26.086764044222264) rotate(0 49.24081045965056 49.24081045965056)">
    <path d="M60.59 0.71 C68.35 1.87, 77.18 7.44, 83.19 13.46 C89.19 19.47, 94.19 28.85, 96.62 36.82 C99.05 44.79, 99.75 53.47, 97.77 61.27 C95.79 69.07, 90.75 77.84, 84.72 83.61 C78.7 89.39, 69.64 93.82, 61.64 95.95 C53.65 98.07, 44.42 98.18, 36.74 96.36 C29.07 94.54, 21.36 90.53, 15.61 85.01 C9.85 79.49, 4.45 71.11, 2.22 63.25 C-0.01 55.39, 0.11 45.97, 2.23 37.86 C4.35 29.75, 9.3 20.65, 14.95 14.59 C20.6 8.52, 27.27 3.16, 36.15 1.47 C45.03 -0.23, 62.16 3.28, 68.22 4.42 C74.29 5.56, 72.8 7.65, 72.54 8.32 M58.32 2.43 C66.05 3.19, 76.61 6.69, 82.89 12.02 C89.18 17.35, 93.75 26.34, 96.05 34.41 C98.35 42.49, 98.37 52.72, 96.71 60.48 C95.04 68.24, 91.12 75.11, 86.06 80.95 C81 86.8, 74.24 92.73, 66.36 95.57 C58.49 98.42, 47.25 99.41, 38.81 98.03 C30.37 96.65, 21.79 92.63, 15.71 87.3 C9.62 81.97, 4.95 74.24, 2.31 66.06 C-0.32 57.87, -1.78 46.27, -0.09 38.19 C1.6 30.11, 6.91 23.34, 12.45 17.56 C17.99 11.79, 25.4 6.19, 33.17 3.52 C40.94 0.86, 54.75 1.95, 59.07 1.57 C63.39 1.19, 59.29 0.74, 59.1 1.24" stroke="#8888ff" stroke-width="2" fill="none"></path>
  </g>
  <g transform="translate(41.99730023544976 65.50906351673245) rotate(0 17.424999237060547 10)">
    <text x="17.424999237060547" y="14.016" fill="#8888ff" text-anchor="middle" style="white-space: pre;" direction="ltr" dominant-baseline="alphabetic">Peer</text>
  </g>
  <g stroke-linecap="round" transform="translate(243.95993195721303 334.57717368645433) rotate(0 49.24081045965056 49.24081045965056)">
    <path d="M43.4 1.25 C51.05 -0.48, 61.3 0.48, 69.06 3.59 C76.82 6.7, 85.17 13.14, 89.96 19.92 C94.74 26.7, 97.15 35.95, 97.77 44.28 C98.39 52.6, 96.94 62.31, 93.68 69.88 C90.41 77.46, 84.8 85.18, 78.16 89.75 C71.52 94.33, 61.96 96.49, 53.84 97.35 C45.72 98.21, 36.88 97.98, 29.44 94.91 C22 91.85, 14.08 85.63, 9.23 78.97 C4.37 72.31, 1.12 63.29, 0.31 54.95 C-0.5 46.6, 1.07 36.61, 4.36 28.9 C7.65 21.18, 11.54 13.31, 20.06 8.66 C28.58 4, 47.89 1.7, 55.49 0.98 C63.08 0.25, 65.95 3.67, 65.63 4.28 M57.98 0.15 C65.72 0.39, 75.69 4.94, 82.07 10.34 C88.45 15.74, 93.85 24.81, 96.26 32.55 C98.66 40.29, 98.05 48.78, 96.5 56.78 C94.96 64.78, 91.98 74.28, 87.01 80.54 C82.04 86.79, 74.75 91.58, 66.7 94.32 C58.66 97.05, 47.13 98.28, 38.74 96.95 C30.34 95.62, 22.08 91.79, 16.33 86.34 C10.57 80.89, 6.71 71.94, 4.21 64.27 C1.7 56.6, -0.16 48.19, 1.31 40.32 C2.78 32.45, 8.01 23.46, 13.02 17.04 C18.04 10.62, 23.86 4.5, 31.39 1.81 C38.92 -0.89, 53.83 1.01, 58.2 0.87 C62.57 0.73, 57.66 0.15, 57.61 0.98" stroke="#8888ff" stroke-width="2" fill="none"></path>
  </g>
  <g transform="translate(275.95723219266256 373.9994731589645) rotate(0 17.424999237060547 10)">
    <text x="17.424999237060547" y="14.016" fill="#8888ff" text-anchor="middle" style="white-space: pre;" direction="ltr" dominant-baseline="alphabetic">Peer</text>
  </g>
  <g stroke-linecap="round" transform="translate(490.754667010621 10) rotate(0 49.24081045965056 49.24081045965056)">
    <path d="M29.28 4.45 C36.15 0.79, 46.87 0.18, 55.14 1.1 C63.41 2.03, 72.51 5.12, 78.89 10 C85.28 14.87, 90.25 22.98, 93.46 30.35 C96.66 37.72, 98.9 46.14, 98.13 54.21 C97.37 62.27, 93.62 71.95, 88.87 78.74 C84.12 85.53, 77.31 91.7, 69.66 94.94 C62.01 98.19, 51.34 99.31, 42.98 98.21 C34.62 97.1, 26.09 93.25, 19.49 88.33 C12.88 83.4, 6.65 75.99, 3.34 68.64 C0.02 61.29, -1.55 52.44, -0.4 44.23 C0.75 36.02, 4.72 26.23, 10.25 19.38 C15.79 12.54, 28.19 6.07, 32.8 3.17 C37.41 0.27, 37.58 1.2, 37.91 1.98 M59.91 2.18 C67.86 2.71, 75.7 6.51, 81.47 11.76 C87.24 17.01, 91.9 26.03, 94.53 33.69 C97.16 41.36, 98.41 49.92, 97.26 57.76 C96.12 65.59, 93.04 74.54, 87.66 80.71 C82.29 86.89, 73.07 92.07, 65.03 94.8 C56.98 97.53, 47.5 98.53, 39.39 97.09 C31.28 95.65, 22.49 91.68, 16.36 86.15 C10.22 80.62, 4.9 71.69, 2.58 63.9 C0.25 56.11, 0.79 47.2, 2.4 39.41 C4 31.62, 7 23.25, 12.2 17.14 C17.39 11.03, 25.53 5.58, 33.56 2.75 C41.6 -0.08, 56.2 0.31, 60.41 0.18 C64.62 0.04, 58.99 0.99, 58.81 1.91" stroke="#8888ff" stroke-width="2" fill="none"></path>
  </g>
  <g transform="translate(522.7519672460705 49.42229947251019) rotate(0 17.424999237060547 10)">
    <text x="17.424999237060547" y="14.016" fill="#8888ff" text-anchor="middle" style="white-space: pre;" direction="ltr" dominant-baseline="alphabetic">Peer</text>
  </g>
  <g stroke-linecap="round" transform="translate(208.39855713103043 72.80594232705675) rotate(0 86.28390923692393 75.41793359559034)">
    <path d="M103.46 0.79 C114.45 1.5, 126.71 7.64, 136.29 13.85 C145.87 20.06, 155.14 29.19, 160.96 38.05 C166.78 46.91, 170 56.83, 171.19 67.01 C172.38 77.19, 171.4 89.37, 168.1 99.14 C164.8 108.9, 159.06 118.06, 151.41 125.62 C143.75 133.17, 132.88 140.33, 122.18 144.48 C111.49 148.64, 99.08 150.45, 87.22 150.56 C75.36 150.66, 61.95 149.34, 51.01 145.12 C40.07 140.9, 29.37 132.97, 21.59 125.23 C13.82 117.49, 7.94 108.13, 4.35 98.67 C0.77 89.22, -1.07 78.72, 0.07 68.5 C1.21 58.29, 5.43 46.51, 11.2 37.39 C16.97 28.27, 25.04 19.66, 34.7 13.79 C44.36 7.93, 56.28 3.95, 69.18 2.2 C82.08 0.44, 103.75 2.51, 112.1 3.26 C120.44 4, 119.73 5.39, 119.23 6.65 M126.44 7.47 C136.94 11.11, 146.79 20.52, 153.84 28.37 C160.88 36.22, 165.76 44.93, 168.7 54.58 C171.64 64.23, 173.26 75.7, 171.48 86.27 C169.71 96.83, 164.39 109.37, 158.05 117.99 C151.7 126.61, 142.91 132.44, 133.4 137.99 C123.9 143.55, 112.63 149.52, 101.01 151.35 C89.4 153.17, 75.48 151.98, 63.72 148.95 C51.96 145.92, 39.26 139.65, 30.43 133.17 C21.6 126.7, 15.7 119.23, 10.73 110.11 C5.76 101, 1.66 88.8, 0.62 78.48 C-0.41 68.16, 0.52 57.48, 4.53 48.18 C8.55 38.89, 16.46 29.83, 24.73 22.74 C33 15.65, 43.16 9.28, 54.18 5.64 C65.19 2, 78.98 0.54, 90.81 0.92 C102.63 1.29, 119.21 6.39, 125.12 7.91 C131.04 9.42, 126.81 8.76, 126.29 10" stroke="#ff80b3" stroke-width="2" fill="none"></path>
  </g>
  <g transform="translate(254.12052980218027 128.3953436541284) rotate(0 40.54999923706055 20)">
    <text x="40.54999923706055" y="14.016" fill="#ff80b3" text-anchor="middle" style="white-space: pre;" direction="ltr" dominant-baseline="alphabetic">Radicle</text>
    <text x="40.54999923706055" y="34.016" fill="#ff80b3" text-anchor="middle" style="white-space: pre;" direction="ltr" dominant-baseline="alphabetic">Seed Node</text>
  </g>
  <g stroke-linecap="round">
    <g transform="translate(106.7188020609808 98.0281862123361) rotate(0 43.591912538837846 16.94084967717174)">
      <path d="M-0.31 1.03 C14.36 6.77, 72.34 28.02, 87.12 33.44 M1.72 0.53 C16.31 6.52, 71.73 29.05, 86.14 34.75" stroke="#8888ff" stroke-width="2" fill="none"></path>
    </g>
  </g>
  <mask></mask>
  <g stroke-linecap="round">
    <g transform="translate(386.79664803349806 123.63134267198359) rotate(0 49.621984908011655 -20.2836074052625)">
      <path d="M-0.27 -0.1 C16.35 -6.81, 83.6 -34.66, 100.33 -41.22 M1.78 -1.2 C18.3 -7.68, 83.61 -33.35, 99.95 -40.03" stroke="#8888ff" stroke-width="2" fill="none"></path>
    </g>
  </g>
  <mask></mask>
  <g stroke-linecap="round">
    <g transform="translate(292.2289649290151 320.3279833495559) rotate(0 0.5967840028920364 -43.26484114071866)">
      <path d="M1.04 -0.62 C1.37 -15.25, 1.08 -72.39, 1.17 -86.62 M0.13 1.67 C0.36 -12.26, 0.06 -70.18, 0.22 -85.13" stroke="#8888ff" stroke-width="2" fill="none"></path>
    </g>
  </g>
</svg>
