<svg xmlns="http://www.w3.org/2000/svg" version="1.1" viewBox="0 0 584.63792804179 603.7325083107335" width="584.63792804179" height="603.7325083107335">
  <defs>
    <style>
      @import url("/assets/css/fonts.css");
      svg { font-size: 16px; font-family: "Inter", sans-serif; }
    </style>
  </defs>
  <g stroke-linecap="round" transform="translate(36.21399090243949 89.18033866906654) rotate(0 256.29680448850263 103.6806465444188)">
    <path d="M0 0 C115.34 0, 230.67 0, 512.59 0 M0 0 C194.76 0, 389.52 0, 512.59 0 M512.59 0 C512.59 63.96, 512.59 127.93, 512.59 207.36 M512.59 0 C512.59 74.28, 512.59 148.56, 512.59 207.36 M512.59 207.36 C312.31 207.36, 112.03 207.36, 0 207.36 M512.59 207.36 C364.19 207.36, 215.78 207.36, 0 207.36 M0 207.36 C0 144.5, 0 81.63, 0 0 M0 207.36 C0 150.74, 0 94.11, 0 0" stroke="#cc6666" stroke-width="2" fill="none"/>
  </g>
  <g stroke-linecap="round" transform="translate(62.272004343533354 176.8903011012392) rotate(0 102.83593272276357 44.23050862605392)">
    <path d="M0 0 L205.67 0 L205.67 88.46 L0 88.46" stroke="none" stroke-width="0" fill="#cc6666"/>
    <path d="M0 0 C41.73 0, 83.45 0, 205.67 0 M0 0 C75.35 0, 150.69 0, 205.67 0 M205.67 0 C205.67 19.47, 205.67 38.94, 205.67 88.46 M205.67 0 C205.67 34.4, 205.67 68.8, 205.67 88.46 M205.67 88.46 C134.34 88.46, 63 88.46, 0 88.46 M205.67 88.46 C145.78 88.46, 85.88 88.46, 0 88.46 M0 88.46 C0 68.71, 0 48.96, 0 0 M0 88.46 C0 59.07, 0 29.68, 0 0" stroke="transparent" stroke-width="2" fill="none"/>
  </g>
  <g transform="translate(126.97043630335747 211.92080972729315) rotate(0 38.13750076293945 9.199999999999989)">
    <text x="38.13750076293945" y="0" fill="#ffffff" text-anchor="middle" style="white-space: pre;" direction="ltr" dominant-baseline="text-before-edge">Repository</text>
  </g>
  <g stroke-linecap="round" transform="translate(284.53031055079737 176.8903011012392) rotate(0 102.83593272276357 43.677627267329584)">
    <path d="M0 0 L205.67 0 L205.67 87.36 L0 87.36" stroke="none" stroke-width="0" fill="#cc6666"/>
    <path d="M0 0 C45.9 0, 91.81 0, 205.67 0 M0 0 C46.49 0, 92.98 0, 205.67 0 M205.67 0 C205.67 21.92, 205.67 43.84, 205.67 87.36 M205.67 0 C205.67 26.17, 205.67 52.34, 205.67 87.36 M205.67 87.36 C137.22 87.36, 68.76 87.36, 0 87.36 M205.67 87.36 C151.16 87.36, 96.66 87.36, 0 87.36 M0 87.36 C0 57.99, 0 28.63, 0 0 M0 87.36 C0 67.86, 0 48.37, 0 0" stroke="transparent" stroke-width="2" fill="none"/>
  </g>
  <g transform="translate(349.2287425106215 211.3679283685688) rotate(0 38.13750076293945 9.199999999999989)">
    <text x="38.13750076293945" y="0" fill="#ffffff" text-anchor="middle" style="white-space: pre;" direction="ltr" dominant-baseline="text-before-edge">Repository</text>
  </g>
  <g transform="translate(62.272003800575476 114.4692318608763) rotate(0 49.23749923706055 9.200000000000003)">
    <text x="0" y="0" fill="#cc6666" text-anchor="start" style="white-space: pre;" direction="ltr" dominant-baseline="text-before-edge">Local Storage</text>
  </g>
  <g stroke-linecap="round" transform="translate(506.7886165197956 176.8903011012392) rotate(0 21.009491631532455 43.677627267329555)">
    <path d="M0 0 L42.02 0 L42.02 87.36 L0 87.36" stroke="none" stroke-width="0" fill="#cc6666"/>
    <path d="M0 0 C16.56 0, 33.11 0, 42.02 0 M0 0 C14.97 0, 29.95 0, 42.02 0 M42.02 0 C42.02 22.37, 42.02 44.75, 42.02 87.36 M42.02 0 C42.02 27.72, 42.02 55.43, 42.02 87.36 M42.02 87.36 C29.27 87.36, 16.53 87.36, 0 87.36 M42.02 87.36 C28.44 87.36, 14.87 87.36, 0 87.36 M0 87.36 C0 65.99, 0 44.62, 0 0 M0 87.36 C0 64.31, 0 41.26, 0 0" stroke="transparent" stroke-width="2" fill="none"/>
  </g>
  <g stroke-linecap="round" transform="translate(62.27200421333055 453.0162762609689) rotate(0 102.83593272276357 49.8366924565654)">
    <path d="M0 0 C62.68 0, 125.36 0, 205.67 0 M0 0 C44.6 0, 89.21 0, 205.67 0 M205.67 0 C205.67 32.54, 205.67 65.07, 205.67 99.67 M205.67 0 C205.67 24.58, 205.67 49.16, 205.67 99.67 M205.67 99.67 C135.69 99.67, 65.71 99.67, 0 99.67 M205.67 99.67 C164.24 99.67, 122.81 99.67, 0 99.67 M0 99.67 C0 74.76, 0 49.85, 0 0 M0 99.67 C0 74.55, 0 49.42, 0 0" stroke="#cc6666" stroke-width="2" fill="none"/>
  </g>
  <g transform="translate(135.98293693609412 484.4529687175343) rotate(0 29.125 18.399999999999977)">
    <text x="29.125" y="0" fill="#cc6666" text-anchor="middle" style="white-space: pre;" direction="ltr" dominant-baseline="text-before-edge">Working</text>
    <text x="29.125" y="18.4" fill="#cc6666" text-anchor="middle" style="white-space: pre;" direction="ltr" dominant-baseline="text-before-edge">Copy</text>
  </g>
  <g stroke-linecap="round" transform="translate(284.5303112266156 453.01627687035796) rotate(0 102.83593272276357 49.8366922344419)">
    <path d="M0 0 C64.42 0, 128.85 0, 205.67 0 M0 0 C53.08 0, 106.16 0, 205.67 0 M205.67 0 C205.67 20.49, 205.67 40.99, 205.67 99.67 M205.67 0 C205.67 22.78, 205.67 45.57, 205.67 99.67 M205.67 99.67 C128.41 99.67, 51.14 99.67, 0 99.67 M205.67 99.67 C162.33 99.67, 118.98 99.67, 0 99.67 M0 99.67 C0 61.81, 0 23.95, 0 0 M0 99.67 C0 61.92, 0 24.17, 0 0" stroke="#cc6666" stroke-width="2" fill="none"/>
  </g>
  <g transform="translate(358.24124394937917 484.4529691047999) rotate(0 29.125 18.399999999999977)">
    <text x="29.125" y="0" fill="#cc6666" text-anchor="middle" style="white-space: pre;" direction="ltr" dominant-baseline="text-before-edge">Working</text>
    <text x="29.125" y="18.4" fill="#cc6666" text-anchor="middle" style="white-space: pre;" direction="ltr" dominant-baseline="text-before-edge">Copy</text>
  </g>
  <g mask="url(#mask-T6BDWh6j4ZmaAEnRs0YZ9)" stroke-linecap="round">
    <g transform="translate(165.10793678374694 452.0162762609689) rotate(0 0 -91.2237868536044)">
      <path d="M0 0 C0 -28.95, 0 -57.89, 0 -77.8 M0 0 C0 -19.62, 0 -39.24, 0 -77.8 M0 -77.8 C0 -109.51, 0 -141.23, 0 -182.45 M0 -77.8 C0 -102.54, 0 -127.28, 0 -182.45" stroke="#cc6666" stroke-width="1" fill="none"/>
    </g>
    <g transform="translate(165.10793678374694 452.0162762609689) rotate(0 0 -91.2237868536044)">
      <path d="M0 -182.45 L6.34 -168.85 L-6.34 -168.85 L0 -182.45" stroke="none" stroke-width="0" fill="#cc6666" fill-rule="evenodd"/>
      <path d="M0 -182.45 C2.36 -177.39, 4.72 -172.33, 6.34 -168.85 M0 -182.45 C1.6 -179.02, 3.2 -175.59, 6.34 -168.85 M6.34 -168.85 C2.5 -168.85, -1.35 -168.85, -6.34 -168.85 M6.34 -168.85 C3.34 -168.85, 0.34 -168.85, -6.34 -168.85 M-6.34 -168.85 C-3.98 -173.91, -1.63 -178.96, 0 -182.45 M-6.34 -168.85 C-3.9 -174.09, -1.45 -179.33, 0 -182.45 M0 -182.45 C0 -182.45, 0 -182.45, 0 -182.45 M0 -182.45 C0 -182.45, 0 -182.45, 0 -182.45" stroke="#cc6666" stroke-width="1" fill="none"/>
    </g>
  </g>
  <mask id="mask-T6BDWh6j4ZmaAEnRs0YZ9">
    <rect x="0" y="0" fill="#fff" width="265.10793678374694" height="734.4638499681777"/>
    <rect x="147.8079375466864" y="365.0211365577122" fill="#000" width="34.599998474121094" height="18.4" opacity="1"/>
  </mask>
  <g transform="translate(147.8079375466864 365.0211365577123) rotate(0 17.299999237060547 -4.228647150347797)">
    <text x="17.299999237060547" y="0" fill="#cc6666" text-anchor="middle" style="white-space: pre;" direction="ltr" dominant-baseline="text-before-edge">push</text>
  </g>
  <g mask="url(#mask-iq1SBTW31kyu6R1UNUpVo)" stroke-linecap="round">
    <g transform="translate(387.3662432735605 263.29563731190547) rotate(0 0 92.38023798350207)">
      <path d="M0 0 C0 32.19, 0 64.38, 0 110.93 M0 0 C0 44.06, 0 88.12, 0 110.93 M0 110.93 C0 126.65, 0 142.38, 0 184.76 M0 110.93 C0 127.33, 0 143.73, 0 184.76" stroke="#cc6666" stroke-width="1" fill="none"/>
    </g>
    <g transform="translate(387.3662432735605 263.29563731190547) rotate(0 0 92.38023798350207)">
      <path d="M0 184.76 L-6.34 171.17 L6.34 171.17 L0 184.76" stroke="none" stroke-width="0" fill="#cc6666" fill-rule="evenodd"/>
      <path d="M0 184.76 C-1.84 180.82, -3.68 176.87, -6.34 171.17 M0 184.76 C-2.52 179.36, -5.04 173.96, -6.34 171.17 M-6.34 171.17 C-3.64 171.17, -0.94 171.17, 6.34 171.17 M-6.34 171.17 C-3.52 171.17, -0.71 171.17, 6.34 171.17 M6.34 171.17 C4.64 174.82, 2.94 178.47, 0 184.76 M6.34 171.17 C4.37 175.39, 2.4 179.61, 0 184.76 M0 184.76 C0 184.76, 0 184.76, 0 184.76 M0 184.76 C0 184.76, 0 184.76, 0 184.76" stroke="#cc6666" stroke-width="1" fill="none"/>
    </g>
  </g>
  <mask id="mask-iq1SBTW31kyu6R1UNUpVo">
    <rect x="0" y="0" fill="#fff" width="487.3662432735605" height="548.0561132789096"/>
    <rect x="374.9412430828256" y="365.0211365577122" fill="#000" width="24.850000381469727" height="18.4" opacity="1"/>
  </mask>
  <g transform="translate(374.9412430828256 365.0211365577123) rotate(0 12.425000190734863 -9.345261262304689)">
    <text x="12.425000190734863" y="0" fill="#cc6666" text-anchor="middle" style="white-space: pre;" direction="ltr" dominant-baseline="text-before-edge">pull</text>
  </g>
  <g stroke-linecap="round" transform="translate(10 10) rotate(0 282.318964020895 291.86625415536673)">
    <path d="M0 0 C201.06 0, 402.12 0, 564.64 0 M564.64 0 C564.64 127.56, 564.64 255.11, 564.64 583.73 M564.64 583.73 C392 583.73, 219.37 583.73, 0 583.73 M0 583.73 C0 438.15, 0 292.57, 0 0" stroke="#8888ff" stroke-width="2.5" fill="none" stroke-dasharray="8 10"/>
  </g>
  <g transform="translate(35.83378166044122 37.655395980126286) rotate(0 19.075000762939453 9.200000000000003)">
    <text x="0" y="0" fill="#8888ff" text-anchor="start" style="white-space: pre;" direction="ltr" dominant-baseline="text-before-edge">Node</text>
  </g>
  <g transform="translate(66.76752242426846 160.97688007006667) rotate(0 93.97947929276734 5.848018388617973)">
    <text x="0" y="0" fill="#cc6666" text-anchor="start" font-size="10px" style="white-space: pre;" direction="ltr" dominant-baseline="text-before-edge">rad:z3gqcJUoA1n9HaHKufZs5FCSGazv5</text>
  </g>
  <g transform="translate(284.5303112886372 160.9768802531607) rotate(0 94.4625015258789 5.848018388617973)">
    <text x="0" y="0" fill="#cc6666" text-anchor="start" font-size="10px" style="white-space: pre;" direction="ltr" dominant-baseline="text-before-edge">rad:z2ATVRDqFu2Yq2MG5ZZCWecwSDYqj</text>
  </g>
</svg>
